<?xml version="1.0" encoding="utf-8"?>
<!-- Generator: Adobe Illustrator 25.0.1, SVG Export Plug-In . SVG Version: 6.00 Build 0)  -->
<svg version="1.1" id="Layer_1" xmlns="http://www.w3.org/2000/svg" xmlns:xlink="http://www.w3.org/1999/xlink" x="0px" y="0px"
	 viewBox="0 0 200 200" style="enable-background:new 0 0 200 200;" xml:space="preserve">
<style type="text/css">
	.st0{fill:#5ABE26;}
	.st1{fill:none;}
</style>
<g>
	<g>
		<g>
			<path class="st0" d="M8.7,121.8c0.2,0.1,0.5,0.1,0.6,0.3c0.1,0.1,0,0.3-0.1,0.2c-0.3,0-0.5-0.2-0.7-0.3
				C8.3,122,8.5,121.8,8.7,121.8L8.7,121.8z"/>
		</g>
		<g>
			<path class="st0" d="M7.6,119.2c1.1,0.5,2.3,1,3.4,1.6c0.2,0.1,0,0.4-0.2,0.3c-1.2-0.5-2.3-1.1-3.4-1.7
				C7.3,119.3,7.5,119.1,7.6,119.2L7.6,119.2z"/>
		</g>
		<g>
			<path class="st0" d="M6.9,117.8c1.7,0.6,3.5,1.3,5.2,2c0.2,0.1,0,0.4-0.2,0.3c-1.7-0.6-3.5-1.3-5.2-2.1
				C6.6,117.9,6.7,117.8,6.9,117.8L6.9,117.8z"/>
		</g>
		<g>
			<path class="st0" d="M8.1,115.8c1.7,0.7,3.4,1.5,5,2.3c0.2,0.1,0,0.4-0.2,0.3c-1.7-0.8-3.4-1.5-5-2.4
				C7.8,115.9,7.9,115.7,8.1,115.8L8.1,115.8z"/>
		</g>
		<g>
			<path class="st0" d="M8.5,115.1c0.2,0.1,0.5,0.1,0.7,0.3c0.1,0.1,0,0.2-0.1,0.2c-0.3,0-0.5-0.2-0.7-0.3
				C8.2,115.3,8.3,115.1,8.5,115.1L8.5,115.1z"/>
		</g>
		<g>
			<path class="st0" d="M9.8,115.7c1.2,0.5,2.4,1,3.6,1.5c0.2,0.1,0,0.4-0.2,0.3c-1.2-0.5-2.4-1.1-3.6-1.6
				C9.6,115.8,9.7,115.6,9.8,115.7L9.8,115.7z"/>
		</g>
		<g>
			<path class="st0" d="M8.8,114.4c0.6,0.2,1.1,0.4,1.6,0.6c0.5,0.2,1,0.3,1.4,0.6c0.1,0.1,0,0.3-0.1,0.2c-0.5-0.1-1-0.4-1.5-0.6
				c-0.5-0.2-1.1-0.5-1.6-0.7C8.5,114.6,8.6,114.4,8.8,114.4L8.8,114.4z"/>
		</g>
		<g>
			<path class="st0" d="M12.6,116c0.4,0.2,0.9,0.3,1.3,0.5c0.1,0.1,0.1,0.3-0.1,0.3c-0.5-0.1-0.9-0.4-1.3-0.6
				C12.3,116.2,12.4,116,12.6,116L12.6,116z"/>
		</g>
		<g>
			<path class="st0" d="M9.1,113.7c1.7,0.6,3.7,1.1,5.2,2.1c0.1,0.1,0,0.3-0.1,0.3c-1.8-0.6-3.5-1.5-5.2-2.1
				C8.8,113.8,8.9,113.6,9.1,113.7L9.1,113.7z"/>
		</g>
		<g>
			<path class="st0" d="M9.4,112.7c1.7,0.6,3.6,1.2,5.1,2c0.1,0.1,0,0.3-0.1,0.3c-1.8-0.5-3.5-1.3-5.2-2.1
				C9.1,112.9,9.2,112.7,9.4,112.7L9.4,112.7z"/>
		</g>
		<g>
			<path class="st0" d="M9.5,111.9c0.4,0.1,0.9,0.2,1.3,0.4c0.1,0.1,0,0.2-0.1,0.2c-0.5,0-0.9-0.3-1.3-0.4
				C9.3,112.1,9.4,111.9,9.5,111.9L9.5,111.9z"/>
		</g>
		<g>
			<path class="st0" d="M11.9,112.7c0.5,0.2,1,0.3,1.5,0.5c0.5,0.2,1,0.3,1.4,0.6c0.1,0.1,0,0.3-0.1,0.2c-0.5-0.1-1-0.3-1.4-0.5
				c-0.5-0.2-1-0.4-1.5-0.6C11.7,112.9,11.8,112.7,11.9,112.7L11.9,112.7z"/>
		</g>
		<g>
			<path class="st0" d="M10,111c0.6,0.1,1.1,0.3,1.6,0.5c0.5,0.2,1.1,0.4,1.6,0.7c0.1,0.1,0,0.2-0.1,0.2c-0.5-0.1-1-0.4-1.5-0.6
				c-0.6-0.2-1.1-0.4-1.7-0.6C9.7,111.2,9.8,111,10,111L10,111z"/>
		</g>
		<g>
			<path class="st0" d="M14.1,112.6c0.3,0.1,0.6,0.2,0.9,0.3c0.2,0.1,0,0.3-0.1,0.3c-0.3-0.1-0.6-0.2-0.9-0.3
				C13.9,112.8,14,112.5,14.1,112.6L14.1,112.6z"/>
		</g>
		<g>
			<path class="st0" d="M10.4,110.1c1.7,0.6,3.4,1.2,5,1.9c0.2,0.1,0,0.4-0.1,0.3c-1.7-0.5-3.3-1.3-5-2
				C10.1,110.3,10.2,110.1,10.4,110.1L10.4,110.1z"/>
		</g>
		<g>
			<path class="st0" d="M10.8,109.4c0.9,0.3,1.8,0.6,2.6,0.9c0.9,0.3,1.8,0.6,2.6,1c0.1,0.1,0,0.3-0.1,0.3c-0.9-0.2-1.7-0.6-2.5-0.9
				c-0.9-0.3-1.8-0.7-2.7-1.1C10.6,109.6,10.7,109.3,10.8,109.4L10.8,109.4z"/>
		</g>
		<g>
			<path class="st0" d="M11,108.4c0.2,0.1,0.6,0.2,0.7,0.4c0.1,0.1,0,0.2-0.1,0.2c-0.3,0-0.5-0.2-0.8-0.3
				C10.6,108.6,10.8,108.4,11,108.4L11,108.4z"/>
		</g>
		<g>
			<path class="st0" d="M12.4,109.1c0.6,0.2,1.2,0.3,1.8,0.5c0.6,0.2,1.3,0.4,1.9,0.8c0.1,0.1,0.1,0.3-0.1,0.3
				c-0.6-0.1-1.1-0.4-1.6-0.6c-0.7-0.2-1.3-0.5-2-0.7C12.2,109.3,12.3,109,12.4,109.1L12.4,109.1z"/>
		</g>
		<g>
			<path class="st0" d="M11.1,107.7c0.5,0.2,0.9,0.3,1.4,0.5c0.4,0.1,0.9,0.3,1.2,0.5c0.1,0.1,0,0.2-0.1,0.2c-0.4,0-0.9-0.3-1.2-0.4
				c-0.4-0.2-0.9-0.4-1.3-0.6C10.8,107.8,11,107.6,11.1,107.7L11.1,107.7z"/>
		</g>
		<g>
			<path class="st0" d="M14.6,108.9c0.3,0.1,0.7,0.2,1,0.3c0.3,0.1,0.6,0.2,0.9,0.4c0.1,0.1,0,0.2-0.1,0.2c-0.3,0-0.6-0.2-0.9-0.3
				c-0.3-0.1-0.6-0.3-1-0.4C14.4,109,14.5,108.8,14.6,108.9L14.6,108.9z"/>
		</g>
		<g>
			<path class="st0" d="M11.4,106.8c1.8,0.4,3.5,1.1,5.2,1.8c0.2,0.1,0,0.4-0.2,0.3c-1.7-0.6-3.4-1.2-5.1-1.8
				C11.1,107.1,11.2,106.8,11.4,106.8L11.4,106.8z"/>
		</g>
		<g>
			<path class="st0" d="M11.7,106.1c1,0.3,1.9,0.6,2.8,0.9c0.9,0.3,1.9,0.6,2.7,1.2c0.1,0.1,0,0.2-0.1,0.2c-0.8-0.2-1.6-0.6-2.4-0.9
				c-1-0.4-2-0.7-3-1C11.4,106.4,11.5,106,11.7,106.1L11.7,106.1z"/>
		</g>
		<g>
			<path class="st0" d="M12.1,105.3c0.3,0.1,0.6,0.1,0.9,0.3c0.1,0.1,0,0.2-0.1,0.2c-0.3,0-0.6-0.1-0.9-0.2
				C11.8,105.5,12,105.3,12.1,105.3L12.1,105.3z"/>
		</g>
		<g>
			<path class="st0" d="M13.6,105.8c1.2,0.4,2.4,0.7,3.6,1.2c0.1,0.1,0,0.3-0.1,0.3c-1.2-0.3-2.4-0.8-3.6-1.2
				C13.4,106,13.5,105.8,13.6,105.8L13.6,105.8z"/>
		</g>
		<g>
			<path class="st0" d="M12.2,104.5c1.7,0.5,3.6,1,5.2,1.7c0.1,0.1,0,0.3-0.1,0.3c-1.7-0.6-3.4-1.3-5.1-1.8
				C12,104.6,12,104.4,12.2,104.5L12.2,104.5z"/>
		</g>
		<g>
			<path class="st0" d="M12.8,103.8c0.2,0.1,0.5,0.2,0.7,0.2c0.2,0.1,0.5,0.1,0.7,0.2c0.1,0.1,0.1,0.2-0.1,0.2
				c-0.5,0.1-1.1-0.2-1.5-0.4C12.5,104,12.6,103.8,12.8,103.8L12.8,103.8z"/>
		</g>
		<g>
			<path class="st0" d="M15.6,104.8c0.5,0.2,1,0.4,1.4,0.5c0.4,0.1,0.9,0.2,1.3,0.4c0.1,0.1,0.1,0.3-0.1,0.3c-0.5,0-1-0.2-1.4-0.3
				c-0.5-0.2-0.9-0.3-1.4-0.5C15.3,104.9,15.4,104.7,15.6,104.8L15.6,104.8z"/>
		</g>
		<g>
			<path class="st0" d="M12.9,103c0.9,0.2,1.8,0.4,2.6,0.8c0.9,0.4,1.9,0.6,2.8,1c0.1,0.1,0,0.3-0.1,0.3c-0.9,0-1.7-0.5-2.5-0.8
				c-0.9-0.4-1.9-0.8-2.9-1C12.6,103.1,12.7,102.9,12.9,103L12.9,103z"/>
		</g>
		<g>
			<path class="st0" d="M13.1,102c1.8,0.5,3.7,1,5.4,1.8c0.1,0.1,0,0.3-0.1,0.3c-1.8-0.4-3.6-1.2-5.4-1.9
				C12.9,102.2,13,102,13.1,102L13.1,102z"/>
		</g>
		<g>
			<path class="st0" d="M13.4,101.3c0.4,0,0.8,0.1,1.1,0.2c0.3,0.1,0.7,0.1,1,0.3c0.2,0.1,0.1,0.3-0.1,0.3c-0.3,0-0.7-0.2-1-0.3
				c-0.3-0.1-0.7-0.1-1-0.2C13.1,101.6,13.2,101.3,13.4,101.3L13.4,101.3z"/>
		</g>
		<g>
			<path class="st0" d="M16.3,102.1c0.8,0.3,1.6,0.5,2.3,0.9c0.1,0.1,0,0.3-0.1,0.3c-0.8-0.2-1.6-0.6-2.4-0.9
				C16,102.3,16.2,102,16.3,102.1L16.3,102.1z"/>
		</g>
		<g>
			<path class="st0" d="M14.2,100.6c0.1,0,0.2,0,0.3,0c0.1,0,0.1,0.2,0,0.2c-0.1,0-0.2,0-0.3,0C14,100.8,14,100.6,14.2,100.6
				L14.2,100.6z"/>
		</g>
		<g>
			<path class="st0" d="M15.4,100.9c0.7,0.2,1.4,0.4,2.1,0.6c0.6,0.2,1.3,0.3,1.9,0.6c0.1,0.1,0,0.3-0.1,0.3
				c-0.7-0.1-1.4-0.4-2.1-0.6c-0.6-0.2-1.2-0.4-1.9-0.6C15.2,101.1,15.3,100.9,15.4,100.9L15.4,100.9z"/>
		</g>
		<g>
			<path class="st0" d="M13.9,99.5c1,0.3,1.9,0.6,2.9,0.9c0.9,0.3,1.8,0.5,2.6,0.8c0.1,0.1,0,0.2-0.1,0.2c-1-0.1-1.9-0.5-2.8-0.8
				c-0.9-0.3-1.8-0.6-2.7-0.9C13.7,99.7,13.8,99.5,13.9,99.5L13.9,99.5z"/>
		</g>
		<g>
			<path class="st0" d="M14.5,98.9c1.8,0.5,3.7,0.9,5.4,1.6c0.1,0.1,0,0.3-0.1,0.2c-1.8-0.3-3.6-1.1-5.4-1.7
				C14.3,99.1,14.4,98.9,14.5,98.9L14.5,98.9z"/>
		</g>
		<g>
			<path class="st0" d="M14.6,98.1c2,0.5,4,1,5.9,1.7c0.1,0.1,0,0.3-0.1,0.3c-2-0.4-4-1.1-5.9-1.8C14.4,98.2,14.5,98,14.6,98.1
				L14.6,98.1z"/>
		</g>
		<g>
			<path class="st0" d="M14.8,97.1c0.3,0.1,0.6,0.1,0.8,0.3c0.1,0.1,0,0.2-0.1,0.2c-0.3,0-0.5-0.2-0.8-0.3
				C14.6,97.3,14.7,97.1,14.8,97.1L14.8,97.1z"/>
		</g>
		<g>
			<path class="st0" d="M16.4,97.5c1.3,0.2,2.8,0.5,4,1.1c0.1,0.1,0,0.2-0.1,0.2c-1.3-0.2-2.7-0.7-4-1
				C16.2,97.7,16.2,97.5,16.4,97.5L16.4,97.5z"/>
		</g>
		<g>
			<path class="st0" d="M15.1,96.1c1.9,0.5,3.9,0.8,5.7,1.6c0.1,0.1,0,0.3-0.1,0.2c-1.9-0.3-3.8-1-5.6-1.6
				C14.9,96.3,15,96.1,15.1,96.1L15.1,96.1z"/>
		</g>
		<g>
			<path class="st0" d="M15.6,95.3c0.4,0.1,0.9,0.2,1.3,0.3c0.4,0.1,0.9,0.2,1.2,0.4c0.1,0.1,0,0.3-0.1,0.3c-0.4,0-0.9-0.2-1.3-0.3
				c-0.4-0.1-0.8-0.2-1.2-0.4C15.4,95.5,15.4,95.3,15.6,95.3L15.6,95.3z"/>
		</g>
		<g>
			<path class="st0" d="M19,96.3c0.7,0.2,1.4,0.3,2.1,0.7c0.1,0.1,0,0.3-0.1,0.2c-0.7-0.1-1.4-0.4-2.1-0.7
				C18.7,96.5,18.8,96.3,19,96.3L19,96.3z"/>
		</g>
		<g>
			<path class="st0" d="M15.8,94.4c1.9,0.4,3.9,0.7,5.7,1.5c0.1,0.1,0,0.3-0.1,0.3c-1-0.2-1.9-0.5-2.8-0.8c-0.9-0.2-1.9-0.5-2.8-0.7
				C15.6,94.7,15.6,94.4,15.8,94.4L15.8,94.4z"/>
		</g>
		<g>
			<path class="st0" d="M16,93.6c0.2,0.1,0.6,0.1,0.8,0.2c0.1,0.1,0.1,0.2-0.1,0.2c-0.3,0-0.5-0.1-0.8-0.2
				C15.7,93.8,15.8,93.6,16,93.6L16,93.6z"/>
		</g>
		<g>
			<path class="st0" d="M17.5,93.9c0.8,0.1,1.5,0.3,2.3,0.5c0.7,0.2,1.4,0.2,2,0.5c0.1,0,0.1,0.2-0.1,0.2c-0.7,0-1.4-0.3-2.1-0.4
				c-0.8-0.2-1.5-0.3-2.2-0.5C17.2,94.1,17.3,93.8,17.5,93.9L17.5,93.9z"/>
		</g>
		<g>
			<path class="st0" d="M16.3,92.8c0.6,0.1,1.1,0.2,1.7,0.3c0.5,0.1,1,0.2,1.5,0.4c0.1,0.1,0,0.3-0.1,0.3c-0.5,0-1.1-0.2-1.6-0.3
				c-0.5-0.1-1.1-0.2-1.6-0.4C16.1,93,16.1,92.8,16.3,92.8L16.3,92.8z"/>
		</g>
		<g>
			<path class="st0" d="M20.5,93.7c0.6,0.1,1.3,0.2,1.9,0.5c0.1,0,0.1,0.2-0.1,0.2c-0.6,0-1.3-0.3-1.9-0.4
				C20.3,93.9,20.4,93.7,20.5,93.7L20.5,93.7z"/>
		</g>
		<g>
			<path class="st0" d="M16.5,91.9c2,0.4,4.2,0.6,6,1.5c0.1,0.1,0,0.3-0.1,0.2c-2-0.5-4-0.9-5.9-1.5C16.3,92.1,16.3,91.8,16.5,91.9
				L16.5,91.9z"/>
		</g>
		<g>
			<path class="st0" d="M17.3,91c2,0.4,4.1,0.8,6,1.4c0.2,0,0.1,0.3-0.1,0.3c-2-0.3-4-0.9-6-1.4C17.1,91.2,17.1,91,17.3,91L17.3,91z
				"/>
		</g>
		<g>
			<path class="st0" d="M17.3,90.1c0.3,0.1,0.7,0.1,1,0.3c0.1,0.1,0,0.2-0.1,0.2c-0.3,0-0.6-0.1-1-0.2
				C17.1,90.3,17.1,90.1,17.3,90.1L17.3,90.1z"/>
		</g>
		<g>
			<path class="st0" d="M19,90.5c0.7,0.2,1.4,0.3,2.1,0.4c0.6,0.1,1.3,0.2,1.9,0.4c0.1,0.1,0.1,0.3-0.1,0.3c-0.6,0-1.3-0.2-1.9-0.3
				c-0.7-0.2-1.4-0.3-2-0.5C18.8,90.7,18.8,90.5,19,90.5L19,90.5z"/>
		</g>
		<g>
			<path class="st0" d="M17.6,89.2c0.6,0,1.3,0.2,1.9,0.3c0.5,0.1,1.2,0.2,1.6,0.5c0.1,0.1,0,0.2-0.1,0.2c-0.6-0.1-1.1-0.3-1.7-0.5
				c-0.6-0.1-1.2-0.2-1.8-0.3C17.4,89.4,17.4,89.2,17.6,89.2L17.6,89.2z"/>
		</g>
		<g>
			<path class="st0" d="M22.4,90.3c0.5,0.1,1,0.1,1.4,0.3c0.1,0,0,0.2-0.1,0.2c-0.5,0-1-0.1-1.4-0.2C22.1,90.5,22.2,90.3,22.4,90.3
				L22.4,90.3z"/>
		</g>
		<g>
			<path class="st0" d="M18.1,88.3c1.8,0.2,3.7,0.5,5.3,1.2c0.1,0.1,0,0.3-0.1,0.2c-1.8-0.3-3.5-0.9-5.3-1.2
				C17.9,88.5,18,88.3,18.1,88.3L18.1,88.3z"/>
		</g>
		<g>
			<path class="st0" d="M18.2,87.4c2.2,0.1,4.5,0.6,6.5,1.4c0.1,0.1,0,0.3-0.1,0.3c-2.2-0.4-4.2-1.2-6.5-1.5
				C17.9,87.6,18,87.4,18.2,87.4L18.2,87.4z"/>
		</g>
		<g>
			<path class="st0" d="M18.6,86.5c2.2,0.3,4.6,0.7,6.6,1.6c0.1,0.1,0,0.3-0.1,0.3c-2.2-0.5-4.4-1.2-6.6-1.6
				C18.4,86.7,18.5,86.5,18.6,86.5L18.6,86.5z"/>
		</g>
		<g>
			<path class="st0" d="M18.9,85.5c2.1,0.5,4.3,0.9,6.4,1.5c0.2,0,0.1,0.3-0.1,0.3c-2.2-0.3-4.3-1-6.4-1.5
				C18.7,85.7,18.7,85.5,18.9,85.5L18.9,85.5z"/>
		</g>
		<g>
			<path class="st0" d="M19.2,84.5c0.2,0.1,0.3,0.1,0.5,0.1c0.1,0,0.3,0,0.4,0.1c0.1,0.1,0.1,0.2,0,0.3c-0.4,0.1-0.7-0.1-1-0.2
				C18.9,84.7,19,84.5,19.2,84.5L19.2,84.5z"/>
		</g>
		<g>
			<path class="st0" d="M20.9,85c0.7,0.2,1.5,0.5,2.2,0.7c0.7,0.2,1.4,0.3,2.1,0.5c0.1,0,0.1,0.3-0.1,0.2c-0.7,0-1.5-0.3-2.2-0.5
				c-0.7-0.2-1.4-0.4-2.1-0.7C20.7,85.2,20.8,85,20.9,85L20.9,85z"/>
		</g>
		<g>
			<path class="st0" d="M19.2,83.8c2,0.3,4.3,0.8,6.1,1.6c0.1,0.1,0,0.3-0.1,0.3c-1-0.2-2-0.6-3-0.8c-1-0.3-2.1-0.5-3.1-0.8
				C19,84,19.1,83.8,19.2,83.8L19.2,83.8z"/>
		</g>
		<g>
			<path class="st0" d="M19.3,82.9c1.2,0.2,2.4,0.5,3.5,0.8c1.1,0.3,2.2,0.4,3.2,0.8c0.1,0.1,0,0.3-0.1,0.3
				c-1.1-0.1-2.3-0.5-3.4-0.8c-1.1-0.3-2.2-0.5-3.3-0.9C19.1,83.1,19.2,82.9,19.3,82.9L19.3,82.9z"/>
		</g>
		<g>
			<path class="st0" d="M20.1,82.3c0.2,0,0.3,0,0.5,0.1c0.1,0,0.1,0.2,0,0.2c-0.2,0-0.3,0-0.5-0.1C19.9,82.5,19.9,82.2,20.1,82.3
				L20.1,82.3z"/>
		</g>
		<g>
			<path class="st0" d="M21.4,82.5c1.5,0.3,3.1,0.6,4.6,1.1c0.1,0,0,0.2-0.1,0.2c-1.5-0.2-3.1-0.7-4.5-1.1
				C21.2,82.7,21.3,82.5,21.4,82.5L21.4,82.5z"/>
		</g>
		<g>
			<path class="st0" d="M20.3,81.2c1.1,0.2,2.1,0.5,3.2,0.8c1,0.3,2,0.5,2.9,0.9c0.1,0.1,0,0.3-0.1,0.2c-1-0.2-2-0.6-3-0.8
				c-1-0.3-2-0.5-3-0.9C20.1,81.4,20.1,81.2,20.3,81.2L20.3,81.2z"/>
		</g>
		<g>
			<path class="st0" d="M20.5,80.4c0.5,0.1,1,0.3,1.6,0.4c0.5,0.1,1,0.2,1.5,0.3c0.1,0,0.1,0.2-0.1,0.2c-0.5,0-1.1-0.1-1.6-0.3
				c-0.5-0.1-1-0.3-1.5-0.4C20.3,80.7,20.4,80.4,20.5,80.4L20.5,80.4z"/>
		</g>
		<g>
			<path class="st0" d="M24.2,81.3c0.5,0.1,0.9,0.2,1.3,0.4c0.4,0.1,0.9,0.2,1.2,0.4c0.1,0.1,0,0.2-0.1,0.2c-0.4,0-0.9-0.2-1.3-0.4
				c-0.4-0.1-0.8-0.3-1.3-0.4C24,81.5,24,81.2,24.2,81.3L24.2,81.3z"/>
		</g>
		<g>
			<path class="st0" d="M20.9,79.6c2,0.4,4.1,0.7,6,1.5c0.1,0.1,0,0.3-0.1,0.2c-2-0.4-3.9-1.1-5.9-1.5
				C20.6,79.8,20.7,79.5,20.9,79.6L20.9,79.6z"/>
		</g>
		<g>
			<path class="st0" d="M21,78.6c2.1,0.5,4.2,0.9,6.2,1.6c0.2,0.1,0,0.3-0.1,0.3C25,80.2,23,79.5,21,78.9
				C20.8,78.8,20.9,78.6,21,78.6L21,78.6z"/>
		</g>
		<g>
			<path class="st0" d="M21.3,77.8c0.4,0.1,0.8,0.2,1.1,0.3c0.1,0.1,0,0.2-0.1,0.2c-0.4,0-0.8-0.2-1.1-0.3
				C21.1,78,21.2,77.7,21.3,77.8L21.3,77.8z"/>
		</g>
		<g>
			<path class="st0" d="M23.4,78.3c0.7,0.2,1.5,0.4,2.2,0.6c0.7,0.2,1.4,0.3,2,0.6c0.1,0.1,0,0.2-0.1,0.2c-0.7-0.1-1.4-0.3-2.1-0.5
				c-0.7-0.2-1.4-0.4-2.1-0.6C23.2,78.5,23.3,78.3,23.4,78.3L23.4,78.3z"/>
		</g>
		<g>
			<path class="st0" d="M21.4,76.9c1.4,0.4,2.9,0.6,4.3,1.1c0.2,0.1,0,0.3-0.1,0.3c-1.4-0.3-2.8-0.7-4.2-1.1
				C21.2,77.1,21.2,76.9,21.4,76.9L21.4,76.9z"/>
		</g>
		<g>
			<path class="st0" d="M27.2,78.3c0.2,0,0.4,0.1,0.6,0.1c0.2,0,0.4,0.1,0.5,0.1c0.1,0.1,0.1,0.2-0.1,0.2c-0.2,0-0.4,0-0.5-0.1
				c-0.2-0.1-0.4-0.1-0.6-0.1C27,78.6,27,78.3,27.2,78.3L27.2,78.3z"/>
		</g>
		<g>
			<path class="st0" d="M21.7,75.8c2.2,0.6,4.6,0.9,6.6,1.8c0.1,0.1,0,0.3-0.1,0.3c-2.2-0.3-4.4-1.2-6.6-1.8
				C21.5,76.1,21.6,75.8,21.7,75.8L21.7,75.8z"/>
		</g>
		<g>
			<path class="st0" d="M22.3,75.1c0.3,0,0.5,0.1,0.7,0.1c0.2,0,0.5,0.1,0.7,0.2c0.1,0,0.1,0.2-0.1,0.2c-0.2,0-0.5-0.1-0.7-0.1
				c-0.2,0-0.5-0.1-0.7-0.1C22.2,75.3,22.2,75,22.3,75.1L22.3,75.1z"/>
		</g>
		<g>
			<path class="st0" d="M24.2,75.4c1.6,0.5,3.2,0.9,4.7,1.5c0.1,0.1,0,0.3-0.1,0.3c-1.6-0.4-3.2-1-4.7-1.6
				C24,75.6,24.1,75.3,24.2,75.4L24.2,75.4z"/>
		</g>
		<g>
			<path class="st0" d="M22.3,74.1C24.5,74.5,27,75,29,76c0.1,0.1,0,0.3-0.1,0.2c-2.3-0.6-4.4-1.5-6.7-1.9
				C22.1,74.3,22.2,74,22.3,74.1L22.3,74.1z"/>
		</g>
		<g>
			<path class="st0" d="M22.8,73.3c1.9,0.4,3.8,0.8,5.5,1.5c0.1,0,0,0.2-0.1,0.2c-1.8-0.5-3.6-1.1-5.5-1.5
				C22.6,73.5,22.7,73.2,22.8,73.3L22.8,73.3z"/>
		</g>
		<g>
			<path class="st0" d="M23.1,72.1c0.2,0.1,0.5,0.1,0.7,0.2c0.2,0.1,0.4,0.1,0.6,0.2c0.1,0.1,0,0.2-0.1,0.2c-0.2,0-0.4-0.1-0.6-0.2
				c-0.2-0.1-0.4-0.2-0.7-0.2C22.9,72.3,23,72.1,23.1,72.1L23.1,72.1z"/>
		</g>
		<g>
			<path class="st0" d="M25.1,72.8c1.6,0.5,3.3,0.9,4.7,1.6c0.1,0.1,0,0.3-0.1,0.2c-1.6-0.5-3.1-1.1-4.7-1.6
				C24.9,73,25,72.8,25.1,72.8L25.1,72.8z"/>
		</g>
		<g>
			<path class="st0" d="M26.6,69.2c1.6,0.5,3.3,0.9,4.7,1.6c0.1,0.1,0,0.3-0.1,0.2c-1.6-0.5-3.1-1.1-4.7-1.6
				C26.4,69.3,26.4,69.1,26.6,69.2L26.6,69.2z"/>
		</g>
		<g>
			<path class="st0" d="M23.3,71.2c2.2,0.6,4.7,1.1,6.7,2.1c0.1,0.1,0,0.3-0.1,0.2c-2.3-0.4-4.6-1.3-6.7-2.1
				C23.1,71.4,23.2,71.1,23.3,71.2L23.3,71.2z"/>
		</g>
		<g>
			<path class="st0" d="M23.7,70.3c2.4,0.6,5.1,1.2,7.3,2.2c0.1,0.1,0,0.3-0.1,0.3c-1.3-0.3-2.6-0.8-3.8-1.2
				c-1.2-0.4-2.3-0.7-3.5-1.1C23.4,70.5,23.5,70.3,23.7,70.3L23.7,70.3z"/>
		</g>
		<g>
			<path class="st0" d="M23.9,69.2c2.5,0.8,5,1.6,7.4,2.5c0.1,0.1,0,0.3-0.1,0.3c-2.5-0.7-5-1.6-7.4-2.6
				C23.7,69.4,23.8,69.2,23.9,69.2L23.9,69.2z"/>
		</g>
	</g>
	<path class="st0" d="M99.9,128.5c-0.2,0-0.2,0.2-0.1,0.3c0.2,0.1,0.3,0.1,0.5,0.2c0.2-0.1,0.3-0.2,0.5-0.3
		C100.5,128.6,100.2,128.6,99.9,128.5z"/>
	<path class="st0" d="M100.2,127.5c-0.1,0-0.2,0.2-0.1,0.3c0.4,0.2,0.8,0.4,1.3,0.5c0.1-0.1,0.3-0.2,0.4-0.3
		C101.3,127.7,100.8,127.5,100.2,127.5z"/>
	<path class="st0" d="M102,127.1c-0.6-0.2-1.3-0.5-1.9-0.6c-0.1,0-0.2,0.2-0.1,0.2c0.6,0.3,1.3,0.5,1.9,0.6
		C102.1,127.4,102.2,127.1,102,127.1z"/>
	<path class="st0" d="M100.5,125.7c-0.1,0-0.2,0.2,0,0.3c0.9,0.3,1.8,0.6,2.7,0.9c0.2-0.1,0.3-0.3,0.4-0.4
		C102.6,126.1,101.5,125.8,100.5,125.7z"/>
	<path class="st0" d="M100.3,124.4c-0.2,0-0.3,0.2-0.1,0.3c1.2,0.6,2.5,1,3.8,1.4c0.1-0.1,0.2-0.2,0.3-0.3
		C103,125.3,101.7,124.8,100.3,124.4z"/>
	<path class="st0" d="M103.2,124.4c-0.6-0.2-1.3-0.5-1.9-0.6c-0.1,0-0.2,0.2-0.1,0.3c0.6,0.3,1.3,0.5,1.9,0.7
		c0.6,0.2,1.2,0.4,1.8,0.5c0.1-0.1,0.1-0.2,0.2-0.2C104.4,124.8,103.8,124.6,103.2,124.4z"/>
	<path class="st0" d="M105.4,123.9c-0.6-0.2-1.2-0.4-1.7-0.5c-0.1,0-0.2,0.2,0,0.3c0.6,0.3,1.2,0.3,1.8,0.5c0.1,0,0.1,0,0.2,0.1
		c0.1-0.1,0.1-0.2,0.2-0.3C105.7,124,105.5,124,105.4,123.9z"/>
	<path class="st0" d="M102.3,123.1c-0.5-0.2-0.9-0.5-1.4-0.6c-0.1,0-0.2,0.2-0.1,0.2c0.4,0.3,0.9,0.4,1.4,0.6
		C102.4,123.4,102.5,123.1,102.3,123.1z"/>
	<path class="st0" d="M101.9,121.8c-0.1,0-0.2,0.2-0.1,0.3c1.4,0.6,2.9,1,4.4,1.5c0.1-0.1,0.1-0.2,0.2-0.3
		C104.9,122.6,103.4,122,101.9,121.8z"/>
	<path class="st0" d="M101.1,120.5c-0.2,0-0.2,0.2-0.1,0.3c1.9,0.8,3.8,1.1,5.7,1.8c0.1-0.1,0.1-0.2,0.2-0.3
		C105.1,121.5,103.1,120.8,101.1,120.5z"/>
	<path class="st0" d="M101.1,119.5c-0.2,0-0.2,0.2-0.1,0.3c2.1,0.7,4.2,1.2,6.3,2c0-0.1,0.1-0.2,0.1-0.3
		C105.4,120.7,103.2,119.8,101.1,119.5z"/>
	<path class="st0" d="M101.6,118.5c-0.2,0-0.3,0.2-0.1,0.3c2,0.8,4.1,1.4,6.2,2c0-0.1,0.1-0.2,0.1-0.3
		C105.8,119.9,103.7,119.1,101.6,118.5z"/>
	<path class="st0" d="M108,119.5c-0.2-0.1-0.3-0.1-0.5-0.1c-0.1,0-0.2,0.1-0.1,0.3c0.2,0.2,0.4,0.3,0.6,0.3c0-0.1,0.1-0.2,0.1-0.4
		C108.2,119.6,108.1,119.6,108,119.5z"/>
	<path class="st0" d="M106.6,119.5c0.2,0,0.2-0.2,0.1-0.3c-0.8-0.2-1.6-0.4-2.3-0.6c-0.7-0.2-1.4-0.5-2.1-0.7
		c-0.1,0-0.2,0.2-0.1,0.3c0.7,0.4,1.5,0.6,2.2,0.8C105.1,119.2,105.9,119.3,106.6,119.5z"/>
	<path class="st0" d="M102.5,117.1c-0.2,0-0.2,0.2-0.1,0.3c1,0.4,2.1,0.6,3.2,0.9c0.9,0.3,1.8,0.6,2.7,0.9c0-0.1,0.1-0.2,0.1-0.3
		C106.6,118.1,104.5,117.3,102.5,117.1z"/>
	<path class="st0" d="M105.7,117c-1.1-0.4-2.2-0.8-3.3-1c-0.2,0-0.2,0.2-0.1,0.3c1.1,0.5,2.3,0.8,3.4,1.1c1,0.3,1.9,0.6,2.9,0.9
		c0-0.1,0-0.2,0.1-0.3C107.7,117.6,106.7,117.3,105.7,117z"/>
	<path class="st0" d="M108.6,117c-0.1,0-0.2,0.1-0.1,0.2c0.1,0.1,0.3,0.1,0.4,0.2c0-0.1,0-0.2,0.1-0.3
		C108.8,117.1,108.7,117,108.6,117z"/>
	<path class="st0" d="M102.9,115.4c1.5,0.7,3.1,1.1,4.7,1.5c0.2,0,0.2-0.2,0.1-0.3c-1.5-0.5-3.1-1.2-4.7-1.5
		C102.8,115.1,102.8,115.3,102.9,115.4z"/>
	<path class="st0" d="M106.2,115.1c-1-0.3-2-0.7-3.1-0.8c-0.2,0-0.2,0.2-0.1,0.3c1,0.4,2.1,0.6,3.2,0.9c0.9,0.3,1.9,0.5,2.8,0.8
		c0-0.1,0-0.2,0-0.3C108.1,115.7,107.2,115.4,106.2,115.1z"/>
	<path class="st0" d="M109.2,115.2c-0.4-0.1-0.8-0.2-1.1-0.3c-0.5-0.2-1-0.4-1.5-0.5c-0.1,0-0.2,0.2-0.1,0.3c0.5,0.3,1,0.4,1.5,0.6
		c0.4,0.1,0.7,0.2,1.1,0.3C109.2,115.4,109.2,115.3,109.2,115.2z"/>
	<path class="st0" d="M103.2,113.6c0.4,0.2,0.9,0.2,1.3,0.4c0.4,0.1,0.9,0.2,1.3,0.4c0.2,0,0.3-0.2,0.1-0.3
		c-0.5-0.2-0.9-0.3-1.4-0.4c-0.4-0.1-0.9-0.3-1.3-0.3C103.1,113.4,103,113.6,103.2,113.6z"/>
	<path class="st0" d="M103.7,112.4c-0.1,0-0.2,0.2,0,0.3c1.8,0.6,3.7,1.1,5.6,1.7c0-0.1,0-0.2,0-0.3
		C107.5,113.4,105.6,112.7,103.7,112.4z"/>
	<path class="st0" d="M103.8,111.5c-0.2,0-0.2,0.2-0.1,0.3c1.8,0.7,3.7,1.1,5.6,1.6c0-0.1,0-0.2,0-0.3
		C107.5,112.5,105.7,111.9,103.8,111.5z"/>
	<path class="st0" d="M109.3,112.5c0-0.1,0-0.2,0-0.2C109.2,112.3,109.2,112.4,109.3,112.5z"/>
	<path class="st0" d="M108.3,112.2c-0.6-0.4-1.4-0.7-2.1-1c-0.7-0.3-1.4-0.6-2.1-0.9c-0.1-0.1-0.3,0.2-0.1,0.2
		c0.7,0.4,1.5,0.7,2.2,1c0.7,0.3,1.3,0.7,2,0.8C108.4,112.5,108.4,112.3,108.3,112.2z"/>
	<path class="st0" d="M106.6,110.4c-0.2,0-0.2,0.3-0.1,0.3c0.9,0.3,1.8,0.6,2.8,0.9c0-0.1,0-0.3,0-0.4
		C108.4,110.9,107.5,110.6,106.6,110.4z"/>
	<path class="st0" d="M104.3,109.9c0.2,0.1,0.4,0.1,0.6,0.2c0.2,0.1,0.2-0.2,0.1-0.3c-0.2-0.1-0.4-0.1-0.6-0.2
		c-0.2-0.1-0.4-0.2-0.6-0.2c-0.1,0-0.2,0.2-0.1,0.2C103.9,109.8,104.1,109.8,104.3,109.9z"/>
	<path class="st0" d="M104.4,108.5c-0.2,0-0.2,0.2-0.1,0.3c1.5,0.7,3.2,1.1,4.9,1.5c0-0.2,0-0.3-0.1-0.5
		C107.5,109.3,106,108.8,104.4,108.5z"/>
	<path class="st0" d="M104.3,107.6c-0.2,0-0.2,0.2-0.1,0.3c1.5,0.5,3.2,0.8,4.8,1.1c0-0.1,0-0.2-0.1-0.3
		C107.4,108.3,105.8,107.9,104.3,107.6z"/>
	<path class="st0" d="M104.7,106.8c-0.1,0-0.2,0.2,0,0.3c1.4,0.4,2.8,0.7,4.2,1.1c0-0.2-0.1-0.3-0.1-0.5
		C107.4,107.2,106,106.9,104.7,106.8z"/>
	<path class="st0" d="M106,106c-0.1,0-0.2,0.2,0,0.2c0.9,0.3,1.7,0.5,2.6,0.7c0-0.1-0.1-0.3-0.1-0.4
		C107.7,106.4,106.9,106.2,106,106z"/>
	<path class="st0" d="M104.9,104.9c-0.1,0-0.2,0.2-0.1,0.3c1.1,0.3,2.3,0.5,3.4,0.8c0-0.1-0.1-0.2-0.1-0.4
		C107.1,105.3,106,105,104.9,104.9z"/>
	<path class="st0" d="M105.4,103.8c-0.1,0-0.2,0.2,0,0.3c0.9,0.3,1.8,0.6,2.7,0.8c-0.1-0.2-0.1-0.4-0.2-0.6
		C107,104,106.2,103.9,105.4,103.8z"/>
	<path class="st0" d="M105,102.6c-0.2,0-0.2,0.3-0.1,0.3c0.8,0.3,1.7,0.5,2.6,0.7c-0.1-0.2-0.2-0.4-0.2-0.6
		C106.5,102.8,105.8,102.7,105,102.6z"/>
	<path class="st0" d="M105.1,101.8c-0.2,0-0.2,0.2-0.1,0.3c0.7,0.2,1.4,0.4,2.2,0.6c-0.1-0.2-0.1-0.4-0.2-0.5
		C106.3,102,105.7,101.9,105.1,101.8z"/>
	<path class="st0" d="M105.2,125.1c-0.1,0-0.2-0.1-0.2-0.1c-0.1,0.1-0.1,0.2-0.2,0.2c0.1,0,0.2,0.1,0.3,0.1
		C105.3,125.4,105.4,125.2,105.2,125.1z"/>
	<path class="st0" d="M107.3,123.6c-0.3-0.1-0.6-0.3-0.9-0.4c-0.1,0.1-0.1,0.2-0.2,0.3c0.3,0.1,0.7,0.2,1,0.4
		C107.4,123.9,107.4,123.7,107.3,123.6z"/>
	<path class="st0" d="M107.8,122.8c-0.3-0.2-0.6-0.3-0.8-0.4c-0.1,0.1-0.1,0.2-0.2,0.3c0.3,0.1,0.6,0.2,0.9,0.4
		C107.9,123.1,107.9,122.9,107.8,122.8z"/>
	<path class="st0" d="M107.9,121.7c-0.2-0.1-0.3-0.1-0.5-0.2c0,0.1-0.1,0.2-0.1,0.3c0.2,0.1,0.4,0.1,0.6,0.2
		C108,122,108.1,121.8,107.9,121.7z"/>
	<path class="st0" d="M108.2,120.7c-0.1,0-0.3-0.1-0.4-0.1c0,0.1-0.1,0.2-0.1,0.3c0.1,0,0.3,0.1,0.4,0.1
		C108.3,121,108.4,120.8,108.2,120.7z"/>
	<path class="st0" d="M108.5,120c0.2,0,0.2-0.3,0-0.3c-0.1,0-0.2-0.1-0.3-0.1c0,0.1-0.1,0.2-0.1,0.4C108.2,120,108.4,120,108.5,120z
		"/>
	<path class="st0" d="M108.9,119c-0.1-0.1-0.3-0.1-0.4-0.2c0,0.1-0.1,0.2-0.1,0.3c0.1,0,0.3,0.1,0.4,0.1
		C109,119.4,109.1,119.1,108.9,119z"/>
	<path class="st0" d="M109.3,118.2c-0.2-0.1-0.4-0.1-0.6-0.2c0,0.1,0,0.2-0.1,0.3c0.2,0.1,0.4,0.1,0.6,0.2
		C109.4,118.4,109.5,118.2,109.3,118.2z"/>
	<path class="st0" d="M109.1,117.2c0,0-0.1,0-0.1-0.1c0,0.1,0,0.2-0.1,0.3c0,0,0.1,0,0.1,0C109.1,117.5,109.2,117.2,109.1,117.2z"/>
	<path class="st0" d="M109.5,116.1c-0.1,0-0.3-0.1-0.4-0.1c0,0.1,0,0.2,0,0.3c0.1,0,0.2,0.1,0.4,0.1
		C109.6,116.4,109.7,116.2,109.5,116.1z"/>
	<path class="st0" d="M109.7,115.3c-0.2,0-0.3-0.1-0.5-0.1c0,0.1,0,0.2,0,0.3c0.2,0,0.3,0.1,0.5,0.1
		C109.8,115.7,109.9,115.4,109.7,115.3z"/>
	<path class="st0" d="M109.9,114.4c-0.2-0.1-0.4-0.2-0.6-0.2c0,0.1,0,0.2,0,0.3c0.2,0.1,0.4,0.1,0.6,0.2
		C110,114.7,110.1,114.4,109.9,114.4z"/>
	<path class="st0" d="M110.3,113.5c-0.3-0.1-0.7-0.2-1-0.3c0,0.1,0,0.2,0,0.3c0.3,0.1,0.6,0.2,0.9,0.2
		C110.4,113.7,110.5,113.5,110.3,113.5z"/>
	<path class="st0" d="M110.5,112.8c0.2,0,0.2-0.3,0.1-0.3c-0.4-0.1-0.8-0.3-1.2-0.3c0,0,0,0-0.1,0c0,0.1,0,0.2,0,0.2c0,0,0,0,0,0
		C109.7,112.7,110.1,112.7,110.5,112.8z"/>
	<path class="st0" d="M109.4,108.8c-0.2,0-0.3-0.1-0.5-0.1c0,0.1,0,0.2,0.1,0.3c0.1,0,0.2,0,0.4,0.1
		C109.5,109.1,109.5,108.9,109.4,108.8z"/>
	<g>
		<g>
			<path class="st0" d="M117.9,127.5c2,0,3.9,0.2,5.9,0.4c0.2,0,0.1,0.4-0.1,0.4c-2-0.1-4-0.2-5.9-0.5
				C117.7,127.7,117.7,127.5,117.9,127.5L117.9,127.5z"/>
		</g>
		<g>
			<path class="st0" d="M118.1,126.6c0.3,0,0.6-0.1,0.8,0c0.1,0,0.1,0.2,0,0.3c-0.3,0.1-0.5,0-0.8,0
				C117.9,126.9,117.9,126.6,118.1,126.6L118.1,126.6z"/>
		</g>
		<g>
			<path class="st0" d="M118.9,126.3c1.5,0.1,3.1,0.2,4.6,0.4c0.2,0,0.2,0.4-0.1,0.4c-1.5-0.1-3.1-0.3-4.6-0.5
				C118.7,126.5,118.8,126.2,118.9,126.3L118.9,126.3z"/>
		</g>
		<g>
			<path class="st0" d="M118.2,125.7c0.6,0,1.3,0,1.9,0c0.6,0,1.2-0.1,1.7,0.1c0.1,0,0.1,0.3-0.1,0.3c-0.6,0.1-1.2,0-1.7,0
				c-0.6,0-1.3,0-1.9-0.1C118,126,118,125.7,118.2,125.7L118.2,125.7z"/>
		</g>
		<g>
			<path class="st0" d="M122.2,125.7c0.5,0,1.1,0,1.6,0.1c0.2,0,0.2,0.3,0,0.3c-0.6,0-1.1-0.1-1.6-0.2
				C121.9,125.9,122,125.7,122.2,125.7L122.2,125.7z"/>
		</g>
		<g>
			<path class="st0" d="M118.3,124.8c2-0.1,4.2-0.3,6.1,0.1c0.1,0,0.1,0.3,0,0.3c-2,0.1-4-0.2-6.1-0.1
				C118.1,125.1,118.1,124.8,118.3,124.8L118.3,124.8z"/>
		</g>
		<g>
			<path class="st0" d="M118.3,123.6c1.9-0.1,4.1-0.2,5.9,0.1c0.2,0,0.1,0.3,0,0.4c-2,0.2-4,0-6-0.1
				C118.1,123.9,118.2,123.6,118.3,123.6L118.3,123.6z"/>
		</g>
		<g>
			<path class="st0" d="M118.3,122.7c0.5,0,1-0.2,1.5-0.1c0.1,0,0.1,0.3,0,0.3c-0.5,0.1-1,0.1-1.5,0.1
				C118.1,123,118.1,122.7,118.3,122.7L118.3,122.7z"/>
		</g>
		<g>
			<path class="st0" d="M120.2,122.2c0.6,0,1.2,0,1.8,0.1c0.6,0,1.3,0,1.8,0.1c0.1,0,0.1,0.3,0,0.3c-0.6,0.1-1.2,0-1.8-0.1
				c-0.6,0-1.3-0.1-1.9-0.2C120,122.5,120.1,122.2,120.2,122.2L120.2,122.2z"/>
		</g>
		<g>
			<path class="st0" d="M118,131c2-0.1,4.2-0.3,6.1,0.1c0.1,0,0.1,0.3,0,0.3c-2,0.1-4-0.2-6.1-0.1C117.8,131.3,117.9,131,118,131
				L118,131z"/>
		</g>
		<g>
			<path class="st0" d="M118,129.8c1.9-0.1,4.1-0.2,5.9,0.1c0.2,0,0.1,0.3,0,0.4c-2,0.2-4,0-6-0.1
				C117.8,130.1,117.9,129.9,118,129.8L118,129.8z"/>
		</g>
		<g>
			<path class="st0" d="M118,128.9c0.5,0,1-0.2,1.5-0.1c0.1,0,0.1,0.3,0,0.3c-0.5,0.1-1,0.1-1.5,0.1
				C117.8,129.2,117.8,129,118,128.9L118,128.9z"/>
		</g>
		<g>
			<path class="st0" d="M120.2,128.6c0.6,0,1.2,0,1.8,0.1c0.6,0,1.3,0,1.8,0.1c0.1,0,0.1,0.3,0,0.3c-0.6,0.1-1.2,0-1.8-0.1
				c-0.6,0-1.3-0.1-1.9-0.2C120,128.9,120.1,128.6,120.2,128.6L120.2,128.6z"/>
		</g>
		<g>
			<path class="st0" d="M118.5,121.6c0.6-0.1,1.2-0.1,1.9-0.1c0.6,0,1.2-0.1,1.8,0.1c0.1,0,0.1,0.3-0.1,0.3c-0.6,0.1-1.2,0-1.7,0
				c-0.6,0-1.3,0-1.9,0.1C118.3,121.9,118.3,121.6,118.5,121.6L118.5,121.6z"/>
		</g>
		<g>
			<path class="st0" d="M122.7,121.2c0.4,0,0.7,0,1.1,0c0.2,0,0.2,0.4,0,0.4c-0.4,0-0.7,0-1.1,0
				C122.5,121.5,122.5,121.2,122.7,121.2L122.7,121.2z"/>
		</g>
		<g>
			<path class="st0" d="M118.7,120.4c1.9-0.1,3.8-0.2,5.7,0c0.2,0,0.2,0.4,0,0.4c-1.9,0.1-3.8,0-5.7-0.1
				C118.4,120.7,118.5,120.4,118.7,120.4L118.7,120.4z"/>
		</g>
		<g>
			<path class="st0" d="M118.9,119.4c1,0,2-0.1,3-0.1c1,0,2-0.1,3,0c0.2,0,0.1,0.3,0,0.3c-1,0.2-1.9,0.1-2.9,0.1c-1.1,0-2.1,0-3.1,0
				C118.7,119.7,118.8,119.4,118.9,119.4L118.9,119.4z"/>
		</g>
		<g>
			<path class="st0" d="M118.8,118.3c0.3,0,0.6,0,0.9,0.1c0.1,0.1,0.1,0.3-0.1,0.3c-0.3,0.1-0.6,0-0.9,0
				C118.5,118.7,118.6,118.3,118.8,118.3L118.8,118.3z"/>
		</g>
		<g>
			<path class="st0" d="M119.4,117.9c0.7,0,1.5-0.1,2.2-0.1c0.8,0,1.7,0,2.4,0.2c0.2,0,0.2,0.3,0,0.3c-0.7,0.1-1.4,0-2.1-0.1
				c-0.8,0-1.7-0.1-2.5,0C119.3,118.2,119.2,117.9,119.4,117.9L119.4,117.9z"/>
		</g>
		<g>
			<path class="st0" d="M118.7,117.4c0.5,0,1-0.1,1.6-0.1c0.5,0,1-0.1,1.4,0c0.1,0,0.1,0.3-0.1,0.3c-0.5,0.1-1,0.1-1.4,0.1
				c-0.5,0-1,0-1.5-0.1C118.5,117.7,118.6,117.4,118.7,117.4L118.7,117.4z"/>
		</g>
		<g>
			<path class="st0" d="M121.9,116.8c0.4,0,0.8,0,1.3,0c0.4,0,0.8,0,1.1,0.1c0.1,0,0.1,0.3-0.1,0.3c-0.4,0.1-0.8,0-1.2,0
				c-0.4,0-0.8-0.1-1.2-0.1C121.6,117.1,121.7,116.8,121.9,116.8L121.9,116.8z"/>
		</g>
		<g>
			<path class="st0" d="M118.8,116.4c2-0.3,4-0.2,5.9-0.2c0.3,0,0.1,0.5-0.1,0.5c-1.9,0-3.9,0.2-5.8,0.1
				C118.6,116.8,118.6,116.5,118.8,116.4L118.8,116.4z"/>
		</g>
		<g>
			<path class="st0" d="M118.9,115.5c1.1-0.1,2.1-0.2,3.2-0.2c1,0,2.2-0.1,3.1,0.2c0.1,0,0.1,0.3-0.1,0.3c-0.9,0.2-1.9,0-2.8,0
				c-1.1,0-2.3,0.1-3.4,0.1C118.7,115.9,118.7,115.5,118.9,115.5L118.9,115.5z"/>
		</g>
		<g>
			<path class="st0" d="M119.1,114.5c0.3,0,0.7-0.1,1,0c0.1,0,0.1,0.2,0,0.3c-0.3,0.1-0.7,0.1-1,0.1
				C118.9,114.8,118.9,114.5,119.1,114.5L119.1,114.5z"/>
		</g>
		<g>
			<path class="st0" d="M119.6,113.8c1.5,0,3-0.1,4.5,0c0.2,0,0.2,0.3,0,0.4c-1.5,0.1-3,0-4.5,0C119.4,114,119.4,113.8,119.6,113.8
				L119.6,113.8z"/>
		</g>
		<g>
			<path class="st0" d="M118.9,113.5c2-0.2,4-0.5,5.9-0.3c0.2,0,0.1,0.3,0,0.4c-2,0.1-3.9,0-5.9,0.2
				C118.8,113.8,118.8,113.5,118.9,113.5L118.9,113.5z"/>
		</g>
		<g>
			<path class="st0" d="M117.9,111.8c0.3,0,0.6,0,0.9,0c0.3,0,0.6-0.1,0.9,0c0.1,0,0.1,0.2,0,0.3c-0.5,0.2-1.3,0.2-1.8,0.1
				C117.7,112.1,117.7,111.8,117.9,111.8L117.9,111.8z"/>
		</g>
		<g>
			<path class="st0" d="M121.4,111.8c0.6,0,1.2,0.1,1.8,0c0.5,0,1.1-0.1,1.6-0.1c0.1,0,0.2,0.3,0,0.3c-0.6,0.2-1.2,0.2-1.7,0.2
				c-0.6,0-1.2,0-1.7-0.1C121.1,112.2,121.2,111.8,121.4,111.8L121.4,111.8z"/>
		</g>
		<g>
			<path class="st0" d="M117.7,110.8c1.1-0.2,2.2-0.2,3.2-0.1c1.2,0.1,2.4,0,3.5,0c0.2,0,0.1,0.3,0,0.3c-1,0.3-2.1,0.1-3.1,0.1
				c-1.2-0.1-2.4-0.1-3.6,0C117.5,111.1,117.5,110.8,117.7,110.8L117.7,110.8z"/>
		</g>
		<g>
			<path class="st0" d="M117.6,109.6c2.2-0.1,4.6-0.2,6.7,0c0.2,0,0.2,0.3,0,0.4c-2.2,0.2-4.5,0-6.7-0.1
				C117.4,109.9,117.5,109.6,117.6,109.6L117.6,109.6z"/>
		</g>
		<g>
			<path class="st0" d="M117.6,108.8c0.4-0.1,0.9-0.2,1.3-0.2c0.4,0,0.9-0.1,1.2,0c0.2,0,0.2,0.4,0,0.4c-0.4,0.1-0.8,0-1.3,0.1
				c-0.4,0-0.8,0.1-1.3,0.1C117.4,109.2,117.4,108.8,117.6,108.8L117.6,108.8z"/>
		</g>
		<g>
			<path class="st0" d="M121.3,108.6c1,0,2,0,3,0.1c0.2,0,0.2,0.3,0,0.4c-1,0.1-2-0.1-3-0.1C121,108.9,121,108.6,121.3,108.6
				L121.3,108.6z"/>
		</g>
		<g>
			<path class="st0" d="M118.2,107.7c0.1,0,0.2-0.1,0.3-0.1c0.1,0,0.2,0.2,0,0.3c-0.1,0.1-0.2,0.1-0.3,0.1
				C118.1,108,118.1,107.7,118.2,107.7L118.2,107.7z"/>
		</g>
		<g>
			<path class="st0" d="M119.8,107.6c0.9,0,1.7-0.1,2.6-0.1c0.8,0,1.6-0.1,2.3,0c0.2,0,0.1,0.3,0,0.3c-0.8,0.2-1.7,0.1-2.6,0.1
				c-0.8,0-1.5,0-2.3,0C119.6,107.9,119.7,107.6,119.8,107.6L119.8,107.6z"/>
		</g>
		<g>
			<path class="st0" d="M117.6,106.6c1.2,0,2.4,0,3.6,0c1.1,0,2.2-0.2,3.3,0c0.2,0,0.1,0.3,0,0.3c-1.1,0.2-2.3,0.1-3.4,0.1
				c-1.1,0-2.3,0-3.4,0C117.4,106.9,117.5,106.6,117.6,106.6L117.6,106.6z"/>
		</g>
		<g>
			<path class="st0" d="M118.1,105.6c2.2-0.1,4.5-0.4,6.7-0.2c0.2,0,0.1,0.3,0,0.3c-2.2,0.3-4.5,0.1-6.7,0.1
				C117.9,105.9,117.9,105.7,118.1,105.6L118.1,105.6z"/>
		</g>
		<g>
			<path class="st0" d="M117.8,104.7c2.4-0.2,4.9-0.4,7.3-0.3c0.2,0,0.2,0.3,0,0.3c-2.4,0.3-4.9,0.3-7.3,0.2
				C117.6,104.9,117.7,104.7,117.8,104.7L117.8,104.7z"/>
		</g>
		<g>
			<path class="st0" d="M117.7,103.5c0.3,0,0.7-0.1,1,0c0.1,0,0.1,0.2,0,0.3c-0.3,0.1-0.7,0-1,0
				C117.6,103.8,117.6,103.5,117.7,103.5L117.7,103.5z"/>
		</g>
		<g>
			<path class="st0" d="M119.6,103.4c1.6-0.3,3.3-0.5,4.9-0.3c0.1,0,0.1,0.3,0,0.3c-1.6,0.2-3.3,0.2-4.9,0.3
				C119.5,103.7,119.4,103.4,119.6,103.4L119.6,103.4z"/>
		</g>
		<g>
			<path class="st0" d="M117.7,102.3c2.3-0.1,4.7-0.5,7-0.3c0.2,0,0.1,0.3,0,0.3c-2.3,0.4-4.6,0.2-6.9,0.3
				C117.5,102.6,117.5,102.3,117.7,102.3L117.7,102.3z"/>
		</g>
		<g>
			<path class="st0" d="M117.9,101.2c0.5,0,1.1-0.1,1.6-0.1c0.5,0,1-0.1,1.5,0c0.2,0,0.1,0.3,0,0.3c-0.5,0.1-1,0.1-1.5,0.1
				c-0.5,0-1,0-1.5,0C117.8,101.5,117.7,101.2,117.9,101.2L117.9,101.2z"/>
		</g>
		<g>
			<path class="st0" d="M122.1,101c0.8-0.1,1.8-0.2,2.6,0c0.2,0,0.1,0.3,0,0.3c-0.8,0.2-1.7,0.1-2.6,0
				C121.9,101.3,121.9,101,122.1,101L122.1,101z"/>
		</g>
		<g>
			<path class="st0" d="M117.8,100.1c2.2-0.3,4.7-0.7,6.9-0.4c0.2,0,0.1,0.3,0,0.3c-1.1,0.2-2.3,0.1-3.4,0.2
				c-1.1,0.1-2.3,0.2-3.4,0.3C117.6,100.5,117.6,100.1,117.8,100.1L117.8,100.1z"/>
		</g>
		<g>
			<path class="st0" d="M117.7,99.1c0.3,0,0.7-0.1,0.9,0c0.1,0,0.2,0.2,0,0.3c-0.3,0.1-0.6,0.1-0.9,0.1
				C117.5,99.4,117.5,99.1,117.7,99.1L117.7,99.1z"/>
		</g>
		<g>
			<path class="st0" d="M119.5,98.9c0.9-0.1,1.8-0.2,2.7-0.3c0.8-0.1,1.7-0.3,2.5-0.2c0.1,0,0.2,0.3,0,0.3c-0.8,0.2-1.7,0.2-2.5,0.3
				c-0.9,0.1-1.8,0.2-2.7,0.2C119.3,99.2,119.3,98.9,119.5,98.9L119.5,98.9z"/>
		</g>
		<g>
			<path class="st0" d="M117.8,98.1c0.7-0.1,1.4-0.2,2-0.3c0.6-0.1,1.2-0.2,1.9-0.2c0.2,0,0.1,0.3,0,0.3c-0.6,0.2-1.3,0.2-1.9,0.2
				c-0.6,0.1-1.3,0.1-1.9,0.2C117.6,98.4,117.6,98.1,117.8,98.1L117.8,98.1z"/>
		</g>
		<g>
			<path class="st0" d="M122.9,97.5c0.7-0.1,1.5-0.3,2.3-0.2c0.1,0,0.2,0.2,0,0.3c-0.7,0.2-1.5,0.2-2.3,0.2
				C122.7,97.9,122.7,97.6,122.9,97.5L122.9,97.5z"/>
		</g>
		<g>
			<path class="st0" d="M117.7,97c2.4-0.2,5-0.9,7.3-0.5c0.1,0,0.1,0.3,0,0.3c-2.4,0.2-4.8,0.5-7.2,0.5
				C117.5,97.3,117.5,97,117.7,97L117.7,97z"/>
		</g>
		<g>
			<path class="st0" d="M118.2,95.7c2.4-0.2,4.8-0.6,7.2-0.7c0.2,0,0.2,0.3,0,0.3c-2.4,0.5-4.9,0.5-7.2,0.7
				C118.1,96,118.1,95.8,118.2,95.7L118.2,95.7z"/>
		</g>
		<g>
			<path class="st0" d="M117.9,94.7c0.4,0,0.8-0.1,1.2-0.1c0.2,0,0.1,0.2,0,0.3c-0.4,0.1-0.8,0.1-1.2,0.1
				C117.8,95,117.7,94.7,117.9,94.7L117.9,94.7z"/>
		</g>
		<g>
			<path class="st0" d="M120,94.5c0.8-0.1,1.7-0.2,2.5-0.3c0.7-0.1,1.5-0.3,2.3-0.2c0.2,0,0.2,0.3,0,0.3c-0.7,0.2-1.5,0.3-2.3,0.3
				c-0.8,0.1-1.7,0.1-2.5,0.2C119.8,94.9,119.8,94.6,120,94.5L120,94.5z"/>
		</g>
		<g>
			<path class="st0" d="M117.9,93.5c0.7-0.2,1.5-0.3,2.2-0.3c0.7-0.1,1.4-0.2,2,0c0.2,0,0.1,0.3,0,0.3c-0.7,0.1-1.4,0.1-2.1,0.1
				c-0.7,0.1-1.4,0.2-2.1,0.3C117.7,93.9,117.7,93.6,117.9,93.5L117.9,93.5z"/>
		</g>
		<g>
			<path class="st0" d="M123.7,93c0.6-0.1,1.2-0.3,1.7-0.2c0.1,0,0.1,0.2,0,0.3c-0.5,0.2-1.1,0.2-1.7,0.3
				C123.5,93.4,123.5,93.1,123.7,93L123.7,93z"/>
		</g>
		<g>
			<path class="st0" d="M118.2,92.3c2.1-0.4,4.3-0.8,6.4-0.6c0.2,0,0.1,0.3,0,0.3c-2.1,0.3-4.2,0.3-6.4,0.6
				C118,92.7,118,92.4,118.2,92.3L118.2,92.3z"/>
		</g>
		<g>
			<path class="st0" d="M117.9,91.3c2.5-0.7,5.3-1,7.9-0.8c0.2,0,0.1,0.3,0,0.3c-2.6,0.4-5.2,0.2-7.8,0.8
				C117.7,91.6,117.7,91.3,117.9,91.3L117.9,91.3z"/>
		</g>
		<g>
			<path class="st0" d="M118.1,90.1c2.6-0.5,5.5-0.9,8.1-0.7c0.2,0,0.2,0.3,0,0.3c-2.7,0.3-5.3,0.3-8,0.6
				C117.9,90.4,117.9,90.2,118.1,90.1L118.1,90.1z"/>
		</g>
		<g>
			<path class="st0" d="M118,88.9c2.6-0.2,5.2-0.6,7.8-0.7c0.2,0,0.2,0.3,0,0.3c-2.6,0.5-5.2,0.5-7.8,0.7
				C117.8,89.2,117.8,88.9,118,88.9L118,88.9z"/>
		</g>
		<g>
			<path class="st0" d="M118,87.7c0.2,0,0.4,0,0.6,0c0.2,0,0.4-0.1,0.5,0c0.1,0,0.2,0.2,0.1,0.3c-0.4,0.3-0.9,0.2-1.2,0.1
				C117.7,88,117.8,87.7,118,87.7L118,87.7z"/>
		</g>
		<g>
			<path class="st0" d="M120.1,87.6c0.9,0,1.8,0,2.7-0.1c0.8,0,1.7-0.2,2.5-0.2c0.1,0,0.2,0.3,0,0.3c-0.8,0.3-1.8,0.3-2.6,0.3
				c-0.9,0-1.8,0-2.6,0C119.9,87.9,119.9,87.6,120.1,87.6L120.1,87.6z"/>
		</g>
		<g>
			<path class="st0" d="M117.8,86.8c2.4-0.4,5.1-0.7,7.5-0.4c0.2,0,0.2,0.3,0,0.4c-1.2,0.2-2.5,0.1-3.7,0.2
				c-1.2,0.1-2.5,0.2-3.7,0.3C117.6,87.2,117.5,86.9,117.8,86.8L117.8,86.8z"/>
		</g>
		<g>
			<path class="st0" d="M117.6,85.8c1.4-0.2,2.9-0.3,4.3-0.4c1.3-0.1,2.6-0.3,3.9-0.3c0.2,0,0.1,0.3,0,0.3c-1.3,0.3-2.7,0.3-4.1,0.4
				c-1.4,0.1-2.7,0.2-4.1,0.2C117.4,86.1,117.4,85.8,117.6,85.8L117.6,85.8z"/>
		</g>
		<g>
			<path class="st0" d="M118.2,84.8c0.2,0,0.4-0.1,0.6-0.1c0.1,0,0.2,0.2,0,0.3c-0.2,0.1-0.4,0.1-0.6,0.1
				C118,85.1,118,84.8,118.2,84.8L118.2,84.8z"/>
		</g>
		<g>
			<path class="st0" d="M119.8,84.6c1.8-0.2,3.7-0.5,5.5-0.5c0.2,0,0.1,0.3,0,0.3c-1.8,0.4-3.7,0.4-5.5,0.5
				C119.6,84.9,119.6,84.6,119.8,84.6L119.8,84.6z"/>
		</g>
		<g>
			<path class="st0" d="M118,83.5c1.3-0.1,2.6-0.2,3.9-0.3c1.2-0.1,2.4-0.2,3.5-0.1c0.2,0,0.1,0.3,0,0.3c-1.2,0.2-2.5,0.1-3.7,0.2
				c-1.2,0.1-2.5,0.1-3.7,0.2C117.8,83.8,117.8,83.5,118,83.5L118,83.5z"/>
		</g>
		<g>
			<path class="st0" d="M118,82.6c0.6,0,1.3,0,1.9-0.1c0.6-0.1,1.2-0.2,1.8-0.2c0.1,0,0.1,0.3,0,0.3c-0.6,0.2-1.3,0.2-1.9,0.3
				c-0.6,0.1-1.2,0.1-1.9,0.1C117.8,82.9,117.8,82.6,118,82.6L118,82.6z"/>
		</g>
		<g>
			<path class="st0" d="M122.4,82.2c0.6-0.1,1.1-0.1,1.7-0.1c0.5,0,1-0.1,1.5,0.1c0.1,0,0.1,0.3,0,0.3c-0.5,0.1-1,0-1.6,0.1
				c-0.5,0-1,0-1.6,0C122.2,82.5,122.2,82.2,122.4,82.2L122.4,82.2z"/>
		</g>
		<g>
			<path class="st0" d="M118,81.5c2.4-0.3,4.9-0.7,7.3-0.5c0.2,0,0.1,0.3,0,0.3c-2.4,0.3-4.8,0.2-7.2,0.5
				C117.9,81.8,117.9,81.5,118,81.5L118,81.5z"/>
		</g>
		<g>
			<path class="st0" d="M117.9,80.4c2.5-0.2,5.1-0.5,7.6-0.5c0.2,0,0.2,0.3,0,0.3c-2.5,0.3-5.1,0.3-7.6,0.4
				C117.7,80.7,117.7,80.4,117.9,80.4L117.9,80.4z"/>
		</g>
		<g>
			<path class="st0" d="M117.9,79.3c0.4,0,0.9-0.1,1.3,0c0.2,0,0.1,0.3,0,0.3c-0.4,0.1-0.9,0.1-1.4,0.1
				C117.7,79.6,117.7,79.3,117.9,79.3L117.9,79.3z"/>
		</g>
		<g>
			<path class="st0" d="M120.4,79.1c0.9-0.1,1.8-0.2,2.7-0.2c0.8,0,1.7-0.2,2.5,0c0.2,0,0.1,0.3,0,0.3c-0.8,0.2-1.7,0.1-2.6,0.2
				c-0.9,0-1.7,0.1-2.6,0.1C120.3,79.4,120.3,79.1,120.4,79.1L120.4,79.1z"/>
		</g>
		<g>
			<path class="st0" d="M117.6,78.3c1.7-0.1,3.5-0.4,5.2-0.3c0.2,0,0.2,0.3,0,0.4c-1.7,0.2-3.5,0.2-5.2,0.3
				C117.5,78.6,117.4,78.3,117.6,78.3L117.6,78.3z"/>
		</g>
		<g>
			<path class="st0" d="M124.7,77.7c0.2,0,0.5-0.1,0.7-0.1c0.2,0,0.4-0.1,0.7,0c0.1,0,0.1,0.2,0,0.3c-0.2,0.1-0.4,0.1-0.6,0.1
				c-0.2,0-0.5,0-0.7,0.1C124.5,78.1,124.5,77.8,124.7,77.7L124.7,77.7z"/>
		</g>
		<g>
			<path class="st0" d="M117.7,77c2.7-0.2,5.5-0.6,8.1-0.5c0.2,0,0.1,0.3,0,0.3c-2.6,0.5-5.4,0.3-8.1,0.5
				C117.5,77.3,117.5,77,117.7,77L117.7,77z"/>
		</g>
		<g>
			<path class="st0" d="M118,75.8c0.3-0.1,0.6-0.1,0.9-0.2c0.3,0,0.6-0.1,0.9-0.1c0.1,0,0.1,0.2,0,0.3c-0.3,0.1-0.6,0.1-0.8,0.1
				c-0.3,0-0.6,0.1-0.9,0.1C117.9,76.1,117.8,75.9,118,75.8L118,75.8z"/>
		</g>
		<g>
			<path class="st0" d="M120.2,75.5c1.9-0.1,4-0.2,5.9,0c0.2,0,0.2,0.3,0,0.3c-1.9,0.2-3.9,0-5.9,0
				C120.1,75.8,120.1,75.5,120.2,75.5L120.2,75.5z"/>
		</g>
		<g>
			<path class="st0" d="M117.6,74.8c2.7-0.3,5.6-0.7,8.3-0.3c0.2,0,0.1,0.3,0,0.3c-2.7,0.2-5.5,0-8.2,0.3
				C117.5,75.1,117.5,74.8,117.6,74.8L117.6,74.8z"/>
		</g>
		<g>
			<path class="st0" d="M117.9,73.6c2.2-0.3,4.5-0.5,6.7-0.3c0.1,0,0.1,0.2,0,0.3c-2.2,0.1-4.5,0.1-6.7,0.4
				C117.8,73.9,117.8,73.7,117.9,73.6L117.9,73.6z"/>
		</g>
		<g>
			<path class="st0" d="M117.8,72.2c0.3,0,0.6,0,0.8,0c0.2,0,0.5,0,0.7,0c0.1,0,0.1,0.2,0,0.3c-0.2,0.1-0.5,0-0.7,0
				c-0.3,0-0.6,0-0.8,0C117.6,72.6,117.7,72.3,117.8,72.2L117.8,72.2z"/>
		</g>
		<g>
			<path class="st0" d="M120.3,72.3c2-0.1,4-0.2,5.9,0c0.2,0,0.1,0.3,0,0.3c-2,0.1-3.9-0.1-5.9-0.1
				C120.1,72.6,120.1,72.3,120.3,72.3L120.3,72.3z"/>
		</g>
		<g>
			<path class="st0" d="M117.7,71.1c2.7-0.1,5.7-0.4,8.4-0.2c0.2,0,0.1,0.3,0,0.3c-2.7,0.4-5.6,0.2-8.4,0.2
				C117.5,71.4,117.6,71.1,117.7,71.1L117.7,71.1z"/>
		</g>
		<g>
			<path class="st0" d="M117.8,70c2.9-0.3,6.2-0.6,9.1-0.3c0.2,0,0.2,0.3,0,0.4c-1.6,0.2-3.2,0.1-4.8,0.1c-1.4,0-2.9,0.1-4.3,0.1
				C117.6,70.3,117.6,70,117.8,70L117.8,70z"/>
		</g>
		<g>
			<path class="st0" d="M117.7,68.7c3.1-0.1,6.3-0.1,9.3,0.1c0.2,0,0.2,0.3,0,0.3c-3.1,0.1-6.2,0-9.3-0.1
				C117.5,69,117.5,68.7,117.7,68.7L117.7,68.7z"/>
		</g>
	</g>
	<g>
		<g>
			<path class="st0" d="M144.2,126.5c2,0,3.9,0.2,5.9,0.4c0.2,0,0.1,0.4-0.1,0.4c-2-0.1-4-0.2-5.9-0.5
				C143.9,126.7,144,126.5,144.2,126.5L144.2,126.5z"/>
		</g>
		<g>
			<path class="st0" d="M144.4,125.6c0.3,0,0.6-0.1,0.8,0c0.1,0,0.1,0.2,0,0.3c-0.3,0.1-0.5,0-0.8,0
				C144.2,125.9,144.2,125.6,144.4,125.6L144.4,125.6z"/>
		</g>
		<g>
			<path class="st0" d="M145.2,125.3c1.5,0.1,3.1,0.2,4.6,0.4c0.2,0,0.2,0.4-0.1,0.4c-1.5-0.1-3.1-0.3-4.6-0.5
				C145,125.5,145,125.3,145.2,125.3L145.2,125.3z"/>
		</g>
		<g>
			<path class="st0" d="M144.5,124.7c0.6,0,1.3,0,1.9,0c0.6,0,1.2-0.1,1.7,0.1c0.1,0,0.1,0.3-0.1,0.3c-0.6,0.1-1.2,0-1.7,0
				c-0.6,0-1.3,0-1.9-0.1C144.2,125,144.3,124.7,144.5,124.7L144.5,124.7z"/>
		</g>
		<g>
			<path class="st0" d="M148.5,124.7c0.5,0,1.1,0,1.6,0.1c0.2,0,0.2,0.3,0,0.3c-0.6,0-1.1-0.1-1.6-0.2
				C148.2,124.9,148.3,124.7,148.5,124.7L148.5,124.7z"/>
		</g>
		<g>
			<path class="st0" d="M144.6,123.8c2-0.1,4.2-0.3,6.1,0.1c0.1,0,0.1,0.3,0,0.3c-2,0.1-4-0.2-6-0.1
				C144.4,124.1,144.4,123.8,144.6,123.8L144.6,123.8z"/>
		</g>
		<g>
			<path class="st0" d="M144.6,122.6c1.9-0.1,4.1-0.2,5.9,0.1c0.2,0,0.1,0.3,0,0.4c-2,0.2-4,0-6-0.1
				C144.4,122.9,144.5,122.6,144.6,122.6L144.6,122.6z"/>
		</g>
		<g>
			<path class="st0" d="M144.6,121.7c0.5,0,1-0.2,1.5-0.1c0.1,0,0.1,0.3,0,0.3c-0.5,0.1-1,0.1-1.5,0.1
				C144.4,122,144.4,121.7,144.6,121.7L144.6,121.7z"/>
		</g>
		<g>
			<path class="st0" d="M146.5,121.2c0.6,0,1.2,0,1.8,0.1c0.6,0,1.3,0,1.8,0.1c0.1,0,0.1,0.3,0,0.3c-0.6,0.1-1.2,0-1.8-0.1
				c-0.6,0-1.3-0.1-1.9-0.2C146.3,121.5,146.3,121.2,146.5,121.2L146.5,121.2z"/>
		</g>
		<g>
			<path class="st0" d="M144.3,130c2-0.1,4.2-0.3,6.1,0.1c0.1,0,0.1,0.3,0,0.3c-2,0.1-4-0.2-6.1-0.1
				C144.1,130.3,144.1,130,144.3,130L144.3,130z"/>
		</g>
		<g>
			<path class="st0" d="M144.3,128.8c1.9-0.1,4.1-0.2,5.9,0.1c0.2,0,0.1,0.3,0,0.4c-2,0.2-4,0-6-0.1
				C144.1,129.1,144.2,128.9,144.3,128.8L144.3,128.8z"/>
		</g>
		<g>
			<path class="st0" d="M144.3,128c0.5,0,1-0.2,1.5-0.1c0.1,0,0.1,0.3,0,0.3c-0.5,0.1-1,0.1-1.5,0.1
				C144.1,128.2,144.1,128,144.3,128L144.3,128z"/>
		</g>
		<g>
			<path class="st0" d="M146.5,127.6c0.6,0,1.2,0,1.8,0.1c0.6,0,1.3,0,1.8,0.1c0.1,0,0.1,0.3,0,0.3c-0.6,0.1-1.2,0-1.8-0.1
				c-0.6,0-1.3-0.1-1.9-0.2C146.3,127.9,146.3,127.6,146.5,127.6L146.5,127.6z"/>
		</g>
		<g>
			<path class="st0" d="M144.8,120.6c0.6-0.1,1.2-0.1,1.9-0.1c0.6,0,1.2-0.1,1.8,0.1c0.1,0,0.1,0.3-0.1,0.3c-0.6,0.1-1.2,0-1.7,0
				c-0.6,0-1.3,0-1.9,0.1C144.6,120.9,144.6,120.6,144.8,120.6L144.8,120.6z"/>
		</g>
		<g>
			<path class="st0" d="M148.9,120.2c0.4,0,0.7,0,1.1,0c0.2,0,0.2,0.4,0,0.4c-0.4,0-0.7,0-1.1,0
				C148.8,120.5,148.8,120.2,148.9,120.2L148.9,120.2z"/>
		</g>
		<g>
			<path class="st0" d="M144.9,119.4c1.9-0.1,3.8-0.2,5.7,0c0.2,0,0.2,0.4,0,0.4c-1.9,0.1-3.8,0-5.7-0.1
				C144.7,119.7,144.8,119.4,144.9,119.4L144.9,119.4z"/>
		</g>
		<g>
			<path class="st0" d="M145.2,118.4c1,0,2-0.1,3-0.1c1,0,2-0.1,3,0c0.2,0,0.1,0.3,0,0.3c-1,0.2-1.9,0.1-2.9,0.1c-1.1,0-2.1,0-3.1,0
				C145,118.7,145,118.4,145.2,118.4L145.2,118.4z"/>
		</g>
		<g>
			<path class="st0" d="M145.1,117.3c0.3,0,0.6,0,0.9,0.1c0.1,0.1,0.1,0.3-0.1,0.3c-0.3,0.1-0.6,0-0.9,0
				C144.8,117.7,144.9,117.3,145.1,117.3L145.1,117.3z"/>
		</g>
		<g>
			<path class="st0" d="M145.7,116.9c0.7,0,1.5-0.1,2.2-0.1c0.8,0,1.7,0,2.4,0.2c0.2,0,0.2,0.3,0,0.3c-0.7,0.1-1.4,0-2.1-0.1
				c-0.8,0-1.7-0.1-2.5,0C145.5,117.2,145.5,116.9,145.7,116.9L145.7,116.9z"/>
		</g>
		<g>
			<path class="st0" d="M145,116.4c0.5,0,1-0.1,1.6-0.1c0.5,0,1-0.1,1.4,0c0.1,0,0.1,0.3-0.1,0.3c-0.5,0.1-1,0.1-1.4,0.1
				c-0.5,0-1,0-1.5-0.1C144.8,116.7,144.8,116.4,145,116.4L145,116.4z"/>
		</g>
		<g>
			<path class="st0" d="M148.1,115.8c0.4,0,0.8,0,1.3,0c0.4,0,0.8,0,1.1,0.1c0.1,0,0.1,0.3-0.1,0.3c-0.4,0.1-0.8,0-1.2,0
				c-0.4,0-0.8-0.1-1.2-0.1C147.9,116.1,148,115.8,148.1,115.8L148.1,115.8z"/>
		</g>
		<g>
			<path class="st0" d="M145,115.4c2-0.3,4-0.2,5.9-0.2c0.3,0,0.1,0.5-0.1,0.5c-1.9,0-3.9,0.2-5.8,0.1
				C144.8,115.8,144.9,115.5,145,115.4L145,115.4z"/>
		</g>
		<g>
			<path class="st0" d="M145.2,114.5c1.1-0.1,2.1-0.2,3.2-0.2c1,0,2.2-0.1,3.1,0.2c0.1,0,0.1,0.3-0.1,0.3c-0.9,0.2-1.9,0-2.8,0
				c-1.1,0-2.3,0.1-3.4,0.1C144.9,114.9,144.9,114.5,145.2,114.5L145.2,114.5z"/>
		</g>
		<g>
			<path class="st0" d="M145.4,113.5c0.3,0,0.7-0.1,1,0c0.1,0,0.1,0.2,0,0.3c-0.3,0.1-0.7,0.1-1,0.1
				C145.2,113.8,145.2,113.5,145.4,113.5L145.4,113.5z"/>
		</g>
		<g>
			<path class="st0" d="M145.9,112.8c1.5,0,3-0.1,4.5,0c0.2,0,0.2,0.3,0,0.4c-1.5,0.1-3,0-4.5,0C145.7,113,145.7,112.8,145.9,112.8
				L145.9,112.8z"/>
		</g>
		<g>
			<path class="st0" d="M145.2,112.5c2-0.2,4-0.5,5.9-0.3c0.2,0,0.1,0.3,0,0.4c-2,0.1-3.9,0-5.9,0.2
				C145.1,112.8,145,112.5,145.2,112.5L145.2,112.5z"/>
		</g>
		<g>
			<path class="st0" d="M144.2,110.8c0.3,0,0.6,0,0.9,0c0.3,0,0.6-0.1,0.9,0c0.1,0,0.1,0.2,0,0.3c-0.5,0.2-1.3,0.2-1.8,0.1
				C144,111.1,144,110.8,144.2,110.8L144.2,110.8z"/>
		</g>
		<g>
			<path class="st0" d="M147.7,110.8c0.6,0,1.2,0.1,1.8,0c0.5,0,1.1-0.1,1.6-0.1c0.1,0,0.2,0.3,0,0.3c-0.6,0.2-1.2,0.2-1.7,0.2
				c-0.6,0-1.2,0-1.7-0.1C147.4,111.2,147.5,110.8,147.7,110.8L147.7,110.8z"/>
		</g>
		<g>
			<path class="st0" d="M143.9,109.8c1.1-0.2,2.2-0.2,3.2-0.1c1.2,0.1,2.4,0,3.5,0c0.2,0,0.1,0.3,0,0.3c-1,0.3-2.1,0.1-3.1,0.1
				c-1.2-0.1-2.4-0.1-3.6,0C143.8,110.1,143.8,109.8,143.9,109.8L143.9,109.8z"/>
		</g>
		<g>
			<path class="st0" d="M143.9,108.6c2.2-0.1,4.6-0.2,6.7,0c0.2,0,0.2,0.3,0,0.4c-2.2,0.2-4.5,0-6.7-0.1
				C143.7,108.9,143.7,108.6,143.9,108.6L143.9,108.6z"/>
		</g>
		<g>
			<path class="st0" d="M143.9,107.8c0.4-0.1,0.9-0.2,1.3-0.2c0.4,0,0.9-0.1,1.2,0c0.2,0,0.2,0.4,0,0.4c-0.4,0.1-0.8,0-1.3,0.1
				c-0.4,0-0.8,0.1-1.3,0.1C143.7,108.2,143.7,107.8,143.9,107.8L143.9,107.8z"/>
		</g>
		<g>
			<path class="st0" d="M147.6,107.6c1,0,2,0,3,0.1c0.2,0,0.2,0.3,0,0.4c-1,0.1-2-0.1-3-0.1C147.2,107.9,147.3,107.6,147.6,107.6
				L147.6,107.6z"/>
		</g>
		<g>
			<path class="st0" d="M144.5,106.7c0.1,0,0.2-0.1,0.3-0.1c0.1,0,0.2,0.2,0,0.3c-0.1,0.1-0.2,0.1-0.3,0.1
				C144.4,107,144.3,106.7,144.5,106.7L144.5,106.7z"/>
		</g>
		<g>
			<path class="st0" d="M146.1,106.6c0.9,0,1.7-0.1,2.6-0.1c0.8,0,1.6-0.1,2.3,0c0.2,0,0.1,0.3,0,0.3c-0.8,0.2-1.7,0.1-2.6,0.1
				c-0.8,0-1.6,0-2.3,0C145.9,106.9,145.9,106.6,146.1,106.6L146.1,106.6z"/>
		</g>
		<g>
			<path class="st0" d="M143.9,105.6c1.2,0,2.4,0,3.6,0c1.1,0,2.2-0.2,3.3,0c0.2,0,0.1,0.3,0,0.3c-1.1,0.2-2.3,0.1-3.4,0.1
				c-1.1,0-2.3,0-3.4,0C143.7,105.9,143.7,105.6,143.9,105.6L143.9,105.6z"/>
		</g>
		<g>
			<path class="st0" d="M144.4,104.7c2.2-0.1,4.5-0.4,6.7-0.2c0.2,0,0.1,0.3,0,0.3c-2.2,0.3-4.5,0.1-6.7,0.1
				C144.2,104.9,144.2,104.7,144.4,104.7L144.4,104.7z"/>
		</g>
		<g>
			<path class="st0" d="M144.1,103.7c2.4-0.2,4.9-0.4,7.3-0.3c0.2,0,0.2,0.3,0,0.3c-2.4,0.3-4.9,0.3-7.3,0.2
				C143.9,103.9,143.9,103.7,144.1,103.7L144.1,103.7z"/>
		</g>
		<g>
			<path class="st0" d="M144,102.5c0.3,0,0.7-0.1,1,0c0.1,0,0.1,0.2,0,0.3c-0.3,0.1-0.7,0-1,0C143.8,102.8,143.9,102.5,144,102.5
				L144,102.5z"/>
		</g>
		<g>
			<path class="st0" d="M145.9,102.4c1.6-0.3,3.3-0.5,4.9-0.3c0.1,0,0.1,0.3,0,0.3c-1.6,0.2-3.3,0.2-4.9,0.3
				C145.7,102.7,145.7,102.4,145.9,102.4L145.9,102.4z"/>
		</g>
		<g>
			<path class="st0" d="M144,101.3c2.3-0.1,4.7-0.5,7-0.3c0.2,0,0.1,0.3,0,0.3c-2.3,0.4-4.6,0.2-6.9,0.3
				C143.8,101.6,143.8,101.3,144,101.3L144,101.3z"/>
		</g>
		<g>
			<path class="st0" d="M144.2,100.2c0.5,0,1.1-0.1,1.6-0.1c0.5,0,1-0.1,1.5,0c0.2,0,0.1,0.3,0,0.3c-0.5,0.1-1,0.1-1.5,0.1
				c-0.5,0-1,0-1.5,0C144,100.5,144,100.2,144.2,100.2L144.2,100.2z"/>
		</g>
		<g>
			<path class="st0" d="M148.4,100c0.8-0.1,1.8-0.2,2.6,0c0.2,0,0.1,0.3,0,0.3c-0.8,0.2-1.7,0.1-2.6,0
				C148.2,100.3,148.2,100,148.4,100L148.4,100z"/>
		</g>
		<g>
			<path class="st0" d="M144.1,99.1c2.2-0.3,4.7-0.7,6.9-0.4c0.2,0,0.1,0.3,0,0.3c-1.1,0.2-2.3,0.1-3.4,0.2
				c-1.1,0.1-2.3,0.2-3.4,0.3C143.9,99.5,143.9,99.1,144.1,99.1L144.1,99.1z"/>
		</g>
		<g>
			<path class="st0" d="M144,98.1c0.3,0,0.7-0.1,0.9,0c0.1,0,0.2,0.2,0,0.3c-0.3,0.1-0.6,0.1-0.9,0.1
				C143.8,98.5,143.8,98.1,144,98.1L144,98.1z"/>
		</g>
		<g>
			<path class="st0" d="M145.8,97.9c0.9-0.1,1.8-0.2,2.7-0.3c0.8-0.1,1.7-0.3,2.5-0.2c0.1,0,0.2,0.3,0,0.3c-0.8,0.2-1.7,0.2-2.5,0.3
				c-0.9,0.1-1.8,0.2-2.7,0.2C145.6,98.3,145.5,97.9,145.8,97.9L145.8,97.9z"/>
		</g>
		<g>
			<path class="st0" d="M144.1,97.1c0.7-0.1,1.4-0.2,2-0.3c0.6-0.1,1.2-0.2,1.9-0.2c0.2,0,0.1,0.3,0,0.3c-0.6,0.2-1.3,0.2-1.9,0.2
				c-0.6,0.1-1.3,0.1-1.9,0.2C143.9,97.4,143.9,97.1,144.1,97.1L144.1,97.1z"/>
		</g>
		<g>
			<path class="st0" d="M149.2,96.5c0.7-0.1,1.5-0.3,2.3-0.2c0.1,0,0.2,0.2,0,0.3c-0.7,0.2-1.5,0.2-2.3,0.2
				C149,96.9,149,96.6,149.2,96.5L149.2,96.5z"/>
		</g>
		<g>
			<path class="st0" d="M144,96c2.4-0.2,5-0.9,7.3-0.5c0.1,0,0.1,0.3,0,0.3c-2.4,0.2-4.8,0.5-7.2,0.5C143.8,96.3,143.8,96,144,96
				L144,96z"/>
		</g>
		<g>
			<path class="st0" d="M144.5,94.7c2.4-0.2,4.8-0.6,7.2-0.7c0.2,0,0.2,0.3,0,0.3c-2.4,0.5-4.9,0.5-7.2,0.7
				C144.4,95.1,144.3,94.8,144.5,94.7L144.5,94.7z"/>
		</g>
		<g>
			<path class="st0" d="M144.2,93.7c0.4,0,0.8-0.1,1.2-0.1c0.2,0,0.1,0.2,0,0.3c-0.4,0.1-0.8,0.1-1.2,0.1
				C144,94,144,93.7,144.2,93.7L144.2,93.7z"/>
		</g>
		<g>
			<path class="st0" d="M146.2,93.5c0.8-0.1,1.7-0.2,2.5-0.3c0.7-0.1,1.5-0.3,2.3-0.2c0.2,0,0.2,0.3,0,0.3c-0.7,0.2-1.5,0.3-2.3,0.3
				c-0.8,0.1-1.7,0.1-2.5,0.2C146.1,93.9,146,93.6,146.2,93.5L146.2,93.5z"/>
		</g>
		<g>
			<path class="st0" d="M144.2,92.5c0.7-0.2,1.5-0.3,2.2-0.3c0.7-0.1,1.4-0.2,2,0c0.2,0,0.1,0.3,0,0.3c-0.7,0.1-1.4,0.1-2.1,0.1
				c-0.7,0.1-1.4,0.2-2.1,0.3C144,92.9,144,92.6,144.2,92.5L144.2,92.5z"/>
		</g>
		<g>
			<path class="st0" d="M150,92c0.6-0.1,1.2-0.3,1.7-0.2c0.1,0,0.1,0.2,0,0.3c-0.5,0.2-1.1,0.2-1.7,0.3
				C149.8,92.4,149.8,92.1,150,92L150,92z"/>
		</g>
		<g>
			<path class="st0" d="M144.5,91.4c2.1-0.4,4.3-0.8,6.4-0.6c0.2,0,0.1,0.3,0,0.3c-2.1,0.3-4.2,0.3-6.4,0.6
				C144.3,91.7,144.3,91.4,144.5,91.4L144.5,91.4z"/>
		</g>
		<g>
			<path class="st0" d="M144.2,90.3c2.5-0.7,5.3-1,7.9-0.8c0.2,0,0.1,0.3,0,0.3c-2.6,0.4-5.2,0.2-7.8,0.8
				C144,90.6,144,90.3,144.2,90.3L144.2,90.3z"/>
		</g>
		<g>
			<path class="st0" d="M144.3,89.1c2.6-0.5,5.5-0.9,8.1-0.7c0.2,0,0.2,0.3,0,0.3c-2.7,0.3-5.3,0.3-8,0.6
				C144.2,89.4,144.2,89.2,144.3,89.1L144.3,89.1z"/>
		</g>
		<g>
			<path class="st0" d="M144.3,87.9c2.6-0.2,5.2-0.6,7.8-0.7c0.2,0,0.2,0.3,0,0.3c-2.6,0.5-5.2,0.5-7.8,0.7
				C144.1,88.2,144.1,87.9,144.3,87.9L144.3,87.9z"/>
		</g>
		<g>
			<path class="st0" d="M144.3,86.7c0.2,0,0.4,0,0.6,0c0.2,0,0.4-0.1,0.5,0c0.1,0,0.2,0.2,0.1,0.3c-0.4,0.3-0.9,0.2-1.2,0.1
				C144,87,144.1,86.7,144.3,86.7L144.3,86.7z"/>
		</g>
		<g>
			<path class="st0" d="M146.4,86.6c0.9,0,1.8,0,2.7-0.1c0.8,0,1.7-0.2,2.5-0.2c0.1,0,0.2,0.3,0,0.3c-0.9,0.3-1.8,0.3-2.6,0.3
				c-0.9,0-1.8,0-2.6,0C146.2,86.9,146.2,86.6,146.4,86.6L146.4,86.6z"/>
		</g>
		<g>
			<path class="st0" d="M144.1,85.8c2.4-0.4,5.1-0.7,7.5-0.4c0.2,0,0.2,0.3,0,0.4c-1.2,0.2-2.5,0.1-3.7,0.2
				c-1.2,0.1-2.5,0.2-3.7,0.3C143.9,86.2,143.8,85.9,144.1,85.8L144.1,85.8z"/>
		</g>
		<g>
			<path class="st0" d="M143.8,84.8c1.4-0.2,2.9-0.3,4.3-0.4c1.3-0.1,2.6-0.3,3.9-0.3c0.2,0,0.1,0.3,0,0.3c-1.3,0.3-2.7,0.3-4.1,0.4
				c-1.4,0.1-2.7,0.2-4.1,0.2C143.7,85.1,143.7,84.8,143.8,84.8L143.8,84.8z"/>
		</g>
		<g>
			<path class="st0" d="M144.4,83.8c0.2,0,0.4-0.1,0.6-0.1c0.1,0,0.2,0.2,0,0.3c-0.2,0.1-0.4,0.1-0.6,0.1
				C144.3,84.2,144.2,83.8,144.4,83.8L144.4,83.8z"/>
		</g>
		<g>
			<path class="st0" d="M146.1,83.6c1.8-0.2,3.7-0.5,5.5-0.5c0.2,0,0.1,0.3,0,0.3c-1.8,0.4-3.7,0.4-5.5,0.5
				C145.9,83.9,145.9,83.6,146.1,83.6L146.1,83.6z"/>
		</g>
		<g>
			<path class="st0" d="M144.2,82.5c1.3-0.1,2.6-0.2,3.9-0.3c1.2-0.1,2.4-0.2,3.5-0.1c0.2,0,0.1,0.3,0,0.3c-1.2,0.2-2.5,0.1-3.7,0.2
				c-1.2,0.1-2.5,0.1-3.7,0.2C144.1,82.8,144.1,82.5,144.2,82.5L144.2,82.5z"/>
		</g>
		<g>
			<path class="st0" d="M144.3,81.6c0.6,0,1.3,0,1.9-0.1c0.6-0.1,1.2-0.2,1.8-0.2c0.1,0,0.1,0.3,0,0.3c-0.6,0.2-1.3,0.2-1.9,0.3
				c-0.6,0.1-1.2,0.1-1.9,0.1C144,81.9,144.1,81.6,144.3,81.6L144.3,81.6z"/>
		</g>
		<g>
			<path class="st0" d="M148.7,81.2c0.6-0.1,1.1-0.1,1.7-0.1c0.5,0,1-0.1,1.5,0.1c0.1,0,0.1,0.3,0,0.3c-0.5,0.1-1,0-1.6,0.1
				c-0.5,0-1,0-1.6,0C148.5,81.5,148.5,81.2,148.7,81.2L148.7,81.2z"/>
		</g>
		<g>
			<path class="st0" d="M144.3,80.5c2.4-0.3,4.9-0.7,7.3-0.5c0.2,0,0.1,0.3,0,0.3c-2.4,0.3-4.8,0.2-7.2,0.5
				C144.1,80.8,144.1,80.5,144.3,80.5L144.3,80.5z"/>
		</g>
		<g>
			<path class="st0" d="M144.2,79.4c2.5-0.2,5.1-0.5,7.6-0.5c0.2,0,0.2,0.3,0,0.3c-2.5,0.3-5.1,0.3-7.6,0.4
				C144,79.7,144,79.4,144.2,79.4L144.2,79.4z"/>
		</g>
		<g>
			<path class="st0" d="M144.2,78.3c0.4,0,0.9-0.1,1.3,0c0.2,0,0.1,0.3,0,0.3c-0.4,0.1-0.9,0.1-1.4,0.1
				C144,78.6,144,78.3,144.2,78.3L144.2,78.3z"/>
		</g>
		<g>
			<path class="st0" d="M146.7,78.1c0.9-0.1,1.8-0.2,2.7-0.2c0.8,0,1.7-0.2,2.5,0c0.2,0,0.1,0.3,0,0.3c-0.8,0.2-1.7,0.1-2.6,0.2
				c-0.9,0-1.7,0.1-2.6,0.1C146.6,78.4,146.5,78.1,146.7,78.1L146.7,78.1z"/>
		</g>
		<g>
			<path class="st0" d="M143.9,77.3c1.7-0.1,3.5-0.4,5.2-0.3c0.2,0,0.2,0.3,0,0.4c-1.7,0.2-3.5,0.2-5.2,0.3
				C143.7,77.6,143.7,77.3,143.9,77.3L143.9,77.3z"/>
		</g>
		<g>
			<path class="st0" d="M151,76.7c0.2,0,0.5-0.1,0.7-0.1c0.2,0,0.4-0.1,0.7,0c0.1,0,0.1,0.2,0,0.3c-0.2,0.1-0.4,0.1-0.6,0.1
				c-0.2,0-0.5,0-0.7,0.1C150.8,77.1,150.8,76.8,151,76.7L151,76.7z"/>
		</g>
		<g>
			<path class="st0" d="M143.9,76c2.7-0.2,5.5-0.6,8.1-0.5c0.2,0,0.1,0.3,0,0.3c-2.6,0.5-5.4,0.3-8.1,0.5
				C143.8,76.3,143.7,76,143.9,76L143.9,76z"/>
		</g>
		<g>
			<path class="st0" d="M144.3,74.9c0.3-0.1,0.6-0.1,0.9-0.2c0.3,0,0.6-0.1,0.9-0.1c0.1,0,0.1,0.2,0,0.3c-0.3,0.1-0.6,0.1-0.8,0.1
				c-0.3,0-0.6,0.1-0.9,0.1C144.2,75.1,144.1,74.9,144.3,74.9L144.3,74.9z"/>
		</g>
		<g>
			<path class="st0" d="M146.5,74.5c1.9-0.1,4-0.2,5.9,0c0.2,0,0.2,0.3,0,0.3c-1.9,0.2-3.9,0-5.9,0
				C146.3,74.8,146.4,74.5,146.5,74.5L146.5,74.5z"/>
		</g>
		<g>
			<path class="st0" d="M143.9,73.8c2.7-0.3,5.6-0.7,8.3-0.3c0.2,0,0.1,0.3,0,0.3c-2.7,0.2-5.5,0-8.2,0.3
				C143.8,74.1,143.7,73.8,143.9,73.8L143.9,73.8z"/>
		</g>
		<g>
			<path class="st0" d="M144.2,72.6c2.2-0.3,4.5-0.5,6.7-0.3c0.1,0,0.1,0.2,0,0.3c-2.2,0.1-4.5,0.1-6.7,0.4
				C144.1,72.9,144,72.7,144.2,72.6L144.2,72.6z"/>
		</g>
		<g>
			<path class="st0" d="M144.1,71.3c0.3,0,0.6,0,0.8,0c0.2,0,0.5,0,0.7,0c0.1,0,0.1,0.2,0,0.3c-0.2,0.1-0.5,0-0.7,0
				c-0.3,0-0.6,0-0.8,0C143.9,71.6,143.9,71.3,144.1,71.3L144.1,71.3z"/>
		</g>
		<g>
			<path class="st0" d="M146.6,71.3c2-0.1,4-0.2,5.9,0c0.2,0,0.1,0.3,0,0.3c-2,0.1-3.9-0.1-5.9-0.1
				C146.4,71.6,146.4,71.3,146.6,71.3L146.6,71.3z"/>
		</g>
		<g>
			<path class="st0" d="M144,70.1c2.7-0.1,5.7-0.4,8.4-0.2c0.2,0,0.1,0.3,0,0.3c-2.7,0.4-5.6,0.2-8.4,0.2
				C143.8,70.4,143.9,70.1,144,70.1L144,70.1z"/>
		</g>
		<g>
			<path class="st0" d="M144.1,69c2.9-0.3,6.2-0.6,9.1-0.3c0.2,0,0.2,0.3,0,0.4c-1.6,0.2-3.2,0.1-4.8,0.1c-1.4,0-2.9,0.1-4.3,0.1
				C143.9,69.3,143.9,69,144.1,69L144.1,69z"/>
		</g>
		<g>
			<path class="st0" d="M143.9,67.7c3.1-0.1,6.3-0.1,9.3,0.1c0.2,0,0.2,0.3,0,0.3c-3.1,0.1-6.2,0-9.3-0.1
				C143.8,68,143.8,67.7,143.9,67.7L143.9,67.7z"/>
		</g>
	</g>
	<g>
		<g>
			<path class="st0" d="M183.8,109.9c0.4-0.1,0.9-0.2,1.3-0.2c0.4,0,0.9-0.1,1.2,0c0.2,0,0.2,0.4,0,0.4c-0.4,0.1-0.8,0-1.3,0.1
				c-0.4,0-0.8,0.1-1.3,0.1C183.5,110.3,183.5,110,183.8,109.9L183.8,109.9z"/>
		</g>
		<g>
			<path class="st0" d="M187.4,109.7c1,0,2,0,3,0.1c0.2,0,0.2,0.3,0,0.4c-1,0.1-2-0.1-3-0.1C187.1,110.1,187.2,109.7,187.4,109.7
				L187.4,109.7z"/>
		</g>
		<g>
			<path class="st0" d="M184.4,108.8c0.1,0,0.2-0.1,0.3-0.1c0.1,0,0.2,0.2,0,0.3c-0.1,0.1-0.2,0.1-0.3,0.1
				C184.2,109.2,184.2,108.9,184.4,108.8L184.4,108.8z"/>
		</g>
		<g>
			<path class="st0" d="M185.9,108.7c0.9,0,1.7-0.1,2.6-0.1c0.8,0,1.6-0.1,2.3,0c0.2,0,0.1,0.3,0,0.3c-0.8,0.2-1.7,0.1-2.6,0.1
				c-0.8,0-1.6,0-2.3,0C185.7,109,185.8,108.7,185.9,108.7L185.9,108.7z"/>
		</g>
		<g>
			<path class="st0" d="M183.7,107.7c1.2,0,2.4,0,3.6,0c1.1,0,2.2-0.2,3.3,0c0.2,0,0.1,0.3,0,0.3c-1.1,0.2-2.3,0.1-3.4,0.1
				c-1.1,0-2.3,0-3.4,0C183.5,108,183.6,107.7,183.7,107.7L183.7,107.7z"/>
		</g>
		<g>
			<path class="st0" d="M184.2,106.8c2.2-0.1,4.5-0.4,6.7-0.2c0.2,0,0.1,0.3,0,0.3c-2.2,0.3-4.5,0.1-6.7,0.1
				C184,107,184,106.8,184.2,106.8L184.2,106.8z"/>
		</g>
		<g>
			<path class="st0" d="M183.9,105.8c2.4-0.2,4.9-0.4,7.3-0.3c0.2,0,0.2,0.3,0,0.3c-2.4,0.3-4.9,0.3-7.3,0.2
				C183.8,106,183.8,105.8,183.9,105.8L183.9,105.8z"/>
		</g>
		<g>
			<path class="st0" d="M183.9,104.7c0.3,0,0.7-0.1,1,0c0.1,0,0.1,0.2,0,0.3c-0.3,0.1-0.7,0-1,0
				C183.7,104.9,183.7,104.7,183.9,104.7L183.9,104.7z"/>
		</g>
		<g>
			<path class="st0" d="M185.7,104.5c1.6-0.3,3.3-0.5,4.9-0.3c0.1,0,0.1,0.3,0,0.3c-1.6,0.2-3.3,0.2-4.9,0.3
				C185.6,104.8,185.6,104.6,185.7,104.5L185.7,104.5z"/>
		</g>
		<g>
			<path class="st0" d="M183.8,103.4c2.3-0.1,4.7-0.5,7-0.3c0.2,0,0.1,0.3,0,0.3c-2.3,0.4-4.6,0.2-6.9,0.3
				C183.6,103.7,183.6,103.4,183.8,103.4L183.8,103.4z"/>
		</g>
		<g>
			<path class="st0" d="M184,102.3c0.5,0,1.1-0.1,1.6-0.1c0.5,0,1-0.1,1.5,0c0.2,0,0.1,0.3,0,0.3c-0.5,0.1-1,0.1-1.5,0.1
				c-0.5,0-1,0-1.5,0C183.9,102.6,183.9,102.3,184,102.3L184,102.3z"/>
		</g>
		<g>
			<path class="st0" d="M188.2,102.2c0.8-0.1,1.8-0.2,2.6,0c0.2,0,0.1,0.3,0,0.3c-0.8,0.2-1.7,0.1-2.6,0
				C188,102.5,188,102.2,188.2,102.2L188.2,102.2z"/>
		</g>
		<g>
			<path class="st0" d="M183.9,101.2c2.2-0.3,4.7-0.7,6.9-0.4c0.2,0,0.1,0.3,0,0.3c-1.1,0.2-2.3,0.1-3.4,0.2
				c-1.1,0.1-2.3,0.2-3.4,0.3C183.7,101.6,183.7,101.3,183.9,101.2L183.9,101.2z"/>
		</g>
		<g>
			<path class="st0" d="M183.8,100.2c0.3,0,0.7-0.1,0.9,0c0.1,0,0.2,0.2,0,0.3c-0.3,0.1-0.6,0.1-0.9,0.1
				C183.6,100.6,183.6,100.3,183.8,100.2L183.8,100.2z"/>
		</g>
		<g>
			<path class="st0" d="M185.6,100c0.9-0.1,1.8-0.2,2.7-0.3c0.8-0.1,1.7-0.3,2.5-0.2c0.1,0,0.2,0.3,0,0.3c-0.8,0.2-1.7,0.2-2.5,0.3
				c-0.9,0.1-1.8,0.2-2.7,0.2C185.4,100.4,185.4,100,185.6,100L185.6,100z"/>
		</g>
		<g>
			<path class="st0" d="M183.9,99.2c0.7-0.1,1.4-0.2,2-0.3c0.6-0.1,1.2-0.2,1.9-0.2c0.2,0,0.1,0.3,0,0.3c-0.6,0.2-1.3,0.2-1.9,0.2
				c-0.6,0.1-1.3,0.1-1.9,0.2C183.7,99.5,183.7,99.3,183.9,99.2L183.9,99.2z"/>
		</g>
		<g>
			<path class="st0" d="M189,98.7c0.7-0.1,1.5-0.3,2.3-0.2c0.1,0,0.2,0.2,0,0.3c-0.7,0.2-1.5,0.2-2.3,0.2
				C188.8,99,188.8,98.7,189,98.7L189,98.7z"/>
		</g>
		<g>
			<path class="st0" d="M183.8,98.1c2.4-0.2,5-0.9,7.3-0.5c0.1,0,0.1,0.3,0,0.3c-2.4,0.2-4.8,0.5-7.2,0.5
				C183.6,98.4,183.6,98.1,183.8,98.1L183.8,98.1z"/>
		</g>
		<g>
			<path class="st0" d="M184.4,96.9c2.4-0.2,4.8-0.6,7.2-0.7c0.2,0,0.2,0.3,0,0.3c-2.4,0.5-4.9,0.5-7.2,0.7
				C184.2,97.2,184.2,96.9,184.4,96.9L184.4,96.9z"/>
		</g>
		<g>
			<path class="st0" d="M184,95.9c0.4,0,0.8-0.1,1.2-0.1c0.2,0,0.1,0.2,0,0.3c-0.4,0.1-0.8,0.1-1.2,0.1
				C183.9,96.2,183.9,95.9,184,95.9L184,95.9z"/>
		</g>
		<g>
			<path class="st0" d="M186.1,95.7c0.8-0.1,1.7-0.2,2.5-0.3c0.7-0.1,1.5-0.3,2.3-0.2c0.2,0,0.2,0.3,0,0.3c-0.7,0.2-1.5,0.3-2.3,0.3
				c-0.8,0.1-1.7,0.1-2.5,0.2C185.9,96,185.9,95.7,186.1,95.7L186.1,95.7z"/>
		</g>
		<g>
			<path class="st0" d="M184,94.7c0.7-0.2,1.5-0.3,2.2-0.3c0.7-0.1,1.4-0.2,2,0c0.2,0,0.1,0.3,0,0.3c-0.7,0.1-1.4,0.1-2.1,0.1
				c-0.7,0.1-1.4,0.2-2.1,0.3C183.9,95,183.9,94.7,184,94.7L184,94.7z"/>
		</g>
		<g>
			<path class="st0" d="M189.8,94.2c0.6-0.1,1.2-0.3,1.7-0.2c0.1,0,0.1,0.2,0,0.3c-0.5,0.2-1.1,0.2-1.7,0.3
				C189.6,94.5,189.6,94.2,189.8,94.2L189.8,94.2z"/>
		</g>
		<g>
			<path class="st0" d="M184.3,93.5c2.1-0.4,4.3-0.8,6.4-0.6c0.2,0,0.1,0.3,0,0.3c-2.1,0.3-4.2,0.3-6.4,0.6
				C184.1,93.8,184.1,93.5,184.3,93.5L184.3,93.5z"/>
		</g>
		<g>
			<path class="st0" d="M184,92.4c2.5-0.7,5.3-1,7.9-0.8c0.2,0,0.1,0.3,0,0.3c-2.6,0.4-5.2,0.2-7.8,0.8
				C183.8,92.7,183.8,92.5,184,92.4L184,92.4z"/>
		</g>
		<g>
			<path class="st0" d="M184.2,91.3c2.6-0.5,5.5-0.9,8.1-0.7c0.2,0,0.2,0.3,0,0.3c-2.7,0.3-5.3,0.3-8,0.6
				C184,91.6,184,91.3,184.2,91.3L184.2,91.3z"/>
		</g>
		<g>
			<path class="st0" d="M184.1,90c2.6-0.2,5.2-0.6,7.8-0.7c0.2,0,0.2,0.3,0,0.3c-2.6,0.5-5.2,0.5-7.8,0.7
				C183.9,90.4,183.9,90.1,184.1,90L184.1,90z"/>
		</g>
		<g>
			<path class="st0" d="M184.1,88.8c0.2,0,0.4,0,0.6,0c0.2,0,0.4-0.1,0.5,0c0.1,0,0.2,0.2,0.1,0.3c-0.4,0.3-0.9,0.2-1.2,0.1
				C183.8,89.1,183.9,88.8,184.1,88.8L184.1,88.8z"/>
		</g>
		<g>
			<path class="st0" d="M186.2,88.7c0.9,0,1.8,0,2.7-0.1c0.8,0,1.7-0.2,2.5-0.2c0.1,0,0.2,0.3,0,0.3c-0.9,0.3-1.8,0.3-2.6,0.3
				c-0.9,0-1.8,0-2.6,0C186,89.1,186.1,88.7,186.2,88.7L186.2,88.7z"/>
		</g>
		<g>
			<path class="st0" d="M183.9,88c2.4-0.4,5.1-0.7,7.5-0.4c0.2,0,0.2,0.3,0,0.4c-1.2,0.2-2.5,0.1-3.7,0.2c-1.2,0.1-2.5,0.2-3.7,0.3
				C183.7,88.4,183.7,88,183.9,88L183.9,88z"/>
		</g>
		<g>
			<path class="st0" d="M183.7,86.9c1.4-0.2,2.9-0.3,4.3-0.4c1.3-0.1,2.6-0.3,3.9-0.3c0.2,0,0.1,0.3,0,0.3c-1.3,0.3-2.7,0.3-4.1,0.4
				c-1.4,0.1-2.7,0.2-4.1,0.2C183.5,87.2,183.5,87,183.7,86.9L183.7,86.9z"/>
		</g>
		<g>
			<path class="st0" d="M184.3,85.9c0.2,0,0.4-0.1,0.6-0.1c0.1,0,0.2,0.2,0,0.3c-0.2,0.1-0.4,0.1-0.6,0.1
				C184.1,86.3,184.1,86,184.3,85.9L184.3,85.9z"/>
		</g>
		<g>
			<path class="st0" d="M185.9,85.7c1.8-0.2,3.7-0.5,5.5-0.5c0.2,0,0.1,0.3,0,0.3c-1.8,0.4-3.7,0.4-5.5,0.5
				C185.7,86,185.7,85.7,185.9,85.7L185.9,85.7z"/>
		</g>
		<g>
			<path class="st0" d="M184.1,84.7c1.3-0.1,2.6-0.2,3.9-0.3c1.2-0.1,2.4-0.2,3.5-0.1c0.2,0,0.1,0.3,0,0.3c-1.2,0.2-2.5,0.1-3.7,0.2
				c-1.2,0.1-2.5,0.1-3.7,0.2C183.9,84.9,183.9,84.7,184.1,84.7L184.1,84.7z"/>
		</g>
		<g>
			<path class="st0" d="M184.1,83.7c0.6,0,1.3,0,1.9-0.1c0.6-0.1,1.2-0.2,1.8-0.2c0.1,0,0.1,0.3,0,0.3c-0.6,0.2-1.3,0.2-1.9,0.3
				c-0.6,0.1-1.2,0.1-1.9,0.1C183.9,84.1,183.9,83.7,184.1,83.7L184.1,83.7z"/>
		</g>
		<g>
			<path class="st0" d="M188.6,83.3c0.6-0.1,1.1-0.1,1.7-0.1c0.5,0,1-0.1,1.5,0.1c0.1,0,0.1,0.3,0,0.3c-0.5,0.1-1,0-1.6,0.1
				c-0.5,0-1,0-1.6,0C188.4,83.7,188.3,83.3,188.6,83.3L188.6,83.3z"/>
		</g>
		<g>
			<path class="st0" d="M184.1,82.6c2.4-0.3,4.9-0.7,7.3-0.5c0.2,0,0.1,0.3,0,0.3c-2.4,0.3-4.8,0.2-7.2,0.5
				C184,82.9,184,82.6,184.1,82.6L184.1,82.6z"/>
		</g>
		<g>
			<path class="st0" d="M184,81.5c2.5-0.2,5.1-0.5,7.6-0.5c0.2,0,0.2,0.3,0,0.3c-2.5,0.3-5.1,0.3-7.6,0.4
				C183.8,81.8,183.8,81.5,184,81.5L184,81.5z"/>
		</g>
		<g>
			<path class="st0" d="M184,80.4c0.4,0,0.9-0.1,1.3,0c0.2,0,0.1,0.3,0,0.3c-0.4,0.1-0.9,0.1-1.4,0.1
				C183.8,80.8,183.8,80.4,184,80.4L184,80.4z"/>
		</g>
		<g>
			<path class="st0" d="M186.6,80.3c0.9-0.1,1.8-0.2,2.7-0.2c0.8,0,1.7-0.2,2.5,0c0.2,0,0.1,0.3,0,0.3c-0.8,0.2-1.7,0.1-2.6,0.2
				c-0.9,0-1.7,0.1-2.6,0.1C186.4,80.6,186.4,80.3,186.6,80.3L186.6,80.3z"/>
		</g>
		<g>
			<path class="st0" d="M183.8,79.4c1.7-0.1,3.5-0.4,5.2-0.3c0.2,0,0.2,0.3,0,0.4c-1.7,0.2-3.5,0.2-5.2,0.3
				C183.6,79.8,183.6,79.4,183.8,79.4L183.8,79.4z"/>
		</g>
		<g>
			<path class="st0" d="M190.8,78.9c0.2,0,0.5-0.1,0.7-0.1c0.2,0,0.4-0.1,0.7,0c0.1,0,0.1,0.2,0,0.3c-0.2,0.1-0.4,0.1-0.6,0.1
				c-0.2,0-0.5,0-0.7,0.1C190.7,79.2,190.6,78.9,190.8,78.9L190.8,78.9z"/>
		</g>
		<g>
			<path class="st0" d="M183.8,78.1c2.7-0.2,5.5-0.6,8.1-0.5c0.2,0,0.1,0.3,0,0.3c-2.6,0.5-5.4,0.3-8.1,0.5
				C183.6,78.4,183.6,78.1,183.8,78.1L183.8,78.1z"/>
		</g>
		<g>
			<path class="st0" d="M184.1,77c0.3-0.1,0.6-0.1,0.9-0.2c0.3,0,0.6-0.1,0.9-0.1c0.1,0,0.1,0.2,0,0.3c-0.3,0.1-0.6,0.1-0.8,0.1
				c-0.3,0-0.6,0.1-0.9,0.1C184,77.3,184,77,184.1,77L184.1,77z"/>
		</g>
		<g>
			<path class="st0" d="M186.3,76.7c1.9-0.1,4-0.2,5.9,0c0.2,0,0.2,0.3,0,0.3c-1.9,0.2-3.9,0-5.9,0
				C186.2,76.9,186.2,76.7,186.3,76.7L186.3,76.7z"/>
		</g>
		<g>
			<path class="st0" d="M183.7,75.9c2.7-0.3,5.6-0.7,8.3-0.3c0.2,0,0.1,0.3,0,0.3c-2.7,0.2-5.5,0-8.2,0.3
				C183.6,76.2,183.6,75.9,183.7,75.9L183.7,75.9z"/>
		</g>
		<g>
			<path class="st0" d="M184,74.8c2.2-0.3,4.5-0.5,6.7-0.3c0.1,0,0.1,0.2,0,0.3c-2.2,0.1-4.5,0.1-6.7,0.4
				C183.9,75.1,183.9,74.8,184,74.8L184,74.8z"/>
		</g>
		<g>
			<path class="st0" d="M183.9,73.4c0.3,0,0.6,0,0.8,0c0.2,0,0.5,0,0.7,0c0.1,0,0.1,0.2,0,0.3c-0.2,0.1-0.5,0-0.7,0
				c-0.3,0-0.6,0-0.8,0C183.8,73.7,183.8,73.4,183.9,73.4L183.9,73.4z"/>
		</g>
		<g>
			<path class="st0" d="M186.4,73.4c2-0.1,4-0.2,5.9,0c0.2,0,0.1,0.3,0,0.3c-2,0.1-3.9-0.1-5.9-0.1
				C186.3,73.7,186.2,73.5,186.4,73.4L186.4,73.4z"/>
		</g>
		<g>
			<path class="st0" d="M183.8,72.2c2.7-0.1,5.7-0.4,8.4-0.2c0.2,0,0.1,0.3,0,0.3c-2.7,0.4-5.6,0.2-8.4,0.2
				C183.7,72.5,183.7,72.3,183.8,72.2L183.8,72.2z"/>
		</g>
		<g>
			<path class="st0" d="M183.9,71.1c2.9-0.3,6.2-0.6,9.1-0.3c0.2,0,0.2,0.3,0,0.4c-1.6,0.2-3.2,0.1-4.8,0.1c-1.4,0-2.9,0.1-4.3,0.1
				C183.7,71.4,183.7,71.1,183.9,71.1L183.9,71.1z"/>
		</g>
		<g>
			<path class="st0" d="M183.8,69.8c3.1-0.1,6.3-0.1,9.3,0.1c0.2,0,0.2,0.3,0,0.3c-3.1,0.1-6.2,0-9.3-0.1
				C183.6,70.1,183.6,69.8,183.8,69.8L183.8,69.8z"/>
		</g>
	</g>
	<g>
		<path class="st0" d="M40.3,113.2c-0.2-0.5-0.4-1-0.4-1.4c0-0.1,0.3-0.1,0.3,0c0.3,0.5,0.3,0.9,0.4,1.4
			C40.7,113.3,40.4,113.3,40.3,113.2L40.3,113.2z"/>
	</g>
	<g>
		<path class="st0" d="M39.6,110.6c-0.1-0.5-0.3-1-0.4-1.6c-0.1-0.5-0.3-1.1-0.3-1.5c0-0.1,0.3-0.1,0.3,0c0.2,0.5,0.3,1,0.4,1.5
			c0.1,0.5,0.2,1.1,0.3,1.6C40,110.8,39.6,110.8,39.6,110.6L39.6,110.6z"/>
	</g>
	<g>
		<path class="st0" d="M39,113c-0.2-0.6-0.4-1.2-0.6-1.7c-0.2-0.6-0.3-1.2-0.3-1.7c0-0.1,0.3,0,0.3,0.1c0.2,0.5,0.3,1.1,0.4,1.6
			c0.1,0.6,0.3,1.2,0.5,1.8C39.3,113.2,39,113.1,39,113L39,113z"/>
	</g>
	<g>
		<path class="st0" d="M37.7,109.1c-0.1-0.3-0.3-0.6-0.4-0.9c-0.1-0.2,0.4-0.1,0.4,0.1c0.1,0.3,0.2,0.6,0.3,0.9
			C38.1,109.3,37.8,109.2,37.7,109.1L37.7,109.1z"/>
	</g>
	<g>
		<path class="st0" d="M37.6,112.8c-0.5-1.8-1-3.6-1.3-5.3c0-0.2,0.4-0.1,0.5,0.1c0.5,1.8,0.8,3.6,1.2,5.3
			C38,113,37.6,112.9,37.6,112.8L37.6,112.8z"/>
	</g>
	<g>
		<path class="st0" d="M36.4,112.5c-0.3-0.9-0.5-1.9-0.8-2.8c-0.2-0.9-0.6-1.9-0.6-2.8c0-0.1,0.3-0.1,0.4,0c0.4,0.9,0.5,1.8,0.7,2.7
			c0.2,1,0.5,2,0.7,2.9C36.8,112.8,36.5,112.7,36.4,112.5L36.4,112.5z"/>
	</g>
	<g>
		<path class="st0" d="M35.2,112.6c-0.1-0.3-0.2-0.6-0.1-0.8c0-0.1,0.3-0.1,0.3,0.1c0.2,0.3,0.1,0.6,0.2,0.8
			C35.7,112.9,35.2,112.8,35.2,112.6L35.2,112.6z"/>
	</g>
	<g>
		<path class="st0" d="M34.9,111.1c-0.2-0.6-0.5-1.3-0.6-1.9c-0.2-0.7-0.5-1.4-0.4-2c0-0.1,0.3-0.1,0.4,0c0.3,0.6,0.3,1.2,0.5,1.8
			c0.2,0.7,0.4,1.4,0.6,2.1C35.3,111.2,35,111.2,34.9,111.1L34.9,111.1z"/>
	</g>
	<g>
		<path class="st0" d="M34.2,112.7c-0.1-0.5-0.3-1-0.4-1.5c-0.1-0.4-0.3-0.9-0.3-1.3c0-0.1,0.3,0,0.4,0.1c0.3,0.4,0.3,0.9,0.4,1.3
			c0.1,0.5,0.2,0.9,0.3,1.4C34.5,112.9,34.2,112.8,34.2,112.7L34.2,112.7z"/>
	</g>
	<g>
		<path class="st0" d="M32.9,109.2c-0.1-0.3-0.3-0.7-0.4-1c-0.1-0.3-0.3-0.6-0.2-0.9c0-0.1,0.3,0,0.4,0.1c0.2,0.3,0.2,0.6,0.3,0.9
			c0.1,0.3,0.2,0.6,0.2,1C33.3,109.4,32.9,109.4,32.9,109.2L32.9,109.2z"/>
	</g>
	<g>
		<path class="st0" d="M33,112.6c-0.7-1.8-1.1-3.7-1.6-5.5c-0.1-0.2,0.5-0.1,0.5,0.1c0.4,1.8,1,3.6,1.4,5.4
			C33.5,112.8,33.1,112.8,33,112.6L33,112.6z"/>
	</g>
	<g>
		<path class="st0" d="M31.9,112.5c-0.4-1-0.7-2-0.9-3c-0.2-0.9-0.6-2-0.5-2.9c0-0.1,0.3-0.1,0.4,0.1c0.4,0.9,0.4,1.7,0.6,2.6
			c0.2,1.1,0.6,2.1,0.9,3.2C32.5,112.7,32,112.7,31.9,112.5L31.9,112.5z"/>
	</g>
	<g>
		<path class="st0" d="M30.7,112.3c-0.1-0.3-0.3-0.7-0.2-0.9c0-0.1,0.2-0.1,0.3,0c0.2,0.3,0.3,0.6,0.3,0.9
			C31.2,112.5,30.8,112.4,30.7,112.3L30.7,112.3z"/>
	</g>
	<g>
		<path class="st0" d="M30.3,110.7c-0.4-1.3-0.9-2.5-1.2-3.8c0-0.2,0.3-0.1,0.4,0c0.5,1.3,0.7,2.5,1.1,3.8
			C30.6,110.8,30.3,110.8,30.3,110.7L30.3,110.7z"/>
	</g>
	<g>
		<path class="st0" d="M29.7,112.4c-0.7-1.8-1.4-3.7-1.6-5.5c0-0.2,0.4-0.1,0.4,0c0.6,1.8,0.9,3.6,1.5,5.4
			C30,112.6,29.7,112.6,29.7,112.4L29.7,112.4z"/>
	</g>
	<g>
		<path class="st0" d="M28.5,112c-0.1-0.3-0.2-0.5-0.2-0.8c-0.1-0.2-0.2-0.5-0.2-0.7c0-0.1,0.2-0.1,0.3,0c0.4,0.5,0.5,1.1,0.5,1.5
			C28.9,112.2,28.6,112.1,28.5,112L28.5,112z"/>
	</g>
	<g>
		<path class="st0" d="M27.2,109c-0.1-0.5-0.3-1-0.5-1.4c-0.2-0.4-0.4-0.8-0.5-1.2c0-0.1,0.3-0.1,0.4,0c0.4,0.5,0.5,0.9,0.7,1.4
			c0.2,0.5,0.3,0.9,0.4,1.4C27.7,109.3,27.2,109.2,27.2,109L27.2,109z"/>
	</g>
	<g>
		<path class="st0" d="M27.4,112.1c-0.5-0.9-0.7-1.8-0.9-2.8c-0.2-1-0.6-2-0.8-3c0-0.2,0.3-0.1,0.4,0c0.6,0.9,0.7,1.8,0.9,2.6
			c0.2,1,0.4,2,0.9,3.1C27.8,112.3,27.5,112.3,27.4,112.1L27.4,112.1z"/>
	</g>
	<g>
		<path class="st0" d="M26.1,112.1c-0.6-1.9-1.4-3.9-1.6-5.7c0-0.2,0.3-0.1,0.4,0c0.8,1.9,1.1,3.8,1.6,5.7
			C26.5,112.2,26.2,112.2,26.1,112.1L26.1,112.1z"/>
	</g>
	<g>
		<path class="st0" d="M93.7,67.8c0,0.5,0,1.1-0.1,1.5c0,0.1-0.3,0-0.3-0.2c-0.1-0.5,0.1-1,0.1-1.5C93.4,67.5,93.7,67.6,93.7,67.8
			L93.7,67.8z"/>
	</g>
	<g>
		<path class="st0" d="M93.4,70.4c-0.1,0.5-0.1,1.1-0.2,1.6c-0.1,0.5-0.1,1.1-0.3,1.5c0,0.1-0.3,0-0.3-0.2c0-0.6,0.1-1,0.2-1.5
			c0.1-0.6,0.2-1.1,0.3-1.6C93.2,70.1,93.4,70.3,93.4,70.4L93.4,70.4z"/>
	</g>
	<g>
		<path class="st0" d="M94.9,68.5c0,0.6,0,1.2-0.1,1.8c-0.1,0.6-0.1,1.2-0.3,1.7c0,0.1-0.3-0.1-0.3-0.2c0-0.6,0.1-1.1,0.2-1.7
			c0.1-0.6,0.1-1.2,0.2-1.8C94.6,68.1,94.9,68.3,94.9,68.5L94.9,68.5z"/>
	</g>
	<g>
		<path class="st0" d="M96.1,69.1c-0.2,1.8-0.4,3.7-0.7,5.4c0,0.2-0.4,0-0.4-0.2c0.1-1.9,0.5-3.6,0.9-5.4
			C95.8,68.8,96.1,69,96.1,69.1L96.1,69.1z"/>
	</g>
	<g>
		<path class="st0" d="M97.1,69.8c-0.1,1-0.2,1.9-0.3,2.9c-0.1,0.9-0.1,2-0.4,2.8c0,0.1-0.3,0-0.3-0.2c0-1,0.2-1.8,0.3-2.7
			c0.1-1,0.3-2,0.4-3C96.8,69.4,97.1,69.6,97.1,69.8L97.1,69.8z"/>
	</g>
	<g>
		<path class="st0" d="M98.2,70.1c0,0.3-0.1,0.6-0.2,0.8c-0.1,0.1-0.3-0.1-0.3-0.2c-0.1-0.3,0.1-0.6,0.2-0.8
			C97.9,69.7,98.3,70,98.2,70.1L98.2,70.1z"/>
	</g>
	<g>
		<path class="st0" d="M97.9,71.7c0,0.7,0,1.3-0.1,2c-0.1,0.7-0.1,1.5-0.3,2c-0.1,0.1-0.3,0-0.3-0.2c0-0.6,0.1-1.2,0.2-1.8
			c0.1-0.7,0.2-1.4,0.2-2.2C97.6,71.4,97.9,71.5,97.9,71.7L97.9,71.7z"/>
	</g>
	<g>
		<path class="st0" d="M99.2,70.5c0,0.5-0.1,1-0.1,1.5c-0.1,0.4,0,1-0.2,1.3c-0.1,0.1-0.3-0.1-0.3-0.2c-0.1-0.5,0.1-0.9,0.1-1.4
			c0.1-0.5,0.2-0.9,0.3-1.4C98.9,70.1,99.2,70.3,99.2,70.5L99.2,70.5z"/>
	</g>
	<g>
		<path class="st0" d="M100.2,71c0,2-0.3,3.8-0.5,5.7c0,0.2-0.5-0.1-0.5-0.3c0.2-1.8,0.4-3.8,0.7-5.6C99.9,70.6,100.2,70.8,100.2,71
			L100.2,71z"/>
	</g>
	<g>
		<path class="st0" d="M101.2,71.5c0,1.1-0.1,2.1-0.2,3.1c-0.1,1-0.1,2.1-0.6,2.9c-0.1,0.1-0.3-0.1-0.3-0.2c0-1,0.3-1.8,0.4-2.6
			c0.2-1.1,0.3-2.2,0.3-3.3C100.8,71.1,101.2,71.2,101.2,71.5L101.2,71.5z"/>
	</g>
	<g>
		<path class="st0" d="M102.3,72.1c0,0.3,0,0.7-0.1,0.9c-0.1,0.1-0.3,0-0.3-0.2c-0.1-0.4,0-0.7,0-1
			C101.9,71.8,102.3,71.9,102.3,72.1L102.3,72.1z"/>
	</g>
	<g>
		<path class="st0" d="M102.1,73.8c-0.1,1.3-0.1,2.7-0.3,4c0,0.2-0.4,0-0.4-0.2c0-1.4,0.2-2.6,0.4-3.9
			C101.8,73.5,102.1,73.6,102.1,73.8L102.1,73.8z"/>
	</g>
	<g>
		<path class="st0" d="M103.3,72.4c0,1.9-0.1,4-0.5,5.7c0,0.2-0.4,0-0.4-0.2c0.2-1.9,0.5-3.7,0.6-5.6
			C103,72.1,103.3,72.2,103.3,72.4L103.3,72.4z"/>
	</g>
	<g>
		<path class="st0" d="M104.2,73.2c0,0.3,0,0.5-0.1,0.8c0,0.3,0,0.5,0,0.8c0,0.1-0.2,0-0.3-0.1c-0.2-0.6-0.1-1.2,0.1-1.6
			C103.9,72.9,104.2,73,104.2,73.2L104.2,73.2z"/>
	</g>
	<g>
		<path class="st0" d="M105.3,73.5c0.1,1,0,2-0.1,2.9c-0.1,1-0.1,2.1-0.3,3.1c0,0.2-0.3,0-0.3-0.2c-0.2-1,0-1.9,0.2-2.8
			c0.2-1,0.3-2.1,0.3-3.2C105,73.2,105.3,73.3,105.3,73.5L105.3,73.5z"/>
	</g>
	<g>
		<path class="st0" d="M106.5,74c-0.1,2-0.1,4.1-0.5,5.9c0,0.1-0.4,0-0.4-0.2c-0.1-2.1,0.3-4,0.6-5.9
			C106.2,73.7,106.5,73.8,106.5,74L106.5,74z"/>
	</g>
	<g>
		<path class="st0" d="M67.5,123.8c0.3,0.1,0.6,0.1,0.9,0.2c0.2,0-0.1,0.3-0.3,0.3c-0.3-0.1-0.6-0.2-0.9-0.3
			C67.1,124,67.3,123.7,67.5,123.8L67.5,123.8z"/>
	</g>
	<g>
		<path class="st0" d="M73.6,129.3c0.4-0.9,0.7-1.8,1.1-2.7c0.4-0.9,0.7-1.9,1.2-2.6c0.1-0.1,0.3,0.1,0.3,0.3
			c-0.2,0.9-0.7,1.7-1,2.5c-0.4,0.9-0.8,1.8-1.2,2.7C73.8,129.7,73.6,129.4,73.6,129.3L73.6,129.3z"/>
	</g>
	<g>
		<path class="st0" d="M72.6,128.6c0.1-0.2,0.2-0.6,0.4-0.7c0.1-0.1,0.3,0.1,0.2,0.3c0,0.3-0.2,0.5-0.4,0.8
			C72.8,129.1,72.5,128.8,72.6,128.6L72.6,128.6z"/>
	</g>
	<g>
		<path class="st0" d="M73.3,127.2c0.2-0.6,0.4-1.3,0.6-1.9c0.3-0.6,0.5-1.4,0.9-1.9c0.1-0.1,0.3,0.1,0.3,0.3
			c-0.1,0.6-0.5,1.1-0.7,1.7c-0.3,0.7-0.6,1.3-0.8,2C73.5,127.6,73.3,127.4,73.3,127.2L73.3,127.2z"/>
	</g>
	<g>
		<path class="st0" d="M75.2,130c0.2-0.6,0.4-1.3,0.6-1.9c0.3-0.6,0.5-1.4,0.9-1.9c0.1-0.1,0.3,0.1,0.3,0.3
			c-0.1,0.6-0.5,1.1-0.7,1.7c-0.3,0.7-0.6,1.3-0.8,2C75.4,130.3,75.2,130.1,75.2,130L75.2,130z"/>
	</g>
	<g>
		<path class="st0" d="M71.8,128.1c0.2-0.5,0.4-1,0.5-1.4c0.2-0.4,0.3-0.9,0.6-1.2c0.1-0.1,0.3,0.1,0.2,0.3
			c-0.1,0.5-0.3,0.9-0.5,1.3c-0.2,0.4-0.4,0.9-0.7,1.3C71.9,128.4,71.7,128.2,71.8,128.1L71.8,128.1z"/>
	</g>
	<g>
		<path class="st0" d="M72.8,124.5c0.1-0.3,0.2-0.7,0.3-1c0.1-0.3,0.2-0.6,0.4-0.8c0.1-0.1,0.2,0.2,0.2,0.3c0,0.4-0.2,0.6-0.3,0.9
			c-0.1,0.3-0.3,0.6-0.4,0.9C73,124.9,72.8,124.7,72.8,124.5L72.8,124.5z"/>
	</g>
	<g>
		<path class="st0" d="M70.9,127.3c0.5-1.9,1.3-3.6,2.1-5.3c0.1-0.2,0.5,0.2,0.4,0.4c-0.7,1.7-1.4,3.5-2.2,5.2
			C71.1,127.7,70.9,127.5,70.9,127.3L70.9,127.3z"/>
	</g>
	<g>
		<path class="st0" d="M70.1,126.6c0.3-1,0.7-2,1.1-2.9c0.4-0.9,0.7-2,1.4-2.6c0.1-0.1,0.3,0.1,0.2,0.3c-0.2,0.9-0.7,1.6-1.1,2.4
			c-0.4,1-0.8,2-1.2,3.1C70.4,127,70,126.8,70.1,126.6L70.1,126.6z"/>
	</g>
	<g>
		<path class="st0" d="M69.3,125.6c0.1-0.3,0.2-0.7,0.4-0.9c0.1-0.1,0.2,0.1,0.2,0.2c0,0.4-0.2,0.7-0.3,0.9
			C69.5,126.1,69.2,125.8,69.3,125.6L69.3,125.6z"/>
	</g>
	<g>
		<path class="st0" d="M69.9,124.1c0.4-1.2,0.8-2.6,1.4-3.7c0.1-0.1,0.3,0.1,0.3,0.3c-0.4,1.3-0.9,2.5-1.4,3.7
			C70.1,124.4,69.8,124.2,69.9,124.1L69.9,124.1z"/>
	</g>
	<g>
		<path class="st0" d="M68.3,125.1c0.6-1.9,1.1-3.8,2-5.4c0.1-0.1,0.4,0.1,0.3,0.3c-0.7,1.8-1.5,3.4-2.1,5.3
			C68.5,125.5,68.3,125.3,68.3,125.1L68.3,125.1z"/>
	</g>
	<g>
		<path class="st0" d="M67.7,124.1c0.1-0.2,0.2-0.5,0.3-0.8c0.1-0.2,0.1-0.5,0.3-0.7c0.1-0.1,0.2,0,0.3,0.2c0,0.6-0.2,1.2-0.5,1.5
			C67.9,124.5,67.6,124.2,67.7,124.1L67.7,124.1z"/>
	</g>
	<g>
		<path class="st0" d="M68.4,120.9c0.2-0.5,0.3-0.9,0.5-1.4c0.1-0.4,0.2-0.9,0.3-1.3c0-0.1,0.3,0.1,0.3,0.2c0,0.6-0.1,1.1-0.3,1.5
			c-0.1,0.5-0.3,0.9-0.5,1.3C68.6,121.4,68.3,121.1,68.4,120.9L68.4,120.9z"/>
	</g>
	<g>
		<path class="st0" d="M66.7,123.5c0.2-1,0.5-1.9,0.9-2.8c0.4-0.9,0.7-2,1.1-2.9c0.1-0.1,0.3,0.1,0.3,0.3c-0.1,1-0.5,1.8-0.9,2.6
			c-0.4,0.9-0.9,1.9-1.2,3C66.9,123.9,66.7,123.7,66.7,123.5L66.7,123.5z"/>
	</g>
	<g>
		<path class="st0" d="M65.7,122.7c0.6-1.9,1.2-3.9,2.1-5.5c0.1-0.1,0.3,0.1,0.3,0.3c-0.5,2-1.4,3.7-2.2,5.5
			C65.9,123,65.7,122.8,65.7,122.7L65.7,122.7z"/>
	</g>
	<g>
		<path class="st0" d="M39.6,117.1c0-0.1,0-0.2,0-0.3c0-0.1,0.2-0.1,0.2,0c0,0.1,0.1,0.2,0,0.3C39.9,117.2,39.6,117.2,39.6,117.1
			L39.6,117.1z"/>
	</g>
	<g>
		<path class="st0" d="M1.8,131c0.2,0.1,0.3,0.1,0.5,0.1c0.1,0,0.3,0,0.4,0.1c0.1,0.1,0.1,0.2,0,0.3c-0.4,0.1-0.7-0.1-1-0.2
			C1.5,131.2,1.6,131,1.8,131L1.8,131z"/>
	</g>
	<g>
		<path class="st0" d="M1.9,130.3c2,0.3,4.3,0.8,6.1,1.6c0.1,0.1,0,0.3-0.1,0.3c-1-0.2-2-0.6-3-0.8c-1-0.3-2.1-0.5-3.1-0.8
			C1.6,130.6,1.7,130.3,1.9,130.3L1.9,130.3z"/>
	</g>
	<g>
		<path class="st0" d="M2,129.4c1.2,0.2,2.4,0.5,3.5,0.8c1.1,0.3,2.2,0.4,3.2,0.8c0.1,0.1,0,0.3-0.1,0.3c-1.1-0.1-2.3-0.5-3.4-0.8
			c-1.1-0.3-2.2-0.5-3.3-0.9C1.8,129.6,1.8,129.4,2,129.4L2,129.4z"/>
	</g>
	<g>
		<path class="st0" d="M2.7,128.8c0.2,0,0.3,0,0.5,0.1c0.1,0,0.1,0.2,0,0.2c-0.2,0-0.3,0-0.5-0.1C2.5,129,2.6,128.7,2.7,128.8
			L2.7,128.8z"/>
	</g>
	<g>
		<path class="st0" d="M4.1,129c1.5,0.3,3.1,0.6,4.6,1.1c0.1,0,0,0.2-0.1,0.2c-1.5-0.2-3.1-0.7-4.5-1.1C3.8,129.2,3.9,129,4.1,129
			L4.1,129z"/>
	</g>
	<g>
		<path class="st0" d="M2.9,127.7c1.1,0.2,2.1,0.5,3.2,0.8c1,0.3,2,0.5,2.9,0.9c0.1,0.1,0,0.3-0.1,0.2c-1-0.2-2-0.6-3-0.8
			c-1-0.3-2-0.5-3-0.9C2.7,127.9,2.7,127.7,2.9,127.7L2.9,127.7z"/>
	</g>
	<g>
		<path class="st0" d="M3.2,127c0.5,0.1,1,0.3,1.6,0.4c0.5,0.1,1,0.2,1.5,0.3c0.1,0,0.1,0.2-0.1,0.2c-0.5,0-1.1-0.1-1.6-0.3
			c-0.5-0.1-1-0.3-1.5-0.4C2.9,127.2,3,126.9,3.2,127L3.2,127z"/>
	</g>
	<g>
		<path class="st0" d="M6.8,127.8c0.5,0.1,0.9,0.2,1.3,0.4c0.4,0.1,0.9,0.2,1.2,0.4c0.1,0.1,0,0.2-0.1,0.2c-0.4,0-0.9-0.2-1.3-0.4
			c-0.4-0.1-0.8-0.3-1.3-0.4C6.6,128,6.7,127.8,6.8,127.8L6.8,127.8z"/>
	</g>
	<g>
		<path class="st0" d="M3.5,126.1c2,0.4,4.1,0.7,6,1.5c0.1,0.1,0,0.3-0.1,0.2c-2-0.4-3.9-1.1-5.9-1.5C3.3,126.3,3.3,126,3.5,126.1
			L3.5,126.1z"/>
	</g>
	<g>
		<path class="st0" d="M3.6,125.2c2.1,0.5,4.2,0.9,6.2,1.6c0.2,0.1,0,0.3-0.1,0.3c-2.1-0.4-4.1-1.1-6.2-1.7
			C3.5,125.3,3.5,125.1,3.6,125.2L3.6,125.2z"/>
	</g>
	<g>
		<path class="st0" d="M4,124.3c0.4,0.1,0.8,0.2,1.1,0.3c0.1,0.1,0,0.2-0.1,0.2c-0.4,0-0.8-0.2-1.1-0.3C3.7,124.5,3.8,124.2,4,124.3
			L4,124.3z"/>
	</g>
	<g>
		<path class="st0" d="M6,124.8c0.7,0.2,1.5,0.4,2.2,0.6c0.7,0.2,1.4,0.3,2,0.6c0.1,0.1,0,0.2-0.1,0.2c-0.7-0.1-1.4-0.3-2.1-0.5
			c-0.7-0.2-1.4-0.4-2.1-0.6C5.8,125,5.9,124.8,6,124.8L6,124.8z"/>
	</g>
	<g>
		<path class="st0" d="M4,123.4c1.4,0.4,2.9,0.6,4.3,1.1c0.2,0.1,0,0.3-0.1,0.3c-1.4-0.3-2.8-0.7-4.2-1.1
			C3.8,123.7,3.8,123.4,4,123.4L4,123.4z"/>
	</g>
	<g>
		<path class="st0" d="M9.8,124.9c0.2,0,0.4,0.1,0.6,0.1c0.2,0,0.4,0.1,0.5,0.1c0.1,0.1,0.1,0.2-0.1,0.2c-0.2,0-0.4,0-0.5-0.1
			c-0.2,0-0.4-0.1-0.6-0.1C9.6,125.1,9.7,124.8,9.8,124.9L9.8,124.9z"/>
	</g>
	<g>
		<path class="st0" d="M4.4,122.4c2.2,0.6,4.6,0.9,6.6,1.8c0.1,0.1,0,0.3-0.1,0.3c-2.2-0.3-4.4-1.2-6.6-1.8
			C4.1,122.6,4.2,122.3,4.4,122.4L4.4,122.4z"/>
	</g>
	<g>
		<path class="st0" d="M4.9,121.6c0.3,0,0.5,0.1,0.7,0.1c0.2,0,0.5,0.1,0.7,0.2c0.1,0,0.1,0.2-0.1,0.2c-0.2,0-0.5-0.1-0.7-0.1
			c-0.2,0-0.5-0.1-0.7-0.1C4.8,121.8,4.8,121.6,4.9,121.6L4.9,121.6z"/>
	</g>
	<g>
		<path class="st0" d="M6.8,121.9c1.6,0.5,3.2,0.9,4.7,1.5c0.1,0.1,0,0.3-0.1,0.3c-1.6-0.4-3.2-1-4.7-1.6
			C6.6,122.1,6.7,121.9,6.8,121.9L6.8,121.9z"/>
	</g>
	<g>
		<path class="st0" d="M4.9,120.6c2.2,0.5,4.7,0.9,6.7,1.9c0.1,0.1,0,0.3-0.1,0.2c-2.3-0.6-4.4-1.5-6.7-1.9
			C4.7,120.8,4.8,120.6,4.9,120.6L4.9,120.6z"/>
	</g>
	<g>
		<path class="st0" d="M5.5,119.8c1.9,0.4,3.8,0.8,5.5,1.5c0.1,0,0,0.2-0.1,0.2C9,121,7.3,120.4,5.4,120
			C5.3,120,5.3,119.7,5.5,119.8L5.5,119.8z"/>
	</g>
	<g>
		<path class="st0" d="M5.8,118.6c0.2,0.1,0.5,0.1,0.7,0.2c0.2,0.1,0.4,0.1,0.6,0.2c0.1,0.1,0,0.2-0.1,0.2c-0.2,0-0.4-0.1-0.6-0.2
			c-0.2-0.1-0.4-0.2-0.7-0.2C5.5,118.8,5.6,118.6,5.8,118.6L5.8,118.6z"/>
	</g>
	<g>
		<path class="st0" d="M7.7,119.3c1.6,0.5,3.3,0.9,4.7,1.6c0.1,0.1,0,0.3-0.1,0.2c-1.6-0.5-3.1-1.1-4.7-1.6
			C7.5,119.5,7.6,119.3,7.7,119.3L7.7,119.3z"/>
	</g>
	<g>
		<path class="st0" d="M6,117.7c2.2,0.6,4.7,1.1,6.7,2.1c0.1,0.1,0,0.3-0.1,0.2c-2.3-0.4-4.6-1.3-6.7-2.1
			C5.7,117.9,5.8,117.7,6,117.7L6,117.7z"/>
	</g>
	<g>
		<path class="st0" d="M6.3,116.8c2.4,0.6,5.1,1.2,7.3,2.2c0.1,0.1,0,0.3-0.1,0.3c-1.3-0.3-2.6-0.8-3.8-1.2
			c-1.2-0.4-2.3-0.7-3.5-1.1C6.1,117,6.2,116.8,6.3,116.8L6.3,116.8z"/>
	</g>
	<g>
		<path class="st0" d="M6.5,115.8c2.5,0.8,5,1.6,7.4,2.5c0.1,0.1,0,0.3-0.1,0.3c-2.5-0.7-5-1.6-7.4-2.6C6.3,116,6.4,115.7,6.5,115.8
			L6.5,115.8z"/>
	</g>
	<g>
		<path class="st0" d="M63.1,132H47.3l-4.2-11.2H21.5L17.8,132H1l22.4-64h16L63.1,132z M48.2,130.7h12.9L38.5,69.3H24.4L2.9,130.7
			h14l3.6-11.2H44L48.2,130.7z M39.9,108.3H24.1l7.2-22.5h1.2L39.9,108.3z M26,106.9h12l-6-18.5L26,106.9z"/>
		<path class="st0" d="M87.1,132.9c-8.9,0-16.9-3.5-23.6-10.3l-0.4-0.4l9.6-11.9l0.5,0.6c4.4,4.8,9.2,7.3,14.2,7.3
			c5.7,0,6.4-2.5,6.4-4.4c0-1.5-0.5-2.6-1.7-3.5c-1.2-0.9-3.7-2-7.2-3.2c-2.8-0.9-5.3-1.9-7.2-2.9c-1.9-1-4-2.2-6-3.8
			c-2.1-1.6-3.7-3.6-4.7-6c-1-2.3-1.6-5-1.6-8c0-5.4,2.1-9.9,6.2-13.6c4.1-3.7,9.1-5.6,15-5.7l0.3,0c8,0,15.4,2.8,22,8.4l0.5,0.4
			l-9.2,12l-0.5-0.4c-4.9-3.9-9.1-5.9-12.5-5.9c-1.6,0-2.9,0.4-3.7,1.2c-0.9,0.8-1.3,1.7-1.3,3c0,1.2,0.5,2.1,1.5,2.9
			c1.2,0.9,3.6,2,7.1,3.4c1.9,0.7,3.1,1.2,3.6,1.4c0.5,0.2,1.6,0.6,3.2,1.3c1.7,0.7,2.7,1.2,3.3,1.6c0.5,0.3,1.3,0.8,2.5,1.6
			c1.3,0.8,2.1,1.5,2.6,2.1c0.4,0.5,1,1.2,1.8,2.1c0.8,1,1.4,2,1.7,2.9c0.3,0.9,0.5,2,0.8,3.2c0.2,1.2,0.4,2.5,0.4,3.9
			c0,2.9-0.5,5.6-1.5,8c-1,2.4-2.3,4.4-3.9,6c-1.6,1.5-3.4,2.9-5.5,3.9c-2.1,1.1-4.2,1.8-6.3,2.3C91.4,132.7,89.3,132.9,87.1,132.9z
			 M64.9,122.1c6.4,6.3,13.9,9.4,22.2,9.4c2.1,0,4.1-0.2,6.1-0.6c2-0.4,4-1.2,6-2.1c2-1,3.7-2.2,5.2-3.7c1.5-1.4,2.7-3.3,3.6-5.5
			c0.9-2.2,1.4-4.7,1.4-7.5c0-1.3-0.1-2.5-0.3-3.7c-0.2-1.2-0.5-2.2-0.7-3c-0.2-0.8-0.7-1.6-1.4-2.5c-0.8-0.9-1.4-1.6-1.8-2.2
			c-0.2-0.3-0.8-0.9-2.2-1.7c-1.2-0.7-2.1-1.3-2.6-1.6c-0.3-0.2-1.1-0.6-3.1-1.4c-1.7-0.7-2.7-1.1-3.2-1.3c-0.5-0.2-1.7-0.7-3.6-1.4
			c-3.7-1.4-6.1-2.5-7.5-3.5c-1.5-1.1-2.2-2.4-2.1-4c0-1.6,0.6-3,1.8-4c1.2-1,2.7-1.5,4.6-1.5c3.6,0,7.9,1.9,12.8,5.7l7.6-9.9
			c-6.2-5.1-13.2-7.6-20.6-7.6l-0.2,0c-5.5,0.1-10.2,1.9-14.1,5.3c-3.8,3.4-5.7,7.7-5.7,12.6c0,2.8,0.5,5.4,1.4,7.5
			c0.9,2.1,2.4,4,4.3,5.4c2,1.5,3.9,2.8,5.8,3.7c1.9,0.9,4.2,1.9,7,2.8c3.8,1.3,6.2,2.4,7.6,3.4c1.5,1.1,2.2,2.6,2.2,4.6
			c0,2.6-1.3,5.8-7.7,5.8c-5.2,0-10.2-2.4-14.7-7.2L64.9,122.1z"/>
		<path class="st0" d="M133.8,132h-16.3V68h16.3V132z M118.9,130.7h13.6V69.3h-13.6V130.7z"/>
		<path class="st0" d="M199,132h-16.2L159.9,96V132h-16.1V68h15.8l0.2,0.3l23.1,36.6V68H199V132z M183.6,130.7h14.1V69.3h-13.4v40.3
			l-25.4-40.3h-13.7v61.3h13.4V93.1h1.1L183.6,130.7z"/>
	</g>
	<g>
		<path class="st1" d="M77.2,103.1c0.1,0,0.2,0,0.3-0.1c-0.2-0.1-0.3-0.1-0.3-0.1L77.2,103.1z"/>
		<path class="st0" d="M77.6,103.1c-0.1,0-0.2,0-0.3,0.1l0,0.4c0.3-0.1,0.6-0.2,0.9-0.3C77.9,103.2,77.7,103.1,77.6,103.1z"/>
		<path class="st0" d="M77.5,102.6c0.2,0,0.3-0.1,0.4-0.2c0.2-0.1,0.1-0.3-0.1-0.3c-0.3,0-0.6,0.1-0.9,0.2c0.1,0.1,0.2,0.1,0.4,0.2
			C77.4,102.5,77.5,102.5,77.5,102.6z"/>
		<path class="st0" d="M77.6,101.3c0.2-0.1,0.1-0.3-0.1-0.3c-0.7,0.1-1.5,0.3-2.2,0.5c0.2,0.1,0.4,0.2,0.6,0.3
			C76.5,101.7,77.1,101.5,77.6,101.3z"/>
		<path class="st0" d="M74.9,101.1c0.8-0.2,1.6-0.4,2.3-0.8c0.1-0.1,0-0.3-0.1-0.2c-0.8,0.1-1.6,0.5-2.4,0.7
			c-0.2,0.1-0.3,0.1-0.5,0.1c0.1,0.1,0.3,0.2,0.4,0.3C74.7,101.1,74.8,101.1,74.9,101.1z"/>
		<path class="st0" d="M74,100.4c0.1-0.1,0.1-0.3-0.1-0.3c-0.2,0-0.4,0.1-0.6,0.2c0.1,0.1,0.3,0.2,0.4,0.3
			C73.8,100.5,73.9,100.4,74,100.4z"/>
		<path class="st0" d="M75.2,100c0.7-0.2,1.5-0.3,2.2-0.7c0.1-0.1,0-0.2-0.1-0.2c-0.7,0.1-1.5,0.4-2.2,0.6
			C74.9,99.8,75,100.1,75.2,100z"/>
		<path class="st0" d="M76.8,98.6c0.2,0,0.1-0.3-0.1-0.3c-1.5,0.1-3,0.6-4.5,1.2c0.2,0.1,0.3,0.2,0.5,0.3
			C74.1,99.5,75.4,99,76.8,98.6z"/>
		<path class="st0" d="M76.9,97.4c0.2-0.1,0.1-0.3-0.1-0.3c-1.8,0.5-3.6,1.1-5.4,1.7c0.1,0.1,0.2,0.2,0.3,0.3
			C73.4,98.6,75.2,98.1,76.9,97.4z"/>
		<path class="st0" d="M73.5,97.1c-0.8,0.3-1.6,0.6-2.3,0.8c-0.2,0.1-0.1,0.3,0.1,0.2c0.8-0.2,1.6-0.5,2.4-0.7
			c0.7-0.2,1.5-0.4,2.1-0.8c0.1-0.1,0-0.3-0.1-0.3C74.9,96.6,74.2,96.9,73.5,97.1z"/>
		<path class="st0" d="M70.9,97.1c0.7-0.2,1.4-0.3,2-0.6c0.1-0.1,0.1-0.3-0.1-0.2c-0.7,0-1.4,0.3-2,0.5c-0.4,0.1-0.8,0.3-1.1,0.4
			c0.1,0.1,0.1,0.2,0.2,0.3C70.3,97.3,70.6,97.2,70.9,97.1z"/>
		<path class="st0" d="M74.5,96.1c0.5-0.2,1.1-0.3,1.6-0.6c0.1-0.1,0-0.2-0.1-0.2c-0.6,0.1-1.1,0.4-1.6,0.6
			C74.2,95.9,74.3,96.2,74.5,96.1z"/>
		<path class="st0" d="M74.9,94.8c0.1-0.1,0.1-0.3-0.1-0.3c-1.9,0.3-3.9,1.1-5.7,1.8c0.1,0.1,0.1,0.2,0.2,0.2
			C71.1,96,73.1,95.5,74.9,94.8z"/>
		<path class="st0" d="M75.6,93.6c0.2-0.1,0.1-0.3-0.1-0.3c-2.4,0.4-4.9,1.2-7,2.2c0.1,0.1,0.1,0.2,0.2,0.2
			C70.9,94.9,73.4,94.5,75.6,93.6z"/>
		<path class="st0" d="M75.7,92.7c0.2-0.1,0.1-0.3-0.1-0.3c-2.6,0.4-5.2,1.4-7.5,2.3c0,0.1,0.1,0.2,0.1,0.2
			C70.6,94.1,73.2,93.5,75.7,92.7z"/>
		<path class="st0" d="M75,91.7c0.2-0.1,0.1-0.3-0.1-0.3c-2.5,0.6-4.9,1.5-7.3,2.3c0,0.1,0.1,0.2,0.1,0.3
			C70.1,93.3,72.6,92.7,75,91.7z"/>
		<path class="st0" d="M68.2,92.8c0.1-0.1,0-0.3-0.2-0.2c-0.2,0-0.3,0.1-0.5,0.1c-0.1,0-0.3,0.1-0.4,0.1c0,0.1,0.1,0.2,0.1,0.3
			C67.6,93.1,68,93,68.2,92.8z"/>
		<path class="st0" d="M69.1,92.3c-0.2,0-0.1,0.3,0.1,0.3c0.9-0.1,1.7-0.3,2.6-0.6c0.8-0.2,1.7-0.4,2.5-0.8c0.1-0.1,0-0.3-0.1-0.2
			c-0.8,0.2-1.6,0.5-2.4,0.7C70.8,91.8,69.9,92,69.1,92.3z"/>
		<path class="st0" d="M70.2,91.4c1.2-0.3,2.5-0.6,3.6-1c0.2-0.1,0.1-0.3-0.1-0.3c-2.3,0.3-4.7,1.1-6.8,1.9c0,0.1,0.1,0.2,0.1,0.3
			C68.1,92,69.1,91.7,70.2,91.4z"/>
		<path class="st0" d="M70,90.5c1.3-0.4,2.7-0.7,3.9-1.2c0.2-0.1,0.1-0.3-0.1-0.3c-1.3,0.2-2.5,0.7-3.7,1.1
			c-1.1,0.3-2.2,0.7-3.4,1.1c0,0.1,0,0.2,0.1,0.3C67.8,91.1,68.9,90.8,70,90.5z"/>
		<path class="st0" d="M66.9,90.4c0.1-0.1,0-0.2-0.1-0.2c-0.1,0-0.1,0-0.2,0.1c0,0.1,0,0.2,0,0.3C66.7,90.5,66.8,90.5,66.9,90.4z"/>
		<path class="st0" d="M67.7,89.9c-0.2,0.1-0.1,0.3,0.1,0.3c1.7-0.5,3.6-0.9,5.3-1.7c0.1-0.1,0.1-0.3-0.1-0.2
			C71.2,88.6,69.5,89.3,67.7,89.9z"/>
		<path class="st0" d="M69.3,88.7c1.2-0.3,2.4-0.6,3.6-1c0.2-0.1,0.1-0.3-0.1-0.3c-1.2,0.2-2.3,0.6-3.5,0.9c-1,0.3-2,0.6-3,0.9
			c0,0.1,0,0.2,0,0.3C67.4,89.2,68.3,88.9,69.3,88.7z"/>
		<path class="st0" d="M67.2,88.5c0.6-0.2,1.2-0.3,1.7-0.6c0.1-0.1,0-0.3-0.1-0.2c-0.6,0.1-1.1,0.4-1.7,0.6
			c-0.3,0.1-0.5,0.2-0.8,0.2c0,0.1,0,0.2,0,0.4C66.6,88.6,66.9,88.5,67.2,88.5z"/>
		<path class="st0" d="M71.1,86.8c-0.5,0.1-1.1,0.3-1.6,0.5c-0.2,0.1-0.1,0.3,0.1,0.3c0.5-0.1,1-0.3,1.5-0.4
			c0.5-0.1,1.1-0.2,1.5-0.4c0.2-0.1,0.1-0.2-0.1-0.2C72.1,86.5,71.6,86.7,71.1,86.8z"/>
		<path class="st0" d="M72,85.9c0.2-0.1,0.1-0.3-0.1-0.2c-1.9,0.3-3.8,0.9-5.6,1.6c0,0.1,0,0.2,0,0.3C68.2,87,70.1,86.5,72,85.9z"/>
		<path class="st0" d="M71.9,85.1c0.2-0.1,0.1-0.3-0.1-0.3c-1.8,0.4-3.6,0.9-5.4,1.5c0,0.1,0,0.2,0,0.4
			C68.2,86.2,70.1,85.7,71.9,85.1z"/>
		<path class="st0" d="M71.6,83.9c-0.8,0.1-1.6,0.4-2.4,0.6c-0.9,0.2-1.7,0.5-2.6,0.8c-0.2,0.1-0.1,0.3,0.1,0.2
			c0.8-0.2,1.7-0.4,2.5-0.6c0.8-0.2,1.7-0.4,2.5-0.7C71.8,84.1,71.8,83.9,71.6,83.9z"/>
		<path class="st0" d="M68.7,84.1c0.2-0.1,0.1-0.3-0.1-0.3c-0.6,0.1-1.3,0.3-1.9,0.5c0,0.1-0.1,0.3-0.1,0.5
			C67.3,84.5,68,84.3,68.7,84.1z"/>
		<path class="st0" d="M71.6,82.7c-0.2,0-0.4,0.1-0.6,0.2c-0.2,0.1-0.4,0.2-0.7,0.2c-0.2,0.1-0.1,0.3,0.1,0.3
			c0.2-0.1,0.4-0.2,0.7-0.2c0.2-0.1,0.4-0.1,0.6-0.2C71.8,82.9,71.8,82.7,71.6,82.7z"/>
		<path class="st0" d="M71,82.2c0.2-0.1,0.1-0.3-0.1-0.3c-1.3,0.2-2.7,0.6-4,1c0,0.2-0.1,0.4-0.1,0.6C68.3,83.1,69.7,82.7,71,82.2z"
			/>
		<path class="st0" d="M71.1,81.3c0.2-0.1,0.1-0.3-0.1-0.3c-1.2,0.2-2.5,0.5-3.7,0.8c0,0.1-0.1,0.3-0.1,0.4
			C68.5,82,69.8,81.7,71.1,81.3z"/>
		<path class="st0" d="M70.5,80.5c0.2-0.1,0.1-0.3-0.1-0.3c-0.9,0.1-1.8,0.3-2.8,0.5c-0.1,0.2-0.1,0.4-0.2,0.5
			C68.5,81,69.5,80.8,70.5,80.5z"/>
		<path class="st0" d="M68.9,79.7c0.1,0,0.1-0.2-0.1-0.2c-0.3,0-0.5,0.1-0.8,0.1c0,0.1-0.1,0.2-0.1,0.3
			C68.2,79.9,68.6,79.8,68.9,79.7z"/>
		<path class="st0" d="M70.1,78.7c0.2,0,0.1-0.3-0.1-0.3c-0.5,0.1-1.1,0.1-1.6,0.3c-0.1,0.1-0.1,0.3-0.2,0.4
			C68.9,79,69.5,78.8,70.1,78.7z"/>
		<path class="st0" d="M69.5,77.6c0.2-0.1,0.1-0.3-0.1-0.3c-0.1,0-0.2,0-0.3,0.1c-0.1,0.1-0.1,0.3-0.2,0.4
			C69.1,77.7,69.3,77.6,69.5,77.6z"/>
		<path class="st0" d="M69.9,76.4c0.2-0.1,0.1-0.3-0.1-0.3c0,0-0.1,0.1-0.2,0.4C69.7,76.5,69.8,76.5,69.9,76.4z"/>
	</g>
</g>
</svg>
