<?xml version="1.0" encoding="utf-8"?>
<!-- Generator: Adobe Illustrator 25.0.1, SVG Export Plug-In . SVG Version: 6.00 Build 0)  -->
<svg version="1.1" id="Layer_1" xmlns="http://www.w3.org/2000/svg" xmlns:xlink="http://www.w3.org/1999/xlink" x="0px" y="0px"
	 viewBox="0 0 200 200" style="enable-background:new 0 0 200 200;" xml:space="preserve">
<style type="text/css">
	.st0{fill:#5ABE26;}
</style>
<g>
	<path class="st0" d="M84.2,114.2c-1.7,0-3.5,0.1-5.2,0.1l0,0h0c-0.2,3.4-0.3,6.7-0.4,10.1c0,0,0,0,0,0c0,0.6-0.1,1.1,0,1.7
		c0.5,0,1,0,1.5,0c0,0,0,0,0,0c4.9,0,9.7,0,14.6-0.1c0.2,0.2,0.4,0.2,0.6,0c8-0.2,15.9-0.2,23.9-0.2c0,0,0,0,0,0l0,0
		c0-0.6-0.1-1.1-0.1-1.7l0,0c-0.2-3.5-0.4-7-0.5-10.4c-0.6,0-1.1,0-1.7,0v0C106,113.9,95.1,114,84.2,114.2z M94,115.7
		c-1.6,2.8-2.9,5.8-4.4,8.7c-0.2,0-0.4,0-0.7,0c0.8-1.9,1.6-3.7,2.4-5.6c0,0,0,0,0,0c0.2-0.4,0.3-0.7,0.5-1.1c0,0,0,0,0,0
		c0,0,0,0,0,0c0,0,0,0,0,0c0.3-0.6,0.6-1.3,0.9-1.9C93.2,115.7,93.6,115.7,94,115.7z M91.2,117.4C91.2,117.3,91.2,117.3,91.2,117.4
		c-0.2,0.3-0.3,0.7-0.5,1.1c0,0,0,0,0,0c0,0,0,0,0,0.1c0,0,0,0,0,0c-0.9,2-1.7,3.9-2.5,5.9c-0.4,0-0.8,0-1.3,0
		c1.4-2.9,2.7-5.9,4.3-8.7c0.3,0,0.5,0,0.8,0C91.7,116.3,91.4,116.8,91.2,117.4z M90.1,115.9c-1.5,2.8-2.8,5.7-4.1,8.5
		c-0.3,0-0.5,0-0.8,0c1.3-2.9,2.7-5.8,4.1-8.7c0.3,0,0.6,0,0.9,0C90.1,115.8,90.1,115.9,90.1,115.9z M83.5,124.4
		c1.4-2.8,2.7-5.7,4-8.5c0,0,0,0,0,0.1c0-0.1,0.1-0.1,0.1-0.2c0.3,0,0.5,0,0.8,0c-1.4,2.9-2.8,5.7-4.1,8.6
		C83.9,124.4,83.7,124.4,83.5,124.4z M84.8,115.9c-1.4,2.9-2.8,5.7-4.2,8.6c-0.1,0-0.2,0-0.4,0c0.6-2.3,1.6-4.6,2.6-6.8c0,0,0,0,0,0
		c0.3-0.6,0.5-1.2,0.8-1.7C84,115.9,84.4,115.9,84.8,115.9z M80.6,116c0.1,0,0.3,0,0.4,0c-0.1,0.6-0.3,1.2-0.5,1.7
		C80.6,117.1,80.6,116.6,80.6,116z M80.4,119.7c0.8-0.4,1.2-2.8,1.4-3.7c0.3,0,0.5,0,0.8,0c-0.8,1.8-1.6,3.7-2.3,5.6
		C80.4,120.9,80.4,120.3,80.4,119.7z M81.6,124.4c1.4-2.9,2.8-5.7,4.2-8.6c0.2,0,0.5,0,0.7,0c-1.3,2.9-2.7,5.7-4,8.6
		C82.2,124.4,81.9,124.4,81.6,124.4z M90.6,124.4c1.5-2.9,2.7-5.9,4.4-8.7c0.2,0,0.5,0,0.7,0c-1.4,2.9-3,5.8-4.5,8.7
		C91.1,124.4,90.8,124.4,90.6,124.4z M98.1,115.7c-1.8,2.8-3.4,5.7-4.9,8.7c-0.3,0-0.7,0-1,0c1.5-2.9,3.1-5.7,4.5-8.7
		C97.2,115.7,97.7,115.7,98.1,115.7z M102.6,115.6c-1.7,2.9-3.4,5.7-5.1,8.6c-0.4,0-0.8,0-1.2,0c1.7-2.9,3.4-5.7,5.1-8.7
		C101.8,115.6,102.2,115.6,102.6,115.6z M105.4,115.6c-1.6,3-3.5,5.8-5.3,8.6c-0.5,0-1.1,0-1.6,0c1.7-2.9,3.4-5.8,5.1-8.6
		C104.1,115.6,104.8,115.6,105.4,115.6z M101.1,124.2c1.9-2.8,3.7-5.7,5.3-8.6c0.8,0,1.7,0,2.5,0c-1.2,1.6-2.3,3.3-3.3,5.1
		c0,0,0,0,0,0c0,0,0,0,0,0.1c0,0,0,0,0,0c0,0,0,0,0,0.1c0,0,0,0,0,0c0,0-0.1,0.1-0.1,0.1c0,0,0,0,0,0c0,0.1-0.1,0.2-0.1,0.2
		c0,0,0,0,0,0c0,0,0,0.1-0.1,0.1c0,0,0,0,0,0c-0.1,0.1-0.1,0.2-0.2,0.3c0,0,0,0,0,0c0,0,0,0,0,0c0,0,0,0,0,0
		c-0.4,0.7-0.9,1.5-1.3,2.2c0,0,0,0,0,0c-0.1,0.1-0.1,0.2-0.2,0.4c0,0,0,0,0,0c-0.1,0.1-0.1,0.2-0.2,0.3
		C102.6,124.2,101.8,124.2,101.1,124.2z M112.3,115.8c0.1-0.1,0.1-0.2,0.2-0.3c0.5,0,1,0,1.6,0c-1.9,2.9-3.7,5.8-5.5,8.7
		c-0.5,0-1,0-1.5,0C108.8,121.4,110.5,118.6,112.3,115.8z M117,124.1c-1,0-2,0-3.1,0c1.4-2.1-0.4-1.7-1,0c-0.4,0-0.8,0-1.2,0
		c4.4-6,1.5-4.9-0.9,0c-0.5,0-0.9,0-1.4,0c1.9-2.9,3.7-5.8,5.6-8.7c0.5,0,0.9,0,1.4,0c-2.8,3.5-2,5.1,0.6,0.7c0,0.6,0,1.2,0.1,1.9
		c-0.7,0.8-1.3,1.7-1.9,2.6c-0.1,1.9,1.6-0.8,2-1.3c0,0.8,0.1,1.6,0.1,2.4c-0.3,0.3-0.6,0.7-0.8,1.1c-0.3,0.7,0.7,0.8,0.9,0.2
		c0,0.4,0,0.8,0.1,1.2C117.3,124.1,117.1,124.1,117,124.1z M111.5,115.5c-1.9,2.9-3.6,5.8-5.5,8.7c-0.5,0-1,0-1.6,0
		c0-0.1,0.1-0.2,0.1-0.2c0,0,0,0,0,0c0.4-0.7,0.9-1.5,1.3-2.2l0,0l0,0c0,0,0,0,0,0c0,0,0,0,0,0c0,0,0,0,0,0c0,0,0,0,0,0c0,0,0,0,0,0
		c0,0,0,0,0,0c0,0,0,0,0,0c0,0,0.1-0.1,0.1-0.1c0,0,0,0,0,0c0.1-0.1,0.1-0.2,0.2-0.2c0,0,0,0,0,0c0.1-0.1,0.2-0.3,0.2-0.4
		c0,0,0,0,0,0c0,0,0,0,0,0c0,0,0,0,0,0c0,0,0,0,0,0v0c0,0,0,0,0-0.1c0,0,0,0,0,0c0,0,0,0,0,0c0,0,0,0,0,0c0,0,0,0,0,0
		c1.2-1.9,2.3-3.7,3.6-5.5C110.4,115.5,110.9,115.5,111.5,115.5z M100.4,115.6c-1.6,2.9-3.4,5.8-5.1,8.7c-0.4,0-0.8,0-1.2,0
		c1.5-2.8,3-5.7,4.8-8.4c0.1,0,0.2-0.2,0.3-0.3C99.6,115.7,100,115.6,100.4,115.6z"/>
	<path class="st0" d="M81.6,130.4c-0.6,0-1.1,0-1.7,0v0l0,0c0,0.6,0,1.1,0,1.7c0,0,0,0,0,0c0.2,4.6,0.2,9.3,0.3,13.9
		c3-0.2,6-0.2,9.1-0.3c0.2,0.1,0.4,0.1,0.6,0c0.3,0,0.7,0,1,0c0.1,0.1,0.3,0.1,0.5,0c2.2-0.2,4.4,0.1,6.6-0.2l0,0l0,0
		c0-5-0.3-10,0-14.9l0,0l0,0c-0.6,0-1.1,0-1.7,0c0,0,0,0,0,0C91.4,130.4,86.5,130.4,81.6,130.4C81.6,130.4,81.6,130.4,81.6,130.4z
		 M84.5,132.1c0.1,0.1,0.1,0.2,0.2,0.3c-0.2,0.3-0.4,0.5-0.6,0.8c-0.1-0.2-0.3-0.3-0.4-0.5c0.1-0.1,0.3-0.3,0.2-0.6
		C84.1,132.1,84.3,132.1,84.5,132.1z M86.5,132.1c0,0.1,0.1,0.2,0.1,0.2c-0.1,0.2-0.3,0.3-0.4,0.5c-0.1-0.2-0.3-0.3-0.4-0.5
		c0.1-0.1,0.1-0.2,0.2-0.2C86.1,132.1,86.3,132.1,86.5,132.1z M91.3,132.1c0,0.1,0.1,0.1,0.1,0.2c0,0,0,0.1-0.1,0.1
		c-0.1-0.1-0.1-0.2-0.2-0.3C91.2,132.1,91.2,132.1,91.3,132.1z M87,144.1c-0.1-0.2-0.3-0.3-0.4-0.5c0,0,0,0,0,0
		c-0.1-0.1-0.1-0.2-0.2-0.2c0.1-0.2,0.2-0.3,0.3-0.5c0.2,0.2,0.4,0.4,0.6,0.6c-0.1,0.2-0.2,0.4-0.1,0.5
		C87.1,144.1,87.1,144.1,87,144.1z M84.1,142.4c-0.1,0.1-0.2,0.2-0.2,0.3c-0.1-0.1-0.1-0.2-0.2-0.2c0.1-0.2,0.2-0.3,0.4-0.5
		c0.1,0.1,0.1,0.2,0.2,0.3C84.2,142.3,84.1,142.4,84.1,142.4z M83.2,143.5c-0.2,0.2-0.4,0.5-0.6,0.7c-0.1,0-0.2,0-0.3,0
		c0.3-0.4,0.6-0.7,0.8-1.1c0.1,0.1,0.1,0.1,0.2,0.2C83.3,143.4,83.3,143.5,83.2,143.5z M87.1,133c0.1,0.1,0.1,0.2,0.2,0.2
		c-0.1,0.2-0.2,0.3-0.4,0.5c-0.1-0.1-0.1-0.2-0.2-0.2C86.9,133.4,87,133.2,87.1,133z M88.7,132.9c0.1,0.1,0.3,0.3,0.4,0.4
		c-0.1,0.2-0.2,0.3-0.3,0.5c-0.1-0.2-0.3-0.3-0.4-0.5C88.5,133.1,88.6,133,88.7,132.9z M90.6,132.8c0.1,0.1,0.2,0.2,0.3,0.3
		c-0.1,0.1-0.2,0.3-0.3,0.4c-0.1-0.1-0.2-0.2-0.3-0.3C90.3,133.1,90.4,132.9,90.6,132.8z M92,133c0.2,0.2,0.3,0.4,0.5,0.6
		c0,0-0.1,0.1-0.1,0.1c-0.2-0.2-0.3-0.4-0.5-0.6C91.9,133.1,91.9,133,92,133z M94.2,142.9c0.2-0.2,0.3-0.5,0.5-0.7
		c0.1,0.1,0.2,0.3,0.3,0.4c-0.2,0.2-0.4,0.4-0.5,0.7C94.4,143.2,94.3,143.1,94.2,142.9z M86.3,141.2c0-0.1-0.1-0.1-0.1-0.2
		c0.1-0.2,0.3-0.4,0.4-0.6c0.2,0.2,0.3,0.4,0.5,0.6c-0.1,0.2-0.3,0.4-0.4,0.5C86.5,141.5,86.4,141.4,86.3,141.2z M85.5,140.4
		C85.5,140.4,85.5,140.4,85.5,140.4C85.5,140.4,85.5,140.4,85.5,140.4C85.5,140.4,85.5,140.4,85.5,140.4c-0.1-0.1-0.2-0.2-0.2-0.2
		c0.1-0.2,0.3-0.4,0.4-0.6c0.1,0.1,0.2,0.2,0.3,0.3C85.8,140,85.7,140.2,85.5,140.4C85.5,140.4,85.5,140.4,85.5,140.4z M83.1,141.8
		c-0.1-0.1-0.1-0.1-0.2-0.2c0,0,0,0,0,0c-0.1-0.1-0.1-0.1-0.2-0.2c0.1-0.2,0.2-0.4,0.4-0.6c0.1,0.1,0.2,0.3,0.4,0.4
		C83.3,141.5,83.2,141.7,83.1,141.8z M81.9,134.8c0.1,0.2,0.3,0.4,0.4,0.6c-0.2,0.2-0.3,0.5-0.5,0.7c0-0.1-0.1-0.1-0.1-0.2
		c0-0.3,0-0.6,0-0.8C81.8,135,81.9,134.9,81.9,134.8C81.9,134.8,81.9,134.8,81.9,134.8z M85.1,135.7c0.1,0.1,0.2,0.2,0.2,0.3
		c-0.2,0.3-0.4,0.6-0.6,0.9c-0.1-0.1-0.2-0.2-0.3-0.4C84.6,136.3,84.8,136,85.1,135.7z M88.8,135.1c0.1,0.1,0.2,0.2,0.3,0.3
		c-0.1,0.2-0.2,0.3-0.4,0.5c-0.1-0.1-0.2-0.2-0.3-0.3C88.6,135.5,88.7,135.3,88.8,135.1z M90.6,134.9c0.2,0.2,0.3,0.4,0.5,0.6
		c-0.1,0.2-0.3,0.4-0.4,0.6c-0.2-0.2-0.3-0.4-0.5-0.6C90.3,135.3,90.4,135.1,90.6,134.9z M92.5,135.2c0.1,0.2,0.3,0.3,0.4,0.5
		c-0.1,0.1-0.2,0.2-0.2,0.3c-0.2-0.2-0.3-0.4-0.5-0.6c0.1-0.1,0.2-0.2,0.2-0.3C92.4,135.1,92.5,135.1,92.5,135.2z M94.6,134.7
		C94.6,134.7,94.6,134.7,94.6,134.7C94.6,134.7,94.6,134.7,94.6,134.7c0.1-0.1,0.2-0.2,0.2-0.3c0.2,0.2,0.4,0.4,0.6,0.6
		c-0.1,0.1-0.2,0.2-0.3,0.3C95,135.1,94.8,134.9,94.6,134.7C94.6,134.7,94.6,134.7,94.6,134.7z M94.5,140.7
		c-0.1-0.1-0.1-0.2-0.2-0.3c0.2-0.2,0.3-0.5,0.5-0.7c0.1,0.2,0.3,0.3,0.4,0.5c-0.2,0.2-0.4,0.4-0.5,0.7
		C94.6,140.8,94.6,140.8,94.5,140.7z M89.3,142.6c-0.1-0.1-0.1-0.2-0.2-0.2c0.2-0.3,0.4-0.6,0.6-0.8c0.1,0.2,0.3,0.3,0.4,0.5
		c-0.2,0.3-0.4,0.5-0.6,0.8C89.5,142.7,89.4,142.7,89.3,142.6z M87.1,138.3c-0.2,0.3-0.4,0.6-0.6,0.9c-0.1-0.1-0.2-0.2-0.3-0.3
		c0.2-0.3,0.4-0.6,0.6-0.9C86.9,138,87,138.2,87.1,138.3z M87.7,138.9c0.2,0.2,0.3,0.4,0.5,0.6c-0.2,0.3-0.4,0.6-0.6,0.8
		c-0.2-0.2-0.3-0.4-0.5-0.6C87.3,139.5,87.5,139.2,87.7,138.9z M90.3,137.9c0.1-0.2,0.3-0.4,0.4-0.5c0.2,0.2,0.3,0.4,0.5,0.6
		c-0.1,0.2-0.3,0.4-0.4,0.5C90.7,138.3,90.5,138.1,90.3,137.9z M90.3,139.2c-0.2,0.3-0.4,0.6-0.6,0.9c-0.2-0.2-0.3-0.4-0.5-0.6
		c0.2-0.3,0.4-0.6,0.6-0.9C90,138.8,90.1,139,90.3,139.2z M88.7,138.8c-0.2-0.2-0.3-0.4-0.5-0.6c0.2-0.3,0.4-0.6,0.6-0.9
		c0.2,0.2,0.3,0.4,0.5,0.6C89.1,138.2,88.9,138.5,88.7,138.8z M88.7,140.2c0.2,0.2,0.3,0.4,0.5,0.6c-0.2,0.3-0.4,0.6-0.6,0.8
		c-0.2-0.2-0.3-0.4-0.5-0.6C88.3,140.8,88.5,140.5,88.7,140.2z M90.2,140.8c0.2-0.3,0.4-0.6,0.6-0.9c0.1,0.2,0.3,0.4,0.4,0.6
		c-0.2,0.3-0.4,0.5-0.6,0.8C90.5,141.1,90.4,141,90.2,140.8z M91.4,139.2c0.1-0.2,0.3-0.4,0.4-0.6c0.2,0.2,0.3,0.4,0.5,0.6
		c-0.1,0.2-0.3,0.4-0.4,0.6C91.7,139.6,91.5,139.4,91.4,139.2z M92.7,137.3c0.2,0.2,0.3,0.4,0.5,0.6c-0.2,0.2-0.3,0.4-0.5,0.6
		c-0.2-0.2-0.3-0.4-0.5-0.6C92.4,137.7,92.6,137.5,92.7,137.3z M92.8,139.9c0.2,0.2,0.3,0.4,0.5,0.6c-0.1,0.2-0.3,0.4-0.4,0.6
		c-0.2-0.2-0.3-0.4-0.5-0.6C92.5,140.3,92.6,140.1,92.8,139.9z M93.3,139.2c0.2-0.2,0.3-0.4,0.5-0.6c0.2,0.2,0.3,0.4,0.5,0.5
		c-0.2,0.2-0.3,0.4-0.5,0.7C93.6,139.6,93.4,139.4,93.3,139.2z M94.4,137.7C94.4,137.6,94.5,137.6,94.4,137.7
		c0.2,0.1,0.4,0.3,0.6,0.5c-0.1,0.1-0.1,0.2-0.2,0.3c-0.2-0.2-0.3-0.4-0.5-0.6C94.3,137.8,94.4,137.7,94.4,137.7
		C94.4,137.7,94.4,137.7,94.4,137.7z M95.1,136.8C95.1,136.8,95.1,136.8,95.1,136.8L95.1,136.8C95.1,136.8,95.1,136.8,95.1,136.8
		C95.1,136.8,95.1,136.8,95.1,136.8c0-0.1,0.1-0.1,0.1-0.2c0.2,0.2,0.4,0.4,0.5,0.6c-0.1,0.1-0.1,0.2-0.2,0.3
		C95.4,137.3,95.2,137.1,95.1,136.8C95,136.9,95,136.9,95.1,136.8z M96.1,138.1C96.1,138.1,96.1,138.2,96.1,138.1
		C96.1,138.2,96.1,138.2,96.1,138.1C96.1,138.1,96.1,138.1,96.1,138.1z M95.3,139.1c0.1-0.1,0.1-0.2,0.2-0.3
		c0.2,0.2,0.3,0.4,0.5,0.6c-0.1,0-0.2,0.1-0.2,0.2C95.6,139.4,95.5,139.2,95.3,139.1z M96.1,135.7c0,0.2,0,0.5,0,0.7
		c-0.1-0.1-0.3-0.3-0.4-0.4C95.8,135.9,95.9,135.7,96.1,135.7C96,135.6,96.1,135.6,96.1,135.7z M94.6,136c-0.1,0.1-0.1,0.1-0.2,0.2
		c-0.2-0.2-0.4-0.4-0.5-0.6c0.1-0.1,0.1-0.1,0.1-0.2C94.3,135.6,94.5,135.8,94.6,136z M93.9,136.9c0,0-0.1,0.1-0.1,0.2c0,0,0,0,0,0
		c0,0-0.1,0.1-0.1,0.1c0,0,0,0,0,0c0,0,0,0,0,0c0,0,0,0,0,0c0,0,0,0,0,0.1c-0.2-0.2-0.4-0.4-0.5-0.6c0.1-0.1,0.1-0.2,0.2-0.3
		C93.6,136.5,93.8,136.7,93.9,136.9z M92.1,136.6c-0.1,0.2-0.3,0.4-0.4,0.6c-0.2-0.2-0.3-0.4-0.5-0.6c0.1-0.2,0.3-0.4,0.4-0.6
		C91.8,136.3,92,136.5,92.1,136.6z M90.2,136.7c-0.1,0.2-0.2,0.3-0.4,0.5c-0.2-0.2-0.3-0.4-0.5-0.6c0.1-0.2,0.2-0.3,0.4-0.5
		C89.8,136.3,90,136.5,90.2,136.7z M88.3,136.7c-0.2,0.3-0.4,0.6-0.6,0.9c-0.1-0.1-0.2-0.2-0.3-0.3c0.2-0.3,0.4-0.6,0.6-0.9
		C88.1,136.4,88.2,136.6,88.3,136.7z M86.8,136.5c-0.1-0.2-0.3-0.4-0.4-0.6c0.2-0.3,0.4-0.6,0.6-0.9c0.1,0.2,0.3,0.4,0.4,0.5
		C87.2,135.9,87,136.2,86.8,136.5z M86.3,137.2c-0.2,0.3-0.4,0.6-0.6,0.9c-0.1-0.2-0.3-0.4-0.4-0.5c0.2-0.3,0.4-0.6,0.6-0.9
		C86,136.9,86.2,137.1,86.3,137.2z M84.2,137.7c-0.2,0.2-0.3,0.5-0.5,0.7c-0.1-0.1-0.2-0.3-0.4-0.4c0.2-0.2,0.3-0.5,0.5-0.7
		C84,137.4,84.1,137.5,84.2,137.7z M83,139.5c-0.1-0.2-0.3-0.4-0.4-0.5c0.1-0.1,0.2-0.2,0.3-0.3c0.1,0.2,0.3,0.3,0.4,0.5
		C83.2,139.2,83.1,139.3,83,139.5z M82.1,140.8c-0.1-0.1-0.2-0.2-0.3-0.3c0-0.2,0-0.4,0-0.6c0.1-0.1,0.1-0.2,0.2-0.2
		c0.2,0.2,0.3,0.4,0.5,0.6C82.4,140.4,82.2,140.6,82.1,140.8z M81.9,137.5C81.9,137.5,81.9,137.5,81.9,137.5
		C81.9,137.5,81.9,137.5,81.9,137.5c0.1,0.2,0.3,0.3,0.4,0.5c-0.1,0.1-0.2,0.2-0.2,0.3c-0.1-0.1-0.1-0.2-0.2-0.2c0-0.1,0-0.3,0-0.4
		C81.8,137.6,81.8,137.5,81.9,137.5L81.9,137.5z M82.8,137.3c-0.1-0.2-0.3-0.3-0.4-0.5c0.2-0.2,0.4-0.5,0.5-0.7
		c0.1,0.2,0.3,0.3,0.4,0.5C83.1,136.8,83,137,82.8,137.3z M81.9,143.4c0-0.3,0-0.5,0-0.8c0.2-0.1,0.2-0.3,0.4-0.5
		c0,0,0.1,0.1,0.1,0.1c0,0,0,0,0,0c0.1,0.1,0.2,0.2,0.3,0.3C82.3,142.8,82.1,143.1,81.9,143.4z M83.5,140.2c0.1-0.1,0.2-0.3,0.3-0.4
		c0.1,0.2,0.3,0.3,0.4,0.5c-0.1,0.1-0.2,0.3-0.3,0.4C83.8,140.5,83.7,140.3,83.5,140.2z M84.3,139c0.2-0.2,0.3-0.5,0.5-0.7
		c0.1,0.2,0.3,0.3,0.4,0.5c-0.2,0.2-0.3,0.4-0.5,0.7C84.6,139.3,84.4,139.2,84.3,139z M87.6,141.8c0.2,0.2,0.3,0.4,0.5,0.6
		c-0.1,0.2-0.2,0.3-0.3,0.5c-0.2-0.2-0.4-0.4-0.6-0.6C87.3,142.1,87.4,141.9,87.6,141.8z M88.6,143.1c0.1,0.2,0.3,0.3,0.4,0.5
		c-0.1,0.1-0.2,0.3-0.3,0.4c-0.1-0.1-0.3-0.3-0.4-0.4C88.4,143.3,88.5,143.2,88.6,143.1z M90.5,144c-0.2-0.2-0.3-0.4-0.5-0.6
		c0.2-0.3,0.4-0.5,0.6-0.8c0.2,0.2,0.3,0.4,0.5,0.6C91,143.5,90.8,143.8,90.5,144C90.6,144,90.6,144,90.5,144z M91.2,142
		c0.2-0.3,0.4-0.5,0.6-0.8c0.2,0.2,0.3,0.4,0.5,0.6c-0.2,0.3-0.4,0.5-0.6,0.8C91.5,142.4,91.4,142.2,91.2,142z M92.8,142.5
		c0.1,0.2,0.2,0.3,0.4,0.5c-0.2,0.2-0.4,0.5-0.5,0.7c-0.1-0.2-0.2-0.3-0.4-0.5C92.4,143,92.6,142.7,92.8,142.5z M93.3,141.8
		c0.2-0.2,0.3-0.4,0.5-0.6c0.1,0.1,0.2,0.3,0.4,0.4c-0.2,0.2-0.3,0.4-0.5,0.6C93.6,142.1,93.4,141.9,93.3,141.8z M95.2,141.6
		c0.2-0.2,0.4-0.5,0.6-0.7c0.1,0.1,0.2,0.3,0.4,0.4c-0.2,0.2-0.4,0.5-0.6,0.7C95.4,141.8,95.3,141.7,95.2,141.6z M96.2,142.5
		c0,0.1,0,0.1,0,0.2c0,0-0.1-0.1-0.1-0.1C96.1,142.6,96.2,142.6,96.2,142.5z M96.1,133c0,0-0.1-0.1-0.1-0.1c0.1-0.1,0.1-0.1,0.2-0.2
		C96.1,132.8,96.1,132.9,96.1,133z M96.1,134.2c0,0-0.1,0.1-0.1,0.1c-0.2-0.2-0.4-0.4-0.6-0.6c0-0.1,0.1-0.1,0.1-0.2
		C95.7,133.8,95.9,134,96.1,134.2z M94.7,133.1c-0.2-0.2-0.4-0.4-0.6-0.6c0-0.1,0.1-0.1,0.1-0.2c0.2,0.2,0.4,0.4,0.6,0.6
		C94.8,133,94.8,133.1,94.7,133.1z M93.7,133.3c0.2,0.2,0.4,0.4,0.5,0.5c-0.1,0.1-0.1,0.2-0.2,0.3c-0.2-0.2-0.3-0.4-0.5-0.6
		C93.6,133.4,93.6,133.3,93.7,133.3z M93.5,134.8c0,0.1-0.1,0.1-0.1,0.2c-0.2-0.2-0.3-0.4-0.5-0.6c0-0.1,0.1-0.1,0.1-0.2
		C93.2,134.4,93.3,134.6,93.5,134.8z M91.8,134.4c-0.1,0.1-0.2,0.2-0.3,0.4c-0.2-0.2-0.3-0.4-0.5-0.6c0.1-0.1,0.2-0.3,0.3-0.4
		C91.5,134,91.7,134.2,91.8,134.4z M90,134.3c-0.1,0.2-0.3,0.4-0.4,0.5c-0.1-0.1-0.2-0.2-0.3-0.3c0.1-0.2,0.3-0.3,0.4-0.5
		C89.8,134,89.9,134.1,90,134.3z M88.3,134.5c-0.1,0.2-0.2,0.3-0.3,0.5c-0.1-0.2-0.3-0.3-0.4-0.5c0.1-0.2,0.2-0.3,0.4-0.5
		C88,134.1,88.1,134.3,88.3,134.5z M86.4,134.4c-0.2,0.3-0.4,0.6-0.6,0.8c-0.1-0.1-0.1-0.2-0.2-0.3c0.2-0.3,0.4-0.5,0.6-0.8
		C86.3,134.3,86.4,134.4,86.4,134.4z M85,134.3c-0.1-0.2-0.3-0.3-0.4-0.5c0.2-0.3,0.4-0.5,0.6-0.8c0.1,0.2,0.3,0.3,0.4,0.5
		C85.5,133.8,85.3,134.1,85,134.3z M84.5,135c-0.2,0.3-0.4,0.6-0.7,0.9c-0.1-0.2-0.3-0.3-0.4-0.5c0.2-0.3,0.4-0.6,0.7-0.9
		C84.2,134.7,84.4,134.8,84.5,135z M82.9,134.7c-0.1-0.2-0.3-0.4-0.4-0.6c0.2-0.3,0.5-0.6,0.7-0.8c0.1,0.2,0.3,0.3,0.4,0.5
		C83.3,134.1,83.1,134.4,82.9,134.7z M82,133.4c-0.1-0.1-0.2-0.1-0.3,0c0-0.3,0-0.6,0-0.9c0.2,0.3,0.3,0.5,0.5,0.8
		C82.1,133.3,82,133.4,82,133.4z M84.5,141.3c0.1-0.1,0.2-0.3,0.3-0.4c0,0,0.1,0.1,0.1,0.1c0,0,0,0,0,0c0.1,0.1,0.1,0.1,0.2,0.2
		c-0.1,0.1-0.2,0.3-0.3,0.4C84.6,141.5,84.6,141.4,84.5,141.3z M85.6,141.8C85.6,141.8,85.6,141.8,85.6,141.8
		C85.6,141.8,85.6,141.8,85.6,141.8c0.2,0.2,0.3,0.4,0.5,0.6c-0.1,0.1-0.2,0.3-0.3,0.4c-0.2-0.2-0.3-0.4-0.5-0.6
		C85.4,142.1,85.5,141.9,85.6,141.8z M85.9,144.2c0,0-0.1,0-0.1,0C85.8,144.1,85.8,144.1,85.9,144.2
		C85.8,144.1,85.9,144.1,85.9,144.2z M91.7,144C91.7,144,91.7,143.9,91.7,144C91.8,144,91.8,144,91.7,144
		C91.8,144,91.7,144,91.7,144C91.7,144,91.7,144,91.7,144z M93.5,144c0.1-0.1,0.1-0.2,0.2-0.3c0.1,0.1,0.2,0.2,0.2,0.3
		C93.8,144,93.6,144,93.5,144z M95.6,143.3c0.1,0.2,0.4,0.4,0.6,0.3c0,0.1,0,0.2,0,0.3c-0.4,0-0.8,0-1.1,0
		C95.2,143.7,95.4,143.5,95.6,143.3z M95.4,132.3c0,0-0.1-0.1-0.1-0.1c0.1,0,0.1,0,0.2,0C95.4,132.2,95.4,132.3,95.4,132.3z
		 M92.6,132.1c0.1,0.2,0.3,0.4,0.5,0.5c0,0.1-0.1,0.1-0.1,0.2c-0.2-0.2-0.3-0.4-0.5-0.6C92.5,132.2,92.5,132.2,92.6,132.1
		C92.6,132.1,92.6,132.1,92.6,132.1z M89.6,132.6c-0.1-0.1-0.3-0.3-0.4-0.4c0,0,0-0.1,0-0.1c0.2,0,0.5,0,0.7,0
		C89.9,132.3,89.7,132.5,89.6,132.6z M87.9,132.1c0.1,0.1,0.1,0.1,0.2,0.2c-0.1,0.1-0.2,0.2-0.3,0.3c-0.1-0.1-0.1-0.1-0.2-0.2
		C87.8,132.3,87.8,132.2,87.9,132.1C87.9,132.1,87.9,132.1,87.9,132.1z M83.7,144.2c0.1-0.1,0.1-0.1,0.2-0.2c0.5,0.5,1-0.3,0.5-0.7
		c0.1-0.2,0.2-0.3,0.3-0.5c0.2,0.2,0.3,0.4,0.5,0.6c-0.2,0.2-0.3,0.5,0,0.7C84.7,144.2,84.2,144.2,83.7,144.2z"/>
	<path class="st0" d="M110.9,12.7c0.5-0.3,4.6-2.9,2.4-2.8C112.9,10.4,109.4,12.1,110.9,12.7z"/>
	<path class="st0" d="M111.2,14.1c-0.8,2.2,2.9-1.2,3.6-1.4c0,0,0,0,0,0c0.3-0.1,0.6-0.4,0.4-0.7C114.1,11.4,112.3,13.6,111.2,14.1z
		"/>
	<path class="st0" d="M107.5,17.2c0.5-0.1,0.9-0.5,1.4-0.8c0,0,0,0,0,0c0.6-0.2,0.3-1.1-0.3-0.8C108.2,16,106.3,16.7,107.5,17.2z"/>
	<path class="st0" d="M114.6,13.8c-0.7,0.9-8.7,5.2-6.7,5.7C108.4,19.3,118.5,12.6,114.6,13.8z"/>
	<path class="st0" d="M114.5,15.7c-0.5,0.4-1,0.8-1.6,1.2c-0.4,0.3,0,1,0.5,0.7C113.9,17.3,116.4,15.5,114.5,15.7z"/>
	<path class="st0" d="M108.7,20.7c-0.5,0.3-2.6,2-0.8,1.7c0.5-0.4,4.4-3.2,2-2.7c0,0,0,0,0,0C109.6,20,109.2,20.3,108.7,20.7z"/>
	<path class="st0" d="M107.4,25.3c2.8-1.9,5.3-4.5,8.1-6.5c0.3-0.1,0.4-0.4,0.3-0.7c-1.1-0.5-3.1,2.3-4.2,2.9
		C111,21.8,105.7,24.8,107.4,25.3z"/>
	<path class="st0" d="M115.5,21.2c0.5-0.3,0-1-0.5-0.7c-0.6,0.7-2.4,1.2-2.1,2.2C113.8,23.2,114.7,21.6,115.5,21.2z"/>
	<path class="st0" d="M107.5,26.8c-0.8,0.5,0.1,1.3,0.6,0.6c0,0,0,0,0,0c3.1-2,3.2-4-0.2-0.9c0,0,0,0,0,0
		C107.7,26.6,107.6,26.7,107.5,26.8z"/>
	<path class="st0" d="M115.3,25.3c-0.8,1.1,1.5,0.8,1-0.2C116,24.7,115.5,25.1,115.3,25.3z"/>
	<path class="st0" d="M108.2,31.8c0.6-0.1,3.9-2.9,1.8-2.5C109.7,30,106.9,31.1,108.2,31.8z"/>
	<path class="st0" d="M113.1,26.8C113.1,26.8,113.1,26.8,113.1,26.8c-0.4,0.3-1.2,1.1-0.3,1.3C113.6,28,114.5,26.2,113.1,26.8z"/>
	<path class="st0" d="M106.7,35.1c0.6-0.4,12.6-8.7,9.4-8.2c-1.9,1.3-3.6,2.9-5.5,4.3C110,32,105,34.5,106.7,35.1z"/>
	<path class="st0" d="M113.4,31.5c-0.5,0.6-6.6,3.8-4.1,3.9c2.6-1.8,5.2-3.7,7.8-5.5c0.2-0.1,0.2-0.4,0.1-0.6
		C116.1,28.9,114.6,31,113.4,31.5z"/>
	<path class="st0" d="M117,31c-0.6,0.7-6.5,3.7-4.7,4.2C112.7,34.9,119.5,30.9,117,31z"/>
	<path class="st0" d="M116.2,33.3c-0.4,0.2-1.2,1-0.3,1.2C116.6,34.5,117.4,32.9,116.2,33.3z"/>
	<path class="st0" d="M78.7,146.1C78.7,146.1,78.7,146.1,78.7,146.1C78.7,146.1,78.7,146.1,78.7,146.1z"/>
	<path class="st0" d="M124.1,163.9"/>
	<path class="st0" d="M71.4,162.6c0.7-0.6,9.3-10.7,6.4-9.6c-0.9,1.6-2.2,3-3.3,4.5C74.1,158.5,70,162.1,71.4,162.6z"/>
	<path class="st0" d="M77.3,158.3c0.3-0.7,2.7-2.4,1.2-2.7c-1.2,1.1-2.1,2.6-3.2,3.8c-0.8,1.5-3.5,3.4-3.4,5c0.7,0.4,1-0.7,1.4-1.1
		c0.2-0.1,0.5-0.3,0.4-0.6C75,161.2,76.2,159.7,77.3,158.3z"/>
	<path class="st0" d="M75.9,163.1c0.5-0.1,4.8-5.1,2.4-4C77.9,159.9,74.5,162.5,75.9,163.1z"/>
	<path class="st0" d="M77,164.7c1.2-0.8,2-2.3,3-3.4c0.6-0.3-0.1-1.1-0.6-0.6C79.1,161.5,75.6,164.2,77,164.7z"/>
	<path class="st0" d="M80.2,163.9c0.6-0.1,8.9-10.4,5.5-8.3c0,0,0,0,0-0.1c-0.3,0.5-0.6,0.9-0.9,1.4c0,0,0,0,0,0
		C84.5,158.1,78.7,163.5,80.2,163.9z"/>
	<path class="st0" d="M83,164c2.1-1.9,4.1-4.5,5.7-6.9c-0.6-1.4-1.8,1.5-2.4,1.9C85.9,159.9,81.5,163.6,83,164z"/>
	<path class="st0" d="M93.6,152.6c0.5-0.5,0-1.4-0.6-0.8c-0.2,1.1-2,2.4-1.5,3.4C92.7,155.4,93,153.4,93.6,152.6z"/>
	<path class="st0" d="M44.4,179.9c-6.2-7.6-1.8-14.3-4.3-16.2c-1.4,0.2-0.2,8.8-0.4,10.5c-0.5-0.5-0.8,0.3-0.4,0.7
		c0.8,1.2,0.5,2.7,0.5,4.1c-0.3,1.6,1.7,1.4,1.4-0.1c0,0,0,0,0,0c0.4,0.8,0.8,1.5,1.2,2.3c0.3,0,0.6,0.1,0.8,0.2
		c-0.4-0.7-0.7-1.4-1.1-2.1c0,0,0.1,0,0.1,0c-0.8-1-1.2-2.3-1.1-3.6c1.2,2,2.3,4,3.5,6c0.3,0.1,0.6,0.1,0.9,0.1
		C45.1,181.2,44.7,180.5,44.4,179.9z"/>
	<path class="st0" d="M42.5,169.1c-1.1,0.3-1.9,1.6-2.9,2.4c-0.2-0.2-0.4,0-0.4,0.3v0c-0.1,0.2-0.2,0.3-0.3,0.4c0,0,0,0,0,0
		c-0.7,0.7-1.5,1.5-2.2,2.3c0,0.3,0,0.6,0,1c0.6-0.6,1.1-1.2,1.7-1.8c-0.1,0.3-0.3,0.7-0.4,1c0,0,0,0,0,0c0,0,0,0,0,0
		c-0.3,0.6-0.5,1.3-0.8,1.9c0,0,0,0,0,0c-0.1,0.3-0.3,0.3-0.4,0.5c0,0.3,0,0.6,0,1c0,0,0,0,0,0c0,0.4,0,0.8-0.1,1.2c0,0,0-0.1,0-0.1
		c0,0,0,0,0,0c0,0,0-0.1,0-0.1c0,0,0,0,0,0c0,0,0,0,0,0l0,0c0.4-1.3,1-2.2,1.8-2.9c0,0,0,0,0,0c0.5-0.5,1-1,1.6-1.5c0,0,0,0,0,0
		c8.4-6.9,7.8-8.2-0.2-0.8h0c0,0,0,0,0,0v0c-0.6,0.6-1.2,1.1-1.8,1.7c0.1-0.2,0.1-0.4,0.2-0.6c0,0,0,0,0,0c0.2-0.5,0.4-1.1,0.6-1.6
		c0,0,0,0,0,0c0.1-0.3,0.2-0.6,0.4-0.9c0,0,0,0,0,0c0.3-0.4,0.6-0.6,1-1c0,0,0,0,0,0c1.7-1.6,3.3-3.1,5-4.6c0.1-0.1,0.2-0.4,0.1-0.6
		C44.7,165.7,43.3,168.7,42.5,169.1z"/>
	<path class="st0" d="M46.9,170.8c-2.3,2-4.6,4.1-6.8,6.2c0.2-0.5,1.2-2.4,0.2-2c-0.8,2.3-1.9,3.8-3.4,5c0,0.3,0,0.6,0,1
		c0.5-0.5,0.9-1,1.4-1.4c-0.5,0.9-0.7,2.2-1.3,2.8c0,0.2,0,0.3,0,0.5c0,0,0,0.1,0,0.1c0,0,0,0,0,0c-0.1,0.3-0.2,0.6-0.3,0.9
		c0,0.5,0,1.1,0,1.6c0.3-0.7,0.5-1.3,0.8-2c0,0,0,0,0,0c1.1-2.4,3.1-3.4,4.6-5.1c0,0,0,0,0,0c0.7-0.7,1.5-1.4,2.2-2.1
		c0.1-0.4,0.2-0.9,0.3-1.3c-0.9,0.9-1.9,1.7-2.8,2.6c0,0,0,0,0,0c-0.3,0.3-0.7,0.6-1,1c0,0,0,0,0,0c-0.8,0.8-1.6,1.6-2.4,2.4
		C38.5,177.6,49,171.3,46.9,170.8z"/>
	<path class="st0" d="M70.3,158.2c0.7-0.2,0.8-1.5,1.5-2c0,0,0,0,0,0c1.5-2,3-4,4.8-5.8c0.4-0.4-0.2-1-0.6-0.6
		c-0.2,0.2-0.5,0.5-0.7,0.7c0,0,0,0,0,0c0,0,0,0,0,0c0,0,0,0,0,0C74.3,151.9,68.9,157.1,70.3,158.2z"/>
	<path class="st0" d="M71.3,158.7c2-1.6,3.5-4.1,5.4-5.9c0.4-0.7,1.9-1.4,1.6-2.2c-1.3-0.2-2.7,2.6-3.7,3.4
		C74.1,154.9,69.8,158.2,71.3,158.7z"/>
	<path class="st0" d="M124.6,183.4c0.8-0.5,10.8-9.3,7.7-8.6c-1.2,1.4-2.6,2.7-3.9,4C127.9,179.7,123.2,182.7,124.6,183.4z"/>
	<path class="st0" d="M131.5,179.7c0.4-0.7,3-2,1.6-2.5c-1.4,0.9-2.4,2.3-3.7,3.3c-1,1.4-3.9,2.9-4.1,4.5c0.6,0.5,1.1-0.6,1.5-0.9
		c0.2-0.1,0.5-0.2,0.5-0.5C128.8,182.2,130.2,180.9,131.5,179.7z"/>
	<path class="st0" d="M124.8,188c0.5,0,5.5-4.4,2.9-3.6C127.3,185.2,123.5,187.3,124.8,188z"/>
	<path class="st0" d="M119.4,181.3c0.8-0.1,1-1.3,1.7-1.8c0,0,0,0,0,0c1.7-1.8,3.6-3.5,5.5-5.1c0.4-0.3,0-1-0.5-0.7
		c-0.3,0.2-0.5,0.4-0.8,0.6c0,0,0,0,0,0c0,0,0,0,0,0c0,0,0,0,0,0C124.3,175.7,118.2,180,119.4,181.3z"/>
	<path class="st0" d="M122.8,181.1c2.2-1.3,4.1-3.5,6.2-5.1c0.5-0.7,2.1-1.1,1.9-2c-1.3-0.4-3,2.1-4.2,2.8
		C126.2,177.7,121.5,180.4,122.8,181.1z"/>
	<path class="st0" d="M80.8,151.4c-1.6,1.3-1.1,2.8,0.4,0.8c0,0,0,0,0,0C81.8,151.9,81.4,150.9,80.8,151.4z"/>
	<path class="st0" d="M81.9,152.9c-0.4,0.4-3.6,4-1.4,3.1c0,0,0,0,0,0C80.7,155.4,84.1,152.4,81.9,152.9z"/>
	<path class="st0" d="M80.7,158.6c0.8,0.3,1.3-1.2,1.9-1.6c0.3-0.4,1-0.8,0.7-1.3C82.9,155.1,80.1,158.2,80.7,158.6z"/>
	<path class="st0" d="M87.1,164c0.8,0.2,1.1-1,1.6-1.4c0.3-0.4-0.3-1-0.7-0.5C87.8,162.6,86.5,163.3,87.1,164z"/>
	<path class="st0" d="M66.7,162.2C66.7,162.2,66.7,162.2,66.7,162.2c0,0,0.1-0.1,0.2-0.1c0-0.3,0-0.7,0-1c-0.2,0.1-0.5,0.3-0.7,0.4
		h0c-0.1,0.1-0.3,0.2-0.4,0.3v0.9C66.1,162.5,66.4,162.4,66.7,162.2z"/>
	<path class="st0" d="M65.8,133.8v0.7C67.1,133.5,67.1,133.2,65.8,133.8z"/>
	<path class="st0" d="M37.5,101.9C37.5,101.9,37.4,101.9,37.5,101.9C37.4,101.9,37.4,101.9,37.5,101.9
		C37.4,101.9,37.5,101.9,37.5,101.9z"/>
	<polygon class="st0" points="53.5,27.3 53.5,27.3 53.5,27.3 	"/>
	<path class="st0" d="M80.5,88.5L80.5,88.5C80.5,88.5,80.5,88.5,80.5,88.5C80.5,88.5,80.5,88.5,80.5,88.5z"/>
	<path class="st0" d="M73.6,4.5C73.6,4.5,73.6,4.5,73.6,4.5C73.6,4.5,73.6,4.5,73.6,4.5C73.6,4.5,73.6,4.5,73.6,4.5z"/>
	<path class="st0" d="M65.8,164.9v1c0.4-0.2,0.7-0.4,1.1-0.6c0-0.3,0-0.6,0-1C66.5,164.5,66.2,164.7,65.8,164.9z"/>
	<path class="st0" d="M84.6,50.1C84.5,50.1,84.5,50.1,84.6,50.1C84.5,50.1,84.5,50.1,84.6,50.1C84.5,50.1,84.5,50.1,84.6,50.1z"/>
	<path class="st0" d="M43.7,153.4C43.7,153.4,43.7,153.4,43.7,153.4C43.7,153.4,43.7,153.4,43.7,153.4
		C43.7,153.4,43.7,153.4,43.7,153.4z"/>
	<path class="st0" d="M39.2,164.6C39.2,164.6,39.2,164.5,39.2,164.6c0-0.1,0-0.1,0-0.1C39.2,164.5,39.2,164.6,39.2,164.6z"/>
	<polygon class="st0" points="99.3,76.6 99.3,76.6 99.3,76.6 	"/>
	<path class="st0" d="M124,173.7C124,173.7,124,173.7,124,173.7C123.9,173.7,123.9,173.7,124,173.7C123.9,173.7,124,173.7,124,173.7
		z"/>
	<path class="st0" d="M107.2,170.1c0,0,0.1,0,0.1-0.1C107.2,170.1,107.2,170.1,107.2,170.1C107.1,170.1,107.2,170.1,107.2,170.1z"/>
	<path class="st0" d="M136.7,134.5c-0.2-12.4-0.7-24.8-0.8-37.2l0,0c3.3-51.4-24-29.4-22.6-58.8c7-0.7,7.8-5.3,6.5-11.3
		c-0.9-6.6,2.1-20.7-8.4-19.4C96-1.3,74.1-2.8,59,7.9c-10.5-1.3-7.5,12.8-8.4,19.4c-1.2,6.1-0.5,10.4,6.5,11.3
		c2.8,20.7-17.5,17.1-21.2,34.2c-2.5,27.3-2.1,55.1-1.9,82.5c1.1,40.1,3.8,47.2,45.8,43.2c10.9-0.7,21.9,1.1,32.8,0.6
		c0.2,0.3,0.7,0.1,1,0c0,0,0,0,0,0c7.2-0.2,15.7-1.9,18.5-9.5c0,0,0,0,0,0c2.8-6.8,3.1-14.3,3.8-21.5c0,0,0.1-0.1,0.1-0.1
		c0,0-0.1,0.1-0.1,0.1C136.5,156.9,137,145.7,136.7,134.5z M134.4,103.6c-0.4,0.2-0.6,0.6-0.2,0.9c-0.4,0-0.8,0-1.1,0
		c0,0,0.1,0,0.1-0.1c0.4-0.3,0.8-0.7,1.2-1C134.4,103.5,134.4,103.6,134.4,103.6z M134.4,102.5c-0.1,0-0.3,0-0.4,0.1
		c-0.4,0.6-2.1,1.2-1.3,1.9c-0.5,0-1,0-1.5,0c1-0.7,1.9-1.4,2.9-2.2c0.1-0.1,0.2-0.1,0.3-0.2C134.4,102.3,134.4,102.4,134.4,102.5z
		 M134.4,101.1c-1.5,1.1-3,2.2-4.5,3.4c-0.1,0-0.3,0-0.4,0c0.2-0.1,0.3-0.3,0.5-0.4c1.5-1.2,3-2.4,4.4-3.7
		C134.3,100.6,134.4,100.9,134.4,101.1z M134.3,99.5c-2.1,1.3-4.1,3.4-6.1,5c-0.3,0-0.5,0-0.8,0c0.6-0.5,1.2-1,1.9-1.6
		c1.5-1.3,3.1-2.4,4.5-3.8c0.2,0,0.4,0,0.6,0C134.3,99.2,134.3,99.4,134.3,99.5z M112.3,102.5c0.1,0.1,0.2,0.1,0.2,0.2
		c-0.2,0.2-0.4,0.4-0.6,0.6c0,0,0,0,0,0c-0.1-0.1-0.2-0.1-0.3-0.2C111.9,102.9,112.1,102.7,112.3,102.5z M111.6,101
		c0.4-0.4,0.8-0.8,1.2-1.1c0.3,0,0.7,0,1,0c-0.4,0.3-0.7,0.7-1.1,1c-0.2,0.2-0.4,0.4-0.5,0.5C112,101.3,111.8,101.1,111.6,101z
		 M111.9,104.6c0.1-0.1,0.1-0.1,0.2-0.2c0.3,0.1,0.6-0.2,0.5-0.5c0.2-0.2,0.4-0.4,0.6-0.6c0.1,0.1,0.2,0.2,0.3,0.2
		c-0.4,0.4-0.9,0.7-1.1,1.2C112.2,104.6,112,104.6,111.9,104.6C111.9,104.6,111.9,104.6,111.9,104.6z M113.1,102.1
		c-0.1-0.1-0.1-0.1-0.2-0.2c0.3-0.3,0.5-0.5,0.8-0.8c0,0,0,0,0,0c0.5-0.5,0.9-0.9,1.5-1.4c0.1,0,0.1,0,0.2,0
		c-0.1,0.1-0.3,0.3-0.4,0.4C114.3,100.8,113.7,101.5,113.1,102.1z M114.1,102.8c-0.1-0.1-0.2-0.2-0.3-0.3c0.8-1,1.9-1.8,2.6-2.8
		c0.4,0,0.8,0,1.2,0c-0.1,0.1-0.2,0.2-0.3,0.3C116.2,100.9,115.1,101.9,114.1,102.8z M114.4,104.1c-0.2,0.2-0.4,0.3-0.5,0.5
		c-0.1,0-0.3,0-0.4,0c0.2-0.2,0.4-0.4,0.7-0.6C114.2,104,114.3,104,114.4,104.1z M118.6,99.7c0.2,0,0.3,0,0.5,0
		c-0.1,0-0.1,0.1-0.2,0.1c-1.3,1.2-2.6,2.5-4,3.7c-0.1,0-0.1-0.1-0.2-0.1C115.9,102,117.8,101,118.6,99.7z M120.3,99.6
		c0.1,0,0.1,0,0.2,0c-0.5,0.4-0.9,0.8-1.4,1.3l0,0c-1.1,1.1-2.2,2.1-3.2,3.2c0,0,0,0.1,0,0.1c-0.1-0.1-0.1-0.1-0.2-0.2
		C117.2,102.5,118.9,101.1,120.3,99.6z M119.1,102.1c0.9-0.9,1.8-1.8,2.8-2.6c0.2,0,0.5,0,0.7,0c-1.9,1.6-3.7,3.3-5.6,5
		c-0.1,0-0.2,0-0.3,0C117.5,103.7,118.3,102.9,119.1,102.1z M119.4,103.5c1.4-1.4,3.2-2.6,4.4-4c0.1,0,0.2,0,0.3,0
		c-1.7,1.7-3.7,3.1-5.1,5c-0.2,0-0.4,0-0.6,0C118.7,104.1,119,103.8,119.4,103.5z M120.5,103.9c1.5-1.6,3.3-2.9,4.8-4.6
		c0.3,0,0.5,0,0.8,0c-1.8,1.7-4,3.2-5.5,5.1c-0.2,0-0.4,0-0.5,0C120.2,104.3,120.3,104.1,120.5,103.9z M123.3,102.9
		c1.4-1.2,2.7-2.5,4.2-3.6c0.4,0,0.7,0,1.1,0c-2.1,1.7-4.3,3.4-6.3,5.2c-0.2,0-0.4,0-0.6,0C122.2,103.9,122.7,103.4,123.3,102.9z
		 M125.3,102.9c1.6-1.3,3.1-2.6,4.7-3.7c0.2,0,0.4,0,0.5,0c-2,1.8-4.6,3.2-6.2,5.2c-0.3,0-0.6,0-0.9,0
		C124.1,103.9,124.7,103.4,125.3,102.9z M127,103.1c1.7-1.3,3.3-2.7,5-4c0.1,0,0.3,0,0.4,0c-2.1,1.8-4.2,3.5-6.4,5.3
		c-0.2,0-0.5,0-0.7,0C126,104,126.5,103.5,127,103.1z M134.1,88.1c-1.3,0.2-2.5,0.2-3.8,0.2c1.2-0.8,2.5-1.7,3.7-2.5
		C134,86.5,134.1,87.3,134.1,88.1z M134,84.8c-1.8,1.1-3.5,2.4-5.3,3.6c-1.2,0-2.5,0.1-3.7,0.1c2.8-1.8,5.5-3.7,8.2-5.6
		c0.2-0.1,0.2-0.4,0.1-0.6c-2.7,0-8.2,6.8-11.6,6.3c6.9-3.7,4.4-4.1-0.8-0.5c-0.2,0.1-0.5,0.3-0.4,0.5c-1.6,0.1-3.1,0.1-4.7,0.2
		c7.4-2.9,8.6-5.3,0-0.9c0,0,0,0,0,0c-0.2,0.1-0.3,0.1-0.5,0.2c0,0,0,0,0,0c-0.4,0.1-1.1,0.2-0.8,0.8c-1.2,0-2.4,0.1-3.7,0.1
		c3-1.6,6-3.1,9-4.7c0.2-0.1,0.3-0.4,0.2-0.6c-4.7,0.7-9.7,6.5-15.2,5.4c0.7-0.7,12-5.4,9-5.7c-11.6,6.7-11.4,6-24.5,5.9
		c6.6-4.3,13.2-8.7,20-12.6c0,0,0,0,0,0c0.3-0.2,0.6-0.3,0.8-0.5c0,0,0,0,0,0c0.2-0.1,0.5-0.3,0.7-0.4c0,0,0,0,0,0c0,0,0,0,0,0
		c0,0,0,0,0,0c0,0,0,0,0,0c0,0,0.1-0.1,0.1-0.1c0,0,0,0,0,0c0.1-0.1,0.2-0.1,0.4-0.2c0,0,0,0,0,0c0.1,0,0.1-0.1,0.2-0.1h0
		c1-0.4,2.2,0,3.3-0.2c0,0,0,0,0,0c0,0,0,0,0,0c-6.3,3.8-12.4,8-18.6,12c-0.4,0.4-1.6,0.7-1.2,1.4c0.1,0.2,0.4,0.2,0.6,0.1
		c0,0,0,0,0,0c6.5-4.3,13-8.7,19.7-12.8c0,0,0,0,0,0c0,0,0,0,0,0c0,0,0.1-0.1,0.1-0.1c0,0,0,0,0,0c0,0,0.1,0,0.1-0.1c0,0,0,0,0,0
		c0,0,0.1,0,0.1,0c0,0,0,0,0,0c0.3-0.2,0.7-0.4,1-0.6c3.1,0,6.3,0,9.4,0c-1.3,1-4.9,1.8-5.4,3.1c1.9,0.8,6.4-4,9.8-3.1
		c-0.6,0.7-9.8,4.5-7.4,5c3.6-1.3,6.6-4.5,10.4-5.1C133.9,78.3,133.9,81.6,134,84.8z M80.5,88.5C80.5,88.5,80.5,88.5,80.5,88.5
		c0.8-0.5,1.6-0.9,2.4-1.4c0,0,0,0,0,0c0,0,0,0,0,0c0,0,0,0,0,0c0.1,0,0.1-0.1,0.2-0.1c0,0,0,0,0,0c0.7-0.4,1.4-0.8,2.1-1.2
		c0,0,0,0,0,0c0,0,0,0,0,0c0,0,0,0,0,0c0,0,0,0,0,0c0,0,0,0,0,0c0.7-0.4,1.4-0.8,2.1-1.2c0,0,0,0,0,0c4-2.3,7.8-4.7,11.8-7
		c0,0,0,0,0,0c0,0,0,0,0,0c0,0,0,0,0,0c0,0,0,0,0.1,0h0c0,0,0,0,0,0c0,0,0,0,0,0c0,0,0,0,0,0c0.1-0.1,0.3-0.1,0.4-0.2c0,0,0,0,0,0
		c0,0,0.1,0,0.1,0l0,0c0,0,0,0,0,0c0,0,0,0,0,0l0,0c3.1-2.5,6.8-2.2,10.6-2.1c-0.1,0.1-0.3,0.2-0.4,0.2c0,0,0,0,0,0
		c-0.3,0.2-0.6,0.3-0.9,0.5c0,0,0,0,0,0c-7.3,4.1-14.2,8.8-21.2,13.3c-2.9,0-5.8,0-8.6,0C79.7,89,80.1,88.8,80.5,88.5L80.5,88.5z
		 M107.3,7.5c0.3,0.2,0.6,0.3,0.9,0.5c-0.4,0-0.8,0-1.2,0C107.3,7.9,107.4,7.7,107.3,7.5z M106.7,7.2c-0.5,0.3-1.3,0.2-1.5,0.7
		c-0.4,0-0.8,0-1.2,0c0,0,0,0,0,0c0.7-0.3,1.4-0.6,2.1-1C106.4,7.1,106.6,7.2,106.7,7.2z M105.2,6.5c-1.6,0.7-3.1,1.7-5,1.4
		c0.7-0.3,1.5-0.5,2.2-0.8c0.7-0.3,1.4-0.6,2.2-0.9C104.8,6.4,105,6.5,105.2,6.5z M103.5,5.8c-2.5,0.8-4.9,2.3-7.6,2
		c2.3-0.7,4.6-1.5,6.8-2.3C103,5.6,103.3,5.7,103.5,5.8z M100.5,4.7c0.4,0.1,0.7,0.2,1,0.4c-0.5,0.2-1,0.4-1.5,0.5
		c-2.7,0.8-5.5,2.2-8.3,2.1c2.9-0.9,5.8-1.9,8.7-2.9c0,0,0,0-0.1,0C100.4,4.7,100.4,4.7,100.5,4.7z M63.8,6.7
		c1.7-0.8,3.4-1.6,5.2-2.1c0,0,0,0,0,0c2.5-0.7,5-1.3,7.5-1.7c0,0,0,0,0,0c0,0,0,0,0.1,0c0,0,0,0,0,0c2.8-0.5,5.7-0.7,8.5-0.6
		c-1,0.5-3.9,0.5-4,1.7c0.2,0.4,0.6,0.2,0.9,0.1c2.1-0.6,4.1-1.3,6.3-1.7c-1,0.6-3.5,0.5-3.7,1.7c1.8,0.5,4.2-1.5,6.2-1.5
		c0,1.1,1.4,0,2,0.3c-0.3,0.7,0.6,0.7,1,0.5c1.8-0.4,3.6,0.5,5.4,0.9c-0.9,0.3-1.9,0.7-2.8,1c-3.1,0.8-6.1,2.6-9.4,2.2
		C88.6,6.7,93.3,6,94,4.7c-0.1-0.2-0.3-0.4-0.5-0.3c-3.1,0.9-6.1,2.2-9.2,2.9c0,0,0,0.1,0,0.1c-1.3,0.1-2.6,0.1-3.9,0.2
		c3.3-1,6.5-2.1,9.8-3.1c0.2-0.1,0.4-0.3,0.3-0.5c-0.1-0.2-0.3-0.4-0.5-0.3c-5.9,1.6-11.5,4.6-17.7,4.2c0.1,0,0.2-0.1,0.2-0.1
		c0,0,0,0-0.1,0c1.4-0.8,6.1-1,6.5-2.2C75.5,4.9,71.5,8.3,67.7,8c2.6-1.3,5.3-2.2,8.2-2.8c0,0,0,0-0.1,0c0.7-0.3,2.4,0,2.4-0.9
		C73.7,3.4,69,7.4,64.6,8c0-0.1,0-0.1,0-0.2c2.8-1.5,5.9-2.7,9.1-3.3c0.7-0.3,6.4-0.7,4.2-1.7c-5,0.9-10.3,1.9-14.5,4.8
		c-0.6,0.2-1.1,0.4-1.7,0.3C62.3,7.5,63.1,7.1,63.8,6.7z M55.6,36.5c-4.3-0.6-4.2-4.8-3.5-8.1c0.6,0.8,1.1-0.7,1.4-1.1
		c0.3-1.1,2.1-2.1,1.8-3.1c-1.5,0-2.2,2.7-3.2,3.8c0-0.5,0.1-1.1,0.1-1.6c0.9,0,1-1.5,1.6-2c0,0,0,0,0,0c4-5.1,1.4-4.3-0.9-0.1
		c0,0,0,0,0,0c-0.2,0.3-0.4,0.7-0.6,1c0-0.5,0-1.1,0-1.6c0.5,0,0.6-0.6,0.9-1c0,0,0,0,0,0c1.2-2.5,3.5-4.4,4.9-6.6
		c0.5,0.5,1,0.9,1.5,1.4c-0.3,0.3-0.6,0.6-0.9,0.9c-0.5-0.8-1.4,0.1-0.6,0.6c-1.9,1.4-0.8,2.4,0.6,0.6c0.9,0.9,1.9,1.7,2.8,2.5
		c-0.3,0.3-0.7,0.7-1,1c-0.3-0.2-0.7-0.9-1.1-0.5c-0.3,0.9,1.4,1.5,1.9,2.2c-0.3,0.3-0.7,0.6-1,1c-0.3-0.2-0.7-0.9-1.2-0.5
		c0.5-2-3.6,2-2.9,2.4c1.1,0.2,1.9-1.7,2.8-2.3c-0.3,0.5,0.4,0.7,0.7,1c-0.7,0.7-1.4,1.4-2.1,2.1c-0.4,0.1-0.5,0.9,0,0.9
		c0.2,0.3,0.5,0.5,0.7,0.8c-0.3,0.3-0.9,0.6-0.8,1.1c-0.4-0.3-1.2-1.4-1.5-0.6c-0.6-0.7-1.7,1.1-2,1.6c0.5,1.2,1.6-0.8,2-1.3
		c0.6,0.6,1.3,1.2,1.9,1.8c-0.7,0.5,0.2,1.3,0.6,0.6c0.3,0.3,0.6,0.5,0.9,0.8c-2.7,2-1.4,2.9,0.6,0.6c0.3,0.2,0.5,0.4,0.8,0.7
		c-0.3,0.4-1.1,0.7-1,1.3c0.3,0,0.6,0,0.9,0c0.3-0.2,0.5-0.5,0.8-0.7c0.2,0.2,0.5,0.4,0.7,0.7c0.4,0,0.8,0,1.2,0l0,0
		c0.4-0.2,0.7-0.6,1.1-0.9c0.4,0.3,0.8,0.6,1.3,0.9c0.4,0,0.8,0,1.2,0c-0.4-0.7-1.3-1-1.9-1.5c0.3-0.3,0.6-0.6,1-0.9
		c0.2,0.1,0.4,0.3,0.6,0.4c-1.3,0.9-0.1,1.7,0.7,0.5c0.7,0.8,1.7,0,0.6-0.6c0.3-0.3,0.5-0.5,0.8-0.8c0.2,0.1,0.4,0.3,0.6,0.4
		c-1.1,0.8,0,1.5,0.7,0.5c0.4,0.2,0.9,0.9,1.3,0.4c0.6,0.7,1.3-0.7,1.8-0.9c0.3,0.2,0.5,0.4,0.8,0.5c-0.2,1.6,2.9-1.2,2.4-1.7
		c-0.7-0.5-1.3,0.8-1.9,1.1c-0.2-0.2-0.4-0.3-0.7-0.5c2.7-1.9,1.2-2.6-0.7-0.5c-0.2-0.2-0.5-0.4-0.7-0.5c0.4-0.4,0.9-0.8,1.3-1.2
		c1.5,0.1,0-1.2-0.5-1.4c1.9-1.3,0.6-2-0.7-0.5c-0.2-0.1-0.4-0.3-0.6-0.4c0.1-0.1,0.2-0.2,0.3-0.3c0,0,0,0,0,0c0,0,0,0,0,0
		c0,0,0,0,0,0c0.3-0.3,0.7-0.6,1-0.9c0,0,0,0,0,0c5.3-4.1,4.1-5.1-0.6-0.6c0,0,0,0,0,0c-0.1,0.1-0.1,0.1-0.2,0.2
		c0.2-0.4-0.2-0.6-0.5-0.8c1.7-1.5,3.5-3,5.2-4.6c0.5,0.4,2.9,2.2,2.2,0.5c-0.8-0.5-1.5-1.1-2.3-1.6c0,0,0,0,0,0c0,0,0,0,0,0
		c0,0,0,0,0,0c-0.4-0.3-0.9,0.2-0.6,0.6c-1.2,1.1-2.5,2.2-3.7,3.2c-0.2-0.3-0.5-0.4-0.7-0.6c0.2-0.2,0.4-0.3,0.5-0.5c0,0,0,0,0,0
		c0.7-0.6,1.4-1.2,2-1.9c0,0,0,0,0,0c3.4-2.7,2.3-3.8-0.6-0.6c-0.3,0.3-0.7,0.6-1,0.9c0,0,0,0,0,0c-0.3,0.3-0.7,0.6-1,0.9
		c0,0,0,0,0,0c-0.2,0.2-0.4,0.4-0.6,0.6c-0.3-0.2-0.6-0.5-0.9-0.7c0.3-0.3,0.7-0.6,1-0.8c0.3,0.3,0.9-0.2,0.6-0.5
		c6.9-5.2,5.2-5.9-0.6-0.6c-0.3-0.2-0.5-0.4-0.8-0.6c0.4-0.3,0.7-0.6,1.1-0.9c0.4,0.5,1.2-0.1,0.7-0.5c1.5-1.2,3.1-2.4,4.7-3.6
		c0.6-2.3-3.6,1.9-4.2,2.2c0.3-0.4-0.3-0.7-0.5-0.9c1.6-1.4,3.6-2.6,5-4.1c-2.4,0.2-3.9,2.3-5.7,3.6c-0.3-0.2-0.6-0.5-1-0.7
		c0.3-0.3,0.7-0.5,1-0.8c0.4,0.4,1-0.3,0.5-0.6c0-0.3-0.3-0.5-0.5-0.4c-0.2-0.2-0.4-0.3-0.6-0.5c-0.6,0-1.2,0-1.7-0.1
		c-0.3,0.3-0.6,0.5-1,0.8c-0.3-0.2-0.6-0.4-0.9-0.6c0.1-0.1,0.2-0.2,0.4-0.3c-0.9-0.1-1.9-0.2-2.8-0.4c0.4,0.2,0.7,0.5,1.1,0.7
		c-0.3,0.2-0.6,0.5-0.8,0.7c-0.4-0.3-0.7-0.5-1.1-0.8c0.3-0.2,0.5-0.5,0.8-0.7c-0.3-0.1-0.7-0.1-1-0.2c-0.2,0.1-0.3,0.3-0.4,0.4
		c-0.2-0.2-0.4-0.3-0.6-0.5c0.1-0.1,0.1-0.1,0.2-0.2c-0.3-0.1-0.6-0.2-0.9-0.3c0,0,0,0,0,0c-1-0.5-2-0.9-3-1.4
		c0.7,0.7,1.6,1.3,2.4,2c-0.2,0.1-0.3,0.3-0.5,0.4c-0.7-0.6-1.4-1.2-2.1-1.7c0.2-0.4-0.3-0.7-0.6-0.5c-0.5-0.8-1.4,0.1-0.6,0.6
		c-4.5,4.2-3.3,5.2,0.6,0.6c0.7,0.6,1.3,1.1,2,1.7c0,0,0,0,0,0c0,0,0.1,0,0.1,0.1c-0.2,0.2-0.5,0.5-0.7,0.7
		c-0.3-0.3-0.6-0.5-0.9-0.8c0.2-0.4-0.2-0.8-0.6-0.5c-0.5-0.7-1.3,0.1-0.6,0.6c-0.9,1-1.8,2.1-2.6,3.1c-0.1,2,1.8-1,2.2-1.4
		c0,0,0,0,0,0c0,0,0,0,0,0c0,0,0,0,0,0c0.3-0.4,0.6-0.7,1-1.1c0.7,0.6,1.4,1.2,2,1.9c-0.1,0.3,0.3,0.7,0.6,0.5
		c0.3,0.3,0.7,0.6,1,0.9c-0.3,0.3-0.8,0.6-0.5,1.1c-1.2-0.7-2.8-3.3-4.1-3.2c-0.3,0.3,0.1,0.7,0.3,0.9c-2.2,1.5-3.7,4.2-5.3,6.4
		c0,0,0,0,0,0c-0.1,0.1-0.1,0.2-0.2,0.3c0-2.9-0.3-6,2.2-8.1c0.3-1.8-1.5,0.2-1.7,0.8c-0.2-1.9,2.7-2.8,2.6-4.5
		c-0.8-0.4-1.4,1.1-1.9,1.5c0.6-2.5,3.1-3.1,5.3-2.7C76,9.6,93.4,9,110.6,9.7c-0.6,0.7-2.4,1.1-2.3,2.1c1.1,0.4,2.9-1.8,4.1-2.3
		c7.5-0.5,5,11.5,5.7,16.3c-0.2,3,1.8,6.6-0.4,9.2c-5.1,3.8-16.8,1.2-23.4,2C81.5,36.8,68.4,37.5,55.6,36.5z M62.5,14.7
		c0.3,0.3,0.7,0.6,1,0.8c-0.3,0.3-0.6,0.6-0.8,0.8c-0.1-0.1-0.2-0.2-0.3-0.3c-0.2-0.2-0.4-0.4-0.7-0.6C62,15.2,62.2,15,62.5,14.7z
		 M61.1,15c-0.2-0.2-0.4-0.3-0.5-0.5c0,0,0,0,0,0c0.3-0.2,0.5-0.5,0.7-0.7c0.2,0.2,0.4,0.3,0.6,0.5C61.6,14.4,61.3,14.7,61.1,15z
		 M61.9,13.1c0.2-0.2,0.3-0.3,0.5-0.5c0.2,0.1,0.4,0.3,0.5,0.4c0,0,0,0,0.1,0c-0.2,0.2-0.3,0.3-0.5,0.5C62.2,13.4,62,13.3,61.9,13.1
		z M65.6,17.1c0.2,0.2,0.5,0.4,0.7,0.6c-0.3,0.3-0.6,0.5-1,0.8c-0.2-0.2-0.5-0.4-0.7-0.6c0.2-0.2,0.5-0.4,0.7-0.7c0,0,0,0,0,0
		C65.4,17.3,65.5,17.2,65.6,17.1z M64.9,31.7C64.9,31.7,64.9,31.7,64.9,31.7C64.8,31.7,64.9,31.7,64.9,31.7
		C64.8,31.7,64.8,31.7,64.9,31.7L64.9,31.7c-0.1,0.1-0.2,0.2-0.2,0.2c-0.3-0.2-0.5-0.4-0.8-0.6c0.3-0.3,0.6-0.5,0.9-0.8
		c0.2,0.2,0.5,0.4,0.7,0.6C65.3,31.3,65.1,31.5,64.9,31.7C64.8,31.7,64.9,31.7,64.9,31.7z M63.9,32.6C63.9,32.6,63.9,32.6,63.9,32.6
		L63.9,32.6c-0.1,0.1-0.2,0.2-0.3,0.3c0,0,0,0,0,0c0,0,0,0-0.1,0.1c0,0,0,0,0,0c-0.1,0.1-0.2,0.2-0.4,0.3c-0.3-0.2-0.5-0.4-0.8-0.6
		c0.3-0.3,0.6-0.5,0.9-0.8c0.3,0.2,0.5,0.4,0.8,0.6C64,32.5,64,32.5,63.9,32.6C63.9,32.6,63.9,32.6,63.9,32.6z M63.7,23.7
		c0.3,0.2,0.5,0.4,0.8,0.6c-0.2,0.2-0.4,0.3-0.6,0.5c0,0,0,0,0,0c-0.2,0.2-0.4,0.3-0.6,0.5c-0.3-0.2-0.5-0.4-0.8-0.7
		c0.1-0.1,0.3-0.2,0.4-0.4c0,0,0,0,0,0C63.2,24.2,63.5,24,63.7,23.7z M64.7,20.3c0.2-0.2,0.5-0.4,0.7-0.6c0.3,0.2,0.6,0.5,0.9,0.7
		c-0.1,0.1-0.1,0.1-0.2,0.2c-0.3,0.2-0.5,0.4-0.7,0.7c-0.3-0.2-0.6-0.5-0.9-0.7C64.6,20.4,64.6,20.3,64.7,20.3
		C64.7,20.3,64.7,20.3,64.7,20.3z M64.2,29c-0.1-0.1-0.3-0.2-0.4-0.3c0.4-0.3,0.7-0.6,1.1-1c0.3,0.3,0.6,0.5,0.9,0.8
		c-0.4,0.3-0.7,0.6-1.1,0.9C64.6,29.3,64.4,29.2,64.2,29L64.2,29z M64.1,30c-0.3,0.3-0.6,0.5-0.9,0.8c-0.3-0.2-0.6-0.5-0.9-0.7
		c0.3-0.3,0.6-0.5,0.9-0.8C63.5,29.5,63.8,29.8,64.1,30z M64.5,25.5c0.2-0.2,0.4-0.4,0.7-0.6c0,0,0,0,0,0c0,0,0,0,0,0
		c0.3,0.2,0.6,0.5,0.9,0.7c-0.4,0.4-0.8,0.7-1.2,1.1c-0.3-0.2-0.6-0.5-0.8-0.7C64.2,25.8,64.3,25.6,64.5,25.5
		C64.5,25.5,64.5,25.5,64.5,25.5z M64.4,23.2c0.3-0.3,0.7-0.6,1-0.9c0.2,0.2,0.5,0.4,0.7,0.6c-0.3,0.3-0.6,0.6-1,0.9
		c-0.1-0.1-0.3-0.2-0.4-0.3C64.6,23.4,64.5,23.3,64.4,23.2z M65.5,27.2c0.4-0.4,0.8-0.7,1.2-1.1c0.3,0.2,0.7,0.5,1,0.7
		c-0.4,0.4-0.8,0.7-1.2,1.1c0,0-0.1,0-0.1,0.1C66.1,27.7,65.8,27.4,65.5,27.2z M66.7,25c-0.3-0.2-0.6-0.5-0.9-0.7
		c0.3-0.3,0.6-0.6,1-0.9c0.2,0.1,0.3,0.2,0.5,0.4c0.1,0.1,0.3,0.2,0.4,0.3C67.3,24.4,67,24.7,66.7,25z M66.7,22.3
		c-0.2-0.2-0.5-0.4-0.7-0.6c0.3-0.3,0.6-0.6,1-0.8c0.2,0.2,0.5,0.4,0.7,0.6C67.4,21.8,67,22.1,66.7,22.3z M66.9,19.8
		c-0.3-0.2-0.6-0.5-0.9-0.7c0.3-0.3,0.6-0.6,0.9-0.8c0.3,0.2,0.6,0.5,0.9,0.7C67.6,19.3,67.3,19.5,66.9,19.8z M64.7,21.8
		c-0.3,0.3-0.7,0.6-1,0.9c-0.3-0.2-0.5-0.4-0.8-0.7c0.3-0.3,0.6-0.6,1-0.9C64.1,21.3,64.4,21.5,64.7,21.8z M63.4,26.5
		c0.1,0.1,0.2,0.2,0.3,0.3c0.2,0.1,0.3,0.3,0.5,0.4c-0.4,0.3-0.7,0.6-1.1,1c-0.3-0.2-0.5-0.4-0.8-0.7C62.7,27.2,63.1,26.9,63.4,26.5
		z M62.5,28.7c-0.3,0.3-0.6,0.5-0.9,0.8c-0.2-0.2-0.5-0.4-0.7-0.6c0.3-0.3,0.6-0.5,0.8-0.8C62,28.3,62.3,28.5,62.5,28.7z M61.7,30.6
		c0.1,0.1,0.1,0.1,0.2,0.2c0,0,0,0,0,0c0.2,0.2,0.5,0.4,0.7,0.6c-0.3,0.3-0.6,0.5-0.8,0.8c-0.2-0.2-0.4-0.3-0.5-0.5
		c-0.1-0.1-0.2-0.2-0.3-0.3C61.1,31.1,61.4,30.9,61.7,30.6z M65.5,30C65.5,30,65.4,30,65.5,30c0.3-0.4,0.6-0.7,1-1
		c0.2,0.2,0.5,0.4,0.7,0.6c-0.3,0.3-0.7,0.6-1,0.9C65.9,30.4,65.7,30.2,65.5,30z M67.1,28.5c0.4-0.4,0.9-0.8,1.3-1.2
		c0.2,0.2,0.5,0.4,0.7,0.6c0,0-0.1,0.1-0.1,0.1c-0.4,0.4-0.8,0.7-1.2,1.1C67.6,28.9,67.3,28.7,67.1,28.5z M69.8,28.4
		c0.3,0.2,0.5,0.4,0.8,0.6c-0.4,0.4-0.9,0.8-1.3,1.2c-0.3-0.2-0.5-0.4-0.8-0.6C68.9,29.2,69.4,28.8,69.8,28.4z M69.8,27.3
		c-0.2-0.2-0.4-0.3-0.6-0.5c0,0-0.1-0.1-0.1-0.1c0.3-0.3,0.6-0.5,0.9-0.8c0.2,0.2,0.5,0.4,0.7,0.6C70.4,26.8,70.1,27,69.8,27.3z
		 M68.3,26.2c-0.3-0.2-0.7-0.5-1-0.7c0.3-0.3,0.6-0.6,0.9-0.9c0.3,0.3,0.6,0.5,1,0.7C69,25.7,68.7,26,68.3,26.2z M68.3,23.6
		c-0.3-0.2-0.6-0.5-0.9-0.7c0.3-0.3,0.6-0.6,1-0.9c0.3,0.2,0.6,0.5,0.9,0.7C68.9,23,68.6,23.3,68.3,23.6z M68.4,20.9
		c-0.2-0.2-0.5-0.4-0.7-0.6c0.3-0.3,0.6-0.6,1-0.8c0.3,0.2,0.5,0.4,0.8,0.6c-0.2,0.2-0.5,0.4-0.7,0.6C68.5,20.8,68.5,20.9,68.4,20.9
		z M68.6,18.4c-0.3-0.2-0.6-0.5-0.9-0.7c0.3-0.3,0.6-0.5,0.9-0.7c0.3,0.2,0.7,0.4,1,0.7C69.2,17.9,68.9,18.2,68.6,18.4z M67,17.2
		c-0.3-0.2-0.5-0.4-0.8-0.6c0.2-0.2,0.5-0.4,0.8-0.7c0.3,0.2,0.5,0.4,0.8,0.6C67.5,16.7,67.2,16.9,67,17.2z M64.7,19.1
		c-0.2,0.2-0.4,0.3-0.5,0.5c0,0,0,0,0,0c-0.1,0.1-0.2,0.2-0.3,0.3c-0.2-0.2-0.4-0.4-0.7-0.6c0.3-0.3,0.6-0.5,0.9-0.8
		C64.3,18.8,64.5,18.9,64.7,19.1z M63.2,20.5c-0.3,0.3-0.6,0.6-1,0.9c-0.2-0.2-0.4-0.4-0.6-0.6c0.3-0.3,0.6-0.6,1-0.9
		C62.8,20.1,63,20.3,63.2,20.5z M62.3,22.5c0.3,0.2,0.5,0.4,0.8,0.6c-0.4,0.3-0.7,0.7-1.1,1c-0.2-0.2-0.5-0.4-0.7-0.6
		C61.6,23.2,61.9,22.9,62.3,22.5z M62,25.3c0.2,0.2,0.5,0.4,0.7,0.6c0,0,0,0,0,0c-0.3,0.3-0.7,0.6-1,1c-0.2-0.2-0.5-0.4-0.7-0.6
		C61.3,26,61.7,25.7,62,25.3z M61.1,27.5c-0.3,0.3-0.5,0.5-0.8,0.7c0,0-0.1-0.1-0.1-0.1c0,0,0,0,0,0c-0.2-0.2-0.3-0.4-0.5-0.6
		c0.2-0.2,0.4-0.4,0.7-0.7c0.1,0.1,0.2,0.2,0.4,0.3C60.9,27.3,61,27.4,61.1,27.5z M60.3,29.4c0.2,0.2,0.5,0.4,0.7,0.6
		c-0.3,0.2-0.5,0.5-0.8,0.7c0,0-0.1-0.1-0.1-0.1c-0.2-0.2-0.3-0.3-0.5-0.5C59.8,29.9,60.1,29.7,60.3,29.4z M59,29.6
		c-0.2-0.2-0.4-0.4-0.6-0.7c0.2-0.3,0.5-0.5,0.7-0.7c0.2,0.2,0.4,0.5,0.6,0.7C59.5,29.1,59.2,29.3,59,29.6z M59,30.7
		c0.2,0.2,0.4,0.4,0.6,0.6c-0.3,0.3-0.6,0.6-0.9,0.8c-0.3-0.2-0.5-0.5-0.8-0.7C58.4,31.6,58.6,31,59,30.7z M59.8,32.3
		c0.1-0.1,0.3-0.2,0.4-0.3c0.3,0.3,0.6,0.5,0.9,0.8c-0.3,0.3-0.6,0.6-0.9,0.8c-0.3-0.3-0.6-0.5-0.9-0.8
		C59.5,32.6,59.7,32.4,59.8,32.3z M61.7,33.2c0.3,0.2,0.5,0.4,0.8,0.6c-0.3,0.3-0.6,0.6-1,0.9c-0.2-0.2-0.4-0.4-0.6-0.5
		c0,0-0.1-0.1-0.1-0.1C61.1,33.8,61.4,33.5,61.7,33.2z M63.2,34.4c0.3,0.2,0.5,0.4,0.8,0.6c-0.3,0.3-0.8,0.6-0.9,1
		c-0.3-0.2-0.5-0.5-0.8-0.7C62.5,35,62.8,34.7,63.2,34.4z M63.8,33.8c0.1-0.1,0.2-0.2,0.3-0.3c0,0,0,0,0,0c0,0,0.1-0.1,0.1-0.1
		c0,0,0,0,0,0c0.1-0.1,0.3-0.2,0.4-0.4c0,0,0,0,0,0c0.1-0.1,0.1-0.1,0.2-0.2c0,0,0,0,0,0c0,0,0.1,0,0.1-0.1c0.3,0.2,0.5,0.4,0.8,0.6
		c-0.3,0.3-0.6,0.6-0.9,0.9C64.3,34.2,64.1,34,63.8,33.8z M65.5,32.5c-0.1,0-0.1-0.1-0.2-0.1c0,0,0,0,0.1,0c0,0,0,0,0,0c0,0,0,0,0,0
		c0,0,0,0,0,0c0,0,0,0,0,0c0.3-0.2,0.5-0.5,0.8-0.7c0.3,0.2,0.5,0.4,0.8,0.6c-0.3,0.2-0.6,0.5-0.8,0.8C66,32.8,65.7,32.7,65.5,32.5z
		 M67.7,32.8c0.2,0.1,0.3,0.3,0.5,0.4c-0.3,0.3-0.5,0.5-0.8,0.8c-0.2-0.1-0.4-0.3-0.5-0.4C67.1,33.3,67.4,33,67.7,32.8z M67.6,31.7
		L67.6,31.7c-0.3-0.2-0.5-0.4-0.8-0.6c0.3-0.3,0.7-0.6,1-0.9c0.3,0.2,0.5,0.4,0.8,0.6C68.3,31,68,31.4,67.6,31.7z M69.4,31.2
		c0.2,0.1,0.3,0.2,0.5,0.4c-0.3,0.3-0.7,0.6-1,1c-0.2-0.1-0.3-0.2-0.5-0.4C68.7,31.9,69,31.6,69.4,31.2z M70.6,32.1
		c0.2,0.1,0.4,0.3,0.6,0.4c-0.3,0.3-0.7,0.6-1,1c-0.1,0-0.1-0.1-0.2-0.1c-0.1-0.1-0.3-0.2-0.4-0.3C69.9,32.7,70.2,32.4,70.6,32.1z
		 M71.8,33c0.2,0.2,0.5,0.3,0.7,0.5c-0.4,0.3-0.8,0.6-1.1,1c-0.2-0.2-0.4-0.3-0.7-0.5C71.1,33.7,71.5,33.3,71.8,33z M71.7,31.9
		c-0.2-0.1-0.3-0.2-0.5-0.3c0,0,0,0-0.1,0c0.4-0.4,0.9-0.8,1.4-1.2c0.2,0.1,0.3,0.2,0.5,0.4C72.6,31.1,72.2,31.5,71.7,31.9z
		 M71.2,30.4c-0.2,0.2-0.5,0.4-0.7,0.6c-0.2-0.1-0.3-0.2-0.5-0.4c0.4-0.4,0.9-0.8,1.3-1.2c0.2,0.1,0.4,0.3,0.6,0.4
		C71.7,30,71.5,30.2,71.2,30.4z M71.7,28C71.7,28,71.7,28,71.7,28c-0.1,0.1-0.3,0.3-0.4,0.4c-0.3-0.2-0.5-0.4-0.8-0.6
		c0.3-0.3,0.6-0.5,0.9-0.8c0.2,0.1,0.3,0.3,0.5,0.4c0.1,0.1,0.3,0.1,0.4,0C72.1,27.6,71.9,27.8,71.7,28z M71.3,25.9
		c-0.3-0.2-0.5-0.4-0.8-0.6c0.3-0.3,0.6-0.6,0.9-0.8c0.3,0.2,0.5,0.4,0.8,0.6C72,25.4,71.7,25.7,71.3,25.9z M70.5,24.3
		c-0.2,0.2-0.4,0.3-0.6,0.5c-0.3-0.2-0.6-0.5-1-0.7c0.3-0.3,0.6-0.6,1-0.9c0.3,0.3,0.6,0.5,1,0.8C70.7,24.1,70.6,24.2,70.5,24.3z
		 M69.9,22.1c-0.3-0.2-0.6-0.4-0.9-0.7c0.3-0.3,0.7-0.5,1-0.8c0.3,0.2,0.5,0.4,0.8,0.6C70.5,21.6,70.2,21.9,69.9,22.1z M70,19.6
		c-0.3-0.2-0.5-0.4-0.8-0.6c0.3-0.3,0.7-0.6,1-0.8c0.3,0.2,0.6,0.4,0.8,0.6C70.7,19,70.4,19.3,70,19.6z M70.9,17.6
		c0.3-0.2,0.5-0.4,0.8-0.7c0.2,0.1,0.4,0.3,0.6,0.4c0.1,0.1,0.3,0.1,0.4,0c-0.3,0.3-0.7,0.5-1,0.8C71.5,18,71.2,17.8,70.9,17.6z
		 M70.3,17c0,0-0.1,0.1-0.1,0.1c-0.3-0.2-0.7-0.4-1-0.7c0.3-0.2,0.6-0.5,0.8-0.7c0.3,0.2,0.7,0.5,1,0.7C70.8,16.6,70.5,16.8,70.3,17
		z M70,14.7c-0.3-0.2-0.6-0.4-0.8-0.6c0.3-0.3,0.7-0.6,1-0.8c0.3,0.2,0.6,0.4,0.9,0.6C70.7,14.1,70.3,14.4,70,14.7z M69.3,15.2
		c-0.3,0.2-0.6,0.5-0.9,0.7c-0.3-0.2-0.6-0.4-0.8-0.6c0.3-0.2,0.6-0.5,0.9-0.7C68.8,14.8,69,15,69.3,15.2z M67.3,14.5
		c-0.1,0.1-0.3,0.2-0.4,0.4c-0.3-0.2-0.5-0.4-0.8-0.6c0.3-0.2,0.6-0.5,0.8-0.7c0.3,0.2,0.6,0.4,0.8,0.6
		C67.6,14.3,67.5,14.4,67.3,14.5z M66.2,15.4c-0.2,0.2-0.5,0.4-0.7,0.6c-0.2-0.2-0.5-0.4-0.7-0.6c0.2-0.2,0.4-0.4,0.6-0.6
		C65.7,15.1,66,15.3,66.2,15.4z M64.9,16.6c-0.3,0.3-0.6,0.6-0.9,0.8c-0.1-0.1-0.2-0.2-0.3-0.3c0,0,0,0,0,0
		c-0.1-0.1-0.2-0.2-0.4-0.3c0.3-0.3,0.6-0.6,0.9-0.9C64.4,16.3,64.7,16.4,64.9,16.6z M64.1,14.9c-0.3-0.3-0.7-0.5-1-0.8c0,0,0,0,0,0
		c0,0,0,0-0.1-0.1c0.2-0.2,0.4-0.3,0.5-0.5c0.4,0.3,0.7,0.5,1.1,0.8C64.5,14.6,64.3,14.8,64.1,14.9z M62.8,17.5
		c0.2,0.2,0.4,0.3,0.6,0.5c-0.3,0.3-0.6,0.5-0.8,0.8c-0.3-0.3-0.6-0.5-0.9-0.8C62.1,18.4,62.5,17.8,62.8,17.5z M61.9,19.4
		c-0.3,0.3-0.7,0.6-0.9,0.9c-0.5-0.5-1.1-0.9-1.6-1.4c0.3-0.3,0.6-0.6,0.9-0.9C60.9,18.5,61.4,18.9,61.9,19.4z M96.4,48.3
		c-0.8,0.7-1.6,1.4-2.5,2.1c-0.8,0.1-1.5-0.6-2.3-0.9c0.4-0.3,0.7-0.5,1.1-0.8c0,0,0,0,0,0c0,0,0,0,0,0v0c0,0,0.1-0.1,0.1-0.1h0
		c0,0,0,0,0,0c0,0,0,0,0,0c0,0,0,0,0,0c0,0,0,0,0,0c0,0,0,0,0,0c0,0,0,0,0,0c0,0,0,0,0,0c0,0,0,0,0,0c0,0,0,0,0,0
		c1.1-0.5,0.4-1.5-0.5-0.7c0,0,0,0,0,0c0,0,0,0,0,0c-0.1,0.1-0.2,0.1-0.2,0.2c0,0,0,0,0,0c-0.5,0.3-1,0.7-1.5,1.1
		c-0.2-0.1-0.4-0.2-0.5-0.3c0.7-0.9,2.9-1.7,2.9-2.8c-1.1-0.6-2.7,1.8-3.7,2.3c-0.2-0.1-0.4-0.2-0.6-0.3c6.3-5.3,4.6-5.9-0.7-0.5
		c-0.4-0.6-1.2,0.1-0.6,0.6c-0.2,0.2-0.5,0.4-0.7,0.6c-0.2-0.1-0.4-0.2-0.6-0.3c2.3-2,4.5-4.1,6.9-6.1c0,0,0,0,0,0
		c2.4-3.9-7.2,5.2-7.7,5.6c-0.2-0.1-0.4-0.3-0.7-0.4c2.7-2.5,5.5-5,8.5-7.1c0,0,0,0,0,0c0.3-0.2,0.7-0.5,1-0.7
		c0.2,0,0.4-0.1,0.4-0.3c0.3-0.2,0.7-0.3,0.9-0.6c0.9,0,1.9,0,2.8,0c-6.5,4.9-2,3.6,1.1,0c0.5,0,0.9,0,1.4,0c-11,8.8-6,6.6,1.4,0
		c0.4,0,0.7,0,1.1,0c-15,11.8-9.9,9.6,1.4,0c0.4,0,0.8,0,1.2,0c-14.2,11.3-9.8,9.7,1.2,0.1c0.1,0,0.1,0,0.2,0c0,0.3,0,0.5,0,0.8
		c-8.7,6.4-10.2,9.8,0,1.1c0,0.5,0,0.9,0,1.4c-3.7,2.5-6.9,5.6-10.4,8.2c-0.6,0-1.2,0.1-1.8,0.1C95.8,49.9,98.2,48.1,96.4,48.3z
		 M91.7,50.4c-0.4,0-0.9,0-1.3,0c-0.1,0-0.1-0.1-0.2-0.1c0.2-0.1,0.4-0.3,0.6-0.4C91.2,50.1,91.5,50.3,91.7,50.4z M90.1,49.5
		c-0.2,0.2-0.4,0.3-0.6,0.5c-0.2-0.1-0.3-0.2-0.4-0.2c0.2-0.2,0.4-0.3,0.6-0.5C89.8,49.3,89.9,49.4,90.1,49.5z M88.2,49.3
		c-0.2-0.1-0.4-0.2-0.6-0.3c0.2-0.2,0.4-0.4,0.6-0.6c0.2,0.1,0.4,0.2,0.5,0.3C88.6,49,88.4,49.2,88.2,49.3z M88.7,50.5
		c-0.2,0-0.4,0-0.6,0c0.1-0.1,0.2-0.1,0.2-0.2C88.5,50.4,88.6,50.5,88.7,50.5z M86.4,50.2c0.2-0.2,0.4-0.4,0.6-0.5
		c0.2,0.1,0.4,0.2,0.5,0.3c-0.2,0.2-0.4,0.4-0.6,0.5c-0.1,0-0.2-0.1-0.2-0.1c0,0,0,0,0,0C86.6,50.3,86.5,50.2,86.4,50.2z M80.5,50.2
		C80.5,50.2,80.6,50.2,80.5,50.2c-0.1,0-0.1,0.1-0.2,0.2c0,0,0,0,0,0c0,0,0,0,0,0c-0.6,0-1.2,0-1.8,0c0.6-0.6,1.3-1.2,1.9-1.8
		c0,0,0,0,0,0c0.2-0.2,0.5-0.4,0.7-0.7c0,0,0,0,0,0c2.1-1.9,4.2-3.7,6.5-5.5c0.5,0.5,1.5-0.1,0.7-0.6c0.6-0.5,1.2-1,1.9-1.5
		c0.3,0.1,0.6,0.3,1,0.4C87.4,43.8,84,47.1,80.5,50.2z M83.6,49.5c-0.4,0.3-0.7,0.6-1.1,0.9c-0.3,0-0.7,0-1,0
		c0.5-0.4,0.9-0.9,1.4-1.3C83.1,49.3,83.3,49.4,83.6,49.5z M74.3,49.6c0.1-0.1,0.2-0.2,0.2-0.2c0.3,0.2,0.6,0.4,0.8,0.6
		c-0.1,0.1-0.3,0.3-0.4,0.4c0,0-0.1,0-0.1,0C75,50,74.5,49.8,74.3,49.6z M73.7,50.2c0,0,0.1,0.1,0.1,0.1
		C73.8,50.3,73.7,50.3,73.7,50.2C73.6,50.3,73.7,50.3,73.7,50.2z M73.6,49.1c-0.1-0.1-0.3-0.2-0.4-0.3c0.1-0.1,0.2-0.2,0.3-0.3
		c0.1,0.1,0.3,0.2,0.4,0.3C73.7,49,73.6,49,73.6,49.1z M73.3,47.5c-0.1-0.1-0.3-0.2-0.4-0.3c-0.1-0.1-0.1-0.1-0.2-0.2
		c0.2-0.2,0.3-0.4,0.5-0.5c0.2,0.2,0.5,0.3,0.7,0.5C73.6,47.1,73.5,47.3,73.3,47.5z M63,38.6c0.4,0,0.9,0,1.3-0.1
		c-0.5,0.6-1,1.2-1.4,1.8c0-0.5-0.1-1.1-0.2-1.6c0.1,0,0.2,0,0.3,0C63,38.7,63,38.6,63,38.6z M65.4,38.6c-0.1,0.2,0.1,0.5,0.3,0.6
		c-1,1.1-1.8,2.2-2.7,3.3c0-0.3,0-0.6,0-0.9c0.6-0.7,1.1-1.5,1.7-2.2c0,0,0,0,0,0C64.9,39.1,65.1,38.8,65.4,38.6z M66.3,39.7
		c0.1,0.1,0.1,0.1,0.2,0.2c0.1,0.1,0.3,0.2,0.4,0.3c0,0,0,0,0,0c-0.3,0-0.6,0-0.9,0c0,0,0,0-0.1-0.1C66.1,40,66.2,39.8,66.3,39.7z
		 M66.2,38.5C66.2,38.5,66.3,38.5,66.2,38.5C66.3,38.5,66.3,38.5,66.2,38.5C66.2,38.5,66.2,38.5,66.2,38.5z M70.5,39
		C70.5,39,70.5,39,70.5,39C70.5,39,70.5,39,70.5,39C70.5,39,70.5,39,70.5,39C70.6,39,70.5,39,70.5,39z M70.6,40.1
		c0.1,0,0.1,0.1,0.2,0.1c-0.1,0-0.2,0-0.3,0C70.5,40.2,70.6,40.1,70.6,40.1z M70.8,42.9c-0.2,0.2-0.4,0.4-0.6,0.6
		c-0.2-0.1-0.4-0.3-0.6-0.4c0.1-0.1,0.3-0.3,0.4-0.4c0,0,0,0,0,0h0h0v0c0,0,0.1-0.1,0.1-0.1C70.5,42.6,70.7,42.8,70.8,42.9z
		 M82.6,40.3c0.1,0,0.1,0.1,0.2,0.1C82.7,40.4,82.6,40.4,82.6,40.3C82.6,40.4,82.6,40.3,82.6,40.3z M82.6,41.9
		c0.3,0.1,0.6,0.3,0.8,0.4c-0.1,0.1-0.3,0.3-0.4,0.4c-0.3-0.1-0.6-0.3-0.8-0.4C82.3,42.1,82.4,42,82.6,41.9z M86.6,42.2
		c-1,0.8-1.9,1.5-2.9,2.3c-0.3-0.2-0.7-0.3-1.1-0.5c0.1-0.1,0.2-0.2,0.4-0.3c0.9,0.8,2.1,0,0.7-0.6c0.2-0.1,0.3-0.3,0.5-0.4
		c0.5,0.4,1.2-0.1,0.7-0.6c0.2-0.1,0.3-0.3,0.5-0.4C85.9,41.8,86.3,42,86.6,42.2z M86.5,41.2c0.4,0,1.1,0.2,1.1-0.4
		c0.2,0.1,0.4,0.1,0.6,0.2c-0.3,0.2-0.5,0.4-0.8,0.6C87.1,41.5,86.8,41.3,86.5,41.2z M80.5,47.4c-0.2,0.2-0.4,0.3-0.5,0.5
		c-0.3-0.2-0.6-0.4-0.9-0.5c0.2-0.2,0.3-0.3,0.5-0.5c0.5,0.6,1.3-0.2,0.6-0.6c0.1-0.1,0.1-0.1,0.2-0.2c0,0,0,0,0,0
		c0.1-0.1,0.3-0.2,0.4-0.4c0.7,0.7,1.7-0.1,0.7-0.6c0.2-0.2,0.4-0.3,0.5-0.5c0.4,0.2,0.7,0.3,1.1,0.5C82.2,45.8,81.3,46.6,80.5,47.4
		C80.5,47.4,80.5,47.4,80.5,47.4z M75.7,46.3c0.1,0.1,0.3,0.2,0.4,0.2c-0.2,0.2-0.4,0.4-0.6,0.6c-0.1-0.1-0.3-0.2-0.4-0.3
		C75.3,46.6,75.5,46.4,75.7,46.3z M75,44.7c0.1-0.1,0.3-0.3,0.4-0.4c0.2,0.1,0.5,0.3,0.7,0.4c-0.2,0.2-0.3,0.3-0.5,0.5
		C75.4,45,75.2,44.9,75,44.7z M76.1,43.7c0.1-0.1,0.2-0.2,0.4-0.3c0.2,0.1,0.5,0.3,0.7,0.4c-0.1,0.1-0.2,0.2-0.3,0.3c0,0,0,0,0,0
		c0,0-0.1,0.1-0.1,0.1C76.5,44,76.3,43.8,76.1,43.7z M77.3,45.4c-0.1,0.1-0.2,0.2-0.3,0.2c-0.1,0.1-0.2,0.2-0.3,0.3
		c-0.1-0.1-0.3-0.2-0.4-0.3c0.2-0.2,0.3-0.3,0.5-0.5C77,45.3,77.1,45.3,77.3,45.4z M76.9,47c0.3,0.2,0.6,0.3,0.9,0.5
		c-0.2,0.2-0.4,0.4-0.6,0.6c-0.3-0.2-0.6-0.4-0.9-0.5C76.5,47.4,76.7,47.2,76.9,47z M77.5,46.4c0.2-0.2,0.4-0.3,0.5-0.5
		c0.3,0.2,0.6,0.3,0.8,0.5c-0.2,0.2-0.4,0.3-0.5,0.5C78,46.7,77.8,46.6,77.5,46.4z M77.5,44.6c0.1-0.1,0.3-0.3,0.4-0.4
		c0.1,0.1,0.3,0.2,0.4,0.2c-0.2,0.1-0.3,0.3-0.5,0.4C77.8,44.7,77.6,44.7,77.5,44.6z M79.1,43.1c0.2,0.1,0.3,0.2,0.5,0.2
		c-0.2,0.1-0.3,0.3-0.5,0.5c-0.2-0.1-0.3-0.2-0.5-0.2h0h0c0,0,0,0,0,0c0,0,0,0,0,0C78.8,43.4,78.9,43.3,79.1,43.1z M78.7,45.3
		c0.1-0.1,0.2-0.1,0.2-0.2c0.1-0.1,0.2-0.2,0.3-0.2c0.3,0.2,0.6,0.3,0.9,0.5c-0.2,0.2-0.4,0.3-0.5,0.5
		C79.2,45.6,78.9,45.4,78.7,45.3z M79.8,44.2c0.2-0.2,0.3-0.3,0.5-0.5c0.3,0.1,0.6,0.3,0.9,0.4c-0.2,0.2-0.3,0.3-0.5,0.5
		C80.4,44.5,80.1,44.4,79.8,44.2z M85.8,40.3c-0.4,0-0.8,0-1.2-0.1c0.2-0.2,0.4-0.3,0.6-0.5c0.3,0.1,0.6,0.2,0.8,0.3
		C86,40.2,85.9,40.3,85.8,40.3z M84.6,41.3c-0.1,0-0.1,0.1-0.2,0.1c-0.1,0.1-0.2,0.2-0.3,0.3c-0.3-0.1-0.5-0.2-0.8-0.4c0,0,0,0,0,0
		c0.3,0,0.6,0.1,0.7-0.3C84.3,41.1,84.5,41.2,84.6,41.3z M83.7,39.9c-0.2-0.1-0.4-0.2-0.5-0.2c0,0,0.1-0.1,0.1-0.1
		c0.3,0,0.5,0,0.8,0C84,39.7,83.8,39.8,83.7,39.9z M82.3,43.2c-0.1,0.1-0.3,0.2-0.4,0.3c-0.3-0.1-0.6-0.3-0.9-0.4
		c0.1-0.1,0.3-0.2,0.4-0.3C81.7,43,82,43.1,82.3,43.2z M81.3,41.8c-0.1-0.1-0.3-0.1-0.4-0.2c0,0-0.1,0-0.1-0.1
		c0.1-0.1,0.2-0.2,0.4-0.3c0.2,0.1,0.4,0.2,0.5,0.2C81.6,41.6,81.5,41.7,81.3,41.8z M81.6,39.9c-0.3,0-0.7,0-1-0.1
		c0.1-0.1,0.2-0.2,0.3-0.2C81.1,39.6,81.3,39.8,81.6,39.9C81.6,39.9,81.6,39.9,81.6,39.9z M80.6,42.4c-0.1,0.1-0.3,0.2-0.4,0.3
		c-0.2-0.1-0.3-0.2-0.5-0.2c0.1-0.1,0.3-0.2,0.4-0.3C80.3,42.3,80.5,42.3,80.6,42.4z M80,41.2c-0.2-0.1-0.5-0.2-0.7-0.3
		c0.1-0.1,0.1-0.1,0.2-0.2c0.3,0,0.5,0.1,0.8,0.2C80.2,41,80.1,41.1,80,41.2z M79.5,39.6c-0.2-0.1-0.4-0.2-0.6-0.2
		c0.3,0,0.6,0,0.9,0C79.7,39.5,79.6,39.5,79.5,39.6z M79.3,41.8c-0.1,0.1-0.2,0.2-0.3,0.3c-0.3,0-0.5-0.2-0.7-0.3
		c0.1-0.1,0.2-0.2,0.4-0.3C78.9,41.5,79.1,41.7,79.3,41.8z M78.4,40.4c-0.2-0.1-0.4-0.2-0.6-0.3c0.1-0.1,0.1-0.1,0.2-0.2
		c0.2,0.1,0.3,0.1,0.5,0.2C78.5,40.2,78.4,40.3,78.4,40.4z M78.1,42.8C78.1,42.9,78,42.9,78,43c0,0,0,0,0,0
		c-0.1,0.1-0.2,0.1-0.2,0.2c-0.2-0.1-0.5-0.3-0.7-0.4c0,0,0,0,0,0C77.5,42.8,77.8,42.8,78.1,42.8z M77.5,41.3
		c-0.2-0.1-0.5-0.3-0.7-0.4c0,0,0,0,0,0c0.2,0,0.5,0,0.7-0.1c0.1,0.1,0.2,0.1,0.3,0.2C77.7,41.1,77.6,41.2,77.5,41.3z M77,39.6
		c-0.2-0.1-0.4-0.2-0.6-0.3c0,0,0,0,0,0c0.3,0,0.5,0.1,0.7,0.2C77.1,39.6,77,39.6,77,39.6z M76.7,41.8c-0.3,0-0.6,0-1-0.1
		c0.1-0.1,0.2-0.2,0.3-0.3C76.2,41.6,76.5,41.7,76.7,41.8z M75.3,40.1c0.1-0.1,0.2-0.1,0.3-0.2c0.1,0.1,0.3,0.1,0.4,0.2
		C75.8,40.1,75.5,40.1,75.3,40.1z M75.6,43c-0.1,0.1-0.2,0.2-0.3,0.3c-0.2-0.1-0.3-0.2-0.5-0.3c-0.1,0-0.1-0.1-0.2-0.1
		c0.1-0.1,0.2-0.2,0.2-0.2C75.1,42.6,75.4,42.8,75.6,43z M71.8,45.6c0.2,0.1,0.4,0.3,0.6,0.4c-0.2,0.2-0.3,0.3-0.5,0.5
		c-0.2-0.2-0.4-0.3-0.6-0.5C71.5,45.9,71.6,45.7,71.8,45.6z M71,44c0.2-0.2,0.4-0.4,0.6-0.6c0.2,0.2,0.5,0.3,0.7,0.5
		c-0.2,0.2-0.4,0.4-0.6,0.6c0,0,0,0,0,0C71.4,44.3,71.2,44.1,71,44z M72.4,45c0.2-0.2,0.4-0.4,0.6-0.6c0.2,0.2,0.4,0.3,0.7,0.5
		c-0.2,0.2-0.4,0.4-0.6,0.6C72.8,45.3,72.6,45.1,72.4,45z M73.6,43.8c0.1-0.1,0.3-0.2,0.4-0.4c0.2,0.1,0.5,0.3,0.7,0.4
		c-0.1,0.1-0.3,0.3-0.4,0.4C74,44.1,73.8,43.9,73.6,43.8z M74.7,41.5c-0.1-0.1-0.3-0.1-0.4-0.2l0,0c-0.1-0.1-0.2-0.1-0.3-0.2
		c0.1-0.1,0.1-0.1,0.2-0.2c0.3,0,0.7-0.1,1,0.1C75.1,41.2,74.9,41.4,74.7,41.5z M74.4,39.7c-0.2-0.1-0.4-0.2-0.7-0.3
		c0.1-0.1,0.2-0.1,0.2-0.2c0.3,0,0.5,0.2,0.8,0.3C74.7,39.5,74.6,39.6,74.4,39.7z M73.9,42c-0.1,0.1-0.1,0.2,0,0.3c0,0,0,0,0,0
		c0,0,0,0,0,0c-0.2-0.1-0.5-0.3-0.7-0.4c0.1-0.1,0.1-0.1,0.2-0.2C73.5,41.8,73.7,41.9,73.9,42z M72.9,40.1C73,40.1,73,40,73.1,40
		c0.1,0.1,0.2,0.1,0.3,0.2C73.2,40.1,73.1,40.1,72.9,40.1z M73.2,43c-0.1,0.1-0.2,0.2-0.3,0.3c0,0-0.1,0-0.1-0.1
		c-0.2-0.1-0.4-0.3-0.6-0.4c0.1-0.1,0.2-0.2,0.3-0.3C72.7,42.7,73,42.8,73.2,43z M72.4,41.5c-0.2-0.1-0.4-0.2-0.6-0.4
		c0,0,0.1-0.1,0.1-0.1c0.1,0,0.1,0,0.2,0c0.2,0.1,0.3,0.2,0.5,0.3C72.5,41.3,72.5,41.4,72.4,41.5z M71.9,39.9
		c-0.2-0.1-0.4-0.3-0.6-0.4c0,0,0.1-0.1,0.1-0.1c0.1-0.1,0.2-0.2,0.3-0.3c0.2,0.1,0.4,0.3,0.7,0.4C72.2,39.6,72,39.8,71.9,39.9z
		 M71.7,42c-0.1,0.1-0.2,0.2-0.3,0.3c-0.2-0.1-0.4-0.3-0.6-0.4c0,0,0,0,0,0c0,0,0,0,0,0h0c0.1-0.1,0.1-0.1,0.2-0.2
		C71.4,41.8,71.6,41.9,71.7,42z M71.1,45.1c-0.2,0.2-0.3,0.3-0.5,0.5c-0.2-0.2-0.5-0.3-0.7-0.5c0.2-0.2,0.3-0.3,0.5-0.5
		C70.6,44.7,70.9,44.9,71.1,45.1z M69.1,46c0.1-0.1,0.2-0.2,0.3-0.3c0.2,0.2,0.4,0.3,0.7,0.5c-0.1,0.1-0.2,0.2-0.3,0.3
		c0,0-0.1-0.1-0.1-0.1c0,0,0,0,0,0C69.5,46.3,69.3,46.1,69.1,46z M66.3,47c-0.1-0.1-0.1-0.1-0.2-0.2c0.1-0.1,0.2-0.2,0.3-0.3
		c0.2,0.2,0.4,0.3,0.6,0.5c-0.1,0.1-0.2,0.2-0.3,0.3C66.6,47.2,66.4,47.1,66.3,47C66.3,47,66.3,47,66.3,47z M66.9,43.8
		C66.9,43.8,66.9,43.8,66.9,43.8c0.2,0.1,0.3,0.2,0.5,0.3c-0.1,0.1-0.2,0.2-0.3,0.3c-0.2-0.1-0.3-0.2-0.5-0.4
		C66.8,44,66.8,43.9,66.9,43.8z M66.3,42.1c0.1-0.1,0.2-0.2,0.3-0.4c0.2,0.2,0.4,0.3,0.6,0.5c-0.1,0.1-0.2,0.3-0.4,0.4
		C66.7,42.5,66.5,42.3,66.3,42.1z M67,45.9c0.1-0.1,0.2-0.2,0.2-0.3c0.2,0.2,0.4,0.3,0.6,0.5c-0.1,0.1-0.2,0.2-0.3,0.3
		C67.4,46.2,67.2,46.1,67,45.9z M67.8,45c0.1-0.1,0.2-0.2,0.3-0.3c0.2,0.2,0.4,0.3,0.6,0.5c-0.1,0.1-0.2,0.2-0.3,0.3
		c-0.2-0.1-0.3-0.3-0.5-0.4C67.9,45.1,67.8,45,67.8,45z M67.5,43.2c0.1-0.1,0.3-0.3,0.4-0.4c0.2,0.1,0.3,0.2,0.5,0.4
		c-0.1,0.1-0.3,0.3-0.4,0.4C67.8,43.4,67.7,43.3,67.5,43.2z M68.7,44.1c0.2-0.2,0.3-0.3,0.5-0.5c0.2,0.1,0.4,0.3,0.6,0.4
		c-0.2,0.2-0.3,0.3-0.5,0.5C69,44.4,68.8,44.3,68.7,44.1z M68.5,46.6c0.1,0.1,0.2,0.2,0.3,0.2c0,0,0,0,0,0c0,0,0,0,0,0c0,0,0,0,0,0
		c0.1,0.1,0.2,0.2,0.3,0.2c-0.1,0.1-0.2,0.2-0.3,0.3c-0.2-0.1-0.4-0.3-0.5-0.4c0,0-0.1-0.1-0.1-0.1C68.3,46.8,68.4,46.7,68.5,46.6z
		 M70.2,41.4c-0.2-0.1-0.4-0.2-0.5-0.4c0.2,0,0.3,0,0.5,0c0.1,0.1,0.2,0.1,0.3,0.2C70.4,41.3,70.3,41.3,70.2,41.4z M69.7,39.7
		c-0.2-0.2-0.5-0.3-0.7-0.5c0,0,0.1-0.1,0.1-0.1c0,0,0.1-0.1,0.1-0.1c0.2,0.2,0.5,0.3,0.7,0.5C69.9,39.6,69.8,39.7,69.7,39.7z
		 M69,41.6c0.2,0.1,0.4,0.3,0.5,0.4c-0.2,0.2-0.4,0.3-0.5,0.5c-0.2-0.1-0.3-0.3-0.5-0.4C68.7,42,68.9,41.8,69,41.6z M68.5,40.2
		c-0.1-0.1-0.2-0.1-0.2-0.2c0.1-0.1,0.1-0.1,0.2-0.2c0,0,0,0,0.1,0.1c0.1,0.1,0.3,0.2,0.4,0.3C68.8,40.2,68.6,40.2,68.5,40.2z
		 M68.3,41.1c-0.2,0.2-0.3,0.3-0.5,0.5c-0.2-0.2-0.4-0.3-0.6-0.5c0,0,0.1-0.1,0.1-0.1c0.3,0,0.6,0,0.9,0
		C68.2,41.1,68.3,41.1,68.3,41.1z M67.6,39.5c-0.2-0.2-0.4-0.3-0.6-0.5c0.1-0.1,0.1-0.1,0.2-0.2c0.2,0.2,0.4,0.3,0.6,0.5
		C67.7,39.4,67.6,39.5,67.6,39.5z M66,41.2c-1,1.1-2,2.3-2.9,3.6c0-0.3,0-0.6,0-0.9c0.7-1.1,1.5-2.1,2.4-3.2
		C65.6,40.9,65.8,41.1,66,41.2z M63,46.2c0.7-0.9,1.4-1.9,2.2-2.8c0,0,0,0,0,0c0.2-0.2,0.4-0.5,0.6-0.7c0.2,0.2,0.4,0.4,0.5,0.5
		c-1.2,1.3-2.3,2.7-3.4,4.1C63,47,63,46.6,63,46.2z M66.1,44.7c0.1,0.1,0.3,0.2,0.4,0.4c-0.1,0.1-0.2,0.2-0.2,0.3c0,0-0.1,0-0.1-0.1
		c-0.5-0.4-1,0.4-0.5,0.7c-0.1,0.1-0.2,0.3-0.3,0.4c-0.2,0-0.3,0.2-0.3,0.4c-0.2,0.2-0.3,0.4-0.5,0.6c-0.5-0.2-0.8,0.5-1.1,0.7
		C64.3,46.9,65.2,45.8,66.1,44.7z M65.4,47.7C65.4,47.7,65.4,47.7,65.4,47.7c0,0,0.1-0.1,0.2-0.2c0.2,0.2,0.4,0.4,0.6,0.5
		c-0.5,0.6-1,1.2-1.6,1.9c-0.3,0-0.5-0.1-0.8-0.1C64.3,49.1,64.9,48.4,65.4,47.7z M66.2,49.5C66.1,49.5,66.1,49.5,66.2,49.5
		c0.2-0.4,0.4-0.7,0.7-0.9c0.2,0.2,0.4,0.4,0.6,0.5c-0.3,0.3-0.5,0.6-0.8,0.9c-0.2,0-0.4,0-0.5,0C66.2,49.9,66.3,49.7,66.2,49.5z
		 M67.4,47.9c0.1-0.1,0.2-0.2,0.3-0.4c0.2,0.2,0.4,0.3,0.6,0.5c-0.1,0.1-0.2,0.3-0.3,0.4c-0.1,0-0.1-0.1-0.2-0.1
		C67.6,48.2,67.5,48.1,67.4,47.9z M68.1,49.6c0.2,0.2,0.5,0.4,0.7,0.5c-0.4,0-0.7,0-1.1-0.1C67.8,49.9,67.9,49.8,68.1,49.6z
		 M68.6,49c0.1-0.1,0.2-0.3,0.3-0.4c0.2,0.2,0.4,0.3,0.6,0.5c-0.1,0.1-0.2,0.3-0.3,0.4C69,49.3,68.8,49.1,68.6,49z M69.5,48
		c0.1-0.1,0.2-0.2,0.3-0.4c0.2,0.2,0.4,0.3,0.6,0.4c-0.1,0.1-0.2,0.3-0.4,0.4C69.9,48.3,69.7,48.1,69.5,48z M70.2,49.6
		c0.2,0.1,0.4,0.3,0.5,0.4c-0.1,0.1-0.1,0.1-0.2,0.2c-0.1,0-0.2,0-0.3,0c-0.1-0.1-0.3-0.2-0.4-0.3C70,49.8,70.1,49.7,70.2,49.6z
		 M70.4,47c0.1-0.1,0.2-0.2,0.3-0.3c0.2,0.2,0.4,0.3,0.6,0.4c-0.1,0.1-0.2,0.2-0.3,0.3C70.8,47.3,70.6,47.1,70.4,47z M71.2,48.5
		c0.2,0.1,0.4,0.3,0.6,0.4c-0.1,0.1-0.3,0.3-0.4,0.4c-0.2-0.1-0.4-0.3-0.6-0.4C70.9,48.8,71,48.7,71.2,48.5z M71.8,47.9
		c0.1-0.1,0.2-0.2,0.3-0.3c0.2,0.2,0.4,0.3,0.7,0.5c-0.1,0.1-0.2,0.2-0.3,0.3c0,0-0.1-0.1-0.1-0.1C72.1,48.2,71.9,48,71.8,47.9z
		 M72.5,49.4c0.2,0.1,0.3,0.2,0.5,0.3c-0.2,0.2-0.3,0.3-0.5,0.5c0,0,0,0,0,0c-0.2-0.1-0.3-0.2-0.5-0.4
		C72.2,49.8,72.3,49.6,72.5,49.4z M73.8,45.9c0.2-0.2,0.4-0.4,0.6-0.6c0.2,0.2,0.4,0.3,0.7,0.5c-0.2,0.2-0.4,0.4-0.6,0.6
		C74.2,46.2,74,46.1,73.8,45.9z M74.5,47.4c0.1,0.1,0.3,0.2,0.4,0.3c-0.2,0.2-0.4,0.4-0.5,0.6c-0.1-0.1-0.3-0.2-0.4-0.3
		C74.2,47.8,74.4,47.6,74.5,47.4z M75.1,48.7c0.2-0.2,0.4-0.4,0.6-0.6c0.3,0.2,0.6,0.4,0.9,0.5c-0.2,0.2-0.4,0.4-0.6,0.6
		C75.7,49.1,75.4,48.9,75.1,48.7z M76.5,49.9c0.2-0.2,0.5-0.5,0.7-0.7c0.5,0.5,1.2-0.2,0.6-0.6c0.2-0.2,0.4-0.4,0.6-0.6
		c0.3,0.2,0.6,0.4,0.9,0.5c-0.7,0.6-1.3,1.3-2,1.9c-0.4,0-0.9,0-1.3,0C76.2,50.2,76.4,50.1,76.5,49.9z M88.3,40.1
		c0.3,0,0.7-0.2,0.9,0c0,0-0.1,0.1-0.1,0.1c-0.1,0.1-0.1,0.1-0.2,0.2C88.7,40.3,88.5,40.2,88.3,40.1z M91.6,39.8
		c0.2,0.1,0.4,0.2,0.6,0.3c-0.1,0.1-0.2,0.2-0.3,0.2c-0.3-0.1-0.6-0.3-1-0.4c0,0,0.1,0,0.1-0.1C91.2,39.9,91.4,39.9,91.6,39.8z
		 M91.2,38.7C91.2,38.7,91.2,38.7,91.2,38.7C91.2,38.7,91.2,38.7,91.2,38.7C91.2,38.7,91.2,38.7,91.2,38.7z M84.2,48
		c0.1,0,0.1,0.1,0.2,0.1c0.2,0.1,0.3,0.2,0.5,0.3c-0.2,0.2-0.4,0.3-0.6,0.5c-0.2-0.1-0.4-0.2-0.7-0.4C83.8,48.4,84,48.2,84.2,48z
		 M84.3,50c0.1,0,0.1,0.1,0.2,0.1c0.2,0.1,0.4,0.2,0.6,0.4c0,0,0,0.1,0,0.1c-0.5,0-1,0-1.5,0C83.9,50.3,84.1,50.2,84.3,50z M85,49.4
		c0.2-0.2,0.4-0.3,0.6-0.5c0.1,0,0.1,0.1,0.2,0.1c0.1,0.1,0.3,0.2,0.4,0.2c-0.2,0.2-0.4,0.4-0.6,0.5C85.4,49.6,85.2,49.5,85,49.4z
		 M92.7,38.8c0.5-0.1,1,0,1.6-0.1c0,0-0.1,0-0.1,0.1C93.6,38.8,93.1,38.7,92.7,38.8z M107.5,43C107.5,43,107.5,43,107.5,43
		C107.5,43,107.5,43,107.5,43C107.5,43,107.5,43,107.5,43C107.5,43,107.5,43,107.5,43C107.5,43,107.5,43,107.5,43
		c0.1,0.1,0.1,0.2,0.1,0.3c-2.2,2.6-5.2,4.5-7.8,6.8c-0.4,0-0.8,0-1.2,0.1C101.6,47.8,104.4,45.3,107.5,43
		C107.5,43,107.5,43,107.5,43z M103.8,47.9c1.3-1.1,2.6-2.2,3.8-3.3c0,0.3,0,0.6,0,0.9c-1.8,1.4-3.6,3-5.4,4.5c-0.4,0-0.7,0-1.1,0.1
		C102.1,49.3,102.9,48.6,103.8,47.9z M104.4,49.3c1.1-0.9,2.2-1.9,3.3-2.8c0,0.2,0,0.3,0,0.5c-1.1,0.9-2.2,1.9-3.3,2.9
		c-0.3,0-0.5,0-0.8,0C103.9,49.7,104.1,49.5,104.4,49.3z M106.6,49c0.4-0.4,0.8-0.7,1.2-1.1c0,0.2,0,0.3,0.1,0.5
		c-0.3,0.4-1.1,0.6-1.1,1.2c-0.3,0-0.6,0-0.9,0.1C106.1,49.5,106.4,49.3,106.6,49z M108.1,49.4c0,0,0,0.1,0,0.1c-0.1,0-0.2,0-0.2,0
		C107.9,49.5,108,49.5,108.1,49.4z M37.7,72.5c0.8-3,2.4-5.8,4.4-8.1c0,0,0,0,0,0c9.9-8.9,18.1-9.6,16.6-25.7
		c0.7,0.1,1.5,0.1,2.2,0.1c0.4,2.9,0.4,5.8,0.3,8.8l0,0c0,0,0,0,0,0c0,0.7-0.1,1.5-0.1,2.2c0.5,0.8,1.7,1.6,4.6,1.8
		c0.4,0,0.8,0,1.2,0.1H101c0.6,0,1.1-0.1,1.7-0.1c-0.1,0-0.1,0.1-0.2,0.1h1.6c0.1-0.1,0.2-0.1,0.3-0.2c0.7,0,1.4-0.1,2.2-0.2
		c-0.2,0.1-0.4,0.2-0.6,0.3h1.6c0.1-0.1,0.1-0.3,0-0.4c0.8-0.1,2.6,0.1,2.3-1.2c-1-3.7-0.7-7.5-0.7-11.3c0.8,0,1.6,0,2.4,0
		c-1.4,16.1,6.8,16.8,16.6,25.7c0,0,0,0,0,0c2.3,2.5,4,5.7,4.7,9c-0.1,0-0.2,0-0.3,0c0,0,0.1,0,0.1,0c-30,0.2-60.4-0.1-90.8,0.3
		c1-4.6,3.7-8.5,7.9-10.7l0,0c1.6-4.3-5.6,1.8-6.2,3c-1.9,2.2-2.7,5-3.5,7.8c-1,0-1.9,0-2.9,0.1C37.5,73.4,37.6,72.9,37.7,72.5z
		 M40.1,99.7c1-0.8,2.1-1.5,3.1-2.2c-0.6,0.9-1.1,1.8-1.7,2.7c-0.5,0.3-0.9,0.7-1.4,1c0-0.2,0-0.4,0-0.5c0,0,0,0.1,0,0.1
		C40.2,100.4,40.2,100,40.1,99.7z M40.1,95.7c0-0.6,0-1.2,0-1.8c0,0,0,0,0.1,0c0.1,0.3,0.6,0.3,0.7,0c0.7-1.5,2.5-2,3.7-2.9
		c-0.6,0.9-1.2,1.8-1.7,2.7C42.2,94.5,40.9,95,40.1,95.7z M41.6,95.7c-0.5,0.8-1,1.6-1.4,2.3c0-0.4,0-0.9,0-1.3
		C40.6,96.4,41.1,96,41.6,95.7z M40.8,92.4c-0.2,0.2-0.5,0.3-0.7,0.5c0-0.5,0-1,0-1.6c0.8-0.6,1.6-1.1,2.3-1.6
		C41.8,90.6,41.3,91.5,40.8,92.4z M40.1,90.3c0-0.4,0-0.9,0-1.3c1.6-1.2,3.2-2.2,4.9-3.3c-0.1,0.2-0.3,0.4-0.4,0.7
		C43.6,88.3,41.7,89.1,40.1,90.3z M37.1,75.5c0.9-0.1,1.8-0.1,2.8-0.1c-0.1,0.4-0.2,0.8-0.3,1.2c-0.3,1.3-0.5,2.5-0.6,3.8
		c-0.4,0.3-0.9,0.6-1.3,0.9c-0.3,0.4,0.3,0.9,0.6,0.5c0,0,0,0,0,0c0.2-0.1,0.3-0.3,0.5-0.4c-0.1,0.6-0.1,1.1-0.2,1.7
		c-0.4,0.4-1.1,0.7-1.1,1.3c0.2,0.6,0.7,0.3,1-0.1c0,0.6-0.1,1.3-0.1,1.9c-0.4,0.5-1.6,0.9-1.2,1.6c0.4,0.4,0.8-0.2,1.2-0.5
		c0,0.6,0,1.2,0,1.8c-0.7,0.6-1.4,1.1-2.1,1.7C36.5,85.8,36.4,80.6,37.1,75.5z M35.7,119.6c0.3-9.3,0.3-18.6,0.6-27.9
		c0.8-0.1,1.4-1.1,2.1-1.5c0,0.4,0,0.9,0,1.3c-0.4,0.4-1,0.6-1.2,1.1c-0.1,0.4,0.5,0.7,0.7,0.3c0,0,0,0,0,0c0,0,0,0,0,0c0,0,0,0,0,0
		c0,0,0,0,0,0c0,0,0,0,0,0c0.2-0.1,0.3-0.3,0.5-0.4c0,0.5,0,0.9,0,1.4c0,0,0,0,0,0c0,0,0,0,0,0c-0.6,0.6-2.3,1.2-2,2.1
		c0.7,0.5,1.4-0.9,2-1.1c0,0.6,0,1.3,0,1.9c-0.3,0.2-0.4,0.7,0,0.8c0,0.7,0,1.4,0,2.1c-0.5,0.6-2.1,1.2-1.7,2.1
		c0.2,0.2,0.5,0.1,0.6-0.1c0.3-0.3,0.7-0.6,1-0.9c0.1,1.3,0.1,2.7,0.1,4.1c-0.1,0.1-0.1,0.4,0,0.5c0,0.6,0,1.3,0.1,1.9
		c0,0,0-0.1,0-0.1c0,0.3,0,0.5,0,0.7c0,0,0,0,0,0c0,0,0,0,0,0c-0.1,0.1-0.1,0.3,0,0.4c0,1.7,0.1,3.3,0.1,5c-0.3,0.3-1.1,0.5-0.8,1.1
		c0.2,0.3,0.6,0.1,0.9-0.1c0,0.2,0,0.4,0,0.6c0,0,0-0.1,0-0.1c0,0.3,0,0.5,0,0.8c0,0,0-0.1,0-0.1c0.1,4.1,0.1,8.1,0.2,12.2
		c0,0,0-0.1,0-0.1c0,0.3,0,0.6,0,0.9c0,0,0-0.1,0-0.1c0,0.1,0,0.1,0,0.2c0,0,0-0.1,0-0.1c0,0.3,0,0.5,0,0.8c0,0,0-0.1,0-0.1
		c0,0.6,0,1.2,0,1.7c-1.3,1-2.6,1.9-3.7,3.1C35.5,129.3,35.6,124.5,35.7,119.6z M42.3,192.7c-0.2-0.2-0.3-0.4-0.5-0.7
		c1,0,2,0,2.9-0.1c0.4,0.5,1,1,1.5,1.4c-0.7,0.3-1.3,0.7-2,1C43.5,193.9,42.9,193.3,42.3,192.7z M55.3,197.2
		c-0.7-0.1-1.4-0.1-2.2-0.2c0.3-0.2,0.7-0.4,1-0.6c-0.4,0-0.9-0.1-1.3-0.2c-0.4,0.2-0.8,0.4-1.2,0.6c-0.5-0.1-0.9-0.1-1.4-0.2
		c0,0,0.1,0,0.1,0c0,0-0.1,0-0.1,0c0.5-0.3,1-0.6,1.5-0.9c-0.3-0.1-0.6-0.3-0.8-0.5c-0.1,0-0.2,0.1-0.3,0.1c0,0,0,0,0,0
		c-0.5,0.3-1.1,0.6-1.6,0.9c-0.6-0.2-1.2-0.3-1.8-0.5c0.9-0.5,1.8-1,2.6-1.5c-0.2-0.2-0.4-0.4-0.5-0.7c-1,0.6-2.1,1.2-3.1,1.8
		c-0.4-0.2-0.8-0.4-1.2-0.6c0.6-0.3,1.3-0.6,1.9-1c0.5,0.3,1.2-0.1,1.3-0.7c0.2-0.1,0.5-0.2,0.7-0.4c-0.1-0.2-0.3-0.5-0.4-0.7
		c-0.2,0.1-0.4,0.2-0.7,0.3c-0.2-0.1-0.4-0.3-0.6-0.4c0.1,0,0.2-0.1,0.2-0.1c0,0,0,0,0,0c0,0,0,0,0,0c0,0,0.1-0.1,0.1-0.1
		c1.7,0,3.4,0,5.1,0c-0.1,0.1-0.2,0.1-0.3,0.2c0.2,0.2,0.4,0.4,0.7,0.6c1.1-0.9,2.4-0.8,3.7-0.7c-0.6,0.3-1.2,0.7-1.8,1c0,0,0,0,0,0
		c-0.2,0.1-0.4,0.3-0.7,0.4c0.3,0.1,0.6,0.3,0.8,0.5c0.1-0.1,0.2-0.1,0.3-0.1c0,0,0,0,0,0c1.7-1,3.2-2.1,5.3-1.7
		c-1.7,0.9-3.4,1.8-5,2.7c0.1,0.3,0,0.7-0.2,1c2.9-1.2,5.5-3.9,8.7-3.7c0,0.1,0,0.2,0.1,0.3c-3,1.6-5.9,3.2-8.8,4.9c0,0,0,0,0,0
		C55.5,197.1,55.4,197.2,55.3,197.2z M56.8,197.3c0.2-0.1,0.5-0.3,0.7-0.4c3.8-1.7,7.2-5.2,11.4-5c-1,0.5-2,1-3.1,1.5
		c-2.6,1.2-5.1,2.6-7.6,3.9C57.8,197.4,57.3,197.3,56.8,197.3z M62.5,197.5c-0.9,0-1.7,0-2.6,0c4.4-1.9,8.6-5.7,13.6-5.5
		C69.8,193.7,66.2,195.6,62.5,197.5z M66.6,197.2c-0.2-0.2-0.5,0-0.7,0.2c-0.5,0-1,0-1.5,0c4.6-1.9,8.8-5.7,13.9-5.5
		c-3.7,1.6-7.3,3.4-11,5c0,0,0,0,0,0C67.1,197,66.8,197.1,66.6,197.2z M68.6,197.3c4.9-1.7,9.3-5.5,14.6-5.4c-1,0.4-2,0.9-2.9,1.3
		C76.3,194.7,72.9,197.5,68.6,197.3z M87.3,191.8c-1.2,0.5-2.4,1.1-3.6,1.6c-3.3,1.1-6.2,3.6-9.7,3.6
		C78.4,195.4,82.6,192,87.3,191.8z M78.1,196.8c4.4-1.6,8.6-4.8,13.3-5.1C87,193.3,82.9,196.7,78.1,196.8z M82.6,196.6
		c4.3-1.5,8.4-4.8,13-5c-0.7,0.3-1.4,0.6-2.1,0.9c0,0,0,0,0,0c-1.1,0.5-2.2,0.9-3.2,1.4c0,0,0,0,0,0
		C87.8,194.9,85.5,196.8,82.6,196.6z M90.7,194.7c3.2-1.1,6.1-3.4,9.6-3.2c-4.6,1.5-8.8,5.2-13.7,5C88,195.9,89.3,195.3,90.7,194.7z
		 M90.7,196.8c3.7-1.7,7.4-3.3,11.1-4.9c0,0,0,0,0,0c0.7-0.4,1.6-0.3,2.4-0.3c-0.7,0.3-1.4,0.6-2.1,0.9c0,0,0,0,0,0c0,0,0,0-0.1,0h0
		c-1,0.4-2,0.8-3,1.3c0,0,0,0,0,0c0,0,0,0,0,0c0,0,0,0,0,0c-2.3,1.1-5.1,1.9-7.3,3.1C91.5,196.8,91.1,196.8,90.7,196.8z M95.7,197
		c-0.3,0-0.6,0-1,0c-0.4,0-0.8,0-1.2-0.1c1-0.4,1.9-0.8,2.9-1.2c0,0,0,0,0,0c1-0.4,2-0.9,3.1-1.3c0,0,0,0,0,0c1-0.4,2-0.9,3-1.3
		c1.7-0.6,3.4-1.8,5.2-1.7c-0.5,0.2-1.1,0.5-1.6,0.7c0,0,0,0,0,0c-1.1,0.5-2.2,0.9-3.3,1.4c0,0,0,0,0,0c-1.1,0.5-2.2,0.9-3.3,1.4
		c0,0,0,0,0,0C98.8,195.5,95.6,196,95.7,197z M99.1,196.9C99.1,197,99.1,197,99.1,196.9L99.1,196.9c-0.1,0-0.2,0.1-0.3,0.2
		c-0.7,0-1.4-0.1-2.1-0.1c1.1-0.4,2.2-0.9,3.3-1.4c0,0,0,0,0,0c1.1-0.5,2.2-0.9,3.3-1.4c0,0,0,0,0,0c0,0,0,0,0,0c0,0,0,0,0,0
		c1.1-0.5,2.2-0.9,3.2-1.4c0,0,0,0,0,0c0.8-0.3,1.7-0.7,2.5-1.1h0c0,0,0,0,0,0c0,0,0,0,0,0c0.9-0.5,2-0.5,3-0.5
		c-0.3,0.2-0.7,0.3-1,0.5c-1.6,0.7-3.3,1.5-4.9,2.2c0,0,0,0,0.1,0c-0.9,0.4-1.7,0.8-2.6,1.2c0,0,0,0,0,0c0,0,0,0,0,0
		C101.9,195.7,100.5,196.3,99.1,196.9C99.1,196.9,99.1,196.9,99.1,196.9C99.1,196.9,99.1,196.9,99.1,196.9z M100.6,197.2
		c1.9-0.8,3.8-1.7,5.8-2.5c3.1-1.1,5.9-3.3,9.2-3.5c-1.8,0.8-3.7,1.6-5.5,2.4c0,0,0,0,0,0c-1.9,0.8-3.9,1.7-5.9,2.5h0c0,0,0,0,0,0
		l0,0C102.9,196.5,101.8,197.4,100.6,197.2z M103.4,197.4c1.3-0.5,2.5-1,3.7-1.6c0,0,0,0,0,0c1.1-0.5,2.2-0.9,3.2-1.4c0,0,0,0,0,0
		c1.9-0.8,3.8-1.7,5.8-2.5c0,0,0,0,0,0c1.3-0.8,2.7-0.8,4.2-0.8c-1.8,0.8-3.6,1.5-5.3,2.3c0,0,0,0,0,0c0,0-0.1,0-0.1,0.1
		c0,0,0,0,0,0c-0.9,0.4-1.7,0.7-2.6,1.1c0,0,0,0,0,0c0,0-0.1,0-0.1,0h0c-1,0.4-2,0.8-3,1.2c0,0,0,0,0,0c-1.3,0.7-3.2,0.8-4.2,1.7
		C104.5,197.4,103.9,197.4,103.4,197.4z M107,197.5c0.8-0.3,1.6-0.6,2.5-0.9c0,0,0,0,0,0c1-0.4,2-0.8,3-1.2c0,0,0,0,0,0
		c0.1,0,0.1,0,0.2-0.1c0,0,0,0,0,0c0,0,0,0,0,0c0,0,0,0,0,0c0.8-0.4,1.7-0.7,2.5-1.1c0,0,0,0,0,0c0,0,0.1,0,0.1,0c0,0,0,0,0,0
		c0,0,0.1,0,0.1,0l0,0c0,0,0,0,0,0c0,0,0,0,0,0c0,0,0,0,0,0c0,0,0,0,0,0c0.7-0.3,1.5-0.6,2.2-0.9l0,0c2.1-0.7,4-2.3,6.3-2.1
		C118.3,193.2,113.1,197.6,107,197.5z M112.3,197.4c5.4-1.8,10.3-6,16-6.4c-3.8,2.1-7.5,4.1-11.4,5.8
		C115.4,197.5,113.8,197.2,112.3,197.4z M128.1,192.7c-2,2.3-5.1,3.4-8,4c-0.6,0.1-1.1,0.2-1.7,0.3c3.6-1.7,7.1-3.6,10.6-5.5
		C128.8,191.9,128.5,192.3,128.1,192.7z M134.1,168.6c-2.8,1.9-5.4,3.9-8.4,5.5c-1.7,3,7.6-4,8.3-4.4c0,0.6-0.1,1.1-0.2,1.7
		c-1.1,1-2.7,1.8-3.7,2.9c0.5,1.3,2.7-1.4,3.5-1.7c-0.1,0.5-0.1,1-0.2,1.6c-0.5,0.5-1.5,0.7-1.7,1.3c0.2,0.9,1.2,0,1.6-0.2
		c-0.2,1.6-0.4,3.2-0.6,4.7c-1.9,1.7-3.7,3.5-5.8,5c-1.2,2.9,5-3.2,5.5-3.7c-0.1,0.5-0.1,0.9-0.2,1.3c0,0,0,0,0,0l0,0c0,0,0,0,0,0
		c-0.1,0.3-0.1,0.6-0.2,0.8c-0.7-0.8-1.5,0.8-2.1,1.1c-0.4,0.5-2.5,1.4-1.2,1.9c1.2-0.6,2.1-1.7,3.2-2.6c-0.4,1.8-1,3.5-1.8,5.2
		c-9.8,0.3-19.6,0.5-29.5,0.7c-0.1-0.1-0.2-0.1-0.2-0.2c-1,0.2-2,0.3-3.1,0.3c0.1-0.1,0.2-0.1,0.4-0.2c-1.6,0-3,0.3-4.6,0.2
		c0,0,0,0,0-0.1c-1.8,0.1-3.6,0.2-5.4,0.2c0,0,0,0,0,0c-4,0.1-8,0.1-11.9,0.1l0,0H65.8h-1.6h-1.1c-0.5,0-1,0-1.5,0H46.5v-0.1
		c-0.3,0-0.6,0-0.9,0c-1.8-2.7-2.6-5.9-3.2-9c1-0.8,1.9-1.5,2.9-2.3c0-0.3-0.1-0.6-0.1-1c-1,0.7-2,1.5-3,2.3c0-0.1,0-0.1,0-0.2
		c0,0,0,0,0,0.1c0-0.1,0-0.3-0.1-0.4c-0.1-0.6-0.2-1.2-0.3-1.8c0.3-0.2,0.6-0.5,1-0.7h0c0,0,0,0,0,0c0.6-0.4,1.2-0.8,1.8-1.2
		c-0.2,0.7-1.9,2.1-0.8,2.5c0.9-0.5,1.2-1.8,1.8-2.5c0-0.5,0-1-0.1-1.4c-0.2,0.3-0.4,0.6-0.6,0.9c0-0.2,0-0.5-0.1-0.7
		c-0.8,0.6-1.7,1.2-2.5,1.8h0c0,0,0,0,0,0c0,0,0,0,0,0c0,0,0,0,0,0c0,0,0,0,0,0c0,0,0,0,0,0c0,0,0,0,0,0c0,0,0,0,0,0c0,0,0,0,0,0
		c0,0,0,0,0,0c0,0,0,0,0,0c-0.2,0.2-0.5,0.4-0.7,0.5c-0.8-0.9-1.8,0.2-1.4,1.1c-0.2,0.2-0.1,0.6,0.1,0.7c0.1,0.4,0.1,0.8,0.2,1.2
		c0,0,0-0.1,0-0.1c0,0.1,0,0.1,0,0.2c0,0,0-0.1,0-0.1c0,0.1,0,0.2,0.1,0.4c0,0,0,0,0,0c0.5,3.4,1.3,6.9,3.1,10c-1,0-1.9,0.1-2.9,0
		c-0.6-1.1-1.1-2.2-1.5-3.4c-0.5-1.4-0.8-2.8-1.1-4.2c0,0,0,0,0,0l0,0c-2.6-15.7-2.8-31.7-2.7-47.6c0.2,0.1,0.5,0,0.6-0.2
		c0,0,0,0,0,0c0,0,0,0,0,0c0,0,0,0,0,0c0.9-1,2.1-1.8,3.1-2.7c0,0.3,0,0.7,0,1c-0.8,0.9-3.7,2.4-3.4,3.6c0.4,0.4,0.8-0.3,1.1-0.5
		c0,0,0,0,0,0c0,0,0,0,0,0c0,0,0,0,0,0c0.7-0.7,1.5-1.4,2.3-2c0,0.5,0,0.9,0,1.4c0,0,0-0.1,0-0.1c0,0.2,0,0.4,0,0.6
		c-0.6,0.6-1.3,1.1-1.9,1.7c-0.2,1.6,1.4-0.3,1.9-0.6c0,1.2,0,2.4,0,3.6c-1.9,1-2.7,3.4,0,1.1c0,1.2,0,2.4,0,3.5
		c-4.1,2.9-5.5,6.1,0,1.1c0,0.5,0,1.1,0,1.6c-0.2,0.1-0.3,0.2-0.5,0.3c0,0,0,0,0,0c-0.6,0.3-0.1,1.1,0.4,0.7c0,1.3,0,2.6-0.1,3.9
		c-0.3,0.4-1.3,0.7-0.9,1.3c0.3,0.3,0.7,0,0.9-0.2c0,0.6,0,1.2,0,1.9c-0.3,0.3-1.2,0.7-0.8,1.2c0.3,0.3,0.6,0.1,0.8-0.2
		c0,2.5,0.1,5,0.1,7.5c0.1,0.8-0.3,2.1,0.8,2.2c-0.2,0.3,0.1,0.8,0.5,0.6v0c0.2-0.1,0.2-0.3,0.4-0.5c0,0,0,0,0,0
		c0.6-0.5,1.1-1.1,1.7-1.5c0,0,0,0,0,0c0,0,0,0,0,0c0,0,0,0,0,0c0,0,0,0,0,0c0,0,0,0,0,0c0,0,0,0,0,0c0,0,0,0,0,0c0,0,0,0,0,0
		c0,0,0,0,0,0c0,0,0,0,0,0c0,0,0,0,0,0c0,0,0,0,0,0c0,0,0,0,0.1-0.1c0,0,0,0,0,0c0,0,0,0,0,0c0,0,0.1,0,0.1-0.1c0,0,0,0,0,0
		c0,0,0.1-0.1,0.1-0.1c0,0,0,0,0,0c0,0,0.1-0.1,0.1-0.1c0,0,0,0,0,0l0,0c0,0,0,0,0,0c0,0,0,0,0,0c0,0,0,0,0,0c0,0,0,0,0.1-0.1
		c0,0,0,0,0,0c0,0,0,0,0,0c0,0,0,0,0,0c0.1-0.1,0.2-0.1,0.3-0.2v0c0.1-0.1,0.2-0.1,0.3-0.2l0,0c0,0,0,0,0,0c0,0,0,0,0,0
		c0.2-0.2,0.4-0.3,0.6-0.5c0-0.3,0-0.7,0-1c-0.1,0.1-0.2,0.1-0.2,0.2c0,0,0,0,0,0c0,0,0,0,0,0c0,0,0,0,0,0c0,0,0,0,0,0c0,0,0,0,0,0
		c0,0,0,0-0.1,0c0,0,0,0,0,0c-0.2,0.1-0.4,0.3-0.6,0.4c0,0,0,0,0,0c0,0-0.1,0.1-0.1,0.1c0,0,0,0,0,0c0,0,0,0,0,0c0,0,0,0,0,0
		c0,0-0.1,0-0.1,0.1c0,0,0,0,0,0c0,0,0,0,0,0c0,0,0,0,0,0c0,0-0.1,0.1-0.1,0.1v0c-0.2,0.2-0.4,0.3-0.6,0.5c0,0,0,0,0,0
		c0,0,0,0-0.1,0v0c-0.1,0-0.1,0.1-0.2,0.1c0,0,0,0,0,0c0,0,0,0-0.1,0.1c0,0,0,0,0,0c0,0,0,0,0,0c0,0,0,0,0,0c0,0,0,0,0,0
		c0,0,0,0,0,0c-0.5,0.4-0.9,0.7-1.3,1.1c0-0.1,0-0.2,0-0.2c0,0,0,0.1,0,0.1c0-0.7,0-1.4-0.1-2.1c1.1-0.5,1.8-1.7,2.8-2.3
		c-0.3,0.3-0.4,0.9,0.1,1c0.7-0.2,0.9-1.2,1.4-1.8c0-0.5-0.1-0.9-0.1-1.4c-0.2,0.3-0.4,0.7-0.6,1c0-0.2,0-0.4,0-0.5
		c-1.2,1-2.5,2-3.6,3.1c0-1.2-0.1-2.5-0.1-3.7c0.5-0.4,0.9-0.8,1.4-1.1c0,0,0,0,0,0c0,0,0,0,0,0v0c0.6-0.5,1.2-0.9,1.9-1.4
		c-0.1,0.1-0.1,0.2-0.2,0.2c0,0,0,0,0,0c0,0,0,0,0,0h0c0,0,0,0.1-0.1,0.1h0c-0.1,0.1-0.1,0.2-0.2,0.3c0,0,0,0,0,0
		c-0.1,0.1-0.1,0.2-0.2,0.3c0,0,0,0,0,0c0,0,0,0,0,0c0,0,0,0,0,0c-1.1,1.1,0,2,0.7,0.5c0,0,0,0,0,0c0.1-0.1,0.2-0.3,0.2-0.4v0
		c0.1-0.1,0.1-0.2,0.2-0.2c0,0,0,0,0,0c0,0,0,0,0,0c0,0,0,0,0,0c0,0,0,0,0,0c0,0,0,0,0,0c0,0,0,0,0,0c0,0,0,0,0,0
		c0.2-0.2,0.3-0.5,0.5-0.7c0,0,0,0,0,0s0,0,0,0c0-0.5,0-1,0-1.5c-0.2,0.2-0.3,0.5-0.5,0.7c0-0.2,0-0.5,0-0.7c-1,0.7-1.9,1.5-2.9,2.2
		c0,0,0,0,0,0c-0.3,0.2-0.6,0.5-0.9,0.7c0-0.7,0-1.5,0-2.2c0,0,0,0,0,0c0,0,0,0,0,0c0,0,0,0,0,0c0,0,0,0,0,0c0,0,0.1,0,0.1-0.1
		c0,0,0,0,0,0c0,0,0,0,0,0c0,0,0,0,0,0c0.5-0.4,1-0.7,1.5-1.1c0.7,0.6,0.9-0.7,1.3-1c0,0,0,0,0,0c0,0,0,0,0,0
		c0.2-0.2,0.5-0.3,0.7-0.5c0-0.3,0-0.5,0-0.8c0.1-0.2,0.2-0.4,0.4-0.6c0-0.5-0.1-0.9-0.1-1.4c-1,1.8-2.1,3.4-3.9,4.5
		c0-0.6,0-1.3,0-1.9c0.6-0.4,1.1-0.9,1.7-1.4c0,0,0,0,0,0c0.6-0.5,1.3-1,1.9-1.4c0-0.3,0-0.7,0-1c-1.2,0.9-2.4,1.8-3.5,2.7
		c0-0.3,0-0.7,0-1c0.7-0.5,1.3-1.1,2-1.6c0.6,0.1,0.9-0.9,1.5-1.1c0-0.2,0-0.4,0-0.6c0.1-0.1,0.1-0.2,0.2-0.3c0-0.5,0-1-0.1-1.5
		c-0.9,1.7-2,3-3.6,4c0-0.6,0-1.1,0-1.7c0.2-0.2,0.4-0.3,0.7-0.5h0c0,0,0,0,0,0c0,0,0,0,0,0c0,0,0,0,0,0c0,0,0,0,0,0c0,0,0,0,0,0
		c0,0,0,0,0,0c0,0,0,0,0,0c0,0,0,0,0,0c0,0,0,0,0,0c0,0,0,0,0,0h0c0,0,0,0,0,0c0,0,0,0,0,0c0.9-0.7,1.7-1.3,2.6-1.9c0-0.3,0-0.7,0-1
		c-1.1,0.7-2.1,1.5-3.2,2.3c0,0,0,0,0,0c0,0-0.1,0-0.1,0.1c0,0,0,0,0,0c0,0,0,0,0,0c0,0,0,0,0,0c-0.1,0-0.1,0.1-0.2,0.1
		c0-0.6,0-1.1,0-1.7c0.9-0.7,1.8-1.4,2.7-2.1c-2.6,3.8,1.5,1.3,0.7-1.1c0,0,0,0.1-0.1,0.1c0-0.2,0-0.3,0-0.5
		c-1.1,0.8-2.2,1.7-3.3,2.5c0-1.2,0-2.3,0-3.5c0.5-0.4,1.1-0.8,1.7-1.3c-0.2,0.4-1.1,1.4-0.2,1.5c0.8-0.4,1.1-1.7,1.7-2.4
		c0-0.1,0-0.2,0-0.2c0.1,0,0.1-0.1,0.2-0.1c0-0.4,0-0.7,0-1.1c-0.1,0.1-0.1,0.1-0.2,0.2c0-0.1,0-0.2,0-0.2c-0.8,1.1-2.1,1.7-3.1,2.6
		c0-1.2,0-2.4,0-3.6c0.2-0.2,0.5-0.4,0.7-0.5c0,0,0,0,0,0c0.2-0.2,0.5-0.4,0.8-0.6c-0.3,0.3-0.5,1,0.1,1.1c0.8-0.4,1-1.6,1.6-2.3
		c0,0,0,0,0,0c0.1-0.1,0.3-0.2,0.4-0.3c0-0.3,0-0.7,0-1c-0.1,0.1-0.3,0.2-0.4,0.3c0-0.2,0-0.4,0-0.6c-0.6,1.4-2,1.9-3.1,2.9
		c0-0.6,0-1.2,0-1.9c0.4-0.3,0.8-0.6,1.3-1c0,0,0,0,0,0c0.8-0.6,1.6-1.1,2.4-1.7c0-0.3,0-0.7,0-1c-1.2,0.9-2.5,1.7-3.7,2.6
		c0-0.3,0-0.7,0-1c1.2-0.9,2.5-1.8,3.7-2.6c0-0.4,0-0.7,0-1c-0.1,0.1-0.3,0.2-0.4,0.3c0-0.4,0-0.7,0.1-1.1c-0.6,1.7-2,2.5-3.4,3.5
		c0-0.2,0-0.3,0-0.5c0,0,0,0.1,0,0.1c0-0.3,0-0.6,0-0.8c0,0,0,0,0,0c0-0.3,0-0.6,0-0.8c0,0,0,0.1,0,0.1c0-0.2,0-0.4,0-0.6
		c1.3-1,2.5-2,3.9-2.9c0-0.3,0-0.7,0-1c-0.4,0.3-0.9,0.6-1.3,0.9c0,0,0,0,0,0c0,0,0,0,0,0c0,0,0,0,0,0c-0.8,0.6-1.7,1.3-2.6,1.9
		c0-1.1,0-2.1,0-3.2c1.3-1,2.6-2,3.9-3c0-0.3,0-0.7,0-1c-1.3,1-2.7,2-3.9,3c0-0.6,0-1.1,0-1.7c0.6-0.5,1.2-0.9,1.9-1.4
		c-0.5,1.1,0.8,0.9,1,0c0,0,0,0,0,0c0.1-0.1,0.1-0.2,0.2-0.3c0,0,0,0,0,0.1c0,0,0-0.1,0.1-0.1c0,0,0,0,0,0.1
		c0.1-0.2,0.2-0.4,0.1-0.6c0.3-0.2,0.6-0.4,0.9-0.7c0-0.3,0-0.7,0-1c-0.3,0.2-0.6,0.5-1,0.7c0-0.1,0-0.2,0-0.4c-0.6,1.2-2,1.7-3,2.6
		c0-0.8,0-1.7,0-2.5c1.3-1.1,2.7-2.2,4.1-3.1c0-0.3,0-0.7,0-1c-0.5,0.3-0.9,0.7-1.4,1c0.1-0.1,0.2-0.3,0.2-0.4c0-0.5,0-1.1,0-1.6
		c-0.5,1.1-1.5,2.1-1.8,3.2c-0.4,0.3-0.8,0.6-1.2,0.9c0-0.2,0-0.4,0-0.6c0,0,0,0.1,0,0.1c0-0.6,0-1.2,0-1.7c1.4-1,2.8-2,4.2-2.9
		c0-0.3,0-0.7,0-1c-1.4,0.9-2.8,1.9-4.2,2.9c0-0.7,0-1.4,0-2.1c0.1-0.1,0.2-0.2,0.4-0.3c-0.5,0.5,0.1,1.3,0.6,0.7
		c0.6-1.6,1.9-2.5,3.3-3.4c0-0.3,0-0.7,0-1c-0.4,0.3-0.9,0.6-1.3,0.9c0.4-0.5,0.2-1.1,0.3-1.6c0.3-0.2,0.7-0.5,1-0.7
		c0-0.3,0-0.7,0-1c-1.5,1-2.9,2-4.4,3c0-0.7,0-1.3-0.1-2c0.2-0.2,0.4-0.3,0.6-0.5c0,0,0,0,0,0c0.2-0.1,0.4-0.3,0.6-0.4
		c-0.3,0.3-0.6,1,0,1.1c1.2-0.9,1.6-2.8,3.2-3.4c0-0.3,0-0.7,0-1c-0.2,0.2-0.5,0.3-0.7,0.5c0-0.4,0.1-0.9,0.1-1.3
		c-0.8,1.7-2.1,2.8-3.7,3.8c0,0,0,0,0,0c0,0-0.1,0.1-0.1,0.1c0-0.5,0-1.1,0-1.6c0.2-0.2,0.4-0.3,0.6-0.5c0,0,0,0,0,0c0,0,0,0,0,0
		c0.1,0.3,0.6,0.3,0.7,0c0.6-1.3,2-1.9,3.1-2.7c0-0.3,0-0.7,0-1c-0.5,0.3-0.9,0.6-1.4,0.9c0.4-0.7,1.1-1.3,1-2.2
		c0.1-0.1,0.3-0.2,0.4-0.3c0-0.3,0-0.7,0-1c-0.1,0.1-0.2,0.2-0.3,0.2c0,0,0,0,0,0c-1,0.7-2.1,1.4-3.1,2.2c1-1.6,1.7-3.4,3.5-4.2
		c0-0.3,0-0.7,0-1c-0.1,0.1-0.3,0.2-0.4,0.3c0.4-0.6,0.3-1.3,0.4-2c0,0,0,0,0.1,0c0-0.3,0-0.7,0.1-1c-0.9,0.5-1.7,1.1-2.6,1.6
		c0.8-1.2,1.3-2.7,2.7-3.4c0-0.4,0.1-0.7,0.1-1.1c0,0-0.1,0-0.1,0c0.5-0.7,0.4-1.6,0.6-2.4c0,0,0,0.1-0.1,0.1c0-0.2,0.1-0.3,0.1-0.5
		c-1.9,1.2-3.8,2.4-5.7,3.7c0-0.6,0-1.3,0.1-1.9c2-1.4,4.1-2.7,6.2-3.8c0.1-0.4,0.2-0.8,0.3-1.1c-2.2,1.2-4.4,2.4-6.5,3.9
		c0-0.7,0.1-1.4,0.2-2.1c0.2-0.1,0.3-0.3,0.5-0.4c0,0,0,0,0,0c3.1-2.2,6.5-4.2,9.8-6c1.5-2.9-9.4,4.8-10.2,5.3c0-0.5,0.1-1,0.2-1.4
		c0.9-0.6,1.9-1.1,2.8-1.7c0,0,0,0,0,0c0.8-0.7,2.8-0.9,2.9-2.1c-1.3-0.6-4.1,2.1-5.5,2.7c0.2-1.3,0.4-2.6,0.8-3.8
		c18.3-0.1,36.6-0.4,54.9-0.3c-35.9,18.9-27.3,17.3,0.9,0c1.5,0,2.9,0,4.4,0c-0.9,0.4-1.7,0.9-2.5,1.4l0,0c0,0,0,0,0,0c0,0,0,0,0,0
		c0,0,0,0,0,0c0,0,0,0,0,0h0c0,0,0,0,0,0c-0.1,0-0.1,0.1-0.2,0.1c0,0,0,0,0,0c-0.1,0.1-0.3,0.2-0.4,0.2c0,0,0,0,0,0
		c0,0-0.1,0-0.1,0.1c0,0,0,0,0,0c-4,2.3-7.9,4.7-11.8,7c0,0,0,0,0,0c-0.7,0.4-1.4,0.8-2.1,1.2c0,0,0,0,0,0c-0.1,0-0.1,0.1-0.2,0.1
		l0,0c0,0,0,0,0,0c0,0,0,0,0,0c-0.6,0.4-1.3,0.7-1.9,1.1c0,0,0,0,0,0c-0.1,0-0.1,0.1-0.2,0.1c0,0,0,0,0,0c0,0-0.1,0-0.1,0.1
		c0,0,0,0,0,0c0,0,0,0,0,0c0,0,0,0,0,0c-0.8,0.5-1.6,0.9-2.4,1.4h0c0,0,0,0,0,0c0,0,0,0,0,0c0,0,0,0,0,0c0,0,0,0,0,0c0,0,0,0,0,0
		l0,0c-0.6,0.4-1.2,0.7-1.8,1.1c0,0,0,0,0,0c0,0,0,0,0,0c0,0,0,0,0,0c0,0,0,0,0,0c-3.3,1-7.3,0.1-10.8,0.2l0,0
		c0,5.3-0.1,10.7,0.2,16c0,0-0.1,0-0.1,0.1l0,1c0,0,0.1-0.1,0.1-0.1c0,1,0.1,2,0.1,3c-0.1,0-0.2,0.1-0.3,0.1l0,1
		c0.1-0.1,0.2-0.1,0.3-0.2c0,0.8,0,1.6,0,2.5c-0.1,0.1-0.2,0.1-0.3,0.2l0,1c0.1-0.1,0.2-0.2,0.4-0.2c0,0.5,0,1.1,0,1.6
		c-0.1,0.1-0.3,0.1-0.4,0.2l0,1c0.1-0.1,0.3-0.1,0.4-0.2c0,0.7,0,1.5,0,2.2c-0.1,0.1-0.3,0.1-0.4,0.2l0,1c0.1-0.1,0.3-0.1,0.4-0.2
		c0,1.2,0,2.4-0.1,3.6c-0.1,0.1-0.2,0.1-0.4,0.2l0,0.9c0.1-0.1,0.2-0.1,0.4-0.2c0,1.1,0,2.2-0.1,3.3c-0.1,0.1-0.2,0.1-0.3,0.2l0,1
		c0.1-0.1,0.2-0.1,0.3-0.2c0,0.7,0,1.3,0,2c-0.1,0.1-0.2,0.1-0.3,0.2l0,1c0.1,0,0.2-0.1,0.3-0.1c0,1.2,0,2.4-0.1,3.7
		c-0.1,0-0.1,0.1-0.2,0.1l0,0.9c0.1,0,0.1-0.1,0.2-0.1c0,0.6,0,1.2,0,1.8c-0.1,0-0.1,0.1-0.2,0.1l0,1c0.1,0,0.1-0.1,0.2-0.1
		c0,0.8,0,1.7-0.1,2.5c0,0-0.1,0.1-0.1,0.1l0,1c0,0,0.1-0.1,0.1-0.1c0,1,0,2-0.1,3c0,0-0.1,0-0.1,0l0,0.9c0,0,0,0,0.1,0
		c0,1-0.1,2-0.1,2.9c0,0,0,0,0,0L67,169l42.8,0c5.5-0.1,11-0.1,16.5-0.2c-0.6,0.6-8.2,3.5-6.2,4.1c0.9-0.6,7.7-3.3,6.7-4.2
		c1.1,0,2.2-0.1,3.3-0.1c-2.1,1.4-4.2,2.8-6.4,4.1c0,0,0,0,0,0c-0.5,0.3-1,0.6-1.4,1c0,0,0,0,0.1,0c-0.4,0.2-0.2,0.8,0.2,0.8
		c0.5-0.1,0.8-0.5,1.2-0.8c0.1-0.1,0.3-0.2,0.4-0.3c0,0,0,0,0,0c2.4-1.7,5.1-3.1,7.4-4.9c0.8,0,1.6-0.1,2.4-0.1
		C134.1,168.5,134.1,168.5,134.1,168.6z M40.4,107.9c0.9-0.7,1.9-1.3,2.8-2c-0.4,0.6-0.7,1.2-1.1,1.8c-0.3,0.8-1.1,1.1-1.7,1.6
		C40.4,108.8,40.4,108.3,40.4,107.9z M134.2,166.7c-21.8,0.8-43.7,0.8-65.6,0.6c0.2-25.5,1.2-51,0.5-76.5c21.6,0.3,43.3-0.1,65-1.1
		c0.1,2.5,0.1,5.1,0.2,7.6c-1.2,0-2.4,0.1-3.5,0.1c-16.3,0.8-32.7,1-49.1,1.2c0,0,0,0,0,0c-0.6,0-1.1,0-1.7,0
		c-0.1,2.3-0.2,4.5-0.3,6.8c0,0,0,0,0,0c0,0.6,0,1.1-0.1,1.7c0,0,0,0,0,0l0,0c0.6,0,1.1,0,1.7-0.1h0c16.8-0.6,33.6-1.1,50.4-0.9
		c0,0-0.1,0-0.1,0c0.9,0,1.8,0,2.8,0C134.9,126.4,135.7,146.6,134.2,166.7z M111,102.6c-0.2-0.1-0.4-0.3-0.5-0.4
		c0.2-0.2,0.4-0.4,0.6-0.6c0.2,0.1,0.4,0.3,0.5,0.4C111.4,102.2,111.2,102.4,111,102.6z M111.3,103.9c-0.1,0.2-0.4,0.4-0.4,0.7
		c-0.1,0-0.2,0-0.4,0c0-0.1-0.1-0.1-0.2-0.2c0.2-0.2,0.5-0.5,0.7-0.7C111.2,103.8,111.2,103.9,111.3,103.9z M110.9,100.4
		c0.1-0.1,0.2-0.2,0.3-0.2C111.1,100.3,111,100.4,110.9,100.4C110.9,100.5,110.9,100.4,110.9,100.4z M107.7,103.5
		c0.1,0.1,0.2,0.2,0.3,0.2c-0.1,0.1-0.3,0.3-0.4,0.4c-0.1-0.1-0.2-0.2-0.4-0.3C107.4,103.8,107.5,103.7,107.7,103.5
		c-0.1,0.1-0.1,0.1-0.1,0.1C107.6,103.5,107.6,103.5,107.7,103.5z M107.6,102.3c-0.2-0.1-0.3-0.3-0.5-0.4c0.2-0.2,0.4-0.5,0.6-0.7
		c0.2,0.1,0.4,0.3,0.6,0.4C108.1,101.9,107.8,102.1,107.6,102.3z M107.4,100c0.1,0,0.2,0,0.3,0c0,0-0.1,0.1-0.1,0.1c0,0,0,0,0,0.1
		C107.6,100.1,107.5,100,107.4,100z M108.6,103.1c-0.1-0.1-0.2-0.1-0.3-0.2c0.2-0.2,0.5-0.4,0.7-0.7c0.1,0.1,0.1,0.1,0.2,0.2
		C109,102.6,108.8,102.8,108.6,103.1z M109.1,104.6c0,0-0.1,0.1-0.1,0.1c-0.3,0-0.5,0-0.8,0c0,0,0-0.1,0.1-0.1
		c0.1-0.1,0.2-0.3,0.4-0.4C108.8,104.3,109,104.4,109.1,104.6z M108.9,101.1c-0.2-0.2-0.4-0.3-0.6-0.5c0.2-0.2,0.4-0.5,0.6-0.7
		c0,0,0.1,0,0.1,0c0.2,0.2,0.4,0.3,0.6,0.5C109.4,100.7,109.1,100.9,108.9,101.1z M109.8,101.7c-0.1,0-0.1-0.1-0.2-0.1
		c0.2-0.2,0.4-0.4,0.6-0.6c0,0,0,0,0.1-0.1c0,0,0.1,0.1,0.1,0.1C110.2,101.3,110,101.5,109.8,101.7z M110.4,103.3
		c-0.2,0.2-0.4,0.5-0.7,0.7c-0.2-0.1-0.3-0.2-0.5-0.4c0.2-0.2,0.4-0.5,0.6-0.7C110,103,110.2,103.1,110.4,103.3z M107,103
		C107,103,107,103,107,103c-0.1,0.1-0.2,0.2-0.4,0.4c-0.2-0.1-0.3-0.2-0.5-0.3c0.1-0.2,0.3-0.3,0.4-0.5
		C106.7,102.7,106.9,102.8,107,103C107,103,107,103,107,103z M107,104.7c-0.2,0-0.4,0-0.6,0c0.1-0.1,0.2-0.2,0.3-0.3
		C106.8,104.6,106.9,104.6,107,104.7z M100.9,103.5c-0.1,0-0.1-0.1-0.2-0.1c0.2-0.2,0.5-0.4,0.7-0.6c0,0,0.1,0.1,0.1,0.1
		C101.3,103.1,101.1,103.3,100.9,103.5z M101.1,104.8c-0.1,0-0.3,0-0.4,0c0,0,0.1-0.1,0.1-0.1c0,0,0,0,0,0
		C101,104.7,101.1,104.8,101.1,104.8z M95.9,103.7c-0.1-0.1-0.1-0.1-0.2-0.2c0.2-0.2,0.3-0.3,0.5-0.5c0.1,0.1,0.1,0.1,0.2,0.2
		C96.2,103.4,96.1,103.5,95.9,103.7z M96.1,104.9c-0.1,0-0.2,0-0.2,0c0,0,0.1-0.1,0.1-0.1C96,104.8,96,104.9,96.1,104.9z
		 M94.2,102.3c-0.1,0-0.1-0.1-0.2-0.1c0.2-0.2,0.4-0.4,0.6-0.6c0.1,0,0.1,0.1,0.2,0.1C94.5,101.9,94.4,102.1,94.2,102.3z
		 M94.4,103.6c-0.1,0.1-0.3,0.3-0.4,0.4c0,0-0.1-0.1-0.1-0.1c0.1-0.1,0.3-0.3,0.4-0.4C94.3,103.5,94.4,103.5,94.4,103.6z
		 M95.1,104.1c0.1,0.1,0.1,0.1,0.2,0.2c-0.2,0.2-0.3,0.3-0.5,0.5c-0.1-0.1-0.1-0.1-0.2-0.2C94.7,104.4,94.9,104.3,95.1,104.1z
		 M95,103c-0.1,0-0.1-0.1-0.2-0.1c0.2-0.2,0.3-0.4,0.5-0.5c0.1,0.1,0.1,0.1,0.2,0.2C95.4,102.6,95.2,102.8,95,103z M95.3,101.2
		c-0.1-0.1-0.1-0.1-0.2-0.1c0.2-0.2,0.4-0.4,0.6-0.6c0.1,0,0.1,0.1,0.2,0.1C95.7,100.8,95.5,101,95.3,101.2z M96.2,101.9
		c-0.1-0.1-0.1-0.1-0.2-0.2c0,0,0,0,0,0l0,0c0.2-0.2,0.4-0.4,0.6-0.6c0.1,0.1,0.2,0.1,0.2,0.2c-0.1,0.1-0.3,0.3-0.4,0.4
		C96.3,101.7,96.2,101.8,96.2,101.9z M97,102.6c-0.1-0.1-0.1-0.1-0.2-0.2c0.2-0.2,0.5-0.4,0.7-0.6c0.1,0.1,0.1,0.1,0.2,0.2
		C97.5,102.2,97.2,102.4,97,102.6z M97.2,103.9c-0.1,0.1-0.3,0.3-0.4,0.4c0-0.1-0.1-0.1-0.2-0.1c0.2-0.1,0.3-0.3,0.5-0.4
		C97.1,103.8,97.1,103.9,97.2,103.9z M97.2,100.5c0.1-0.1,0.4-0.2,0.5-0.4c0.1,0,0.3,0,0.4,0c0,0-0.1,0.1-0.1,0.1
		c-0.2,0.1-0.3,0.3-0.5,0.5C97.4,100.6,97.3,100.6,97.2,100.5z M97.6,104.7c0.1-0.1,0.2-0.1,0.2-0.2c0.1,0.1,0.2,0.2,0.3,0.2
		c-0.1,0.1-0.1,0.1-0.2,0.2c-0.2,0-0.3,0-0.5,0C97.4,104.8,97.5,104.7,97.6,104.7z M97.8,103.3c0,0-0.1-0.1-0.1-0.1
		c0.2-0.2,0.5-0.4,0.7-0.7c0,0,0.1,0.1,0.1,0.1C98.2,102.9,98,103.1,97.8,103.3z M99.7,101.3C99.7,101.3,99.7,101.4,99.7,101.3
		c-0.1,0.3-0.4,0.5-0.6,0.8c0,0-0.1-0.1-0.1-0.1C99.2,101.7,99.4,101.5,99.7,101.3z M99.6,100.1c0.1,0,0.1,0,0.2,0
		C99.7,100.1,99.7,100.2,99.6,100.1C99.7,100.2,99.6,100.1,99.6,100.1z M98.3,101.4c-0.1-0.1-0.1-0.1-0.2-0.2
		c0.3-0.2,0.5-0.5,0.8-0.7c0.1,0.1,0.1,0.1,0.2,0.2C98.8,101,98.6,101.2,98.3,101.4z M99.1,103.2c0.1,0.1,0.2,0.2,0.3,0.2
		c-0.1,0.1-0.1,0.1-0.2,0.2c-0.2,0.2-0.4,0.3-0.5,0.5c-0.1-0.1-0.2-0.2-0.3-0.2C98.6,103.6,98.9,103.4,99.1,103.2z M100.1,104
		c0.1,0,0.1,0.1,0.2,0.1c-0.2,0.2-0.5,0.4-0.6,0.7c-0.1,0-0.2,0-0.2,0c0-0.1-0.1-0.1-0.1-0.2C99.6,104.4,99.8,104.2,100.1,104z
		 M100,102.9c0,0-0.1-0.1-0.1-0.1c-0.1-0.1-0.1-0.1-0.2-0.2c0.2-0.2,0.5-0.4,0.7-0.7c0.1,0.1,0.2,0.2,0.3,0.3
		C100.5,102.4,100.3,102.7,100,102.9z M100.3,100.8c0.2-0.2,0.4-0.3,0.6-0.5c0,0,0.1,0,0.1,0.1C100.8,100.5,100.6,100.7,100.3,100.8
		C100.4,100.8,100.3,100.8,100.3,100.8z M101.4,101.7c-0.1-0.1-0.2-0.2-0.4-0.3c0.2-0.2,0.4-0.4,0.6-0.6c0.1,0.1,0.3,0.2,0.4,0.3
		C101.8,101.3,101.6,101.5,101.4,101.7z M102.8,101.6C102.8,101.6,102.8,101.6,102.8,101.6c-0.1,0.2-0.3,0.4-0.4,0.5c0,0,0,0,0,0
		c-0.1,0.1-0.1,0.1-0.2,0.2c0,0-0.1-0.1-0.1-0.1C102.3,102,102.5,101.8,102.8,101.6z M102.3,100.3c0.1-0.1,0.2-0.1,0.2-0.2
		c0.3,0,0.5,0,0.8,0c-0.2,0.2-0.4,0.3-0.6,0.5C102.6,100.4,102.5,100.4,102.3,100.3z M102.2,103.4c0.1,0.1,0.2,0.1,0.2,0.2
		c-0.1,0.1-0.2,0.2-0.3,0.3c-0.1,0.1-0.2,0.2-0.3,0.3c-0.1-0.1-0.2-0.1-0.2-0.2C101.8,103.8,102,103.6,102.2,103.4z M103.1,104.2
		c0.1,0.1,0.3,0.2,0.4,0.3c-0.1,0.1-0.2,0.2-0.3,0.3c-0.3,0-0.5,0-0.8,0C102.6,104.6,102.9,104.4,103.1,104.2z M103.1,103
		c-0.1-0.1-0.2-0.1-0.3-0.2c0.1,0,0.1-0.1,0.2-0.1c0,0,0,0,0,0c0.2-0.2,0.4-0.4,0.6-0.5c0.1,0.1,0.2,0.1,0.3,0.2
		C103.5,102.6,103.3,102.8,103.1,103z M104.5,102.9c0.1,0.1,0.2,0.2,0.3,0.3c-0.2,0.2-0.5,0.5-0.7,0.7c-0.1-0.1-0.2-0.2-0.4-0.3
		C104,103.3,104.2,103.1,104.5,102.9z M104.1,101.6c0.2-0.2,0.4-0.3,0.5-0.5c0.1,0.1,0.2,0.2,0.3,0.2c-0.2,0.2-0.3,0.3-0.5,0.5
		C104.3,101.7,104.2,101.6,104.1,101.6z M105.5,103.6c0.2,0.1,0.3,0.2,0.5,0.3c-0.3,0.3-0.5,0.5-0.8,0.8c-0.1-0.1-0.3-0.2-0.4-0.3
		C105,104.1,105.3,103.9,105.5,103.6z M105.1,102.3c0.2-0.2,0.3-0.3,0.5-0.5c0.1,0.1,0.2,0.1,0.3,0.2c-0.2,0.2-0.3,0.3-0.5,0.5
		c0,0,0,0,0,0C105.3,102.4,105.2,102.4,105.1,102.3z M105.6,100.7c-0.1-0.1-0.2-0.1-0.3-0.2c0.2-0.1,0.3-0.3,0.2-0.5
		c0.2,0,0.4,0,0.5,0c0,0,0,0,0,0c0,0,0,0,0,0c0.1,0,0.1,0.1,0.2,0.1C106,100.3,105.8,100.5,105.6,100.7z M106.8,101.1
		c-0.1,0.1-0.2,0.3-0.4,0.4c-0.1-0.1-0.2-0.1-0.2-0.2c0.2-0.2,0.4-0.4,0.7-0.6c0.1,0,0.1,0.1,0.2,0.1
		C107,100.9,106.9,101,106.8,101.1z M93.2,103.3c-0.1,0-0.1-0.1-0.2-0.1c0.1-0.1,0.2-0.3,0.4-0.4c0.1,0,0.1,0.1,0.2,0.1
		C93.5,103.1,93.4,103.2,93.2,103.3z M93.4,104.6c-0.1,0.1-0.3,0.3-0.4,0.4c0,0-0.1,0-0.1,0C93,104.8,93.1,104.7,93.4,104.6
		C93.3,104.5,93.3,104.5,93.4,104.6z M92.8,101.2C92.8,101.2,92.8,101.2,92.8,101.2c0.1-0.1,0.1-0.2,0.2-0.2
		c0.1-0.1,0.3-0.3,0.4-0.4c0,0,0,0,0,0C93.3,100.8,93.1,101,92.8,101.2z M92.5,103.8c0,0,0.1,0.1,0.1,0.1c-0.2,0.2-0.4,0.4-0.6,0.7
		c0,0-0.1-0.1-0.1-0.1C92.1,104.2,92.3,104,92.5,103.8z M91.9,102.1C91.9,102.1,91.9,102.1,91.9,102.1c0.1-0.1,0.2-0.2,0.3-0.3
		c0,0,0,0,0,0C92.1,101.9,92,102,91.9,102.1z M91.7,100.2C91.7,100.3,91.7,100.3,91.7,100.2c-0.1,0-0.1,0-0.2,0
		C91.6,100.2,91.7,100.2,91.7,100.2z M90.7,104.5c0.2,0.2,0.4,0.3,0.6,0.5c-0.3,0-0.7,0-1,0c0,0,0,0,0,0
		C90.4,104.9,90.6,104.7,90.7,104.5z M90.6,100.9c0.1-0.1,0.1-0.1,0.2-0.2c0.1,0.1,0.2,0.1,0.3,0.2c-0.1,0.1-0.2,0.2-0.2,0.2
		C90.7,101.1,90.6,101,90.6,100.9z M90,101.5c0.1,0.1,0.2,0.2,0.3,0.2c-0.2,0.2-0.4,0.4-0.6,0.6c-0.1-0.1-0.2-0.2-0.3-0.2
		C89.6,101.9,89.8,101.7,90,101.5z M89.8,100.3c0.1,0,0.1,0,0.2,0c0,0-0.1,0.1-0.1,0.1C89.9,100.3,89.8,100.3,89.8,100.3z
		 M86.9,104.9c0.1,0.1,0.2,0.2,0.4,0.2c-0.2,0-0.4,0-0.6,0C86.7,105.1,86.8,105,86.9,104.9z M86.7,103.7c0.1-0.1,0.2-0.2,0.3-0.4
		c0,0,0,0,0.1,0C87,103.5,86.9,103.7,86.7,103.7C86.8,103.8,86.8,103.7,86.7,103.7z M87,102.2C86.9,102.2,86.9,102.1,87,102.2
		C86.9,102.1,86.9,102.1,87,102.2c-0.1-0.1-0.2-0.2-0.2-0.2c0.2-0.2,0.3-0.4,0.5-0.6c0.1,0.1,0.2,0.2,0.3,0.2
		C87.3,101.8,87.1,102,87,102.2z M87.5,104.3c0.1-0.1,0.2-0.2,0.2-0.3c0.1,0.1,0.2,0.1,0.2,0.2c-0.1,0.1-0.2,0.2-0.3,0.3
		C87.6,104.4,87.5,104.4,87.5,104.3C87.4,104.3,87.5,104.3,87.5,104.3z M87.7,102.8C87.6,102.8,87.6,102.8,87.7,102.8
		c0.1-0.3,0.3-0.5,0.5-0.7c0,0,0.1,0.1,0.1,0.1C88,102.4,87.8,102.6,87.7,102.8z M88,100.9c-0.1-0.1-0.2-0.1-0.2-0.2
		c0.1-0.1,0.3-0.3,0.5-0.4c0.1,0,0.2,0,0.3,0c0,0,0,0,0,0C88.4,100.5,88.2,100.7,88,100.9z M88.8,102.8c0.1,0.1,0.2,0.1,0.2,0.2
		c-0.2,0.2-0.4,0.4-0.5,0.6c-0.1-0.1-0.2-0.1-0.2-0.2C88.5,103.2,88.6,103,88.8,102.8z M88.8,101.6c0,0-0.1-0.1-0.1-0.1
		c0.2-0.2,0.4-0.4,0.6-0.6c0,0,0.1,0.1,0.1,0.1C89.1,101.2,89,101.4,88.8,101.6z M86.1,103.2c-0.1-0.1-0.2-0.1-0.2-0.2
		c0.1-0.1,0.2-0.3,0.3-0.4c0.1,0.1,0.2,0.1,0.2,0.2C86.3,102.9,86.2,103.1,86.1,103.2z M86.2,104.4c-0.2,0.2-0.3,0.4-0.5,0.6
		c0,0,0,0,0,0C85.9,104.8,86,104.6,86.2,104.4C86.2,104.4,86.2,104.4,86.2,104.4z M86.1,101.4c-0.1-0.1-0.2-0.2-0.3-0.3
		c0.1-0.2,0.3-0.3,0.5-0.5c0.1,0,0.1-0.1,0.1-0.1c0.1,0.1,0.2,0.2,0.3,0.2C86.4,101,86.3,101.2,86.1,101.4z M85.2,102.5
		c-0.1-0.1-0.2-0.2-0.3-0.3c0.1-0.1,0.2-0.3,0.3-0.4c0.1,0.1,0.2,0.2,0.3,0.3C85.4,102.2,85.3,102.3,85.2,102.5z M85.5,103.8
		c-0.2,0.2-0.3,0.4-0.5,0.6c-0.1-0.1-0.1-0.1-0.2-0.2c0.2-0.2,0.3-0.4,0.5-0.6C85.4,103.7,85.5,103.8,85.5,103.8z M85,100.3
		C85,100.3,85,100.3,85,100.3c0.1-0.1,0.2-0.1,0.3-0.1c0.1,0,0.1,0,0.2,0c-0.1,0.1-0.1,0.2-0.2,0.2C85.1,100.5,85,100.4,85,100.3z
		 M84.2,103.7c-0.1-0.1-0.2-0.2-0.3-0.3c0.1-0.2,0.3-0.4,0.4-0.6c0.1,0.1,0.2,0.2,0.3,0.3C84.5,103.3,84.4,103.5,84.2,103.7z
		 M84.5,105c-0.1,0.1-0.1,0.2-0.2,0.3c-0.1,0-0.2,0-0.3,0c0.1-0.1,0.2-0.3,0.3-0.4C84.4,104.9,84.5,105,84.5,105z M84.1,101.5
		c0.1-0.2,0.2-0.3,0.4-0.5c0.1,0.1,0.1,0.1,0.2,0.2c-0.1,0.1-0.2,0.3-0.4,0.5C84.2,101.6,84.1,101.5,84.1,101.5z M83.3,102.8
		c0,0-0.1-0.1-0.1-0.1c0.1-0.2,0.3-0.4,0.4-0.5c0,0,0.1,0.1,0.1,0.1C83.6,102.5,83.5,102.6,83.3,102.8z M83.7,104.3
		c-0.1,0.1-0.1,0.2-0.2,0.2c-0.1-0.1-0.2-0.2-0.3-0.2c0.1-0.1,0.1-0.2,0.2-0.3C83.5,104.1,83.6,104.2,83.7,104.3z M83.5,100.9
		c-0.1-0.1-0.2-0.1-0.3-0.2c0.1-0.1,0.2-0.3,0.3-0.4c0.1,0,0.1,0,0.2,0c0,0,0.1,0.1,0.1,0.1C83.7,100.6,83.6,100.8,83.5,100.9z
		 M82.6,102.1c-0.1-0.1-0.2-0.2-0.2-0.2c0.1-0.2,0.2-0.3,0.4-0.5c0.1,0.1,0.2,0.1,0.3,0.2C82.8,101.8,82.7,102,82.6,102.1z
		 M82.8,103.5c-0.1,0.1-0.2,0.2-0.3,0.3c0,0,0,0-0.1,0c0,0,0,0-0.1,0c0.1-0.1,0.2-0.2,0.3-0.3C82.7,103.4,82.8,103.5,82.8,103.5z
		 M82.7,105c0.1,0.1,0.2,0.2,0.3,0.2c0,0-0.1,0.1-0.1,0.1c-0.2,0-0.3,0-0.5,0C82.5,105.2,82.6,105.1,82.7,105z M81.8,103.2
		c-0.1-0.1-0.2-0.1-0.2-0.2c0.1-0.1,0.2-0.3,0.3-0.4c0.1,0.1,0.2,0.2,0.2,0.2C82,102.9,81.9,103.1,81.8,103.2z M82,104.5
		c-0.2,0.3-0.4,0.5-0.6,0.8c0,0,0,0,0,0.1c0-0.1,0-0.2,0-0.3C81.6,104.9,81.8,104.6,82,104.5C82,104.4,82,104.5,82,104.5z
		 M81.7,101.2C81.7,101.2,81.7,101.2,81.7,101.2C81.7,101.2,81.7,101.2,81.7,101.2C81.7,101.2,81.6,101.2,81.7,101.2
		C81.6,101.2,81.6,101.2,81.7,101.2C81.6,101.2,81.6,101.1,81.7,101.2c-0.1-0.3-0.1-0.5,0-0.8c0.1,0.1,0.3,0.3,0.4,0.4
		C82,101,81.9,101.1,81.7,101.2C81.7,101.3,81.7,101.2,81.7,101.2C81.7,101.2,81.7,101.2,81.7,101.2z"/>
</g>
</svg>
