<?xml version="1.0" encoding="utf-8"?>
<!-- Generator: Adobe Illustrator 25.0.1, SVG Export Plug-In . SVG Version: 6.00 Build 0)  -->
<svg version="1.1" id="Layer_1" xmlns="http://www.w3.org/2000/svg" xmlns:xlink="http://www.w3.org/1999/xlink" x="0px" y="0px"
	 viewBox="0 0 200 200" style="enable-background:new 0 0 200 200;" xml:space="preserve">
<style type="text/css">
	.st0{fill:#5ABE26;}
</style>
<g>
	<g>
		<g>
			<g>
				<path class="st0" d="M29.9,58c7.4-8.9,13.9-18.7,20.9-27.9c7-9.3,14-18.6,21-27.8c0.7-0.9-0.8-2-1.5-1c-7,9.3-14,18.5-20.9,27.9
					c-6.8,9.3-14.3,18.5-20.3,28.3C28.8,58,29.5,58.5,29.9,58L29.9,58z"/>
			</g>
			<g>
				<path class="st0" d="M29,58.3C34.6,66,41.3,73,47.4,80.3c6.2,7.3,12,15.1,19,21.7c0.7,0.7,1.9-0.3,1.2-1
					C54.4,87.1,43.2,71.3,29.9,57.5C29.4,56.9,28.5,57.7,29,58.3L29,58.3z"/>
			</g>
			<g>
				<path class="st0" d="M67.5,101.9c3.1-1.7,5.9-4.2,8.7-6.4c3.3-2.5,6.6-5,9.7-7.8c0.7-0.6-0.2-1.6-0.9-1.1
					c-3.1,2.5-6.1,5-9.3,7.5c-2.9,2.3-6.2,4.4-8.7,7.1C66.7,101.5,67,102.1,67.5,101.9L67.5,101.9z"/>
			</g>
			<g>
				<path class="st0" d="M70,61.4c4.4,8.9,10.2,17.2,15.3,25.7c0.5,0.8,1.8,0.2,1.3-0.6c-5.2-8.5-10-17.5-15.8-25.6
					C70.5,60.5,69.8,60.9,70,61.4L70,61.4z"/>
			</g>
			<g>
				<path class="st0" d="M71.2,61.4c3.3-3.9,6.2-8.2,9.4-12.3c3.2-4.1,6.6-7.9,9.6-12.1c0.5-0.7-0.5-1.4-1.1-0.8
					c-3.5,3.8-6.5,8-9.6,12.1c-3.1,4.1-6.4,8.1-9.2,12.4C69.9,61.4,70.7,62,71.2,61.4L71.2,61.4z"/>
			</g>
			<g>
				<path class="st0" d="M89.8,37c1.7,0.7,3.7,0.8,5.5,1c2.9,0.4,5.8,0.9,8.7,1.2c1,0.1,1.1-1.4,0.1-1.6c-4.7-0.7-9.5-0.8-14.1-1.8
					C89.4,35.7,89.2,36.7,89.8,37L89.8,37z"/>
			</g>
			<g>
				<path class="st0" d="M101.6,48.8c1.1,0.7,2.9,0.8,4.1,1c1.4,0.3,3.1,0.8,4.5,0.7c0.8-0.1,0.8-1.2,0.1-1.5
					c-1.2-0.5-2.8-0.5-4.1-0.6c-1.4-0.2-2.8-0.4-4.3-0.6C101.4,47.7,101.1,48.5,101.6,48.8L101.6,48.8z"/>
			</g>
			<g>
				<path class="st0" d="M103.5,38.9c5.8,11.8,12.6,23.2,19.7,34.2c0.6,0.9,2.2,0.2,1.6-0.7c-7.2-11.1-13.3-22.7-20.1-34.1
					C104.3,37.5,103.1,38.1,103.5,38.9L103.5,38.9z"/>
			</g>
			<g>
				<path class="st0" d="M78.1,117c7.8-7.2,15.4-14.5,23.1-21.7c7.7-7.2,15.9-14,23.4-21.4c1-1-0.3-2.6-1.4-1.7
					c-8.1,6.8-15.6,14.3-23.3,21.6c-7.7,7.3-15.4,14.6-22.6,22.3C76.8,116.6,77.5,117.5,78.1,117L78.1,117z"/>
			</g>
			<g>
				<path class="st0" d="M102.8,125.8c19.6-18.7,38.4-38.2,57.4-57.5c1-1-0.4-2.7-1.4-1.7c-19.1,19.3-38.4,38.4-56.6,58.6
					C102,125.6,102.5,126.1,102.8,125.8L102.8,125.8z"/>
			</g>
			<g>
				<path class="st0" d="M82.4,158.2c0-6.8-0.8-13.5-1.4-20.3c-0.6-7-0.8-14.2-1.8-21.2c-0.2-1.3-1.9-0.9-1.9,0.3
					c0.3,6.9,1.3,13.8,1.9,20.6c0.6,6.8,1,13.8,2.2,20.6C81.6,158.7,82.4,158.7,82.4,158.2L82.4,158.2z"/>
			</g>
			<g>
				<path class="st0" d="M119.6,3.9c2.8,5.5,7,10.6,10.3,15.8c3.3,5.1,6.4,10.3,9.5,15.6c6.4,10.9,12.5,22.2,19.7,32.6
					c0.5,0.7,1.7-0.1,1.3-0.8c-2.8-6-6.6-11.5-10.1-17.2c-3.3-5.5-6.5-10.9-9.8-16.4c-3.1-5.2-6.2-10.4-9.5-15.5
					c-3.2-4.9-6.2-10.5-10.2-14.8C120.3,2.5,119.2,3.1,119.6,3.9L119.6,3.9z"/>
			</g>
			<g>
				<path class="st0" d="M71.2,2.2c2.1,0.8,4.7,0.5,6.9,0.6c5.1,0.2,10.2,0.4,15.2,0.6c5.4,0.2,10.8,0.4,16.2,0.6
					c3.5,0.1,7.2,0.7,10.8,0.4c1-0.1,0.8-1.5-0.1-1.6c-3.4-0.7-7.1-0.4-10.5-0.6c-5.5-0.2-11-0.4-16.5-0.6c-5-0.2-9.9-0.4-14.9-0.5
					c-2.3-0.1-4.7-0.3-7,0C70.7,1.1,70.6,2,71.2,2.2L71.2,2.2z"/>
			</g>
			<g>
				<path class="st0" d="M98.7,151.1c1-4,1.3-8.1,2.1-12.1c0.8-4.4,1.5-8.7,2.4-13.1c0.2-0.8-1.1-0.9-1.3-0.1
					c-1.8,8.1-4.3,16.6-4.8,25C97.1,151.6,98.5,152,98.7,151.1L98.7,151.1z"/>
			</g>
			<g>
				<path class="st0" d="M82.1,158.9c5.7-1.6,11.1-4.5,16.2-7.3c1-0.6,0.2-2.2-0.8-1.6c-5.1,2.9-10.6,5.2-15.7,8.1
					C81.4,158.2,81.6,159,82.1,158.9L82.1,158.9z"/>
			</g>
			<g>
				<path class="st0" d="M83,171.2c3.1-1.5,6.3-2.9,9.4-4.4c2.5-1.2,5.5-2.2,7.7-4c0.8-0.7,0-1.8-0.9-1.4c-2.8,1-5.4,2.8-8,4.1
					c-2.9,1.5-5.8,3-8.6,4.8C81.9,170.5,82.3,171.5,83,171.2L83,171.2z"/>
			</g>
			<g>
				<path class="st0" d="M81.9,171.1c-0.1,4,1.3,8.2,2.1,12.1c0.8,4.1,1.7,8.2,2.7,12.3c0.2,0.7,1.1,0.5,1.1-0.2
					c-0.4-4.1-1.2-8.3-2-12.4c-0.8-3.9-1.1-8.3-2.7-12C82.8,170.4,81.9,170.5,81.9,171.1L81.9,171.1z"/>
			</g>
			<g>
				<path class="st0" d="M99.3,162.1c-0.9,1.9-0.6,4.2-0.7,6.3c-0.1,2.5-0.1,5.1-0.2,7.6c-0.1,4.6-0.3,9.2-0.2,13.8
					c0,0.7,1.1,0.9,1.1,0.1c0.3-4.8,0.5-9.5,0.7-14.3c0.1-2.5,0.2-5.1,0.3-7.6c0.1-2,0.5-4.1-0.3-6C100,161.7,99.4,161.8,99.3,162.1
					L99.3,162.1z"/>
			</g>
			<g>
				<path class="st0" d="M87.7,196.1c3.9-1.5,7.6-3.7,11.2-5.8c1.2-0.7,0.1-2.4-1-1.6c-3.5,2.3-7.1,4.2-10.6,6.4
					C86.7,195.5,87,196.4,87.7,196.1L87.7,196.1z"/>
			</g>
			<g>
				<path class="st0" d="M81.5,158.8c1.7,1.7,4,2.7,6,4c0.7,0.4,1.4-0.6,0.7-1.1c-2-1.3-4.1-2.9-6.3-3.6
					C81.6,158.1,81.2,158.5,81.5,158.8L81.5,158.8z"/>
			</g>
			<g>
				<path class="st0" d="M97.2,151c1,1.3,2.5,2.2,3.8,3.2c1.1,0.9,2.3,2.4,3.7,2.7c0.4,0.1,0.6-0.4,0.5-0.7
					c-0.5-1.3-2.3-2.2-3.4-3.1c-1.3-1-2.6-2.2-4-2.9C97.3,150,96.9,150.7,97.2,151L97.2,151z"/>
			</g>
			<g>
				<path class="st0" d="M99.7,162.1c1.1,1.3,2.7,2.3,4.1,3.4c1.2,0.9,2.5,2.5,3.9,2.8c0.4,0.1,0.6-0.4,0.5-0.7
					c-0.5-1.4-2.5-2.3-3.7-3.2c-1.4-1-2.7-2.3-4.3-3C99.7,161,99.3,161.7,99.7,162.1L99.7,162.1z"/>
			</g>
			<g>
				<path class="st0" d="M98.5,189.5c0,0.8,1,1.4,1.6,1.9c0.7,0.6,1.5,1.1,2.2,1.7c0.8,0.6,1.7-0.7,0.9-1.3
					c-0.7-0.5-1.5-0.9-2.2-1.4c-0.5-0.4-1.3-1.2-2-1.3C98.8,189.1,98.5,189.3,98.5,189.5L98.5,189.5z"/>
			</g>
			<g>
				<path class="st0" d="M87.1,195.8c0,0.7,0.8,1.3,1.3,1.7c0.6,0.5,1.2,1,1.8,1.5c0.8,0.6,1.7-0.7,0.9-1.3
					c-0.6-0.4-1.2-0.8-1.8-1.2c-0.5-0.4-1.1-1.1-1.7-1.1C87.4,195.3,87.1,195.5,87.1,195.8L87.1,195.8z"/>
			</g>
			<g>
				<path class="st0" d="M102.4,125.8c1.2,1.4,2.9,2.5,4.3,3.7c1.1,0.9,2.7,3,4.2,3.1c0.3,0,0.6-0.3,0.6-0.6
					c-0.4-1.5-2.6-2.6-3.7-3.5c-1.5-1.2-3-2.7-4.7-3.5C102.5,124.8,102.1,125.4,102.4,125.8L102.4,125.8z"/>
			</g>
			<g>
				<path class="st0" d="M85.3,86.9c1.2,1.4,2.9,2.5,4.3,3.7c1.1,0.9,2.7,3,4.2,3.1c0.3,0,0.7-0.3,0.6-0.6c-0.4-1.5-2.6-2.6-3.7-3.5
					c-1.5-1.2-3-2.7-4.7-3.5C85.4,85.9,85,86.5,85.3,86.9L85.3,86.9z"/>
			</g>
			<g>
				<path class="st0" d="M89.7,37.8c1.8,2.2,4.2,4,6.2,5.9c2,2,4,4,6.1,5.9c0.2,0.2,0.5,0.2,0.8,0.1c0.3-0.1,0.4-0.3,0.4-0.6
					c0.1-0.3-0.1-0.5-0.3-0.7c-2.4-2-4.6-4.2-6.8-6.4c-1.7-1.6-3.6-3.9-5.8-5C89.8,36.7,89.4,37.4,89.7,37.8L89.7,37.8z"/>
			</g>
			<g>
				<path class="st0" d="M71.1,62c2,2.4,4.9,4.3,7.2,6.3c1.4,1.2,2.7,2.4,4.1,3.6c0.6,0.5,1.6,1.9,2.5,1.6c0.2-0.1,0.4-0.2,0.4-0.5
					c0.1-0.9-1.1-1.6-1.7-2.1c-1.4-1.2-2.9-2.4-4.3-3.6c-2.4-2-4.9-4.8-7.7-6.2C71.2,60.9,70.8,61.6,71.1,62L71.1,62z"/>
			</g>
			<g>
				<path class="st0" d="M66.4,102c1.2,1.4,2.9,2.5,4.3,3.7c1.1,0.9,2.7,3,4.2,3.1c0.3,0,0.6-0.3,0.6-0.6c-0.4-1.5-2.6-2.6-3.7-3.5
					c-1.5-1.2-3-2.7-4.7-3.5C66.5,101,66.1,101.7,66.4,102L66.4,102z"/>
			</g>
			<g>
				<path class="st0" d="M159.4,67.5c1.5,1.9,4,3.2,5.9,4.7c1.1,0.8,2.1,1.6,3.2,2.5c0.7,0.6,1.3,1.3,2.2,1.3c0.3,0,0.5-0.3,0.4-0.6
					c-0.2-1.6-3.8-3.4-5-4.3c-1.9-1.4-4-3.3-6.2-4.3C159.5,66.5,159.1,67.2,159.4,67.5L159.4,67.5z"/>
			</g>
			<g>
				<path class="st0" d="M88.1,162.7c5.7-1.3,11.3-3.5,16.8-5.6c1-0.4,0.3-1.9-0.7-1.5c-5.4,2.1-11,3.9-16.3,6.2
					C87.4,162,87.6,162.8,88.1,162.7L88.1,162.7z"/>
			</g>
			<g>
				<path class="st0" d="M105.8,156.2c1-4.2,1.6-8.4,2.6-12.6c0.9-3.8,1.8-7.5,2.7-11.3c0.2-0.9-1.3-1.2-1.5-0.3
					c-1.8,7.8-4.5,15.8-5.5,23.8C103.8,156.9,105.5,157.3,105.8,156.2L105.8,156.2z"/>
			</g>
			<g>
				<path class="st0" d="M91,199c2-0.3,4-1.4,5.9-2.2c2.1-0.9,4.2-1.9,6.3-3c0.8-0.4,0.2-1.7-0.6-1.3c-2.1,1-4.2,1.9-6.3,2.9
					c-1.9,0.8-3.9,1.5-5.6,2.7C90.1,198.4,90.5,199,91,199L91,199z"/>
			</g>
			<g>
				<path class="st0" d="M103.5,192.7c2.4-8,3.6-16.5,5-24.7c0.2-1.1-1.7-1.1-1.6,0.1c0,0.1,0,0.3,0.1,0.4c0.1,0.4,0.7,0.7,1,0.4
					c0.1-0.1,0.2-0.2,0.3-0.3c-0.4-0.2-0.9-0.5-1.3-0.7c-1.4,8.2-3.2,16.4-4.4,24.6C102.4,193.1,103.4,193.3,103.5,192.7
					L103.5,192.7z"/>
			</g>
			<g>
				<path class="st0" d="M110.6,133.2c5.2-4.4,9.8-9.8,14.7-14.6c4.9-4.8,9.8-9.7,14.8-14.4c10-9.5,19.9-19.1,30.4-28.1
					c0.8-0.7-0.3-2-1.1-1.3c-10.3,9.5-20.8,18.8-30.9,28.4c-5,4.7-10,9.5-14.9,14.3c-4.8,4.7-10,9.2-14.3,14.4
					C108.6,132.8,109.8,133.9,110.6,133.2L110.6,133.2z"/>
			</g>
			<g>
				<path class="st0" d="M136.1,14.4c8.7,18,19.1,35.3,29.2,52.6c1.6,2.7,3,5.5,4.8,8.1c0.3,0.4,0.9,0,0.7-0.5
					c-9.9-17.2-19-34.9-28.8-52.2c-1.6-2.8-3.6-5.5-5.1-8.4C136.6,13.5,135.9,13.9,136.1,14.4L136.1,14.4z"/>
			</g>
			<g>
				<path class="st0" d="M74.6,108.8c3.5-1.7,6.5-4.6,9.4-7.1c3.2-2.8,6.4-5.6,9.8-8c0.8-0.6-0.2-1.7-1-1.2c-3.3,2.3-6.4,5-9.4,7.7
					c-3.1,2.7-6.4,5-9.5,7.6C73.4,108.2,74,109.1,74.6,108.8L74.6,108.8z"/>
			</g>
			<g>
				<path class="st0" d="M84,72.7c0.5,3.3,2.6,6.6,4,9.6c1.6,3.5,3.2,6.9,4.8,10.4c0.4,0.8,1.7,0.2,1.3-0.6c-1.6-3.5-3.1-7-4.7-10.4
					c-1.4-3-2.5-6.7-4.7-9.2C84.5,72.1,84,72.3,84,72.7L84,72.7z"/>
			</g>
			<g>
				<path class="st0" d="M84.8,73c6.6-7.5,12.6-15.9,18.5-23.9c0.6-0.7-0.6-1.5-1.2-0.8C96,56.1,89.5,64.1,84,72.4
					C83.7,72.9,84.4,73.4,84.8,73L84.8,73z"/>
			</g>
			<g>
				<path class="st0" d="M119.8,3.3c1,2.3,5.2,4.1,7.1,5.4c3,2,6.2,3.8,9.3,5.8c0.4,0.2,0.8-0.3,0.4-0.6c-2.9-2.2-5.8-4.5-8.8-6.5
					c-2-1.4-5.1-4.4-7.6-4.7C119.9,2.7,119.7,3,119.8,3.3L119.8,3.3z"/>
			</g>
			<g>
				<path class="st0" d="M122.8,5.6c2.3,2,4.9,3.7,7.4,5.4c1.9,1.3,3.8,2.8,5.8,3.9c0.7,0.4,1.1-0.7,0.6-1.2c-1.9-1.7-4.2-3-6.3-4.4
					c-2.3-1.5-4.6-3.2-7.1-4.5C122.7,4.5,122.4,5.3,122.8,5.6L122.8,5.6z"/>
			</g>
			<g>
				<path class="st0" d="M135.6,14.5c0.4,0.6,0.8,1.2,1.2,1.8c0.4,0.6,0.8,1.2,1.3,1.6c0.2,0.2,0.7-0.1,0.6-0.4
					c-0.2-0.6-0.6-1.2-1-1.7c-0.4-0.6-0.9-1.2-1.3-1.8C136.1,13.6,135.3,14.1,135.6,14.5L135.6,14.5z"/>
			</g>
		</g>
		<g>
			<g>
				<path class="st0" d="M103.3,190.5c-1.2-1-2.6-2-3.9-2.8c-0.3-0.2-0.6,0.2-0.3,0.4c1.2,1,2.6,2,4,2.8
					C103.3,191.1,103.6,190.7,103.3,190.5L103.3,190.5z"/>
			</g>
			<g>
				<path class="st0" d="M103.6,189.3c-0.6-0.6-1.4-1.1-2.1-1.6c-0.7-0.5-1.4-1.1-2.2-1.4c-0.2-0.1-0.4,0.2-0.3,0.4
					c0.6,0.6,1.4,1,2.2,1.5c0.7,0.5,1.4,1,2.2,1.4C103.5,189.7,103.7,189.4,103.6,189.3L103.6,189.3z"/>
			</g>
			<g>
				<path class="st0" d="M103.5,187.9c-1.4-1.1-3-2.5-4.6-3.3c-0.2-0.1-0.4,0.2-0.2,0.3c1.3,1.3,3.1,2.3,4.6,3.3
					C103.5,188.4,103.7,188.1,103.5,187.9L103.5,187.9z"/>
			</g>
			<g>
				<path class="st0" d="M104.2,187c-0.8-0.6-1.6-1.2-2.4-1.8c-0.8-0.6-1.6-1.2-2.5-1.7c-0.2-0.1-0.5,0.1-0.3,0.3
					c0.7,0.6,1.5,1.2,2.3,1.7c0.9,0.6,1.7,1.3,2.6,1.9C104.1,187.5,104.4,187.2,104.2,187L104.2,187z"/>
			</g>
			<g>
				<path class="st0" d="M104,185.4c-0.2-0.2-0.4-0.3-0.7-0.5c-0.2-0.2-0.4-0.4-0.6-0.4c-0.1,0-0.3,0.1-0.3,0.2
					c0.1,0.3,0.3,0.5,0.5,0.6c0.3,0.2,0.5,0.4,0.8,0.5C104.1,185.9,104.2,185.6,104,185.4L104,185.4z"/>
			</g>
			<g>
				<path class="st0" d="M102.2,184c-0.5-0.4-1-0.7-1.5-1.1c-0.4-0.3-0.8-0.8-1.4-1.1c-0.2-0.1-0.3,0.1-0.2,0.3
					c0.3,0.5,0.8,0.8,1.2,1.2c0.5,0.4,1.1,0.8,1.6,1.1C102.2,184.5,102.4,184.2,102.2,184L102.2,184z"/>
			</g>
			<g>
				<path class="st0" d="M104.3,184.1c-1.7-1.5-3.5-3-5.4-4.1c-0.3-0.1-0.5,0.2-0.3,0.4c1.7,1.5,3.6,2.7,5.4,4.1
					C104.3,184.5,104.5,184.2,104.3,184.1L104.3,184.1z"/>
			</g>
			<g>
				<path class="st0" d="M104.4,182.6c-0.6-0.6-1.4-1.2-2.1-1.8c-0.3-0.2-0.6,0.2-0.3,0.5c0.6,0.6,1.3,1.2,2,1.7
					C104.3,183.1,104.6,182.8,104.4,182.6L104.4,182.6z"/>
			</g>
			<g>
				<path class="st0" d="M101.3,180.2c-0.6-0.6-1.3-1.3-2-1.6c-0.2-0.1-0.3,0.2-0.2,0.3c0.3,0.3,0.6,0.4,0.9,0.7
					c0.3,0.3,0.6,0.5,0.9,0.8C101.2,180.7,101.5,180.4,101.3,180.2L101.3,180.2z"/>
			</g>
			<g>
				<path class="st0" d="M104.8,181.5c-1.6-1.4-3.5-2.9-5.4-3.9c-0.2-0.1-0.3,0.2-0.2,0.3c1.7,1.4,3.6,2.6,5.4,3.8
					C104.8,181.9,105,181.6,104.8,181.5L104.8,181.5z"/>
			</g>
			<g>
				<path class="st0" d="M105.1,180.2c-0.3-0.4-0.7-0.7-1.1-0.8c-0.2-0.1-0.3,0.2-0.2,0.3c0.3,0.4,0.7,0.7,1.1,0.9
					C105,180.7,105.2,180.4,105.1,180.2L105.1,180.2z"/>
			</g>
			<g>
				<path class="st0" d="M103.3,178.9c-1.3-1-2.7-2-4.1-2.9c-0.2-0.1-0.4,0.2-0.2,0.3c1.3,1,2.7,2,4.1,2.9
					C103.3,179.4,103.5,179.1,103.3,178.9L103.3,178.9z"/>
			</g>
			<g>
				<path class="st0" d="M105.3,178.6c-1.9-1.3-3.8-2.6-5.8-3.8c-0.2-0.1-0.4,0.1-0.2,0.3c1.9,1.3,3.9,2.6,5.8,3.9
					C105.3,179.1,105.6,178.8,105.3,178.6L105.3,178.6z"/>
			</g>
			<g>
				<path class="st0" d="M105.6,177.6c-1-0.8-2.2-1.5-3.2-2.2c-1-0.7-1.9-1.4-3-1.9c-0.2-0.1-0.3,0.2-0.2,0.3c0.9,0.8,2,1.4,3,2.1
					c1,0.7,2,1.4,3.1,2C105.6,178,105.8,177.7,105.6,177.6L105.6,177.6z"/>
			</g>
			<g>
				<path class="st0" d="M106,176.6c-0.5-0.5-1.2-1-1.9-1.4c-0.7-0.5-1.4-1-2.1-1.5c-0.3-0.2-0.5,0.2-0.3,0.4c0.6,0.6,1.4,1,2.1,1.5
					c0.6,0.4,1.2,1,1.9,1.3C105.9,177,106.1,176.7,106,176.6L106,176.6z"/>
			</g>
			<g>
				<path class="st0" d="M101.3,173.3c-0.3-0.2-0.5-0.4-0.8-0.6c-0.2-0.2-0.5-0.4-0.8-0.5c-0.2-0.1-0.3,0.2-0.2,0.3
					c0.2,0.2,0.5,0.4,0.7,0.6c0.3,0.2,0.5,0.4,0.8,0.6C101.3,173.9,101.5,173.5,101.3,173.3L101.3,173.3z"/>
			</g>
			<g>
				<path class="st0" d="M106.1,175.1c-2-1.7-4.3-3.4-6.6-4.6c-0.2-0.1-0.4,0.2-0.2,0.4c2.1,1.6,4.4,3,6.6,4.5
					C106.1,175.6,106.3,175.3,106.1,175.1L106.1,175.1z"/>
			</g>
			<g>
				<path class="st0" d="M106.1,173.7c-2.1-1.6-4.2-3.2-6.5-4.5c-0.2-0.1-0.5,0.2-0.2,0.3c2.1,1.6,4.4,3,6.5,4.5
					C106.1,174.2,106.3,173.9,106.1,173.7L106.1,173.7z"/>
			</g>
			<g>
				<path class="st0" d="M106.5,172.5c-0.3-0.4-0.8-0.8-1.3-1c-0.2,0-0.3,0.1-0.2,0.3c0.3,0.4,0.8,0.6,1.2,0.9
					C106.3,172.9,106.7,172.7,106.5,172.5L106.5,172.5z"/>
			</g>
			<g>
				<path class="st0" d="M104.6,171.2c-1.6-1.2-3.2-2.6-4.9-3.5c-0.2-0.1-0.3,0.2-0.2,0.3c1.5,1.3,3.3,2.3,4.9,3.4
					C104.6,171.6,104.8,171.3,104.6,171.2L104.6,171.2z"/>
			</g>
			<g>
				<path class="st0" d="M106.7,171c-2.3-1.6-4.6-3.3-7.1-4.6c-0.2-0.1-0.5,0.2-0.2,0.4c2.2,1.7,4.7,3.1,7.1,4.6
					C106.7,171.4,106.9,171.1,106.7,171L106.7,171z"/>
			</g>
			<g>
				<path class="st0" d="M107,169.8c-2.2-1.6-4.4-3.3-6.8-4.5c-0.2-0.1-0.3,0.2-0.2,0.3c2,1.7,4.5,3.2,6.8,4.5
					C107,170.2,107.3,169.9,107,169.8L107,169.8z"/>
			</g>
			<g>
				<path class="st0" d="M107.3,168.8c-2.6-2-5.2-4.1-8-5.9c-0.2-0.2-0.5,0.2-0.3,0.4c2.6,2,5.4,3.9,8,5.8
					C107.3,169.3,107.5,169,107.3,168.8L107.3,168.8z"/>
			</g>
			<g>
				<path class="st0" d="M92.2,197.5c-1-0.8-2.3-1.7-3.5-2.2c-0.2-0.1-0.4,0.2-0.2,0.4c1.1,0.8,2.3,1.5,3.5,2.2
					C92.2,197.9,92.4,197.6,92.2,197.5L92.2,197.5z"/>
			</g>
			<g>
				<path class="st0" d="M93,197c-1-0.9-2.2-1.8-3.5-2.3c-0.2-0.1-0.4,0.2-0.2,0.3c1.1,0.8,2.3,1.4,3.4,2.3
					C93,197.6,93.2,197.2,93,197L93,197z"/>
			</g>
			<g>
				<path class="st0" d="M93.9,196.5c-0.3-0.3-0.6-0.6-1.1-0.7c-0.2,0-0.3,0.2-0.1,0.3c0.3,0.2,0.6,0.3,0.8,0.6
					C93.7,197,94.1,196.8,93.9,196.5L93.9,196.5z"/>
			</g>
			<g>
				<path class="st0" d="M92.4,195.5c-0.4-0.3-0.8-0.6-1.2-0.9c-0.3-0.2-0.7-0.5-1.1-0.6c-0.2,0-0.3,0.2-0.2,0.3
					c0.2,0.3,0.7,0.5,1,0.7c0.4,0.2,0.8,0.5,1.2,0.7C92.4,196,92.6,195.7,92.4,195.5L92.4,195.5z"/>
			</g>
			<g>
				<path class="st0" d="M95,196c-1-0.7-2.1-1.5-3.2-2c-0.2-0.1-0.3,0.2-0.2,0.3c0.9,0.8,2.1,1.4,3.1,2C95,196.5,95.3,196.2,95,196
					L95,196z"/>
			</g>
			<g>
				<path class="st0" d="M96.2,195.7c-1.3-0.9-2.7-1.9-4.1-2.5c-0.2-0.1-0.4,0.2-0.2,0.3c1.3,0.9,2.7,1.6,4,2.5
					C96.1,196.2,96.4,195.8,96.2,195.7L96.2,195.7z"/>
			</g>
			<g>
				<path class="st0" d="M96.9,195c-0.4-0.2-0.8-0.5-1.2-0.7c-0.4-0.2-0.7-0.5-1.1-0.6c-0.2-0.1-0.3,0.2-0.2,0.3
					c0.3,0.3,0.7,0.5,1.1,0.7c0.4,0.2,0.7,0.4,1.1,0.7C96.9,195.5,97.2,195.1,96.9,195L96.9,195z"/>
			</g>
			<g>
				<path class="st0" d="M94.1,193.2c-0.1-0.2-0.3-0.3-0.5-0.3c-0.2,0-0.3,0.2-0.2,0.4c0.2,0.2,0.3,0.2,0.6,0.3
					C94.1,193.6,94.2,193.4,94.1,193.2L94.1,193.2z"/>
			</g>
			<g>
				<path class="st0" d="M98.2,194.7c-0.6-0.4-1.3-0.8-2-1.2c-0.6-0.4-1.2-0.8-1.8-1c-0.2-0.1-0.4,0.2-0.2,0.3
					c0.5,0.5,1.2,0.8,1.9,1.2c0.6,0.4,1.3,0.8,1.9,1.1C98.2,195.2,98.4,194.8,98.2,194.7L98.2,194.7z"/>
			</g>
			<g>
				<path class="st0" d="M99.4,194.3c-1.5-0.9-2.9-1.9-4.5-2.6c-0.2-0.1-0.3,0.2-0.2,0.3c1.3,1,3,1.8,4.5,2.6
					C99.4,194.7,99.6,194.4,99.4,194.3L99.4,194.3z"/>
			</g>
			<g>
				<path class="st0" d="M100.2,193.6c-0.4-0.3-0.8-0.6-1.3-0.7c-0.2-0.1-0.4,0.2-0.2,0.3c0.3,0.3,0.8,0.5,1.2,0.8
					C100.2,194.1,100.4,193.8,100.2,193.6L100.2,193.6z"/>
			</g>
			<g>
				<path class="st0" d="M98.4,192.6c-0.8-0.5-1.6-1.1-2.5-1.5c-0.2-0.1-0.3,0.2-0.2,0.3c0.7,0.6,1.7,1,2.5,1.4
					C98.4,192.9,98.6,192.7,98.4,192.6L98.4,192.6z"/>
			</g>
			<g>
				<path class="st0" d="M101.6,193.2c-0.7-0.6-1.5-1-2.2-1.6c-0.7-0.5-1.5-1.1-2.3-1.5c-0.2-0.1-0.4,0.2-0.2,0.3
					c1.3,1.2,3,2.2,4.5,3.1C101.6,193.7,101.8,193.4,101.6,193.2L101.6,193.2z"/>
			</g>
			<g>
				<path class="st0" d="M89.4,161.3c-1.7-1.4-3.7-2.5-5.7-3.5c-0.3-0.2-0.7,0.3-0.3,0.5c1.9,1.1,3.8,2.3,5.8,3.4
					C89.4,161.8,89.6,161.4,89.4,161.3L89.4,161.3z"/>
			</g>
			<g>
				<path class="st0" d="M90.7,160.8c-0.4-0.3-0.8-0.7-1.3-0.8c-0.2,0-0.3,0.2-0.2,0.4c0.3,0.4,0.9,0.6,1.3,0.8
					C90.7,161.3,90.9,161,90.7,160.8L90.7,160.8z"/>
			</g>
			<g>
				<path class="st0" d="M88.8,159.6c-1.2-0.8-2.4-1.7-3.6-2.5c-0.3-0.2-0.6,0.2-0.3,0.4c1.1,1,2.4,1.7,3.7,2.4
					C88.8,160.1,89,159.8,88.8,159.6L88.8,159.6z"/>
			</g>
			<g>
				<path class="st0" d="M91.9,160.5c-1-0.8-2.1-1.5-3.1-2.2c-0.9-0.6-1.9-1.3-3-1.7c-0.2-0.1-0.4,0.2-0.2,0.4c0.9,0.7,2,1.2,3,1.9
					c1,0.6,2,1.3,3,2C91.9,161,92.1,160.7,91.9,160.5L91.9,160.5z"/>
			</g>
			<g>
				<path class="st0" d="M93,160c-0.4-0.3-0.9-0.6-1.3-0.9c-0.4-0.3-0.8-0.6-1.2-0.8c-0.2-0.1-0.4,0.2-0.2,0.3
					c0.4,0.3,0.8,0.6,1.2,0.8c0.5,0.3,0.9,0.6,1.4,0.9C93,160.5,93.2,160.2,93,160L93,160z"/>
			</g>
			<g>
				<path class="st0" d="M89.2,157.4c-0.4-0.3-0.8-0.6-1.2-0.9c-0.4-0.2-0.8-0.5-1.2-0.5c-0.2,0-0.3,0.2-0.2,0.3
					c0.3,0.3,0.8,0.5,1.1,0.7c0.4,0.2,0.8,0.5,1.2,0.8C89.2,157.9,89.4,157.6,89.2,157.4L89.2,157.4z"/>
			</g>
			<g>
				<path class="st0" d="M94.4,159.6c-1.8-1.4-3.7-3-5.7-4c-0.2-0.1-0.4,0.2-0.2,0.3c1.7,1.6,3.9,2.8,5.8,4
					C94.4,160,94.6,159.7,94.4,159.6L94.4,159.6z"/>
			</g>
			<g>
				<path class="st0" d="M95.6,159.1c-1.8-1.4-3.7-3.1-5.8-4c-0.2-0.1-0.4,0.2-0.2,0.3c0.9,0.7,2,1.3,2.9,1.9c1,0.7,1.9,1.4,2.8,2.1
					C95.6,159.6,95.8,159.3,95.6,159.1L95.6,159.1z"/>
			</g>
			<g>
				<path class="st0" d="M96.6,158.4c-0.3-0.2-0.6-0.6-0.9-0.6c-0.2,0-0.3,0.2-0.2,0.3c0.1,0.3,0.6,0.5,0.8,0.7
					C96.5,159,96.9,158.6,96.6,158.4L96.6,158.4z"/>
			</g>
			<g>
				<path class="st0" d="M95,157.3c-0.6-0.5-1.3-1-1.9-1.6c-0.6-0.5-1.3-1.1-2-1.5c-0.2-0.1-0.5,0.1-0.3,0.3c0.5,0.6,1.2,1,1.9,1.5
					c0.7,0.5,1.4,1.1,2.1,1.6C95,157.8,95.2,157.5,95,157.3L95,157.3z"/>
			</g>
			<g>
				<path class="st0" d="M98,158.2c-0.5-0.3-1-0.7-1.4-1.1c-0.5-0.4-0.9-0.8-1.4-1.1c-0.2-0.1-0.4,0.1-0.3,0.3
					c0.3,0.5,0.9,0.8,1.3,1.2c0.5,0.4,1,0.7,1.6,1.1C98,158.7,98.3,158.4,98,158.2L98,158.2z"/>
			</g>
			<g>
				<path class="st0" d="M94.1,155.3c-0.4-0.3-0.8-0.6-1.2-0.9c-0.4-0.3-0.7-0.6-1.1-0.7c-0.2-0.1-0.4,0.2-0.2,0.3
					c0.3,0.3,0.7,0.5,1.1,0.8c0.4,0.3,0.8,0.5,1.2,0.8C94.1,155.7,94.3,155.4,94.1,155.3L94.1,155.3z"/>
			</g>
			<g>
				<path class="st0" d="M99.5,157.6c-1.9-1.5-3.8-3-5.7-4.6c-0.3-0.2-0.6,0.2-0.3,0.5c1.8,1.6,3.8,3.1,5.8,4.4
					C99.5,158,99.7,157.7,99.5,157.6L99.5,157.6z"/>
			</g>
			<g>
				<path class="st0" d="M100.9,157c-0.3-0.3-0.6-0.5-0.9-0.8c-0.3-0.2-0.6-0.5-0.9-0.7c-0.2-0.1-0.4,0.2-0.3,0.4
					c0.2,0.3,0.6,0.5,0.8,0.7c0.3,0.2,0.6,0.5,1,0.7C100.9,157.4,101.1,157.2,100.9,157L100.9,157z"/>
			</g>
			<g>
				<path class="st0" d="M98.5,155.1c-0.7-0.5-1.3-1-2-1.5c-0.6-0.4-1.2-1-1.8-1.3c-0.2-0.1-0.4,0.2-0.2,0.3
					c0.5,0.5,1.2,0.9,1.8,1.4c0.7,0.5,1.4,0.9,2.1,1.4C98.4,155.5,98.6,155.2,98.5,155.1L98.5,155.1z"/>
			</g>
			<g>
				<path class="st0" d="M102.5,156.7c-1.8-1.8-4-3.4-6.1-4.7c-0.3-0.2-0.6,0.2-0.3,0.4c2.1,1.5,4.1,3,6.2,4.6
					C102.4,157,102.6,156.8,102.5,156.7L102.5,156.7z"/>
			</g>
			<g>
				<path class="st0" d="M105,154.2c-2-1.9-4.2-3.6-6.6-4.9c-0.3-0.1-0.6,0.2-0.3,0.4c2.3,1.5,4.5,3.1,6.7,4.8
					C104.9,154.5,105.1,154.3,105,154.2L105,154.2z"/>
			</g>
			<g>
				<path class="st0" d="M105,152.5c-1.8-1.5-3.8-3.2-5.9-4.3c-0.2-0.1-0.4,0.2-0.2,0.3c1.8,1.6,3.9,2.9,5.9,4.3
					C105,153,105.2,152.6,105,152.5L105,152.5z"/>
			</g>
			<g>
				<path class="st0" d="M105.2,151.2c-0.4-0.3-0.8-0.7-1.3-0.9c-0.2-0.1-0.4,0.2-0.2,0.3c0.4,0.4,0.8,0.6,1.3,0.9
					C105.2,151.7,105.4,151.4,105.2,151.2L105.2,151.2z"/>
			</g>
			<g>
				<path class="st0" d="M103.1,149.7c-1.3-1-2.6-2.2-4-3c-0.2-0.1-0.5,0.1-0.3,0.3c1.2,1.1,2.7,2,4,3
					C103.1,150.2,103.3,149.9,103.1,149.7L103.1,149.7z"/>
			</g>
			<g>
				<path class="st0" d="M105.4,150.1c-1.9-1.7-4.2-3.7-6.6-4.8c-0.2-0.1-0.3,0.2-0.2,0.4c1,0.9,2.2,1.6,3.3,2.4
					c1.1,0.8,2.2,1.6,3.3,2.4C105.4,150.6,105.6,150.3,105.4,150.1L105.4,150.1z"/>
			</g>
			<g>
				<path class="st0" d="M106,148.9c-0.5-0.4-1-0.9-1.6-1.2c-0.2-0.1-0.4,0.2-0.2,0.3c0.4,0.5,1.1,0.9,1.6,1.2
					C106,149.4,106.2,149.1,106,148.9L106,148.9z"/>
			</g>
			<g>
				<path class="st0" d="M103.6,147.2c-1.6-1.1-3.2-2.5-5-3.4c-0.2-0.1-0.4,0.2-0.2,0.3c1.4,1.4,3.3,2.3,5,3.3
					C103.6,147.6,103.8,147.3,103.6,147.2L103.6,147.2z"/>
			</g>
			<g>
				<path class="st0" d="M106.1,147.3c-0.6-0.6-1.3-1-1.9-1.5c-0.6-0.5-1.2-1.1-1.9-1.5c-0.2-0.1-0.4,0.2-0.2,0.3
					c0.5,0.6,1.2,1,1.8,1.5c0.7,0.5,1.3,1.1,2,1.5C106,147.8,106.3,147.5,106.1,147.3L106.1,147.3z"/>
			</g>
			<g>
				<path class="st0" d="M101.4,143.7c-0.3-0.2-0.6-0.4-0.9-0.6c-0.3-0.2-0.5-0.6-0.8-0.7c-0.1-0.1-0.4,0-0.3,0.2
					c0.2,0.8,1.2,1.3,1.8,1.6C101.4,144.2,101.6,143.8,101.4,143.7L101.4,143.7z"/>
			</g>
			<g>
				<path class="st0" d="M106.6,145.9c-2.1-1.8-4.5-3.7-7-5c-0.3-0.1-0.5,0.2-0.3,0.4c2.1,1.8,4.6,3.5,7,5
					C106.6,146.4,106.8,146.1,106.6,145.9L106.6,145.9z"/>
			</g>
			<g>
				<path class="st0" d="M106.9,144.6c-0.2-0.2-0.5-0.4-0.7-0.5c-0.2-0.2-0.4-0.3-0.7-0.4c-0.2,0-0.3,0.2-0.2,0.3
					c0.2,0.2,0.4,0.4,0.6,0.5c0.3,0.2,0.5,0.3,0.8,0.5C106.9,145.1,107.2,144.8,106.9,144.6L106.9,144.6z"/>
			</g>
			<g>
				<path class="st0" d="M104.8,143.2c-1.5-1.3-3.1-2.5-4.8-3.6c-0.3-0.2-0.6,0.2-0.3,0.4c1.5,1.3,3.2,2.5,4.8,3.5
					C104.8,143.7,105,143.4,104.8,143.2L104.8,143.2z"/>
			</g>
			<g>
				<path class="st0" d="M107.1,143.2c-2.1-1.9-4.5-3.7-6.8-5.3c-0.3-0.2-0.6,0.2-0.3,0.4c2.2,1.8,4.5,3.7,6.9,5.2
					C107.1,143.7,107.3,143.3,107.1,143.2L107.1,143.2z"/>
			</g>
			<g>
				<path class="st0" d="M107.6,141.4c-0.6-0.5-1.1-0.9-1.7-1.3c-0.5-0.4-1-0.9-1.6-1.1c-0.2-0.1-0.4,0.2-0.2,0.3
					c0.4,0.5,1,0.8,1.5,1.2c0.6,0.4,1.2,0.8,1.8,1.2C107.6,142,107.8,141.6,107.6,141.4L107.6,141.4z"/>
			</g>
			<g>
				<path class="st0" d="M103.2,138.4c-0.5-0.4-1.1-0.8-1.6-1.2c-0.5-0.3-1-0.8-1.6-1c-0.2-0.1-0.4,0.2-0.2,0.3
					c0.4,0.5,1,0.8,1.5,1.1c0.6,0.4,1.1,0.7,1.7,1.1C103.2,138.9,103.4,138.6,103.2,138.4L103.2,138.4z"/>
			</g>
			<g>
				<path class="st0" d="M107.9,140.3c-1-0.9-2.2-1.7-3.3-2.4c-1.3-0.9-2.5-1.8-3.8-2.6c-0.3-0.2-0.6,0.2-0.3,0.5
					c1.2,0.9,2.5,1.8,3.8,2.7c1.1,0.8,2.2,1.7,3.4,2.3C107.8,140.7,108,140.4,107.9,140.3L107.9,140.3z"/>
			</g>
			<g>
				<path class="st0" d="M108.3,139c-0.2-0.3-0.5-0.5-0.8-0.7c-0.3-0.2-0.5-0.5-0.8-0.5c-0.2,0-0.3,0.1-0.2,0.3
					c0.1,0.3,0.5,0.5,0.7,0.7c0.3,0.2,0.6,0.4,0.9,0.6C108.2,139.4,108.4,139.1,108.3,139L108.3,139z"/>
			</g>
			<g>
				<path class="st0" d="M105.9,137.4c-1.5-1.2-3.1-2.5-4.8-3.6c-0.2-0.2-0.5,0.2-0.2,0.4c1.5,1.3,3.2,2.4,4.8,3.6
					C105.9,137.9,106.2,137.6,105.9,137.4L105.9,137.4z"/>
			</g>
			<g>
				<path class="st0" d="M108.7,137.6c-1.9-1.4-3.8-2.8-5.8-4.1c-0.3-0.2-0.6,0.2-0.3,0.4c1.9,1.4,3.9,2.7,5.8,4
					C108.7,138.1,108.9,137.7,108.7,137.6L108.7,137.6z"/>
			</g>
			<g>
				<path class="st0" d="M102.3,133.1c-0.3-0.2-0.6-0.6-1-0.7c-0.2,0-0.4,0.1-0.3,0.3c0.2,0.3,0.6,0.6,1,0.8
					C102.3,133.6,102.5,133.3,102.3,133.1L102.3,133.1z"/>
			</g>
			<g>
				<path class="st0" d="M109,135.9c-2.3-1.9-4.7-4.1-7.4-5.5c-0.2-0.1-0.4,0.2-0.2,0.4c2.3,2,5,3.6,7.4,5.4
					C108.9,136.5,109.2,136.1,109,135.9L109,135.9z"/>
			</g>
			<g>
				<path class="st0" d="M109.3,134.5c-0.3-0.3-0.5-0.5-0.8-0.8c-0.2-0.2-0.5-0.5-0.8-0.6c-0.2,0-0.3,0.2-0.2,0.3
					c0.1,0.3,0.4,0.5,0.7,0.7c0.3,0.2,0.6,0.4,0.9,0.7C109.2,135,109.4,134.7,109.3,134.5L109.3,134.5z"/>
			</g>
			<g>
				<path class="st0" d="M107.1,132.8c-1.7-1.3-3.4-2.6-5.2-3.8c-0.3-0.2-0.5,0.2-0.3,0.4c1.7,1.4,3.5,2.5,5.3,3.7
					C107.1,133.3,107.3,132.9,107.1,132.8L107.1,132.8z"/>
			</g>
			<g>
				<path class="st0" d="M109.8,132.9c-2.3-2.1-4.8-4.1-7.2-6c-0.3-0.2-0.6,0.2-0.3,0.5c2.3,2.1,4.8,4.1,7.3,5.9
					C109.7,133.3,109.9,133.1,109.8,132.9L109.8,132.9z"/>
			</g>
			<g>
				<path class="st0" d="M111.8,129.8c-2.4-2-5-3.7-7.6-5.6c-0.3-0.2-0.6,0.2-0.3,0.4c2.5,1.9,5,3.8,7.6,5.5
					C111.8,130.3,112,130,111.8,129.8L111.8,129.8z"/>
			</g>
			<g>
				<path class="st0" d="M112.4,128.9c-0.3-0.3-0.6-0.6-1-0.8c-0.2-0.1-0.4,0.1-0.3,0.3c0.2,0.4,0.6,0.6,1,0.8
					C112.3,129.3,112.6,129.1,112.4,128.9L112.4,128.9z"/>
			</g>
			<g>
				<path class="st0" d="M110.6,127.3c-1.7-1.4-3.4-2.8-5.2-4.1c-0.3-0.2-0.6,0.2-0.3,0.4c1.7,1.4,3.5,2.6,5.3,3.9
					C110.5,127.8,110.7,127.5,110.6,127.3L110.6,127.3z"/>
			</g>
			<g>
				<path class="st0" d="M113.3,128c-0.8-0.7-1.5-1.3-2.3-1.9c-0.7-0.6-1.3-1.2-2.1-1.6c-0.2-0.1-0.4,0.2-0.2,0.3
					c0.6,0.7,1.4,1.2,2.1,1.7c0.8,0.6,1.6,1.2,2.4,1.8C113.2,128.5,113.5,128.1,113.3,128L113.3,128z"/>
			</g>
			<g>
				<path class="st0" d="M107.7,123.7c-0.6-0.5-1.1-1.1-1.8-1.4c-0.2-0.1-0.5,0.1-0.3,0.3c0.5,0.6,1.3,1,1.9,1.4
					C107.7,124.2,107.9,123.9,107.7,123.7L107.7,123.7z"/>
			</g>
			<g>
				<path class="st0" d="M114.1,127.1c-2.3-2.1-4.7-4.5-7.4-6c-0.2-0.1-0.5,0.1-0.3,0.3c2.3,2.1,5,3.9,7.4,6
					C114,127.5,114.3,127.2,114.1,127.1L114.1,127.1z"/>
			</g>
			<g>
				<path class="st0" d="M115.3,126c-2.3-2-4.7-4.3-7.2-5.9c-0.2-0.1-0.5,0.1-0.3,0.4c2.1,2.2,4.9,4.1,7.3,5.9
					C115.3,126.5,115.5,126.2,115.3,126L115.3,126z"/>
			</g>
			<g>
				<path class="st0" d="M116.3,125.3c-0.5-0.5-1.1-1.2-1.7-1.6c-0.2-0.1-0.4,0.1-0.3,0.3c0.4,0.6,1.1,1.1,1.7,1.6
					C116.2,125.7,116.5,125.5,116.3,125.3L116.3,125.3z"/>
			</g>
			<g>
				<path class="st0" d="M113.2,122.4c-0.7-0.6-1.3-1.2-2-1.7c-0.7-0.5-1.3-1.2-2.1-1.6c-0.2-0.1-0.4,0.1-0.3,0.3
					c0.5,0.6,1.3,1.1,1.9,1.6c0.7,0.6,1.4,1.1,2.2,1.7C113.1,122.9,113.3,122.6,113.2,122.4L113.2,122.4z"/>
			</g>
			<g>
				<path class="st0" d="M117.3,124.1c-0.7-0.7-1.4-1.4-2.1-2c-0.7-0.6-1.4-1.3-2.3-1.7c-0.2-0.1-0.3,0.2-0.2,0.3
					c0.6,0.7,1.4,1.2,2.1,1.8c0.8,0.6,1.5,1.3,2.2,2C117.2,124.5,117.5,124.3,117.3,124.1L117.3,124.1z"/>
			</g>
			<g>
				<path class="st0" d="M111.6,119.2c-0.4-0.4-0.7-0.7-1.1-1.1c-0.2-0.2-0.5,0.2-0.3,0.3c0.4,0.4,0.8,0.7,1.2,1
					C111.5,119.7,111.8,119.4,111.6,119.2L111.6,119.2z"/>
			</g>
			<g>
				<path class="st0" d="M118.3,122.9c-2.2-1.9-4.5-4-6.9-5.7c-0.2-0.2-0.6,0.2-0.4,0.4c2.2,2,4.6,3.8,7,5.7
					C118.3,123.4,118.5,123.1,118.3,122.9L118.3,122.9z"/>
			</g>
			<g>
				<path class="st0" d="M119.1,121.8c-1.2-1-2.3-2.1-3.5-3.1c-1.2-1-2.3-2.2-3.6-3c-0.2-0.1-0.5,0.1-0.3,0.3c1,1.1,2.2,2,3.4,2.9
					c1.3,1.1,2.5,2.1,3.8,3.1C119,122.3,119.2,121.9,119.1,121.8L119.1,121.8z"/>
			</g>
			<g>
				<path class="st0" d="M120.4,121c-0.4-0.3-0.7-0.7-1.2-0.8c-0.2-0.1-0.3,0.2-0.2,0.3c0.3,0.4,0.7,0.6,1.1,0.9
					C120.3,121.5,120.6,121.2,120.4,121L120.4,121z"/>
			</g>
			<g>
				<path class="st0" d="M118.2,119.3c-0.7-0.7-1.5-1.5-2.3-2.2c-0.8-0.7-1.7-1.6-2.7-2.2c-0.2-0.1-0.5,0.1-0.3,0.3
					c0.6,0.7,1.5,1.3,2.2,1.9c0.9,0.8,1.8,1.5,2.7,2.3C118.1,119.8,118.4,119.5,118.2,119.3L118.2,119.3z"/>
			</g>
			<g>
				<path class="st0" d="M121.4,120.2c-0.6-0.5-1.2-1.1-1.8-1.6c-0.5-0.5-1.1-1.1-1.7-1.4c-0.2-0.1-0.3,0.2-0.2,0.3
					c0.4,0.6,1.1,1,1.7,1.5c0.6,0.5,1.3,1,1.9,1.5C121.4,120.7,121.6,120.4,121.4,120.2L121.4,120.2z"/>
			</g>
			<g>
				<path class="st0" d="M116.7,116.1c-0.4-0.4-0.9-0.8-1.3-1.2c-0.4-0.3-0.8-0.8-1.3-1c-0.2-0.1-0.3,0.2-0.2,0.3
					c0.3,0.4,0.8,0.7,1.2,1.1c0.5,0.4,0.9,0.7,1.4,1.1C116.7,116.5,116.9,116.2,116.7,116.1L116.7,116.1z"/>
			</g>
			<g>
				<path class="st0" d="M122.4,119.3c-2.1-2.2-4.5-4.2-6.9-6.1c-0.3-0.3-0.7,0.3-0.4,0.5c2.3,2,4.6,4.1,6.9,6
					C122.3,119.8,122.6,119.5,122.4,119.3L122.4,119.3z"/>
			</g>
			<g>
				<path class="st0" d="M123.2,118.4c-1.2-1.2-2.4-2.3-3.6-3.3c-1.2-1-2.5-2.3-3.9-3c-0.2-0.1-0.4,0.2-0.2,0.3
					c1,1.1,2.3,1.9,3.4,2.8c1.4,1.1,2.7,2.3,4,3.5C123.1,118.9,123.5,118.6,123.2,118.4L123.2,118.4z"/>
			</g>
			<g>
				<path class="st0" d="M124.1,117.2c-0.3-0.3-0.7-0.8-1.2-1c-0.2-0.1-0.3,0.1-0.3,0.3c0.2,0.4,0.7,0.8,1.1,1.1
					C123.9,117.8,124.3,117.5,124.1,117.2L124.1,117.2z"/>
			</g>
			<g>
				<path class="st0" d="M122.1,115.5c-1.5-1.4-3-3-4.7-4.3c-0.2-0.2-0.5,0.2-0.3,0.3c1.5,1.5,3.2,2.8,4.7,4.2
					C122,115.9,122.2,115.6,122.1,115.5L122.1,115.5z"/>
			</g>
			<g>
				<path class="st0" d="M125.3,116.6c-2.1-2.2-4.3-4.4-6.8-6.2c-0.2-0.2-0.5,0.2-0.3,0.4c2.3,2.1,4.6,3.9,6.9,6.1
					C125.2,117,125.5,116.8,125.3,116.6L125.3,116.6z"/>
			</g>
			<g>
				<path class="st0" d="M125.8,115.3c-0.3-0.3-0.6-0.6-0.9-0.9c-0.3-0.3-0.5-0.6-0.9-0.8c-0.2-0.1-0.4,0.1-0.3,0.3
					c0.3,0.7,1.1,1.4,1.8,1.8C125.7,115.8,126,115.5,125.8,115.3L125.8,115.3z"/>
			</g>
			<g>
				<path class="st0" d="M122.1,112c-0.7-0.5-1.3-1.1-2-1.7c-0.5-0.5-1-1.1-1.6-1.5c-0.2-0.1-0.4,0.1-0.3,0.3
					c0.4,0.7,1.1,1.3,1.7,1.8c0.6,0.6,1.2,1.1,1.9,1.5C122,112.6,122.3,112.2,122.1,112L122.1,112z"/>
			</g>
			<g>
				<path class="st0" d="M127,114.7c-1-1.2-2.1-2.2-3.3-3.2c-1.3-1.1-2.4-2.3-3.7-3.3c-0.2-0.2-0.4,0.1-0.3,0.3
					c0.8,1.2,2.1,2.1,3.2,3c1.3,1.1,2.7,2.2,3.9,3.4C126.9,115.1,127.1,114.9,127,114.7L127,114.7z"/>
			</g>
			<g>
				<path class="st0" d="M128.2,113.6c-2.3-2.2-4.6-4.5-7.1-6.4c-0.2-0.2-0.5,0.1-0.3,0.3c2.1,2.3,4.8,4.3,7.2,6.3
					C128.1,114,128.3,113.8,128.2,113.6L128.2,113.6z"/>
			</g>
			<g>
				<path class="st0" d="M129,112.8c-0.3-0.5-0.8-1-1.2-1.5c-0.4-0.4-0.8-0.9-1.3-1.2c-0.3-0.2-0.6,0.1-0.4,0.4
					c0.4,0.5,0.9,0.8,1.3,1.3c0.4,0.4,0.8,0.9,1.2,1.3C128.8,113.4,129.2,113.1,129,112.8L129,112.8z"/>
			</g>
			<g>
				<path class="st0" d="M125.4,109.2c-1.1-0.9-2.1-1.9-3.2-2.7c-0.2-0.2-0.5,0.2-0.3,0.3c1,1,2.2,1.9,3.3,2.8
					C125.3,109.8,125.6,109.4,125.4,109.2L125.4,109.2z"/>
			</g>
			<g>
				<path class="st0" d="M129.4,111.3c-0.1-0.2-0.2-0.3-0.3-0.4c-0.1-0.1-0.4,0-0.3,0.2c0,0.2,0.1,0.3,0.2,0.4
					C129.2,111.7,129.6,111.5,129.4,111.3L129.4,111.3z"/>
			</g>
			<g>
				<path class="st0" d="M127.9,109.7c-0.8-0.8-1.7-1.7-2.6-2.5c-0.8-0.7-1.5-1.6-2.4-2.2c-0.2-0.1-0.4,0.1-0.3,0.3
					c0.7,0.9,1.7,1.7,2.6,2.5c0.8,0.7,1.6,1.5,2.5,2.2C127.8,110.1,128,109.9,127.9,109.7L127.9,109.7z"/>
			</g>
			<g>
				<path class="st0" d="M131.2,110.9c-1.2-1.1-2.5-2.3-3.7-3.4c-1.1-1-2.2-2.2-3.4-3.1c-0.2-0.1-0.4,0.1-0.3,0.3
					c1,1.3,2.3,2.3,3.5,3.4c1.2,1.1,2.4,2.2,3.6,3.2C131.1,111.3,131.3,111,131.2,110.9L131.2,110.9z"/>
			</g>
			<g>
				<path class="st0" d="M131.6,109.6c-2.3-2.2-4.4-4.6-6.8-6.5c-0.2-0.2-0.4,0.1-0.3,0.3c2,2.4,4.6,4.4,6.9,6.5
					C131.5,110,131.7,109.8,131.6,109.6L131.6,109.6z"/>
			</g>
			<g>
				<path class="st0" d="M132.8,109c-2.4-2.4-4.8-5-7.4-7.2c-0.2-0.2-0.5,0.1-0.3,0.3c2.2,2.6,4.9,5,7.5,7.1
					C132.8,109.4,133,109.1,132.8,109L132.8,109z"/>
			</g>
			<g>
				<path class="st0" d="M134,108c-0.3-0.3-0.6-0.7-1-0.9c-0.2-0.1-0.4,0.1-0.2,0.3c0.3,0.4,0.7,0.7,1,1
					C133.9,108.5,134.2,108.2,134,108L134,108z"/>
			</g>
			<g>
				<path class="st0" d="M132.2,106.1c-1.4-1.7-3-3.7-4.8-4.9c-0.2-0.1-0.4,0.1-0.2,0.3c1.4,1.7,3.2,3.3,4.8,4.9
					C132,106.5,132.3,106.3,132.2,106.1L132.2,106.1z"/>
			</g>
			<g>
				<path class="st0" d="M135.3,107c-2.3-2.3-4.4-4.9-7-6.9c-0.2-0.2-0.4,0.1-0.3,0.3c2,2.5,4.6,4.6,6.9,6.9
					C135.1,107.4,135.4,107.1,135.3,107L135.3,107z"/>
			</g>
			<g>
				<path class="st0" d="M136.1,105.7c-0.5-0.6-1.1-1.1-1.6-1.6c-0.5-0.5-1-1.1-1.5-1.5c-0.2-0.1-0.4,0.1-0.3,0.3
					c0.4,0.6,1,1.1,1.5,1.6c0.5,0.5,1.1,1,1.6,1.5C136,106.2,136.3,105.9,136.1,105.7L136.1,105.7z"/>
			</g>
			<g>
				<path class="st0" d="M131.9,101.7c-0.8-0.8-1.7-1.8-2.7-2.5c-0.2-0.1-0.4,0.1-0.3,0.3c0.7,0.9,1.8,1.7,2.7,2.5
					C131.8,102.1,132.1,101.8,131.9,101.7L131.9,101.7z"/>
			</g>
			<g>
				<path class="st0" d="M137.2,104.9c-2.1-2.4-4.3-5.1-6.8-7c-0.2-0.2-0.5,0.1-0.3,0.3c1,1.2,2.3,2.3,3.4,3.4
					c1.1,1.2,2.3,2.3,3.4,3.5C137.1,105.4,137.4,105.1,137.2,104.9L137.2,104.9z"/>
			</g>
			<g>
				<path class="st0" d="M138.3,104.1c-0.3-0.3-0.6-0.7-1-0.9c-0.2-0.1-0.4,0.1-0.3,0.3c0.2,0.4,0.6,0.7,0.9,1
					C138.2,104.6,138.5,104.3,138.3,104.1L138.3,104.1z"/>
			</g>
			<g>
				<path class="st0" d="M136.7,102.2c-0.8-1-1.7-1.9-2.6-2.8c-0.8-0.8-1.5-1.8-2.4-2.5c-0.2-0.1-0.4,0.1-0.3,0.3
					c0.6,1,1.5,1.8,2.3,2.6c0.9,0.9,1.7,1.9,2.6,2.8C136.6,102.7,136.9,102.4,136.7,102.2L136.7,102.2z"/>
			</g>
			<g>
				<path class="st0" d="M139.2,103.1c-0.6-0.8-1.2-1.5-1.9-2.2c-0.6-0.6-1.1-1.4-1.8-1.9c-0.2-0.2-0.4,0.1-0.3,0.3
					c0.5,0.7,1.2,1.4,1.8,2c0.6,0.7,1.2,1.3,1.9,2C139.1,103.5,139.4,103.3,139.2,103.1L139.2,103.1z"/>
			</g>
			<g>
				<path class="st0" d="M134.4,97.7c-0.7-0.8-1.4-1.7-2.2-2.3c-0.1-0.1-0.4,0.1-0.3,0.2c0.6,0.9,1.4,1.6,2.2,2.3
					C134.3,98.2,134.6,97.9,134.4,97.7L134.4,97.7z"/>
			</g>
			<g>
				<path class="st0" d="M140.5,102.2c-2.2-2.5-4.3-5.5-7.1-7.4c-0.2-0.1-0.4,0.1-0.3,0.3c2.4,2.4,4.6,5.1,7.1,7.4
					C140.3,102.6,140.6,102.4,140.5,102.2L140.5,102.2z"/>
			</g>
			<g>
				<path class="st0" d="M141.1,100.5c-2.3-2.5-4.5-5.2-6.9-7.5c-0.2-0.2-0.5,0.1-0.3,0.3c2,2.7,4.6,5.1,6.9,7.5
					C140.9,101,141.3,100.7,141.1,100.5L141.1,100.5z"/>
			</g>
			<g>
				<path class="st0" d="M142.4,99.9c-0.4-0.4-0.7-0.9-1.2-1.2c-0.2-0.1-0.3,0.1-0.2,0.3c0.3,0.4,0.7,0.8,1.1,1.2
					C142.3,100.4,142.6,100.1,142.4,99.9L142.4,99.9z"/>
			</g>
			<g>
				<path class="st0" d="M140.5,97.8c-0.8-0.9-1.5-1.8-2.3-2.6c-0.7-0.8-1.3-1.7-2.2-2.4c-0.2-0.1-0.5,0.1-0.3,0.3
					c0.5,0.9,1.4,1.7,2.1,2.4c0.8,0.8,1.6,1.7,2.4,2.5C140.3,98.3,140.6,98,140.5,97.8L140.5,97.8z"/>
			</g>
			<g>
				<path class="st0" d="M143.5,98.9c-0.6-0.9-1.3-1.6-2-2.4c-0.6-0.7-1.3-1.5-2.1-2c-0.2-0.1-0.4,0.1-0.3,0.3
					c0.6,0.8,1.4,1.4,2.1,2.1c0.7,0.7,1.3,1.5,1.9,2.3C143.4,99.3,143.7,99.1,143.5,98.9L143.5,98.9z"/>
			</g>
			<g>
				<path class="st0" d="M138,92.9c-0.5-0.6-0.9-1.3-1.6-1.8c-0.1-0.1-0.4,0.1-0.3,0.2c0.4,0.7,1,1.3,1.5,1.9
					C137.9,93.4,138.2,93.1,138,92.9L138,92.9z"/>
			</g>
			<g>
				<path class="st0" d="M144.5,97.6c-1.8-2.3-3.7-4.9-6.1-6.7c-0.2-0.1-0.4,0.1-0.3,0.3c1.9,2.3,4.1,4.3,6.1,6.6
					C144.3,98,144.6,97.8,144.5,97.6L144.5,97.6z"/>
			</g>
			<g>
				<path class="st0" d="M145.8,96.9c-2-3-4.7-6-7.5-8.2c-0.2-0.2-0.4,0.1-0.3,0.3c2.3,2.9,5.3,5.2,7.5,8.1
					C145.7,97.3,145.9,97.1,145.8,96.9L145.8,96.9z"/>
			</g>
			<g>
				<path class="st0" d="M146.7,95.7c-2.3-2.9-4.8-6-7.8-8.3c-0.2-0.2-0.5,0.1-0.3,0.3c2.5,2.8,5.3,5.3,7.8,8.2
					C146.6,96.1,146.9,95.9,146.7,95.7L146.7,95.7z"/>
			</g>
			<g>
				<path class="st0" d="M148,94.6c-2.5-2.7-4.9-5.5-7.5-8c-0.2-0.2-0.5,0.1-0.3,0.3c2.3,2.9,5,5.4,7.5,8
					C147.9,95.1,148.2,94.8,148,94.6L148,94.6z"/>
			</g>
			<g>
				<path class="st0" d="M149.2,93.5c-0.2-0.2-0.4-0.4-0.6-0.6c-0.2-0.2-0.3-0.4-0.5-0.5c-0.2-0.1-0.4,0-0.4,0.2
					c0.1,0.6,0.7,1,1.2,1.3C149.2,94.1,149.4,93.7,149.2,93.5L149.2,93.5z"/>
			</g>
			<g>
				<path class="st0" d="M147,91.4c-0.9-0.9-1.9-1.8-2.8-2.7c-0.8-0.8-1.6-1.8-2.5-2.6c-0.2-0.1-0.4,0.1-0.3,0.3
					c0.6,1,1.6,1.9,2.5,2.8c0.9,0.9,1.8,1.7,2.8,2.5C146.9,91.9,147.2,91.6,147,91.4L147,91.4z"/>
			</g>
			<g>
				<path class="st0" d="M150.3,93c-2.2-2.6-4.7-5.5-7.4-7.6c-0.2-0.2-0.5,0.1-0.3,0.3c1.1,1.3,2.5,2.5,3.7,3.7
					c1.2,1.3,2.4,2.6,3.6,3.8C150.1,93.5,150.5,93.2,150.3,93L150.3,93z"/>
			</g>
			<g>
				<path class="st0" d="M151.5,92.3c-1.3-1.5-2.7-3-4.1-4.5c-1.2-1.3-2.4-2.8-3.8-3.9c-0.2-0.2-0.4,0.1-0.3,0.3
					c1.1,1.5,2.6,2.8,3.9,4.2c1.3,1.4,2.6,2.8,4,4.1C151.4,92.7,151.6,92.4,151.5,92.3L151.5,92.3z"/>
			</g>
			<g>
				<path class="st0" d="M151.8,90.8c-0.2-0.2-0.3-0.4-0.5-0.6c-0.1-0.1-0.4,0-0.3,0.2c0.1,0.2,0.3,0.4,0.5,0.7
					C151.7,91.3,152,91,151.8,90.8L151.8,90.8z"/>
			</g>
			<g>
				<path class="st0" d="M150.3,89c-1.7-1.9-3.4-4-5.4-5.7c-0.2-0.1-0.4,0.1-0.2,0.3c1.5,2,3.5,3.9,5.3,5.7
					C150.2,89.5,150.5,89.2,150.3,89L150.3,89z"/>
			</g>
			<g>
				<path class="st0" d="M153.3,89.8c-1.2-1.4-2.5-2.7-3.8-4c-1.2-1.2-2.3-2.5-3.6-3.5c-0.2-0.1-0.4,0.1-0.3,0.3
					c1.1,1.3,2.5,2.5,3.7,3.7c1.2,1.2,2.5,2.5,3.7,3.7C153.2,90.2,153.5,90,153.3,89.8L153.3,89.8z"/>
			</g>
			<g>
				<path class="st0" d="M154.2,88.9c-0.6-0.6-1.3-1.3-1.9-1.9c-0.6-0.6-1-1.3-1.7-1.9c-0.2-0.1-0.4,0.1-0.3,0.3
					c0.4,0.7,1.1,1.4,1.7,2c0.6,0.6,1.2,1.3,1.9,1.8C154.1,89.5,154.4,89.1,154.2,88.9L154.2,88.9z"/>
			</g>
			<g>
				<path class="st0" d="M149.9,84.3c-0.5-0.6-1.1-1.1-1.6-1.7c-0.5-0.5-1-1.1-1.6-1.4c-0.2-0.1-0.4,0.1-0.3,0.3
					c0.4,0.6,1.1,1,1.6,1.5c0.5,0.5,1.1,1,1.6,1.5C149.8,84.8,150.1,84.6,149.9,84.3L149.9,84.3z"/>
			</g>
			<g>
				<path class="st0" d="M155.2,87.9c-2.2-2.6-4.5-5.3-7.1-7.4c-0.2-0.1-0.4,0.1-0.3,0.3c2.3,2.5,4.8,4.8,7,7.4
					C155.1,88.3,155.4,88.1,155.2,87.9L155.2,87.9z"/>
			</g>
			<g>
				<path class="st0" d="M156.5,87.1c-2.4-2.6-4.9-5.3-7.5-7.7c-0.2-0.2-0.5,0.1-0.3,0.3c2.3,2.7,5,5.1,7.6,7.6
					C156.3,87.5,156.6,87.2,156.5,87.1L156.5,87.1z"/>
			</g>
			<g>
				<path class="st0" d="M157.5,86c-0.4-0.4-0.9-1-1.4-1.3c-0.2-0.1-0.4,0.1-0.3,0.3c0.3,0.5,0.9,1,1.3,1.4
					C157.4,86.6,157.7,86.2,157.5,86L157.5,86z"/>
			</g>
			<g>
				<path class="st0" d="M155,83.5c-0.9-0.9-1.7-1.9-2.7-2.8c-0.8-0.8-1.6-1.7-2.5-2.4c-0.2-0.1-0.4,0.1-0.3,0.3
					c0.7,1,1.7,1.8,2.5,2.6c0.9,0.9,1.8,1.7,2.6,2.5C154.9,83.9,155.2,83.7,155,83.5L155,83.5z"/>
			</g>
			<g>
				<path class="st0" d="M158.7,85.4c-1.7-1.8-3.3-3.6-5.1-5.2c-0.2-0.2-0.5,0.1-0.3,0.4c1.5,1.8,3.4,3.5,5.1,5.2
					C158.6,85.9,158.9,85.6,158.7,85.4L158.7,85.4z"/>
			</g>
			<g>
				<path class="st0" d="M151.8,78.2c-0.2-0.2-0.4-0.5-0.6-0.8c-0.2-0.2-0.4-0.5-0.6-0.7c-0.2-0.1-0.4,0.1-0.3,0.2
					c0.1,0.3,0.4,0.5,0.6,0.7c0.2,0.2,0.4,0.5,0.7,0.7C151.7,78.7,152,78.4,151.8,78.2L151.8,78.2z"/>
			</g>
			<g>
				<path class="st0" d="M160,84.2c-2.6-2.7-5.1-5.8-8-8.2c-0.2-0.2-0.5,0.1-0.3,0.3c2.3,2.9,5.4,5.5,8,8.1
					C159.9,84.7,160.2,84.4,160,84.2L160,84.2z"/>
			</g>
			<g>
				<path class="st0" d="M160.7,82.9c-0.2-0.3-0.5-0.7-0.8-1c-0.3-0.3-0.5-0.7-0.8-0.9c-0.1-0.1-0.4,0.1-0.3,0.2
					c0.2,0.3,0.5,0.6,0.8,0.9c0.3,0.3,0.5,0.7,0.8,0.9C160.5,83.2,160.9,83.1,160.7,82.9L160.7,82.9z"/>
			</g>
			<g>
				<path class="st0" d="M158.7,80.5c-2-1.9-4-3.9-6.2-5.6c-0.2-0.1-0.5,0.1-0.3,0.3c1.9,2,4.1,3.8,6.2,5.6
					C158.6,80.9,158.9,80.6,158.7,80.5L158.7,80.5z"/>
			</g>
			<g>
				<path class="st0" d="M162.2,82.2c-2.5-2.8-5.2-6-8.4-8.1c-0.2-0.1-0.4,0.1-0.3,0.3c2.7,2.8,5.7,5.2,8.3,8.1
					C162.1,82.7,162.4,82.4,162.2,82.2L162.2,82.2z"/>
			</g>
			<g>
				<path class="st0" d="M163,80.9c-2.1-2.4-4.3-4.8-6.7-6.7c-0.1-0.1-0.4,0.1-0.2,0.3c2.2,2.3,4.6,4.4,6.7,6.7
					C162.8,81.4,163.1,81.1,163,80.9L163,80.9z"/>
			</g>
			<g>
				<path class="st0" d="M155.8,73.9c-0.2-0.4-0.5-0.6-0.9-0.7c-0.2,0-0.2,0.3-0.1,0.3c0.3,0.1,0.5,0.3,0.6,0.5
					C155.5,74.3,155.9,74.1,155.8,73.9L155.8,73.9z"/>
			</g>
			<g>
				<path class="st0" d="M164.4,79.8c-0.3-0.3-0.6-0.6-0.9-0.8c-0.3-0.2-0.5-0.5-0.8-0.7c-0.2-0.1-0.3,0.1-0.3,0.3
					c0.2,0.3,0.5,0.5,0.7,0.7c0.3,0.3,0.6,0.5,0.9,0.8C164.3,80.3,164.6,80,164.4,79.8L164.4,79.8z"/>
			</g>
			<g>
				<path class="st0" d="M161.8,77.5c-2-1.9-4-4-6.2-5.6c-0.2-0.1-0.5,0.1-0.3,0.3c2,1.9,4.2,3.6,6.2,5.6
					C161.7,77.9,162,77.7,161.8,77.5L161.8,77.5z"/>
			</g>
			<g>
				<path class="st0" d="M165.7,78.9c-2.8-2.7-5.5-5.8-8.6-8.1c-0.2-0.1-0.4,0.1-0.3,0.3c2.5,3,5.7,5.5,8.6,8.1
					C165.6,79.3,165.8,79,165.7,78.9L165.7,78.9z"/>
			</g>
			<g>
				<path class="st0" d="M166.7,77.8c-2.8-3.1-5.9-6.4-9.3-8.9c-0.2-0.2-0.5,0.1-0.3,0.4c1.5,1.7,3.3,3.1,4.9,4.6
					c1.5,1.4,2.9,2.8,4.4,4.2C166.6,78.3,166.9,78,166.7,77.8L166.7,77.8z"/>
			</g>
			<g>
				<path class="st0" d="M168.1,76.8c-3.2-3-6.4-6.1-9.9-8.8c-0.2-0.2-0.5,0.1-0.3,0.3c3.1,3.1,6.5,6,9.9,8.7
					C168,77.2,168.2,76.9,168.1,76.8L168.1,76.8z"/>
			</g>
			<g>
				<path class="st0" d="M169,75.9c-3.2-3-6.3-6.4-9.9-9.1c-0.2-0.2-0.5,0.1-0.3,0.4c2.9,3.3,6.6,6.1,9.9,9
					C168.9,76.4,169.2,76.1,169,75.9L169,75.9z"/>
			</g>
			<g>
				<path class="st0" d="M168.4,71.7c-2.7-2.5-5.8-5-9.1-6.7c-0.2-0.1-0.4,0.2-0.2,0.4c3.1,2.1,6.2,4.2,9.1,6.7
					C168.2,72.1,168.5,71.8,168.4,71.7L168.4,71.7z"/>
			</g>
			<g>
				<path class="st0" d="M167,69c-0.6-0.5-1.2-1.1-2-1.3c-0.2-0.1-0.4,0.2-0.2,0.3c0.3,0.3,0.6,0.4,0.9,0.7c0.3,0.2,0.7,0.5,1,0.7
					C167,69.5,167.2,69.1,167,69L167,69z"/>
			</g>
			<g>
				<path class="st0" d="M164.6,67.3c-2-1.5-4.1-3-6.3-4.2c-0.2-0.1-0.4,0.2-0.2,0.3c2.1,1.5,4.2,2.8,6.3,4.2
					C164.6,67.8,164.9,67.5,164.6,67.3L164.6,67.3z"/>
			</g>
			<g>
				<path class="st0" d="M165.2,66.4c-2.7-1.9-5.5-3.9-8.4-5.4c-0.3-0.1-0.5,0.3-0.3,0.5c2.7,1.9,5.6,3.5,8.4,5.3
					C165.2,66.9,165.5,66.6,165.2,66.4L165.2,66.4z"/>
			</g>
			<g>
				<path class="st0" d="M164.5,64.7c-2.7-1.9-5.5-4-8.5-5.4c-0.2-0.1-0.4,0.2-0.2,0.4c2.6,2,5.7,3.6,8.5,5.3
					C164.5,65.2,164.7,64.9,164.5,64.7L164.5,64.7z"/>
			</g>
			<g>
				<path class="st0" d="M163.7,63c-3-2.1-6.1-4.6-9.3-6.2c-0.2-0.1-0.3,0.2-0.2,0.3c2.7,2.4,6.2,4.3,9.3,6.2
					C163.7,63.5,164,63.2,163.7,63L163.7,63z"/>
			</g>
			<g>
				<path class="st0" d="M162.3,60.8c-0.9-0.6-1.8-1.4-2.8-1.8c-0.2-0.1-0.3,0.2-0.2,0.3c0.7,0.8,1.9,1.3,2.8,1.8
					C162.3,61.2,162.5,60.9,162.3,60.8L162.3,60.8z"/>
			</g>
			<g>
				<path class="st0" d="M158.4,58.2c-1.7-1.4-3.7-2.9-5.8-3.7c-0.2-0.1-0.3,0.2-0.2,0.3c1.8,1.4,3.9,2.4,5.7,3.6
					C158.4,58.6,158.6,58.4,158.4,58.2L158.4,58.2z"/>
			</g>
			<g>
				<path class="st0" d="M160.7,58.5c-2.7-2.3-5.9-4.8-9.1-6.3c-0.3-0.1-0.4,0.2-0.2,0.4c1.4,1.2,3.1,2.1,4.6,3.1
					c1.5,1,3,2.1,4.5,3.1C160.7,59,160.9,58.7,160.7,58.5L160.7,58.5z"/>
			</g>
			<g>
				<path class="st0" d="M159.2,55.7c-3.1-2.2-6.2-4.4-9.5-6.3c-0.3-0.2-0.6,0.2-0.3,0.4c3,2.2,6.4,4.2,9.6,6.2
					C159.2,56.2,159.4,55.9,159.2,55.7L159.2,55.7z"/>
			</g>
			<g>
				<path class="st0" d="M157.8,53.6c-2.5-2.1-5.4-4.4-8.4-5.7c-0.2-0.1-0.4,0.2-0.2,0.3c2.7,2,5.6,3.7,8.3,5.7
					C157.8,54.1,158,53.7,157.8,53.6L157.8,53.6z"/>
			</g>
			<g>
				<path class="st0" d="M156.7,51.3c-2.7-2.5-6-3.8-9-5.8c-0.2-0.1-0.4,0.1-0.3,0.3c1.3,1.2,2.9,1.8,4.3,2.6
					c1.6,0.9,3.1,2.1,4.7,3.2C156.6,51.8,156.9,51.5,156.7,51.3L156.7,51.3z"/>
			</g>
			<g>
				<path class="st0" d="M155.3,48.9c-0.4-0.4-0.9-0.8-1.5-1c-0.2,0-0.3,0.3-0.1,0.4c0.4,0.3,0.9,0.6,1.3,0.9
					C155.2,49.4,155.4,49.1,155.3,48.9L155.3,48.9z"/>
			</g>
			<g>
				<path class="st0" d="M152.6,47.1c-2.1-1.3-4.3-2.7-6.5-3.6c-0.2-0.1-0.3,0.2-0.2,0.3c1.9,1.5,4.3,2.6,6.5,3.7
					C152.6,47.6,152.8,47.2,152.6,47.1L152.6,47.1z"/>
			</g>
			<g>
				<path class="st0" d="M154.2,47c-2.9-2.1-6.1-4.2-9.4-5.6c-0.2-0.1-0.4,0.2-0.2,0.4c3.1,1.9,6.3,3.7,9.4,5.6
					C154.2,47.5,154.4,47.2,154.2,47L154.2,47z"/>
			</g>
			<g>
				<path class="st0" d="M152.8,44.5c-2.9-1.9-6.1-4-9.4-5.2c-0.2-0.1-0.4,0.2-0.2,0.4c3,1.9,6.3,3.4,9.3,5.1
					C152.8,44.9,153,44.7,152.8,44.5L152.8,44.5z"/>
			</g>
			<g>
				<path class="st0" d="M151.5,42.4c-0.5-0.3-1-0.7-1.6-0.8c-0.2-0.1-0.3,0.2-0.2,0.3c0.4,0.4,1,0.6,1.5,0.9
					C151.5,42.9,151.7,42.5,151.5,42.4L151.5,42.4z"/>
			</g>
			<g>
				<path class="st0" d="M148.6,40.8c-1.9-1-3.9-2.3-5.9-3.1c-0.3-0.1-0.4,0.3-0.2,0.4c1.7,1.3,4,2.2,5.9,3.1
					C148.7,41.3,148.9,40.9,148.6,40.8L148.6,40.8z"/>
			</g>
			<g>
				<path class="st0" d="M150.7,40.6c-2.7-1.6-5.5-3.2-8.3-4.6c-0.2-0.1-0.5,0.3-0.2,0.4c2.8,1.5,5.6,2.9,8.3,4.5
					C150.7,41.1,150.9,40.8,150.7,40.6L150.7,40.6z"/>
			</g>
			<g>
				<path class="st0" d="M149.4,38.5c-2.9-1.6-5.9-3.2-8.9-4.7c-0.3-0.2-0.5,0.4-0.2,0.5c3,1.5,5.9,3.1,8.9,4.5
					C149.4,38.9,149.6,38.6,149.4,38.5L149.4,38.5z"/>
			</g>
			<g>
				<path class="st0" d="M148.4,36.9c-0.5-0.3-0.9-0.5-1.4-0.8c-0.4-0.2-0.8-0.5-1.3-0.7c-0.2-0.1-0.4,0.2-0.2,0.4
					c0.7,0.6,1.8,1.1,2.6,1.5C148.4,37.4,148.6,37,148.4,36.9L148.4,36.9z"/>
			</g>
			<g>
				<path class="st0" d="M144.8,35.1c-1.7-1-3.5-2.2-5.4-2.8c-0.3-0.1-0.4,0.2-0.2,0.4c1.6,1.2,3.6,1.9,5.4,2.7
					C144.9,35.5,145,35.2,144.8,35.1L144.8,35.1z"/>
			</g>
			<g>
				<path class="st0" d="M147.3,35c-2.8-1.6-5.8-3.4-8.8-4.6c-0.2-0.1-0.4,0.3-0.2,0.4c2.7,1.8,5.8,3.2,8.8,4.6
					C147.3,35.5,147.5,35.2,147.3,35L147.3,35z"/>
			</g>
			<g>
				<path class="st0" d="M146.1,33.1c-2.9-1.6-5.8-3.5-8.9-4.8c-0.2-0.1-0.4,0.2-0.2,0.4c2.8,1.8,5.9,3.2,8.8,4.7
					C146.1,33.5,146.3,33.2,146.1,33.1L146.1,33.1z"/>
			</g>
			<g>
				<path class="st0" d="M145.4,31.4c-3-1.7-6.2-3.4-9.4-4.7c-0.2-0.1-0.4,0.3-0.2,0.4c2.9,1.8,6.3,3.3,9.4,4.7
					C145.4,31.8,145.6,31.5,145.4,31.4L145.4,31.4z"/>
			</g>
			<g>
				<path class="st0" d="M144.2,29.7c-0.6-0.4-1.1-0.7-1.8-0.9c-0.2-0.1-0.3,0.2-0.2,0.3c0.5,0.4,1.1,0.7,1.7,1
					C144.3,30.2,144.4,29.9,144.2,29.7L144.2,29.7z"/>
			</g>
			<g>
				<path class="st0" d="M141.5,28.2c-2.5-1.4-4.9-3.1-7.6-4.1c-0.2-0.1-0.4,0.3-0.2,0.4c2.3,1.6,5.1,2.8,7.6,4.1
					C141.5,28.7,141.8,28.3,141.5,28.2L141.5,28.2z"/>
			</g>
			<g>
				<path class="st0" d="M143.8,28.2c-3.3-2-6.8-4.3-10.4-5.6c-0.2-0.1-0.4,0.2-0.2,0.4c3.1,2.2,6.9,3.9,10.4,5.6
					C143.8,28.6,144,28.3,143.8,28.2L143.8,28.2z"/>
			</g>
			<g>
				<path class="st0" d="M142.3,26.1c-0.5-0.3-1-0.6-1.5-0.9c-0.4-0.3-0.9-0.6-1.4-0.7c-0.2-0.1-0.4,0.2-0.2,0.4
					c0.4,0.3,0.9,0.5,1.4,0.8c0.5,0.3,0.9,0.5,1.4,0.8C142.3,26.6,142.6,26.2,142.3,26.1L142.3,26.1z"/>
			</g>
			<g>
				<path class="st0" d="M138.7,24c-1.9-1.2-4-2.4-6.1-3.3c-0.2-0.1-0.4,0.2-0.2,0.4c1.9,1.3,4.1,2.3,6.1,3.3
					C138.7,24.5,138.9,24.1,138.7,24L138.7,24z"/>
			</g>
			<g>
				<path class="st0" d="M141.9,24.4c-3.4-1.9-6.8-4.1-10.3-5.8c-0.2-0.1-0.4,0.2-0.2,0.4c3.1,2.3,6.9,4.1,10.3,5.8
					C142,24.8,142.1,24.5,141.9,24.4L141.9,24.4z"/>
			</g>
			<g>
				<path class="st0" d="M140.3,22.4c-3.3-2-6.7-4.1-10.2-5.8c-0.2-0.1-0.4,0.3-0.2,0.4c3.1,2.3,6.8,4.1,10.2,5.7
					C140.3,22.9,140.5,22.6,140.3,22.4L140.3,22.4z"/>
			</g>
			<g>
				<path class="st0" d="M139.9,21c-0.7-0.4-1.4-1-2.2-1.2c-0.2,0-0.4,0.2-0.2,0.3c0.6,0.5,1.5,0.8,2.2,1.2
					C139.9,21.4,140.1,21.1,139.9,21L139.9,21z"/>
			</g>
			<g>
				<path class="st0" d="M136,18.7c-2.4-1.5-5-3.4-7.7-4.5c-0.2-0.1-0.4,0.2-0.2,0.3c2.2,1.8,5.1,3.1,7.6,4.4
					C136,19.2,136.2,18.9,136,18.7L136,18.7z"/>
			</g>
			<g>
				<path class="st0" d="M139,19.2c-3.7-2.5-7.6-4.9-11.6-7c-0.3-0.1-0.5,0.3-0.2,0.5c3.7,2.5,7.7,4.7,11.6,6.8
					C139,19.6,139.2,19.4,139,19.2L139,19.2z"/>
			</g>
			<g>
				<path class="st0" d="M136.9,16.9c-3.6-2.8-7.7-5-11.7-7.2c-0.3-0.1-0.5,0.2-0.3,0.4c3.6,2.8,8.1,4.4,11.8,7.1
					C136.9,17.4,137.1,17.1,136.9,16.9L136.9,16.9z"/>
			</g>
			<g>
				<path class="st0" d="M136.7,15.6c-4.1-2.7-8.2-5.9-12.5-8.1c-0.2-0.1-0.4,0.3-0.2,0.4c3.8,3,8.4,5.5,12.5,8
					C136.7,16.1,136.9,15.8,136.7,15.6L136.7,15.6z"/>
			</g>
			<g>
				<path class="st0" d="M75.7,106.6c-2.3-2-4.6-4.3-7.1-6.1c-0.2-0.1-0.4,0.1-0.3,0.3c2.2,2.2,4.8,4.1,7.1,6.1
					C75.6,107.1,75.8,106.8,75.7,106.6L75.7,106.6z"/>
			</g>
			<g>
				<path class="st0" d="M76.5,106c-2.1-2.1-4.2-4.4-6.7-6.1c-0.2-0.1-0.5,0.1-0.3,0.3c2.1,2.1,4.5,4,6.7,6
					C76.4,106.4,76.6,106.2,76.5,106L76.5,106z"/>
			</g>
			<g>
				<path class="st0" d="M77.2,105c-0.3-0.3-0.6-0.6-0.9-0.7c-0.2-0.1-0.3,0.2-0.2,0.3c0.2,0.3,0.6,0.5,0.8,0.7
					C77.1,105.5,77.4,105.2,77.2,105L77.2,105z"/>
			</g>
			<g>
				<path class="st0" d="M75.6,103.5c-1.5-1.5-2.9-3-4.5-4.3c-0.2-0.2-0.5,0.2-0.3,0.4c1.4,1.5,3,2.9,4.5,4.2
					C75.4,103.9,75.7,103.7,75.6,103.5L75.6,103.5z"/>
			</g>
			<g>
				<path class="st0" d="M78.3,104.2c-2-2.2-4.2-4.2-6.5-6.1c-0.3-0.2-0.6,0.2-0.3,0.4c2.3,1.9,4.4,3.9,6.6,5.9
					C78.2,104.6,78.5,104.4,78.3,104.2L78.3,104.2z"/>
			</g>
			<g>
				<path class="st0" d="M79.5,103.6c-1.8-2.2-3.9-4.4-6.2-6.1c-0.2-0.2-0.5,0.2-0.3,0.4c2.1,2,4.2,4,6.2,6
					C79.4,104,79.7,103.8,79.5,103.6L79.5,103.6z"/>
			</g>
			<g>
				<path class="st0" d="M80.9,102.4c-0.3-0.2-0.5-0.5-0.9-0.7c-0.2-0.1-0.4,0.1-0.3,0.3c0.2,0.3,0.5,0.5,0.8,0.7
					C80.8,102.9,81.1,102.6,80.9,102.4L80.9,102.4z"/>
			</g>
			<g>
				<path class="st0" d="M78.9,100.6c-0.8-0.7-1.6-1.3-2.4-2.1c-0.7-0.7-1.3-1.5-2-2.1c-0.2-0.2-0.5,0-0.3,0.3
					c1.1,1.7,2.9,3.1,4.4,4.3C78.9,101.2,79.1,100.8,78.9,100.6L78.9,100.6z"/>
			</g>
			<g>
				<path class="st0" d="M81.7,101.7c-2-2-4-4.1-6.2-5.9c-0.2-0.1-0.4,0.1-0.3,0.3c1.8,2.1,4.1,4,6.2,5.9
					C81.6,102.2,81.8,101.9,81.7,101.7L81.7,101.7z"/>
			</g>
			<g>
				<path class="st0" d="M82.7,101c-0.7-0.6-1.3-1.3-2-1.8c-0.2-0.1-0.4,0.1-0.2,0.3c0.6,0.7,1.3,1.3,2,1.8
					C82.6,101.4,82.9,101.2,82.7,101L82.7,101z"/>
			</g>
			<g>
				<path class="st0" d="M79.5,97.8c-0.5-0.4-1.1-0.9-1.6-1.4c-0.5-0.5-1-1-1.5-1.4c-0.2-0.2-0.4,0.1-0.3,0.3c0.8,1.1,2.1,2,3.2,2.8
					C79.5,98.3,79.7,98,79.5,97.8L79.5,97.8z"/>
			</g>
			<g>
				<path class="st0" d="M83.5,100.4c-1.8-2-3.9-4.4-6.2-5.8c-0.2-0.1-0.4,0.1-0.3,0.3c1,1,2.1,1.9,3.1,2.8c1,1,2,2,3,3
					C83.3,100.9,83.6,100.6,83.5,100.4L83.5,100.4z"/>
			</g>
			<g>
				<path class="st0" d="M84.6,99.5c-0.3-0.4-0.6-0.8-1-1.1c-0.2-0.1-0.4,0.1-0.3,0.3c0.2,0.4,0.6,0.8,0.9,1.1
					C84.4,100,84.8,99.7,84.6,99.5L84.6,99.5z"/>
			</g>
			<g>
				<path class="st0" d="M82.7,97.4c-1.5-1.4-2.9-3-4.5-4.3c-0.2-0.1-0.4,0.1-0.3,0.3c1.4,1.5,3,2.9,4.5,4.3
					C82.6,97.8,82.9,97.5,82.7,97.4L82.7,97.4z"/>
			</g>
			<g>
				<path class="st0" d="M85.5,98.7c-1.8-1.9-3.4-4-5.3-5.7c-0.2-0.2-0.5,0.1-0.3,0.3c1.6,2,3.6,3.8,5.4,5.7
					C85.4,99.1,85.6,98.9,85.5,98.7L85.5,98.7z"/>
			</g>
			<g>
				<path class="st0" d="M86.5,97.8c-2-2-3.7-4.3-5.8-6.2c-0.2-0.2-0.4,0-0.3,0.2c1.5,2.3,3.8,4.3,5.7,6.2
					C86.4,98.3,86.7,98,86.5,97.8L86.5,97.8z"/>
			</g>
			<g>
				<path class="st0" d="M87.4,96.6c-0.4-0.4-0.9-0.9-1.4-1.2c-0.2-0.1-0.4,0.1-0.2,0.3c0.4,0.5,0.9,0.9,1.4,1.3
					C87.3,97.1,87.6,96.8,87.4,96.6L87.4,96.6z"/>
			</g>
			<g>
				<path class="st0" d="M85.1,94.4c-1.2-1.2-2.4-2.5-3.6-3.7c-0.2-0.2-0.5,0.1-0.3,0.3c1.2,1.2,2.4,2.4,3.7,3.6
					C85,94.8,85.2,94.6,85.1,94.4L85.1,94.4z"/>
			</g>
			<g>
				<path class="st0" d="M88.6,96.5c-1.9-2-3.8-4.1-5.9-6c-0.2-0.1-0.4,0.1-0.3,0.3c1.8,2.1,3.9,4,5.8,5.9
					C88.5,96.9,88.8,96.7,88.6,96.5L88.6,96.5z"/>
			</g>
			<g>
				<path class="st0" d="M89.5,95.6c-0.6-0.6-1.2-1.2-1.8-1.7c-0.2-0.1-0.4,0.1-0.2,0.3c0.5,0.6,1.2,1.1,1.8,1.7
					C89.4,96,89.7,95.8,89.5,95.6L89.5,95.6z"/>
			</g>
			<g>
				<path class="st0" d="M86.8,93c-1.1-1.2-2.3-2.4-3.6-3.4c-0.2-0.1-0.4,0.1-0.2,0.3c1.2,1.1,2.5,2.1,3.7,3.3
					C86.7,93.4,86.9,93.2,86.8,93L86.8,93z"/>
			</g>
			<g>
				<path class="st0" d="M90.3,94.9c-2.1-2.1-4-4.5-6.3-6.4c-0.2-0.2-0.4,0.1-0.3,0.3c1.8,2.3,4.1,4.3,6.2,6.3
					C90.2,95.3,90.5,95.1,90.3,94.9L90.3,94.9z"/>
			</g>
			<g>
				<path class="st0" d="M91.2,94.1c-2-2.2-4.1-4.5-6.4-6.3c-0.2-0.1-0.4,0.1-0.2,0.3c2.1,2.2,4.3,4.2,6.4,6.3
					C91,94.5,91.3,94.3,91.2,94.1L91.2,94.1z"/>
			</g>
			<g>
				<path class="st0" d="M91.9,93.5c-2.1-2.2-4.2-4.5-6.5-6.4c-0.2-0.1-0.4,0.1-0.3,0.3c2.1,2.2,4.4,4.2,6.5,6.3
					C91.8,93.9,92.1,93.6,91.9,93.5L91.9,93.5z"/>
			</g>
			<g>
				<path class="st0" d="M91.4,89.3c-1.8-1.7-3.7-3.4-5.8-4.8c-0.2-0.1-0.4,0.2-0.2,0.3c1.9,1.7,3.9,3.2,5.8,4.8
					C91.3,89.7,91.5,89.4,91.4,89.3L91.4,89.3z"/>
			</g>
			<g>
				<path class="st0" d="M91,87.7c-0.3-0.4-0.7-0.9-1.1-1c-0.2,0-0.3,0.1-0.2,0.3c0.1,0.2,0.3,0.3,0.5,0.4c0.2,0.2,0.4,0.3,0.5,0.5
					C90.9,88.2,91.2,87.9,91,87.7L91,87.7z"/>
			</g>
			<g>
				<path class="st0" d="M88.9,86c-1.4-1.1-2.8-2.4-4.4-3.4c-0.2-0.1-0.4,0.2-0.2,0.3c1.3,1.2,2.9,2.2,4.4,3.3
					C88.9,86.4,89.1,86.1,88.9,86L88.9,86z"/>
			</g>
			<g>
				<path class="st0" d="M90.3,85.7c-2.3-1.8-4.6-3.8-7.1-5.5c-0.3-0.2-0.5,0.2-0.3,0.4c2.2,2,4.8,3.6,7.1,5.4
					C90.2,86.1,90.4,85.8,90.3,85.7L90.3,85.7z"/>
			</g>
			<g>
				<path class="st0" d="M88.3,82.8c-2.3-1.8-4.6-3.7-7.1-5.2C81,77.5,80.8,77.8,81,78c2.2,1.9,4.7,3.5,7.1,5.2
					C88.3,83.3,88.5,83,88.3,82.8L88.3,82.8z"/>
			</g>
			<g>
				<path class="st0" d="M88.1,81.4c-1.1-0.9-2.3-1.9-3.5-2.7c-0.2-0.1-0.4,0.1-0.2,0.3c1.1,1,2.3,1.9,3.5,2.8
					C88.1,81.9,88.3,81.6,88.1,81.4L88.1,81.4z"/>
			</g>
			<g>
				<path class="st0" d="M83.9,78.1c-1.5-1.1-2.9-2.4-4.4-3.4c-0.2-0.1-0.4,0.1-0.2,0.3c1.4,1.2,3,2.3,4.4,3.4
					C83.9,78.6,84.1,78.3,83.9,78.1L83.9,78.1z"/>
			</g>
			<g>
				<path class="st0" d="M87.1,79.2c-2.9-2.3-5.9-4.8-9.1-6.7c-0.2-0.1-0.4,0.2-0.2,0.3c2.9,2.3,6.1,4.4,9.1,6.6
					C87,79.7,87.3,79.4,87.1,79.2L87.1,79.2z"/>
			</g>
			<g>
				<path class="st0" d="M86.4,77.4c-0.9-0.8-1.9-1.6-2.9-2.3c-0.2-0.1-0.4,0.1-0.2,0.3c0.9,0.9,1.9,1.6,2.9,2.3
					C86.4,77.9,86.6,77.6,86.4,77.4L86.4,77.4z"/>
			</g>
			<g>
				<path class="st0" d="M82.5,74.4c-1.7-1.3-3.4-2.8-5.3-3.9c-0.2-0.1-0.4,0.1-0.2,0.3c1.6,1.5,3.6,2.7,5.3,4
					C82.5,74.8,82.7,74.5,82.5,74.4L82.5,74.4z"/>
			</g>
			<g>
				<path class="st0" d="M85.7,75.4c-3.4-2.8-7-5.8-10.8-8.1c-0.2-0.1-0.4,0.2-0.2,0.3c3.4,2.9,7.2,5.4,10.8,8.1
					C85.7,75.9,85.9,75.6,85.7,75.4L85.7,75.4z"/>
			</g>
			<g>
				<path class="st0" d="M83.4,72.5c-3-2.9-6.6-5.4-10-7.7c-0.2-0.1-0.4,0.2-0.2,0.3c3.3,2.6,6.9,4.8,10,7.6
					C83.3,72.8,83.6,72.6,83.4,72.5L83.4,72.5z"/>
			</g>
			<g>
				<path class="st0" d="M85.2,70.7c-4.4-3.7-8.9-7.4-13.5-10.9c-0.3-0.2-0.6,0.2-0.3,0.5c4.4,3.7,9,7.2,13.6,10.7
					C85.2,71.1,85.4,70.9,85.2,70.7L85.2,70.7z"/>
			</g>
			<g>
				<path class="st0" d="M86,69.7c-0.6-0.6-1.2-1.2-2-1.7c-0.2-0.1-0.4,0.1-0.2,0.3c0.6,0.7,1.3,1.2,2,1.7
					C85.9,70.2,86.1,69.9,86,69.7L86,69.7z"/>
			</g>
			<g>
				<path class="st0" d="M82,66.4c-3.1-2.6-6.2-5-9.5-7.3c-0.3-0.2-0.6,0.2-0.3,0.4c3.2,2.3,6.4,4.7,9.6,7.2
					C82,66.8,82.2,66.5,82,66.4L82,66.4z"/>
			</g>
			<g>
				<path class="st0" d="M86.6,68.4C82.4,64.7,78,61.3,73.5,58c-0.3-0.2-0.6,0.2-0.3,0.5c4.5,3.3,8.9,6.7,13.2,10.2
					C86.5,68.8,86.8,68.5,86.6,68.4L86.6,68.4z"/>
			</g>
			<g>
				<path class="st0" d="M87.6,67.3c-4.1-3.8-8.7-7.7-13.5-10.6c-0.2-0.1-0.4,0.2-0.2,0.3c4.3,3.7,9,7.1,13.4,10.6
					C87.5,67.7,87.8,67.4,87.6,67.3L87.6,67.3z"/>
			</g>
			<g>
				<path class="st0" d="M88.6,66.2c-0.3-0.3-0.6-0.5-0.9-0.8c-0.3-0.3-0.6-0.6-0.9-0.8c-0.2-0.1-0.4,0.1-0.3,0.3
					c0.2,0.3,0.6,0.5,0.9,0.8c0.3,0.3,0.6,0.6,0.9,0.8C88.5,66.7,88.8,66.4,88.6,66.2L88.6,66.2z"/>
			</g>
			<g>
				<path class="st0" d="M85.7,63.8c-3.6-2.8-7.2-5.7-10.9-8.4c-0.3-0.2-0.5,0.2-0.3,0.4c3.6,2.8,7.3,5.5,10.9,8.3
					C85.7,64.2,85.9,63.9,85.7,63.8L85.7,63.8z"/>
			</g>
			<g>
				<path class="st0" d="M89.3,65c-2.8-2.3-5.6-4.7-8.5-6.8c-0.2-0.1-0.4,0.1-0.3,0.3c2.5,2.5,5.6,4.8,8.5,6.8
					C89.3,65.4,89.5,65.1,89.3,65L89.3,65z"/>
			</g>
			<g>
				<path class="st0" d="M78.9,56.8c-1-0.8-2-1.9-3.2-2.5c-0.2-0.1-0.5,0.1-0.3,0.3c0.9,1,2.2,1.7,3.3,2.5
					C78.9,57.3,79.1,57,78.9,56.8L78.9,56.8z"/>
			</g>
			<g>
				<path class="st0" d="M90.2,63.8c-4.4-3.7-8.8-7.5-13.4-11c-0.2-0.2-0.4,0.2-0.2,0.3c4.3,3.8,8.9,7.4,13.4,11
					C90.2,64.3,90.4,64,90.2,63.8L90.2,63.8z"/>
			</g>
			<g>
				<path class="st0" d="M90.9,62.6c-4.2-3.6-8.3-7.5-12.7-10.9c-0.2-0.1-0.4,0.1-0.3,0.3c4,3.9,8.5,7.3,12.8,10.9
					C90.8,63,91,62.7,90.9,62.6L90.9,62.6z"/>
			</g>
			<g>
				<path class="st0" d="M92,61.5c-0.3-0.4-0.7-0.8-1.1-1.1c-0.2-0.2-0.4,0.1-0.3,0.3c0.3,0.4,0.6,0.8,1,1.1
					C91.8,62.1,92.2,61.8,92,61.5L92,61.5z"/>
			</g>
			<g>
				<path class="st0" d="M89.5,59.4c-3.4-3.2-6.8-6.4-10.5-9.2c-0.2-0.2-0.4,0.2-0.2,0.3c3.4,3.1,7,6,10.4,9.2
					C89.4,59.9,89.7,59.6,89.5,59.4L89.5,59.4z"/>
			</g>
			<g>
				<path class="st0" d="M93.2,60.2c-1.8-1.6-3.6-3.5-5.6-4.9c-0.2-0.1-0.4,0.1-0.3,0.3c1.7,1.8,3.7,3.3,5.6,4.9
					C93.2,60.7,93.4,60.3,93.2,60.2L93.2,60.2z"/>
			</g>
			<g>
				<path class="st0" d="M86.6,54.4c-2.2-1.9-4.4-3.7-6.5-5.6c-0.2-0.2-0.5,0.2-0.3,0.4c2.1,1.9,4.3,3.8,6.6,5.5
					C86.6,54.9,86.8,54.6,86.6,54.4L86.6,54.4z"/>
			</g>
			<g>
				<path class="st0" d="M94.3,58.8c-4.4-3.8-8.7-7.7-13.1-11.5c-0.2-0.2-0.6,0.2-0.4,0.4c4.3,3.9,8.7,7.7,13.2,11.4
					C94.3,59.3,94.5,59,94.3,58.8L94.3,58.8z"/>
			</g>
			<g>
				<path class="st0" d="M95.7,57.7c-0.6-0.5-1.2-1.1-1.9-1.5c-0.2-0.1-0.4,0.1-0.2,0.3c0.5,0.6,1.3,1.1,1.9,1.6
					C95.7,58.3,95.9,57.9,95.7,57.7L95.7,57.7z"/>
			</g>
			<g>
				<path class="st0" d="M92.7,55.2c-3.3-3-6.5-6.1-10-8.9c-0.1-0.1-0.4,0.1-0.2,0.2c3.2,3.1,6.7,6,10,8.9
					C92.6,55.6,92.8,55.3,92.7,55.2L92.7,55.2z"/>
			</g>
			<g>
				<path class="st0" d="M96.2,56c-2.7-2.4-5.3-4.9-8.1-7c-0.2-0.1-0.5,0.1-0.3,0.3c2.6,2.5,5.4,4.8,8.1,7.1
					C96.2,56.5,96.4,56.2,96.2,56L96.2,56z"/>
			</g>
			<g>
				<path class="st0" d="M86.6,47.8c-1.2-1.1-2.4-2.3-3.6-3.4c-0.2-0.2-0.5,0.2-0.3,0.3c1.2,1.1,2.5,2.2,3.7,3.3
					C86.5,48.2,86.8,47.9,86.6,47.8L86.6,47.8z"/>
			</g>
			<g>
				<path class="st0" d="M96.4,54.1c-3.9-3.7-7.8-7.3-11.8-10.8c-0.3-0.2-0.6,0.2-0.3,0.4c4,3.5,7.9,7,11.8,10.6
					C96.3,54.4,96.6,54.2,96.4,54.1L96.4,54.1z"/>
			</g>
			<g>
				<path class="st0" d="M98.3,53.2c-3.9-4-8.1-7.8-12.5-11.2c-0.2-0.2-0.5,0.2-0.3,0.4c4.3,3.5,8.5,7.1,12.5,11
					C98.2,53.6,98.5,53.4,98.3,53.2L98.3,53.2z"/>
			</g>
			<g>
				<path class="st0" d="M99.7,52.3c-0.4-0.5-0.8-0.9-1.3-1.2c-0.2-0.1-0.4,0.1-0.3,0.3c0.4,0.4,0.8,0.8,1.2,1.2
					C99.5,52.8,99.9,52.5,99.7,52.3L99.7,52.3z"/>
			</g>
			<g>
				<path class="st0" d="M97.5,50.4c-3.5-3.3-7-6.8-10.6-9.9c-0.2-0.1-0.4,0.1-0.3,0.3c3.4,3.4,7.1,6.6,10.7,9.8
					C97.4,50.7,97.7,50.5,97.5,50.4L97.5,50.4z"/>
			</g>
			<g>
				<path class="st0" d="M99.9,50.4c-4.1-3.6-7.5-7.9-11.9-11.1c-0.2-0.2-0.5,0.2-0.3,0.4c4.4,3.2,7.9,7.4,12,10.9
					C99.9,50.8,100.1,50.5,99.9,50.4L99.9,50.4z"/>
			</g>
			<g>
				<path class="st0" d="M100.9,49.5c-3.9-4.1-8-8.1-12.2-11.9c-0.2-0.1-0.4,0.1-0.3,0.3c4.2,3.8,8.3,7.8,12.2,11.9
					C100.8,49.9,101.1,49.7,100.9,49.5L100.9,49.5z"/>
			</g>
			<g>
				<path class="st0" d="M103.8,48c-3.5-3.9-7.3-7.8-11.5-11c-0.2-0.1-0.4,0.1-0.2,0.3c3.8,3.7,7.7,7.2,11.4,11
					C103.7,48.4,104,48.2,103.8,48L103.8,48z"/>
			</g>
			<g>
				<path class="st0" d="M105.5,48.4c-3.5-3.7-7-7.4-10.6-11.1c-0.2-0.2-0.5,0.1-0.3,0.3c3.5,3.7,7.1,7.3,10.6,11
					C105.4,48.8,105.7,48.5,105.5,48.4L105.5,48.4z"/>
			</g>
			<g>
				<path class="st0" d="M106.9,48.5c-0.4-0.5-0.8-1-1.4-1.4c-0.1-0.1-0.4,0.1-0.3,0.2c0.4,0.6,0.9,1,1.4,1.4
					C106.8,48.9,107.1,48.7,106.9,48.5L106.9,48.5z"/>
			</g>
			<g>
				<path class="st0" d="M103.5,44.9c-2-2.2-4-4.5-6.2-6.5c-0.2-0.2-0.5,0.1-0.3,0.3c2,2.2,4.2,4.3,6.2,6.5
					C103.4,45.4,103.7,45.1,103.5,44.9L103.5,44.9z"/>
			</g>
			<g>
				<path class="st0" d="M108.1,48.6c-2.9-3.7-5.9-7.4-9.3-10.6c-0.2-0.2-0.4,0.1-0.3,0.2c3.1,3.6,6.3,7,9.3,10.6
					C107.9,49,108.2,48.8,108.1,48.6L108.1,48.6z"/>
			</g>
			<g>
				<path class="st0" d="M108.4,47.4c-2.5-3.2-5.2-6.3-8-9.2c-0.2-0.2-0.5,0.1-0.3,0.3c2.8,3,5.5,6,8.1,9.2
					C108.2,47.8,108.5,47.6,108.4,47.4L108.4,47.4z"/>
			</g>
			<g>
				<path class="st0" d="M106.7,44c-1.5-2-3.2-4.2-5.2-5.8c-0.2-0.1-0.4,0.1-0.3,0.3c1.7,1.9,3.6,3.7,5.2,5.7
					C106.6,44.4,106.9,44.2,106.7,44L106.7,44z"/>
			</g>
			<g>
				<path class="st0" d="M105,40.3c-0.6-0.7-1.2-1.6-2-2.2c-0.2-0.2-0.4,0.1-0.2,0.3c0.5,0.8,1.3,1.5,1.9,2.2
					C104.9,40.8,105.2,40.5,105,40.3L105,40.3z"/>
			</g>
			<g>
				<path class="st0" d="M104.8,39.9c-0.3-0.3-0.5-0.5-0.8-0.8c-0.2-0.2-0.4-0.5-0.7-0.7c-0.1-0.1-0.4,0.1-0.3,0.2
					c0.2,0.3,0.4,0.5,0.7,0.7c0.3,0.3,0.5,0.5,0.8,0.8C104.7,40.4,105,40.1,104.8,39.9L104.8,39.9z"/>
			</g>
		</g>
	</g>
	<g>
		<g>
			<path class="st0" d="M68.7,102.4c0.1-0.3,0.1-0.6,0.3-0.9c0.1-0.3,0.3-0.5,0.4-0.8c0.1-0.2-0.2-0.3-0.3-0.2
				c-0.4,0.5-0.6,1.3-0.7,1.9C68.3,102.6,68.7,102.6,68.7,102.4L68.7,102.4z"/>
		</g>
		<g>
			<path class="st0" d="M69.4,103.2c0.5-1.2,1.1-2.6,1.4-3.9c0.1-0.2-0.3-0.3-0.4-0.1c-0.6,1.2-0.9,2.6-1.3,3.8
				C69,103.3,69.3,103.4,69.4,103.2L69.4,103.2z"/>
		</g>
		<g>
			<path class="st0" d="M70.4,103.9c0.4-1.7,1.2-3.3,1.6-4.9c0-0.2-0.2-0.4-0.3-0.2c-0.8,1.5-1.2,3.3-1.6,5
				C70,104,70.4,104.2,70.4,103.9L70.4,103.9z"/>
		</g>
		<g>
			<path class="st0" d="M71.3,104.6c0.2-0.5,0.4-1.2,0.5-1.8c0-0.2-0.3-0.3-0.4-0.1c-0.2,0.5-0.4,1.2-0.5,1.8
				C70.8,104.7,71.2,104.8,71.3,104.6L71.3,104.6z"/>
		</g>
		<g>
			<path class="st0" d="M72.1,102c0.5-1.4,1.1-2.9,1.5-4.4c0.1-0.2-0.3-0.4-0.4-0.1c-0.6,1.4-1,2.9-1.5,4.3
				C71.6,102.1,72,102.3,72.1,102L72.1,102z"/>
		</g>
		<g>
			<path class="st0" d="M72.3,105.2c1-3,2.2-6,2.9-9.1c0-0.2-0.3-0.3-0.4-0.1c-1.2,2.9-2,6.1-2.9,9.1
				C71.8,105.3,72.2,105.4,72.3,105.2L72.3,105.2z"/>
		</g>
		<g>
			<path class="st0" d="M72.9,106.2c1.4-3.5,2.8-7.3,3.7-11c0.1-0.3-0.3-0.4-0.4-0.1c-1.5,3.5-2.7,7.4-3.7,11
				C72.4,106.3,72.8,106.4,72.9,106.2L72.9,106.2z"/>
		</g>
		<g>
			<path class="st0" d="M73.7,106.9c1.6-4.2,3-8.5,4.3-12.7c0.1-0.3-0.4-0.5-0.5-0.2c-1.5,4.2-2.9,8.5-4.2,12.8
				C73.3,107,73.6,107.1,73.7,106.9L73.7,106.9z"/>
		</g>
		<g>
			<path class="st0" d="M74.7,106.9c0.6-1.3,1.3-2.7,1.7-4.1c0.1-0.2-0.3-0.4-0.4-0.2c-0.7,1.3-1.2,2.8-1.7,4.2
				C74.3,107,74.6,107.1,74.7,106.9L74.7,106.9z"/>
		</g>
		<g>
			<path class="st0" d="M76.9,101.6c1.1-3.1,2.2-6.2,3-9.4c0.1-0.2-0.3-0.4-0.3-0.1c-1.2,3-2.1,6.3-3,9.4
				C76.5,101.7,76.8,101.8,76.9,101.6L76.9,101.6z"/>
		</g>
		<g>
			<path class="st0" d="M76.2,106.6c1.9-4.9,3.5-10,4.9-15.1c0.1-0.3-0.4-0.5-0.4-0.2c-1.4,5.1-3.1,10.1-4.8,15.1
				C75.7,106.7,76.1,106.8,76.2,106.6L76.2,106.6z"/>
		</g>
		<g>
			<path class="st0" d="M77.8,105.2c1.8-4.9,3.4-10,5-15c0.1-0.3-0.4-0.5-0.5-0.2c-1.7,5-3.4,10-4.9,15
				C77.4,105.3,77.7,105.5,77.8,105.2L77.8,105.2z"/>
		</g>
		<g>
			<path class="st0" d="M79.6,103.5c0.4-1.1,0.9-2.3,1-3.5c0-0.2-0.3-0.3-0.4-0.1c-0.5,1-0.7,2.3-1,3.4
				C79.1,103.7,79.5,103.8,79.6,103.5L79.6,103.5z"/>
		</g>
		<g>
			<path class="st0" d="M81.3,98.2c0.4-0.9,0.8-2,1-3c0-0.2-0.3-0.3-0.3-0.1c-0.5,0.9-0.7,2-1,3C80.9,98.3,81.2,98.4,81.3,98.2
				L81.3,98.2z"/>
		</g>
		<g>
			<path class="st0" d="M82.9,93.6c0.5-1.7,1.1-3.3,1.5-5c0-0.2-0.3-0.3-0.4-0.1c-0.7,1.5-1.1,3.4-1.4,5
				C82.6,93.7,82.9,93.7,82.9,93.6L82.9,93.6z"/>
		</g>
		<g>
			<path class="st0" d="M81.1,102c1.6-4.6,3.2-9.1,4.5-13.8c0.1-0.3-0.4-0.5-0.4-0.2c-1.5,4.6-2.9,9.2-4.4,13.8
				C80.7,102.1,81,102.2,81.1,102L81.1,102z"/>
		</g>
		<g>
			<path class="st0" d="M82.4,101.4c1.6-4.5,3.1-9,4.6-13.5c0.1-0.3-0.4-0.5-0.5-0.2c-1.5,4.5-3.1,9-4.4,13.5
				C81.9,101.5,82.3,101.7,82.4,101.4L82.4,101.4z"/>
		</g>
		<g>
			<path class="st0" d="M83.6,100.5c1.8-3.9,3.4-8.2,4.4-12.4c0.1-0.3-0.3-0.4-0.4-0.2c-1.5,4.1-2.9,8.3-4.4,12.4
				C83.1,100.6,83.5,100.8,83.6,100.5L83.6,100.5z"/>
		</g>
		<g>
			<path class="st0" d="M85.3,99c1.3-3.1,2.7-6.5,3.6-9.8c0.1-0.3-0.3-0.4-0.4-0.1c-1.3,3.2-2.4,6.5-3.6,9.8
				C84.8,99.1,85.2,99.2,85.3,99L85.3,99z"/>
		</g>
		<g>
			<path class="st0" d="M86.8,97.5c1.1-2.5,2.3-5.1,2.8-7.8c0-0.2-0.3-0.3-0.4-0.1c-1,2.6-1.7,5.2-2.8,7.8
				C86.3,97.6,86.7,97.7,86.8,97.5L86.8,97.5z"/>
		</g>
		<g>
			<path class="st0" d="M88.3,96.3c1-2,1.8-4.1,2.2-6.3c0-0.3-0.4-0.4-0.5-0.1c-0.6,2.1-1.2,4.2-2.1,6.3
				C87.8,96.4,88.2,96.5,88.3,96.3L88.3,96.3z"/>
		</g>
		<g>
			<path class="st0" d="M89.8,95c0.5-1.4,1.1-2.9,1.3-4.4c0-0.3-0.3-0.3-0.4-0.1c-0.6,1.4-0.9,2.9-1.2,4.3
				C89.3,95.1,89.7,95.2,89.8,95L89.8,95z"/>
		</g>
		<g>
			<path class="st0" d="M90.8,94.4c0.4-1.1,0.8-2.3,1-3.5c0-0.2-0.3-0.3-0.4-0.1c-0.5,1.1-0.8,2.3-1,3.4
				C90.4,94.5,90.7,94.7,90.8,94.4L90.8,94.4z"/>
		</g>
		<g>
			<path class="st0" d="M91.7,93.9c0.1-0.3,0.2-0.6,0.4-0.9c0.1-0.3,0.3-0.6,0.3-0.9c0-0.2-0.2-0.3-0.4-0.1
				c-0.2,0.2-0.3,0.5-0.4,0.8c-0.1,0.3-0.2,0.6-0.3,0.9C91.1,94,91.5,94.1,91.7,93.9L91.7,93.9z"/>
		</g>
		<g>
			<path class="st0" d="M92,38.2c0.2-0.3,0.5-0.7,0.6-1.1c0.1-0.2-0.2-0.3-0.3-0.2c-0.3,0.3-0.5,0.7-0.7,1
				C91.5,38.2,91.8,38.5,92,38.2L92,38.2z"/>
		</g>
		<g>
			<path class="st0" d="M92.4,38.7c0.4-0.5,0.8-1,1.1-1.5c0.1-0.2-0.2-0.3-0.3-0.2c-0.4,0.4-0.8,1-1.1,1.5
				C91.9,38.7,92.2,39,92.4,38.7L92.4,38.7z"/>
		</g>
		<g>
			<path class="st0" d="M92.9,39.3c0.6-0.5,1.1-1.2,1.4-1.9c0.1-0.2-0.2-0.3-0.3-0.2c-0.5,0.6-0.9,1.2-1.4,1.8
				C92.4,39.2,92.7,39.5,92.9,39.3L92.9,39.3z"/>
		</g>
		<g>
			<path class="st0" d="M93.8,39.7c0.4-0.7,0.9-1.4,1.3-2.1c0.1-0.2-0.1-0.4-0.3-0.3c-0.6,0.6-1,1.4-1.4,2.2
				C93.3,39.8,93.7,39.9,93.8,39.7L93.8,39.7z"/>
		</g>
		<g>
			<path class="st0" d="M94.1,40.5c0.4-0.4,0.7-0.8,1-1.2c0.3-0.4,0.6-0.8,0.8-1.2c0.1-0.2-0.2-0.3-0.3-0.2
				c-0.3,0.4-0.6,0.8-0.8,1.2c-0.3,0.4-0.6,0.8-0.9,1.2C93.6,40.4,93.9,40.7,94.1,40.5L94.1,40.5z"/>
		</g>
		<g>
			<path class="st0" d="M94.7,41.3c0.8-1.1,1.8-2.2,2.4-3.4c0.1-0.2-0.2-0.3-0.3-0.2c-0.9,1-1.7,2.2-2.4,3.4
				C94.3,41.3,94.6,41.5,94.7,41.3L94.7,41.3z"/>
		</g>
		<g>
			<path class="st0" d="M95.3,42.2c1-1.3,2.1-2.6,2.9-4c0.1-0.2-0.1-0.4-0.3-0.2c-1.1,1.2-2,2.6-3,4C94.8,42.2,95.1,42.4,95.3,42.2
				L95.3,42.2z"/>
		</g>
		<g>
			<path class="st0" d="M96.2,42.6c0.2-0.3,0.5-0.6,0.6-1c0.1-0.2-0.2-0.3-0.3-0.2c-0.3,0.3-0.5,0.6-0.7,0.9
				C95.7,42.6,96.1,42.8,96.2,42.6L96.2,42.6z"/>
		</g>
		<g>
			<path class="st0" d="M97.6,40.7c0.3-0.5,0.7-0.9,1.1-1.3c0.4-0.4,0.8-0.8,1.1-1.3c0.1-0.2-0.1-0.4-0.3-0.3
				c-0.9,0.7-1.6,1.8-2.2,2.7C97.2,40.7,97.5,40.9,97.6,40.7L97.6,40.7z"/>
		</g>
		<g>
			<path class="st0" d="M97,43c1.2-1.5,2.6-3,3.6-4.6c0.1-0.2-0.1-0.5-0.3-0.3c-1.4,1.4-2.5,3.1-3.7,4.7C96.6,43,96.9,43.2,97,43
				L97,43z"/>
		</g>
		<g>
			<path class="st0" d="M97.7,43.8c1.4-1.6,3-3.4,4-5.3c0.1-0.2-0.2-0.5-0.3-0.2c-1.5,1.7-2.7,3.6-4,5.4
				C97.2,43.8,97.6,44,97.7,43.8L97.7,43.8z"/>
		</g>
		<g>
			<path class="st0" d="M98.3,44.5c0.5-0.5,1.2-1,1.5-1.7c0.1-0.2-0.2-0.3-0.3-0.2c-0.2,0.2-0.4,0.5-0.6,0.8
				c-0.2,0.3-0.5,0.6-0.8,0.8C97.8,44.4,98.1,44.7,98.3,44.5L98.3,44.5z"/>
		</g>
		<g>
			<path class="st0" d="M100.3,42.1c0.6-0.6,1.1-1.2,1.6-1.8c0.5-0.5,1.1-1.1,1.4-1.7c0.1-0.2-0.1-0.4-0.3-0.3
				c-0.6,0.4-1,1.1-1.5,1.6c-0.5,0.6-1.1,1.2-1.6,1.8C99.9,42,100.1,42.3,100.3,42.1L100.3,42.1z"/>
		</g>
		<g>
			<path class="st0" d="M99.1,45.1c1.6-1.8,3.4-3.5,4.7-5.4c0.1-0.2-0.1-0.4-0.3-0.3c-1.7,1.6-3.2,3.6-4.7,5.4
				C98.6,45.1,99,45.3,99.1,45.1L99.1,45.1z"/>
		</g>
		<g>
			<path class="st0" d="M99.7,46c0.7-0.8,1.4-1.5,2.1-2.3c0.1-0.2-0.1-0.3-0.3-0.2c-0.8,0.6-1.5,1.5-2.2,2.3
				C99.2,46,99.6,46.2,99.7,46L99.7,46z"/>
		</g>
		<g>
			<path class="st0" d="M102.8,42.9c0.9-1,1.9-2.1,2.6-3.2c0.1-0.2-0.1-0.5-0.3-0.3c-1,0.9-1.8,2.2-2.6,3.3
				C102.3,42.9,102.6,43.1,102.8,42.9L102.8,42.9z"/>
		</g>
		<g>
			<path class="st0" d="M100.3,46.8c1.6-1.8,3.3-3.5,4.8-5.3c0.1-0.2-0.1-0.4-0.3-0.2c-1.7,1.7-3.2,3.5-4.8,5.3
				C99.9,46.7,100.2,46.9,100.3,46.8L100.3,46.8z"/>
		</g>
		<g>
			<path class="st0" d="M101.2,46.9c0.4-0.3,0.8-0.7,1-1.1c0.1-0.2-0.1-0.4-0.3-0.2c-0.3,0.4-0.6,0.8-1,1.1
				C100.8,46.8,101,47.1,101.2,46.9L101.2,46.9z"/>
		</g>
		<g>
			<path class="st0" d="M103.2,44.9c0.5-0.5,1.1-1,1.6-1.5c0.5-0.5,1-0.9,1.4-1.5c0.1-0.2-0.1-0.4-0.3-0.3c-0.5,0.4-1,1-1.5,1.5
				c-0.5,0.5-1,1-1.5,1.5C102.9,44.8,103.1,45.1,103.2,44.9L103.2,44.9z"/>
		</g>
		<g>
			<path class="st0" d="M101.8,47.5c1.7-1.3,3.6-2.8,4.8-4.6c0.1-0.2-0.1-0.4-0.3-0.3c-0.8,0.7-1.5,1.6-2.3,2.3
				c-0.8,0.8-1.6,1.5-2.4,2.2C101.4,47.4,101.6,47.7,101.8,47.5L101.8,47.5z"/>
		</g>
		<g>
			<path class="st0" d="M102.5,48.2c1.4-1.2,2.9-2.5,4-4c0.1-0.2-0.1-0.4-0.3-0.3c-1.3,1.3-2.5,2.7-3.9,3.9
				C102.1,48.1,102.3,48.4,102.5,48.2L102.5,48.2z"/>
		</g>
		<g>
			<path class="st0" d="M104.2,48.3c0.3-0.3,0.7-0.6,0.9-1c0.1-0.2-0.1-0.4-0.3-0.2c-0.3,0.2-0.6,0.6-0.9,0.9
				C103.7,48.1,104,48.5,104.2,48.3L104.2,48.3z"/>
		</g>
		<g>
			<path class="st0" d="M105.5,46.9c0.4-0.3,0.7-0.7,1.1-1c0.3-0.3,0.7-0.6,1-1c0.1-0.2-0.1-0.4-0.3-0.2c-0.4,0.3-0.7,0.6-1,1
				c-0.3,0.3-0.7,0.7-1,1C105.1,46.8,105.3,47.1,105.5,46.9L105.5,46.9z"/>
		</g>
		<g>
			<path class="st0" d="M105.2,48.3c1-0.8,1.9-1.6,2.6-2.6c0.1-0.1-0.1-0.4-0.2-0.2c-0.9,0.8-1.7,1.7-2.6,2.5
				C104.7,48.2,105,48.5,105.2,48.3L105.2,48.3z"/>
		</g>
		<g>
			<path class="st0" d="M106.2,48.5c0.7-0.7,1.4-1.3,2-2c0.1-0.2-0.1-0.3-0.2-0.2c-0.7,0.6-1.3,1.3-1.9,2
				C105.8,48.4,106.1,48.7,106.2,48.5L106.2,48.5z"/>
		</g>
		<g>
			<path class="st0" d="M107.4,48.5c0.4-0.3,0.8-0.7,1.1-1.1c0.1-0.2-0.1-0.4-0.3-0.3c-0.4,0.3-0.7,0.7-1.1,1
				C107,48.4,107.2,48.7,107.4,48.5L107.4,48.5z"/>
		</g>
		<g>
			<path class="st0" d="M108.2,48.8c0.1-0.1,0.3-0.2,0.4-0.3c0.1-0.1,0-0.4-0.2-0.3c-0.2,0.1-0.3,0.2-0.5,0.3
				C107.7,48.6,108,48.9,108.2,48.8L108.2,48.8z"/>
		</g>
		<g>
			<path class="st0" d="M83.6,159.4c0.3-0.4,0.7-0.8,0.9-1.3c0.1-0.2-0.2-0.3-0.3-0.2c-0.4,0.4-0.7,0.8-1,1.2
				C83.1,159.4,83.5,159.6,83.6,159.4L83.6,159.4z"/>
		</g>
		<g>
			<path class="st0" d="M84.4,160.2c0.6-1,1.3-2,1.8-3.1c0.1-0.2-0.2-0.3-0.3-0.2c-0.7,0.9-1.3,2-1.9,3.1
				C83.9,160.2,84.3,160.4,84.4,160.2L84.4,160.2z"/>
		</g>
		<g>
			<path class="st0" d="M85.6,160.4c0.3-0.3,0.5-0.8,0.6-1.2c0-0.2-0.2-0.3-0.3-0.2c-0.3,0.3-0.5,0.7-0.6,1.2
				C85.2,160.4,85.5,160.6,85.6,160.4L85.6,160.4z"/>
		</g>
		<g>
			<path class="st0" d="M86.4,158.6c0.2-0.4,0.4-0.8,0.6-1.2c0.2-0.3,0.4-0.7,0.6-1c0.1-0.2-0.2-0.4-0.3-0.2c-0.6,0.6-1,1.6-1.2,2.3
				C85.9,158.7,86.3,158.8,86.4,158.6L86.4,158.6z"/>
		</g>
		<g>
			<path class="st0" d="M86.6,161.2c0.8-1.8,1.8-3.7,2.5-5.6c0.1-0.2-0.2-0.4-0.3-0.2c-1.2,1.6-1.9,3.7-2.5,5.6
				C86.1,161.3,86.5,161.4,86.6,161.2L86.6,161.2z"/>
		</g>
		<g>
			<path class="st0" d="M87.6,161.8c1.1-2.5,2.4-5,3.4-7.5c0.1-0.2-0.2-0.4-0.4-0.2c-1.5,2.2-2.6,5-3.4,7.5
				C87.1,161.9,87.5,162.1,87.6,161.8L87.6,161.8z"/>
		</g>
		<g>
			<path class="st0" d="M88.5,161.8c1.4-2.5,2.8-5.2,4-7.9c0.1-0.2-0.3-0.4-0.4-0.2c-1.5,2.5-2.8,5.2-3.9,7.9
				C88.1,161.8,88.4,162,88.5,161.8L88.5,161.8z"/>
		</g>
		<g>
			<path class="st0" d="M90,161.2c0.5-0.5,1-1.1,1.1-1.7c0-0.2-0.2-0.3-0.3-0.1c-0.2,0.2-0.3,0.5-0.5,0.8c-0.2,0.3-0.4,0.5-0.6,0.8
				C89.6,161.1,89.9,161.4,90,161.2L90,161.2z"/>
		</g>
		<g>
			<path class="st0" d="M91.5,158.6c0.9-1.7,2-3.5,2.5-5.3c0.1-0.2-0.2-0.4-0.4-0.2c-1.1,1.6-1.7,3.6-2.5,5.4
				C91.1,158.6,91.4,158.8,91.5,158.6L91.5,158.6z"/>
		</g>
		<g>
			<path class="st0" d="M91.7,160.5c1.3-2.4,2.7-5,3.7-7.5c0.1-0.2-0.2-0.4-0.3-0.2c-1.4,2.3-2.6,5-3.7,7.5
				C91.2,160.5,91.6,160.7,91.7,160.5L91.7,160.5z"/>
		</g>
		<g>
			<path class="st0" d="M93.3,160.1c1.3-2.7,2.8-5.5,3.9-8.3c0.1-0.2-0.2-0.4-0.3-0.2c-1.6,2.6-2.7,5.6-3.9,8.3
				C92.8,160.2,93.2,160.4,93.3,160.1L93.3,160.1z"/>
		</g>
		<g>
			<path class="st0" d="M94.8,159.3c1.3-2.3,2.5-4.8,3.3-7.3c0.1-0.2-0.3-0.4-0.4-0.1c-1.1,2.4-2.1,4.9-3.3,7.3
				C94.3,159.3,94.7,159.5,94.8,159.3L94.8,159.3z"/>
		</g>
		<g>
			<path class="st0" d="M96.1,158.9c1.2-2,2.4-4.3,3-6.6c0.1-0.2-0.2-0.4-0.4-0.2c-1.1,2.1-2,4.4-3,6.6
				C95.6,158.9,96,159.1,96.1,158.9L96.1,158.9z"/>
		</g>
		<g>
			<path class="st0" d="M97.4,158.4c0.9-1.6,1.9-3.4,2.4-5.2c0.1-0.2-0.2-0.3-0.3-0.1c-0.8,1.7-1.5,3.4-2.4,5.1
				C97,158.4,97.3,158.7,97.4,158.4L97.4,158.4z"/>
		</g>
		<g>
			<path class="st0" d="M98.3,158c1-1.4,2-3.1,2.5-4.8c0.1-0.2-0.3-0.4-0.4-0.1c-0.8,1.6-1.5,3.2-2.5,4.7
				C97.9,158,98.2,158.2,98.3,158L98.3,158z"/>
		</g>
		<g>
			<path class="st0" d="M99.5,157.9c0.8-1.2,1.7-2.6,2.1-4c0.1-0.2-0.2-0.4-0.3-0.2c-0.8,1.2-1.4,2.7-2.1,3.9
				C99,157.8,99.3,158.1,99.5,157.9L99.5,157.9z"/>
		</g>
		<g>
			<path class="st0" d="M100.6,157.4c0.5-0.9,1.1-1.8,1.5-2.7c0.1-0.2-0.2-0.4-0.4-0.2c-0.6,0.8-1,1.8-1.5,2.7
				C100.2,157.4,100.5,157.6,100.6,157.4L100.6,157.4z"/>
		</g>
		<g>
			<path class="st0" d="M101.8,157.1c0.3-0.6,0.8-1.4,0.9-2.1c0-0.2-0.3-0.3-0.4-0.1c-0.2,0.3-0.4,0.6-0.5,1
				c-0.2,0.4-0.3,0.7-0.5,1.1C101.3,157.2,101.7,157.3,101.8,157.1L101.8,157.1z"/>
		</g>
		<g>
			<path class="st0" d="M102.8,157.2c0.2-0.4,0.6-0.8,0.6-1.2c0-0.2-0.2-0.3-0.3-0.2c-0.3,0.3-0.5,0.8-0.7,1.2
				C102.3,157.2,102.7,157.4,102.8,157.2L102.8,157.2z"/>
		</g>
		<g>
			<path class="st0" d="M89.4,196.7c0.2-0.4,0.3-0.8,0.4-1.1c0.1-0.3,0.3-0.7,0.3-1c0-0.2-0.3-0.3-0.4-0.1c-0.4,0.6-0.7,1.5-0.8,2.2
				C88.9,196.9,89.3,197,89.4,196.7L89.4,196.7z"/>
		</g>
		<g>
			<path class="st0" d="M90,197.4c0.4-1.1,1-2.5,1.1-3.7c0-0.2-0.3-0.3-0.4-0.1c-0.5,1.1-0.9,2.4-1.1,3.6
				C89.5,197.5,89.9,197.7,90,197.4L90,197.4z"/>
		</g>
		<g>
			<path class="st0" d="M90.6,198.4c0.6-1.8,1.2-3.6,1.7-5.4c0.1-0.2-0.3-0.3-0.4-0.1c-0.7,1.7-1.1,3.6-1.6,5.4
				C90.2,198.5,90.6,198.7,90.6,198.4L90.6,198.4z"/>
		</g>
		<g>
			<path class="st0" d="M91.8,197.7c0.5-1.6,1.2-3.2,1.5-4.9c0-0.3-0.3-0.3-0.4-0.1c-0.7,1.5-1,3.3-1.4,4.9
				C91.4,197.8,91.7,198,91.8,197.7L91.8,197.7z"/>
		</g>
		<g>
			<path class="st0" d="M92.5,197.1c0,0,0.1-0.1,0.1-0.1c0.1-0.1-0.1-0.4-0.2-0.2c0,0-0.1,0.1-0.1,0.1
				C92.2,197,92.4,197.2,92.5,197.1L92.5,197.1z"/>
		</g>
		<g>
			<path class="st0" d="M92.6,197.6c0.7-1.6,1.4-3.3,1.8-5c0-0.2-0.3-0.3-0.4-0.1c-0.7,1.6-1.2,3.3-1.8,5
				C92.1,197.7,92.5,197.9,92.6,197.6L92.6,197.6z"/>
		</g>
		<g>
			<path class="st0" d="M93.9,196.9c0.6-1.6,1.5-3.2,1.9-4.9c0-0.2-0.2-0.4-0.4-0.2c-0.8,1.5-1.3,3.3-1.9,4.9
				C93.4,197,93.8,197.2,93.9,196.9L93.9,196.9z"/>
		</g>
		<g>
			<path class="st0" d="M95.2,196.2c0.7-1.7,1.6-3.6,2-5.4c0-0.2-0.3-0.3-0.4-0.1c-0.8,1.7-1.3,3.6-2,5.4
				C94.7,196.3,95.1,196.5,95.2,196.2L95.2,196.2z"/>
		</g>
		<g>
			<path class="st0" d="M96.6,195.6c0.6-1.6,1.4-3.3,1.7-5c0-0.2-0.3-0.3-0.4-0.1c-0.8,1.5-1.2,3.3-1.8,4.9
				C96.1,195.7,96.5,195.9,96.6,195.6L96.6,195.6z"/>
		</g>
		<g>
			<path class="st0" d="M97.8,195.8c0.5-1.9,1.1-3.8,1.4-5.7c0-0.2-0.3-0.3-0.4-0.1c-0.7,1.7-1.1,3.8-1.4,5.7
				C97.4,195.9,97.8,196,97.8,195.8L97.8,195.8z"/>
		</g>
		<g>
			<path class="st0" d="M99,194.7c0.4-1.5,0.8-3,1.1-4.5c0-0.2-0.3-0.3-0.4-0.1c-0.5,1.4-0.8,3-1.1,4.5
				C98.6,194.8,99,194.9,99,194.7L99,194.7z"/>
		</g>
		<g>
			<path class="st0" d="M99.9,194.3c0.3-1.2,0.8-2.5,0.8-3.7c0-0.2-0.3-0.3-0.4-0.1c-0.5,1.1-0.6,2.5-0.8,3.7
				C99.5,194.4,99.8,194.5,99.9,194.3L99.9,194.3z"/>
		</g>
		<g>
			<path class="st0" d="M100.5,194c0.3-0.9,0.6-2,0.6-3c0-0.2-0.3-0.3-0.4-0.1c-0.3,0.9-0.4,2-0.6,2.9
				C100.1,194.1,100.5,194.3,100.5,194L100.5,194z"/>
		</g>
		<g>
			<path class="st0" d="M101.3,193.7c0.2-0.7,0.5-1.4,0.5-2.1c0-0.2-0.3-0.3-0.4-0.1c-0.3,0.6-0.4,1.4-0.5,2.1
				C100.9,193.8,101.2,193.9,101.3,193.7L101.3,193.7z"/>
		</g>
	</g>
	<g>
		<path class="st0" d="M32.3,57.5c2.4-3,4.8-6,7.1-9.1c0.2-0.3-0.2-0.5-0.4-0.3c-2.3,3.1-4.7,6.1-7.1,9.1
			C31.8,57.5,32.2,57.7,32.3,57.5L32.3,57.5z"/>
	</g>
	<g>
		<path class="st0" d="M41,46.5c0.2-0.3,0.3-0.5,0.4-0.8c0-0.2-0.2-0.4-0.3-0.2c-0.2,0.2-0.3,0.5-0.5,0.8
			C40.5,46.5,40.9,46.8,41,46.5L41,46.5z"/>
	</g>
	<g>
		<path class="st0" d="M43.5,42.2c4.3-5,8.2-10.5,11.7-16c0.2-0.3-0.2-0.5-0.4-0.3c-4.2,5.1-7.4,10.9-11.7,16
			C43.1,42.2,43.4,42.4,43.5,42.2L43.5,42.2z"/>
	</g>
	<g>
		<path class="st0" d="M60.9,18.8c4-4.7,7.9-9.7,11.3-14.9c0.2-0.4-0.3-0.7-0.5-0.4c-3.7,5-7.3,10.1-11.1,15
			C60.4,18.8,60.7,19,60.9,18.8L60.9,18.8z"/>
	</g>
	<g>
		<path class="st0" d="M32,57.8c1.8,2.6,3.9,5,6,7.4c0.2,0.3,0.7-0.1,0.4-0.4c-2.1-2.4-4-5-6.1-7.4C32.2,57.3,31.9,57.5,32,57.8
			L32,57.8z"/>
	</g>
	<g>
		<path class="st0" d="M39.8,66.6c0.2,0.3,0.4,0.6,0.6,0.8c0.2,0.2,0.4,0.5,0.7,0.7c0.2,0.1,0.4-0.1,0.3-0.2
			c-0.2-0.3-0.4-0.5-0.6-0.7c-0.2-0.3-0.4-0.5-0.6-0.8C39.9,66.2,39.7,66.4,39.8,66.6L39.8,66.6z"/>
	</g>
	<g>
		<path class="st0" d="M58.3,89.1c2.9,3.6,5.9,7,8.9,10.4c0.2,0.3,0.6-0.1,0.4-0.3c-3-3.5-6-6.9-9.1-10.3
			C58.4,88.8,58.2,89,58.3,89.1L58.3,89.1z"/>
	</g>
	<g>
		<path class="st0" d="M73.4,70.3c0.7,1.3,1.5,2.5,2.3,3.7c0.1,0.2,0.5,0,0.4-0.2c-0.8-1.3-1.6-2.5-2.4-3.7
			C73.6,70,73.3,70.2,73.4,70.3L73.4,70.3z"/>
	</g>
	<g>
		<path class="st0" d="M77,76c0.7,1.1,1.4,2.3,2.2,3.4c0.1,0.2,0.5,0,0.4-0.2c-0.7-1.1-1.4-2.3-2.2-3.4C77.2,75.5,76.8,75.8,77,76
			L77,76z"/>
	</g>
	<g>
		<path class="st0" d="M80.1,80.8c0.7,1.2,1.4,2.3,2.1,3.5c0.4,0.7,0.9,2,1.6,2.4c0.2,0.1,0.3,0,0.3-0.2c-0.1-0.9-1.2-2.1-1.7-2.8
			c-0.7-1-1.3-2.1-2-3.1C80.3,80.4,80,80.6,80.1,80.8L80.1,80.8z"/>
	</g>
	<g>
		<path class="st0" d="M67.8,99.4c0.8-0.5,1.6-1.3,2.3-2c0.8-0.7,1.5-1.3,2.3-2.1c0.2-0.2-0.1-0.6-0.3-0.4c-0.8,0.7-1.6,1.4-2.4,2.2
			c-0.7,0.7-1.5,1.3-2.1,2C67.3,99.3,67.6,99.5,67.8,99.4L67.8,99.4z"/>
	</g>
	<g>
		<path class="st0" d="M74.4,93.7c0.4-0.3,0.8-0.6,1.1-0.9c0.1-0.2-0.1-0.4-0.2-0.3c-0.4,0.2-0.8,0.6-1.1,0.9
			C73.9,93.6,74.2,93.9,74.4,93.7L74.4,93.7z"/>
	</g>
	<g>
		<path class="st0" d="M79.3,90.3c0.9-0.6,1.8-1.1,2.6-1.8c0.7-0.6,1.6-1.1,2.1-1.9c0.1-0.2-0.1-0.5-0.3-0.3
			c-0.8,0.4-1.5,1.2-2.2,1.8c-0.8,0.7-1.6,1.3-2.4,1.9C78.9,90.1,79.1,90.4,79.3,90.3L79.3,90.3z"/>
	</g>
	<g>
		<path class="st0" d="M68.1,60.8c0.7,1.8,1.7,3.4,2.6,5.1c0.1,0.2,0.4,0.1,0.3-0.1c-0.8-1.7-1.6-3.5-2.6-5.1
			C68.3,60.5,68,60.6,68.1,60.8L68.1,60.8z"/>
	</g>
	<g>
		<path class="st0" d="M68.6,60.6c2-2.5,3.9-5.1,5.6-7.7c0.1-0.2-0.2-0.5-0.3-0.2c-2,2.5-3.8,5.1-5.5,7.8
			C68.1,60.6,68.4,60.8,68.6,60.6L68.6,60.6z"/>
	</g>
	<g>
		<path class="st0" d="M82,42.9c1.2-1.4,2.3-2.8,3.5-4.2c1.1-1.4,2.4-2.7,3.3-4.3c0.1-0.2-0.1-0.5-0.3-0.3c-1.2,1.2-2.2,2.6-3.3,4
			c-1.2,1.5-2.4,3-3.6,4.5C81.5,42.9,81.8,43.1,82,42.9L82,42.9z"/>
	</g>
	<g>
		<path class="st0" d="M88.5,34.6c2.2,0.3,4.4,0.7,6.6,0.8c0.4,0,0.4-0.5,0.1-0.5c-2.2-0.4-4.4-0.6-6.6-0.8
			C88.2,34.1,88.2,34.6,88.5,34.6L88.5,34.6z"/>
	</g>
	<g>
		<path class="st0" d="M102.1,36.2c1.1,0.2,2.2,0.6,3.3,0.6c0.2,0,0.4-0.3,0.1-0.4c-1-0.4-2.3-0.4-3.4-0.6
			C101.9,35.8,101.8,36.2,102.1,36.2L102.1,36.2z"/>
	</g>
	<g>
		<path class="st0" d="M105.2,36.9c1.6,3.2,3.5,6.3,5.1,9.5c0.2,0.3,0.7,0.1,0.5-0.3c-1.6-3.2-3.2-6.5-5.2-9.5
			C105.4,36.4,105,36.6,105.2,36.9L105.2,36.9z"/>
	</g>
	<g>
		<path class="st0" d="M111.9,49.1c0.3,0.4,0.6,0.9,0.9,1.2c0.1,0.1,0.4,0,0.3-0.2c-0.2-0.5-0.6-0.9-0.9-1.3
			C112.1,48.6,111.8,48.9,111.9,49.1L111.9,49.1z"/>
	</g>
	<g>
		<path class="st0" d="M122.6,66.4c1.4,2.4,2.8,4.9,4.5,7c0.1,0.2,0.4,0,0.3-0.2c-1.3-2.4-3-4.7-4.5-7
			C122.7,66.1,122.5,66.3,122.6,66.4L122.6,66.4z"/>
	</g>
	<g>
		<path class="st0" d="M119.8,80.5c2.7-2.3,5.6-4.7,7.7-7.5c0.2-0.2-0.1-0.5-0.4-0.3c-2.7,2.2-5.1,5-7.6,7.5
			C119.3,80.4,119.6,80.7,119.8,80.5L119.8,80.5z"/>
	</g>
	<g>
		<path class="st0" d="M80.3,116.7c2.5-1.9,5.3-4,7.3-6.5c0.2-0.2-0.1-0.4-0.3-0.3c-2.5,2-4.8,4.4-7.3,6.4
			C79.8,116.5,80.1,116.8,80.3,116.7L80.3,116.7z"/>
	</g>
	<g>
		<path class="st0" d="M79.9,116.6c0.2,2.8,0.6,5.7,1,8.5c0,0.3,0.5,0.2,0.5-0.1c-0.1-2.8-0.4-5.8-1.1-8.5
			C80.2,116.3,79.9,116.3,79.9,116.6L79.9,116.6z"/>
	</g>
	<g>
		<path class="st0" d="M83.9,156.1c0.1-0.3,1.6-0.9,1.8-1c0.7-0.3,1.3-0.7,2-1c1.4-0.7,2.9-1.4,4.3-2.2c0.3-0.2,0.1-0.6-0.2-0.5
			c-2.1,0.8-4,2-6,3c-0.7,0.4-2.4,0.7-2.3,1.7C83.4,156.4,83.8,156.3,83.9,156.1L83.9,156.1z"/>
	</g>
	<g>
		<path class="st0" d="M82.4,142.6c0.2,4.4,0.3,8.9,0.6,13.3c0,0.4,0.7,0.3,0.6-0.1c-0.4-4.4-0.4-8.9-0.9-13.3
			C82.8,142.3,82.4,142.4,82.4,142.6L82.4,142.6z"/>
	</g>
	<g>
		<path class="st0" d="M95.4,150.3c0.4-0.2,0.8-0.5,1.1-0.8c0.2-0.2,0-0.5-0.3-0.4c-0.4,0.2-0.8,0.5-1.1,0.8
			C95,150.1,95.2,150.5,95.4,150.3L95.4,150.3z"/>
	</g>
	<g>
		<path class="st0" d="M96.7,144.8c-0.2,1.4-0.3,2.9-0.4,4.4c0,0.3,0.5,0.4,0.5,0.1c0.1-1.5,0.3-2.9,0.3-4.4
			C97.1,144.6,96.7,144.6,96.7,144.8L96.7,144.8z"/>
	</g>
	<g>
		<path class="st0" d="M145.4,78.5c3.9-3.7,7.8-7.4,11.6-11.2c0.3-0.3-0.1-0.7-0.4-0.4c-3.9,3.7-7.7,7.5-11.5,11.4
			C145,78.4,145.2,78.7,145.4,78.5L145.4,78.5z"/>
	</g>
	<g>
		<path class="st0" d="M149.9,56c2.2,3.6,4.2,7.5,6.5,11.1c0.2,0.2,0.6,0.1,0.4-0.2c-1.7-3.9-4.2-7.5-6.6-11.1
			C150.1,55.6,149.8,55.8,149.9,56L149.9,56z"/>
	</g>
	<g>
		<path class="st0" d="M143.8,45.7c1.5,2.8,3.2,5.6,4.9,8.4c0.2,0.3,0.6,0.1,0.4-0.2c-1.7-2.7-3.4-5.5-5-8.3
			C144.1,45.3,143.7,45.5,143.8,45.7L143.8,45.7z"/>
	</g>
	<g>
		<path class="st0" d="M141.8,42.4c0.1,0.4,0.3,0.9,0.7,1.1c0.2,0.1,0.3-0.1,0.3-0.3c-0.1-0.3-0.3-0.5-0.4-0.8
			C142.2,42,141.7,42,141.8,42.4L141.8,42.4z"/>
	</g>
	<g>
		<path class="st0" d="M118.9,6c2,3,4.1,6.1,6.1,9.1c0.1,0.2,0.5,0,0.4-0.2c-1.8-3.2-3.9-6.3-6.2-9.2C119.1,5.5,118.8,5.7,118.9,6
			L118.9,6z"/>
	</g>
	<g>
		<path class="st0" d="M110.6,5.3c2.7,0.4,5.6,0.5,8.3,0.6c0.3,0,0.3-0.4,0-0.4c-2.7-0.3-5.6-0.6-8.3-0.6
			C110.3,4.9,110.3,5.2,110.6,5.3L110.6,5.3z"/>
	</g>
	<g>
		<path class="st0" d="M72,3.8C74.4,4,76.8,4,79.2,4.1c0.4,0,0.5-0.6,0.1-0.6c-2.4-0.1-4.8-0.1-7.3-0.1C71.7,3.3,71.6,3.8,72,3.8
			L72,3.8z"/>
	</g>
	<g>
		<path class="st0" d="M83.2,4.1c0.4,0,0.8,0.1,1.1,0c0.2,0,0.2-0.3,0-0.4c-0.4-0.1-0.7-0.1-1.1,0C82.9,3.7,82.9,4.1,83.2,4.1
			L83.2,4.1z"/>
	</g>
	<g>
		<path class="st0" d="M86.8,4.4c3.1,0.2,6.2,0.3,9.4,0.4c0.4,0,0.4-0.6,0.1-0.6C93.1,4.1,90,4,86.9,4C86.6,4,86.5,4.4,86.8,4.4
			L86.8,4.4z"/>
	</g>
	<g>
		<path class="st0" d="M106.9,5.1c0.4,0,0.8,0,1.1,0.1c0.3,0,0.7,0.1,1,0.1c0.2,0,0.3-0.3,0.1-0.4c-0.6-0.4-1.6-0.3-2.3-0.3
			C106.6,4.5,106.6,5.1,106.9,5.1L106.9,5.1z"/>
	</g>
	<g>
		<path class="st0" d="M96.4,101.5c3.7-3,7.4-6.1,10.6-9.5c0.2-0.2-0.1-0.6-0.3-0.4c-3.6,3.1-6.9,6.5-10.5,9.7
			C96,101.4,96.2,101.6,96.4,101.5L96.4,101.5z"/>
	</g>
	<g>
		<path class="st0" d="M109.8,89.7c0.3-0.3,0.7-0.5,1-0.8c0.3-0.2,0.6-0.5,0.8-0.8c0.1-0.2-0.1-0.4-0.3-0.3
			c-0.4,0.1-0.7,0.4-0.9,0.7c-0.3,0.3-0.6,0.6-0.9,0.8C109.3,89.5,109.6,89.9,109.8,89.7L109.8,89.7z"/>
	</g>
	<g>
		<path class="st0" d="M99.9,130.8c0.5-2.2,1-4.3,1.4-6.5c0.1-0.4-0.5-0.4-0.6-0.1c-0.5,2.2-0.8,4.3-1.2,6.5
			C99.5,131,99.8,131,99.9,130.8L99.9,130.8z"/>
	</g>
	<g>
		<path class="st0" d="M100.6,125.4c3.2-2.9,6.1-6.3,9-9.5c0.2-0.3-0.1-0.7-0.4-0.4c-3,3.1-6.2,6.3-8.9,9.6
			C100.2,125.3,100.4,125.5,100.6,125.4L100.6,125.4z"/>
	</g>
	<g>
		<path class="st0" d="M111.7,113.8c0.2-0.3,0.5-0.6,0.7-0.9c0.3-0.3,0.6-0.6,0.8-0.9c0.2-0.2-0.1-0.5-0.4-0.3
			c-0.6,0.5-1.1,1.2-1.5,1.9C111.2,113.8,111.5,114,111.7,113.8L111.7,113.8z"/>
	</g>
	<g>
		<path class="st0" d="M114.8,110.5c0.2-0.2,0.4-0.3,0.5-0.5c0.1-0.2-0.1-0.4-0.3-0.3c-0.2,0.1-0.4,0.3-0.5,0.5
			C114.3,110.4,114.6,110.7,114.8,110.5L114.8,110.5z"/>
	</g>
	<g>
		<path class="st0" d="M139.8,84c1.2-1.2,2.3-2.4,3.5-3.6c0.2-0.3-0.1-0.7-0.4-0.4c-1.2,1.2-2.3,2.4-3.5,3.7
			C139.3,83.8,139.6,84.2,139.8,84L139.8,84z"/>
	</g>
	<g>
		<path class="st0" d="M138.1,86c0.4,0,0.5-0.7,0.1-0.7C137.7,85.4,137.7,86,138.1,86L138.1,86z"/>
	</g>
	<g>
		<path class="st0" d="M84.2,172c1.6-0.7,3.4-1.6,4.9-2.6c0.2-0.1,0-0.4-0.2-0.3c-1.7,0.6-3.4,1.6-4.9,2.5
			C83.7,171.7,83.9,172.1,84.2,172L84.2,172z"/>
	</g>
	<g>
		<path class="st0" d="M92.2,168.2c1.9-0.8,3.8-1.6,5.6-2.6c0.3-0.2,0.1-0.7-0.2-0.5c-1.8,1-3.7,1.9-5.6,2.8
			C91.8,167.9,92,168.3,92.2,168.2L92.2,168.2z"/>
	</g>
	<g>
		<path class="st0" d="M87.2,187c0.3,2,0.5,4,0.8,6c0,0.3,0.6,0.2,0.5-0.1c-0.3-2-0.6-4-0.9-6C87.5,186.6,87.1,186.7,87.2,187
			L87.2,187z"/>
	</g>
	<g>
		<path class="st0" d="M88.3,193.5c1.2-0.6,2.4-1.3,3.5-2.1c0.2-0.2,0-0.5-0.2-0.4c-1.2,0.5-2.4,1.3-3.5,2
			C87.8,193.2,88,193.7,88.3,193.5L88.3,193.5z"/>
	</g>
	<g>
		<path class="st0" d="M95.2,189.7c0.8-0.4,1.5-0.8,2.3-1.3c0.3-0.2,0.1-0.6-0.2-0.4c-0.8,0.4-1.5,0.9-2.2,1.4
			C94.9,189.5,95,189.8,95.2,189.7L95.2,189.7z"/>
	</g>
	<g>
		<path class="st0" d="M97,184.8c0.1,1,0,2.2,0.2,3.2c0.1,0.3,0.5,0.3,0.5,0c0-1.1-0.2-2.2-0.3-3.2C97.3,184.5,97,184.6,97,184.8
			L97,184.8z"/>
	</g>
	<g>
		<path class="st0" d="M97.4,165.6c0,2.3-0.2,4.6,0,6.9c0,0.3,0.5,0.3,0.5,0c0.2-2.3,0.1-4.5,0.1-6.8
			C97.9,165.3,97.4,165.2,97.4,165.6L97.4,165.6z"/>
	</g>
	<g>
		<path class="st0" d="M83.9,171.8c0.2,1.1,0.4,2.2,0.7,3.3c0.1,0.3,0.6,0.2,0.5-0.1c-0.2-1.1-0.5-2.2-0.8-3.3
			C84.3,171.5,83.9,171.5,83.9,171.8L83.9,171.8z"/>
	</g>
	<g>
		<path class="st0" d="M85.3,177.9c-0.1,0.4-0.1,0.9,0.2,1.3c0.1,0.2,0.4,0,0.3-0.2c-0.1-0.3-0.1-0.7-0.1-1
			C85.8,177.8,85.4,177.7,85.3,177.9L85.3,177.9z"/>
	</g>
	<g>
		<path class="st0" d="M96.9,180.5c0.1,0.8,0.1,1.6,0.2,2.4c0,0.3,0.4,0.3,0.4,0c0.1-0.8,0-1.7-0.2-2.5
			C97.3,180.1,96.8,180.2,96.9,180.5L96.9,180.5z"/>
	</g>
	<g>
		<path class="st0" d="M90.7,168.9c0.4,0,0.4-0.6,0.1-0.6C90.4,168.3,90.4,168.9,90.7,168.9L90.7,168.9z"/>
	</g>
	<g>
		<path class="st0" d="M126,16.8c1.8,2.7,3.7,5.3,5.3,8.1c0.2,0.3,0.7,0.1,0.5-0.2c-1.7-2.8-3.5-5.5-5.5-8.1
			C126.2,16.3,125.9,16.6,126,16.8L126,16.8z"/>
	</g>
	<g>
		<path class="st0" d="M132.3,26.4c0.2,0.4,0.4,0.8,0.7,1c0.2,0.2,0.4,0,0.3-0.2c-0.1-0.4-0.4-0.7-0.6-1.1
			C132.5,26,132.2,26.2,132.3,26.4L132.3,26.4z"/>
	</g>
	<g>
		<path class="st0" d="M127.1,97.2c3-2.9,5.9-5.8,8.8-8.7c0.3-0.3-0.1-0.8-0.4-0.5c-2.9,2.9-5.8,5.9-8.6,8.9
			C126.7,97.1,126.9,97.4,127.1,97.2L127.1,97.2z"/>
	</g>
	<g>
		<path class="st0" d="M125.2,99.5c0.3-0.2,0.6-0.6,0.7-1c0-0.2-0.3-0.3-0.4-0.1c-0.2,0.3-0.3,0.5-0.6,0.7
			C124.6,99.3,124.9,99.7,125.2,99.5L125.2,99.5z"/>
	</g>
	<g>
		<path class="st0" d="M118.5,81.8c0.2-0.1,0.5-0.3,0.6-0.5c0.2-0.2,0-0.4-0.2-0.3c-0.2,0.1-0.5,0.3-0.6,0.4
			C118.1,81.6,118.3,81.9,118.5,81.8L118.5,81.8z"/>
	</g>
	<g>
		<path class="st0" d="M52.5,81.9c0.6,0.9,1.2,1.9,2,2.6c0.1,0.1,0.4,0,0.3-0.2c-0.6-1-1.3-1.8-2-2.7C52.6,81.5,52.3,81.7,52.5,81.9
			L52.5,81.9z"/>
	</g>
	<g>
		<path class="st0" d="M55.3,85.7c0.1,0.1,0.3,0.1,0.4,0.2c0.2,0.1,0.3-0.2,0.2-0.3c-0.1-0.1-0.3-0.2-0.4-0.3
			C55.2,85.1,55.1,85.5,55.3,85.7L55.3,85.7z"/>
	</g>
	<g>
		<path class="st0" d="M56.3,86.8c0.4,0.5,0.8,1,1.2,1.4c0.1,0.1,0.5,0,0.3-0.2c-0.3-0.5-0.8-1-1.2-1.5
			C56.4,86.3,56.1,86.5,56.3,86.8L56.3,86.8z"/>
	</g>
	<g>
		<path class="st0" d="M79.4,46.2c0.3-0.4,0.5-0.7,0.8-1.1c0.3-0.3,0.6-0.6,0.8-1c0.1-0.2-0.1-0.4-0.3-0.3c-0.4,0.2-0.7,0.6-1,0.9
			c-0.3,0.4-0.5,0.8-0.8,1.2C78.9,46.3,79.3,46.4,79.4,46.2L79.4,46.2z"/>
	</g>
	<g>
		<path class="st0" d="M75.2,51.4c0.2-0.2,0.5-0.4,0.6-0.7c0.1-0.2-0.1-0.4-0.3-0.3c-0.3,0.1-0.5,0.4-0.7,0.6
			C74.6,51.2,74.9,51.6,75.2,51.4L75.2,51.4z"/>
	</g>
	<g>
		<path class="st0" d="M97.3,35.4c0.1-0.1,0.2,0,0.3,0c0.1,0,0.3,0,0.3-0.2c0-0.6-0.9-0.6-1.1-0.1C96.7,35.4,97.1,35.6,97.3,35.4
			L97.3,35.4z"/>
	</g>
	<g>
		<path class="st0" d="M82.2,138c-0.1,0.6-0.2,1.5,0.3,2c0.1,0.1,0.4,0.1,0.4-0.1c0-0.3-0.1-0.6-0.2-0.8c0-0.3-0.1-0.7,0-1
			C82.7,137.8,82.3,137.7,82.2,138L82.2,138z"/>
	</g>
	<g>
		<path class="st0" d="M79.1,87.7c0.6-0.1,1.3-0.6,1.4-1.2c0-0.2-0.2-0.3-0.4-0.1c-0.1,0.2-0.2,0.4-0.4,0.6
			c-0.2,0.2-0.4,0.3-0.6,0.4C78.8,87.3,78.8,87.7,79.1,87.7L79.1,87.7z"/>
	</g>
	<g>
		<path class="st0" d="M77,89.6c0.1-0.1,0.2-0.3,0.3-0.3c0.1-0.1,0.2-0.1,0.3-0.2c0.1-0.1,0-0.3-0.1-0.4c-0.5-0.2-0.9,0.4-1,0.7
			C76.5,89.6,76.8,89.9,77,89.6L77,89.6z"/>
	</g>
	<g>
		<path class="st0" d="M123.8,78.6c0.2-0.2,0.4-0.4,0.6-0.7c0.1-0.2-0.1-0.4-0.3-0.3c-0.2,0.2-0.4,0.4-0.6,0.6
			C123.3,78.4,123.6,78.8,123.8,78.6L123.8,78.6z"/>
	</g>
	<g>
		<path class="st0" d="M125.8,76.5c0.2-0.2,0.5-0.4,0.7-0.6c0.2-0.2,0.4-0.3,0.5-0.6c0.1-0.2-0.1-0.4-0.3-0.3
			c-0.3,0-0.5,0.3-0.7,0.4c-0.2,0.2-0.4,0.4-0.7,0.6C125.2,76.4,125.5,76.8,125.8,76.5L125.8,76.5z"/>
	</g>
	<g>
		<path class="st0" d="M151.9,69.8c0.6-0.4,1.1-0.9,1.6-1.4c0.4-0.4,1-0.9,1-1.5c0-0.2-0.2-0.3-0.4-0.2c-0.5,0.2-0.8,0.9-1.2,1.3
			c-0.5,0.5-0.9,1-1.4,1.5C151.5,69.7,151.7,70,151.9,69.8L151.9,69.8z"/>
	</g>
	<g>
		<path class="st0" d="M153.1,66.3c0-0.2,0.1-0.3,0.3-0.4c0.3-0.2,0.2-0.6-0.2-0.6c-0.2,0-0.4,0.2-0.5,0.4c-0.1,0.2-0.1,0.4,0,0.6
			C152.7,66.6,153.1,66.5,153.1,66.3L153.1,66.3z"/>
	</g>
	<g>
		<path class="st0" d="M81.3,117.8c1.2-0.9,2.3-1.8,3.4-2.8c0.4-0.3-0.1-0.9-0.5-0.6c-1.1,0.9-2.3,1.9-3.3,3
			C80.7,117.6,81,117.9,81.3,117.8L81.3,117.8z"/>
	</g>
	<g>
		<path class="st0" d="M82.2,118.6c0.5,0,1.3-0.4,1.1-1c0-0.1-0.2-0.2-0.3-0.1c-0.2,0.1-0.3,0.2-0.4,0.3c-0.1,0.1-0.3,0.2-0.5,0.3
			C81.8,118.1,81.9,118.6,82.2,118.6L82.2,118.6z"/>
	</g>
	<g>
		<path class="st0" d="M71.4,7.6c0.4-0.4,0.7-0.7,1.1-1.1c0.3-0.4,0.8-0.8,0.9-1.2c0.1-0.2-0.1-0.4-0.4-0.3c-0.4,0.2-0.7,0.7-1,1
			c-0.4,0.4-0.7,0.9-1,1.3C70.8,7.5,71.2,7.9,71.4,7.6L71.4,7.6z"/>
	</g>
	<g>
		<path class="st0" d="M73.1,5.4c0.8,0.3,1.7,0.5,2.6,0.3c0.4-0.1,0.3-0.6,0-0.6C75.2,5,74.8,5,74.4,5c-0.4,0-0.8-0.1-1.2-0.1
			C72.9,4.8,72.8,5.3,73.1,5.4L73.1,5.4z"/>
	</g>
	<g>
		<path class="st0" d="M69.2,10.5c0.2-0.2,0.4-0.4,0.6-0.6c0.2-0.2,0.3-0.3,0.4-0.6c0-0.1-0.1-0.3-0.3-0.3c-0.3,0.1-0.4,0.3-0.6,0.5
			c-0.2,0.2-0.4,0.4-0.6,0.6C68.5,10.3,68.9,10.7,69.2,10.5L69.2,10.5z"/>
	</g>
	<g>
		<path class="st0" d="M117.8,7.4c0,0.4,0.3,0.6,0.6,0.9c0.2,0.3,0.4,0.6,0.7,0.8c0.2,0.1,0.4,0.1,0.4-0.2c-0.1-0.4-0.3-0.7-0.5-1
			c-0.3-0.3-0.5-0.7-0.9-0.7C117.9,7.1,117.8,7.3,117.8,7.4L117.8,7.4z"/>
	</g>
	<g>
		<path class="st0" d="M65.6,95.6c0.2,0.4,0.5,0.7,0.8,1.1c0.2,0.3,0.5,0.8,0.9,0.9c0.2,0,0.3-0.1,0.3-0.2c0-0.4-0.5-0.8-0.7-1
			c-0.3-0.4-0.6-0.7-0.9-1C65.7,95.2,65.5,95.4,65.6,95.6L65.6,95.6z"/>
	</g>
	<g>
		<path class="st0" d="M68.5,96.6c0-0.1,0.2-0.1,0.2-0.1c0.2,0,0.2-0.2,0.1-0.3c-0.3-0.2-0.6,0-0.7,0.3C68,96.7,68.4,96.8,68.5,96.6
			L68.5,96.6z"/>
	</g>
	<g>
		<path class="st0" d="M99.1,125.1c-0.2,0.7-0.5,1.4-0.5,2.1c0,0.2,0.3,0.3,0.4,0.1c0.3-0.6,0.4-1.4,0.5-2.1
			C99.6,124.9,99.2,124.8,99.1,125.1L99.1,125.1z"/>
	</g>
	<g>
		<path class="st0" d="M98.8,134.4c-0.3,1-0.7,2.1-0.6,3.1c0,0.2,0.3,0.2,0.3,0c0.2-1,0.3-2,0.6-3C99.3,134.3,98.9,134.1,98.8,134.4
			L98.8,134.4z"/>
	</g>
	<g>
		<path class="st0" d="M149.9,71.9c0,0,0.1,0,0.1,0c-0.1,0-0.1,0-0.2,0C149.8,71.8,149.8,71.9,149.9,71.9c0,0,0.1,0.1,0.2,0
			c0.1-0.1,0.2-0.1,0.3-0.3c0.1-0.1-0.1-0.3-0.2-0.3c-0.1,0-0.2,0-0.4,0c-0.1,0-0.2,0.1-0.2,0.2C149.5,71.7,149.7,72,149.9,71.9
			L149.9,71.9z"/>
	</g>
</g>
</svg>
