<?xml version="1.0" encoding="utf-8"?>
<!-- Generator: Adobe Illustrator 25.0.1, SVG Export Plug-In . SVG Version: 6.00 Build 0)  -->
<svg version="1.1" id="Layer_1" xmlns="http://www.w3.org/2000/svg" xmlns:xlink="http://www.w3.org/1999/xlink" x="0px" y="0px"
	 viewBox="0 0 200 200" style="enable-background:new 0 0 200 200;" xml:space="preserve">
<style type="text/css">
	.st0{fill:#5ABE26;}
</style>
<g>
	<path class="st0" d="M169.3,25.4c0-0.1,0-0.1,0-0.2c0.2-7.4,0.2-14.8,0.1-20.8c0.2-0.2,0.3-0.5,0.3-0.7c-0.1-0.3-0.3-0.5-0.5-0.5
		c-10.5-0.6-21.7-0.8-36.2-0.8c-6.5,0-13,0-19.5,0.1c-5.3,0-10.6,0.1-15.9,0.1l-5.2,0c-3.4,0-6.7,0-10.1,0c-3.4,0-6.8,0-10.1,0
		c-14.8,0-30.6,0.1-46.2,1c-0.1,0-0.3,0.1-0.3,0.3c0,0.2,0.1,0.3,0.3,0.3c11.2,0.6,22.4,0.9,33.3,1c-2.1,0.8-4.3,1.9-6.3,3
		c-1.6,0.8-3.2,1.7-4.9,2.4c-0.2,0.1-0.2,0.3-0.2,0.4c0,0.2,0.2,0.3,0.3,0.3l0.1,0l0.6-0.2c3.6-1.3,7.7-2.7,10.9-5.4
		c0.1-0.1,0.1-0.3,0.1-0.4c0,0,0-0.1-0.1-0.1c1.8,0,3.5,0,5.3,0c-2.3,0.7-4.5,2-6.6,3.2c-0.8,0.5-1.6,0.9-2.4,1.3l-1.4,0.7
		c-2.2,1.2-4.5,2.3-6.6,3.8c-0.1,0.1-0.2,0.2-0.1,0.4c0,0.1,0.1,0.2,0.3,0.2l0.1,0c2.5-1,5-2.3,7.4-3.5c0.6-0.3,1.2-0.6,1.8-0.9
		c0.7-0.4,1.4-0.7,2.1-1.1c2-1,4.1-2,5.9-3.4c0.2-0.1,0.2-0.3,0.1-0.5c0-0.1-0.1-0.2-0.2-0.2c1.8,0,3.7,0,5.5,0
		c-1.1,0.5-2.2,1.1-3.3,1.7c0.1-0.2,0-0.4,0-0.5C67.3,6,67.2,5.9,67,5.9c-0.1,0-0.1,0-0.2,0c-2.5,1-4.8,2.6-7.1,4
		c-0.7,0.5-1.4,0.9-2.1,1.4c-3.2,2-6.6,4.2-9.8,6.5c-0.2,0.1-0.2,0.3-0.1,0.5c0.1,0.2,0.2,0.2,0.3,0.2l0.1,0l0,0
		c3.2-1.6,6.3-3.4,9.2-5.2c0.8-0.5,1.5-0.9,2.3-1.4c2.1-1.2,4.2-2.4,6.2-3.9c0.1,0.1,0.2,0.2,0.3,0.2c0,0,0,0,0.1,0l0.9-0.4
		C69,7,70.9,6.1,72.7,5c1.5,0,5.3,0,9.2,0l0,0l0,0c-3.5,1.9-6.4,3.4-9.7,4.4c-0.2,0.1-0.3,0.3-0.2,0.5c0,0.2,0.1,0.3,0.3,0.3l0,0
		c1.3-0.2,2.5-0.5,3.7-1c-3.2,1.5-6.4,3.5-9.5,5.5c-0.2,0.1-0.2,0.4-0.2,0.6c0.1,0.2,0.2,0.3,0.4,0.3l0.1,0l0,0
		c4.8-2.1,9.9-4.4,13.8-7.5c0.1-0.1,0.2-0.3,0.1-0.4c0-0.1-0.1-0.2-0.3-0.2c0,0,0,0,0,0c-0.7,0.2-1.3,0.5-2,0.7
		c1.4-0.7,2.7-1.6,3.8-2.6c0.1-0.1,0.1-0.2,0.1-0.4C82.2,5.1,82.1,5,82,5c4.2,0,8.4,0,10.2,0l5.4,0c5.2,0,10.3,0,15.5,0.1
		c6.5,0,12.9,0.1,19.4,0.1c11.5,0,21-0.2,29.6-0.5L161.4,5c-2,1-4,2-5.8,3.2c-0.1,0.1-0.1,0.2-0.1,0.3l0.2,0.1h0.1
		c2-0.9,4-2,5.9-3.1c0.5-0.3,1-0.6,1.5-0.9l0.5,0c1.6-0.1,3.2-0.1,4.9-0.2c-0.3,5.4-0.5,11.3-0.6,17.3l-0.6,0.5
		c-0.9,0.6-1.7,1.3-2.5,1.9c0,0-0.8-0.1-1-0.1c0.8-0.7,1.5-1.5,2.2-2.3c0.6-0.6,1.1-1.2,1.7-1.7c0.1-0.1,0.2-0.3,0.1-0.5
		c-0.1-0.2-0.2-0.3-0.4-0.3c-0.1,0-0.2,0-0.2,0.1c-0.6,0.5-1.2,1.1-1.8,1.6c-1.1,1-2.2,1.9-3.1,3c-2.8-0.2-5.8-0.2-9.2-0.2
		c-3.6,0-7.3,0.1-10.8,0.2c-3.5,0.1-7.1,0.2-10.7,0.2l-23.8,0c0.3-0.2,0.7-0.4,1-0.6c0.1-0.1,0.2-0.2,0.1-0.4c0-0.1-0.1-0.2-0.3-0.2
		c0,0,0,0,0,0c-0.8,0.3-1.7,0.7-2.8,1.3l-7.2,0l0,0c2.9-1.6,5.8-3.3,8.6-5.3c0.1-0.1,0.1-0.2,0.1-0.3c0-0.1-0.1-0.2-0.3-0.2
		c0,0,0,0-0.1,0c-3,1.5-6,3.3-8.9,5.1l-1.1,0.7l-8.5,0c1.7-0.9,3.1-1.7,4.4-2.5c0.1,0,0.1-0.1,0.2-0.3c4.7-2.5,9.6-5.3,14.2-8.5
		c0.1-0.1,0.1-0.2,0.1-0.3l-0.2-0.1h-0.1c-5.5,2.6-10.8,5.9-15.7,9c-1.6,0.7-3.4,1.5-5.4,2.7l-3.3,0c3.4-1.8,6.9-3.9,9.7-6.5
		c0.1-0.1,0.2-0.3,0.1-0.5c0-0.1-0.1-0.2-0.3-0.2c0,0,0,0-0.1,0c-3.9,1.5-7.6,4.2-11.6,7.2l-2.8,0l1.1-0.9c1.7-1.4,3.5-2.8,5.3-4.1
		c1.1-0.7,2.3-1.4,3.4-2c1.3-0.8,2.7-1.6,4-2.5c0.1-0.1,0.2-0.3,0.1-0.4c0-0.1-0.2-0.2-0.4-0.2c0,0,0,0,0,0
		c-5.3,1.2-10.1,5.4-12.6,7.9c0,0,0,0,0-0.1c-0.1-0.1-0.2-0.2-0.3-0.2c0,0,0,0-0.1,0c-2,0.7-4,1.7-5.4,2.5h-1.1
		c2.9-1.3,5.9-2.9,8.4-4.9c0.1-0.1,0.2-0.2,0.1-0.4c0-0.1-0.1-0.2-0.3-0.2c0,0,0,0,0,0c-3.7,1.1-7.6,3.5-10.6,5.4l-3.5,0
		c1.7-0.9,3.2-2,4.5-3.2c3.2-1.7,6.2-3.6,8.8-5.7c0.1-0.1,0.1-0.3,0.1-0.4c0-0.1-0.1-0.2-0.3-0.2c0,0-0.1,0-0.1,0
		c-1.5,0.7-2.9,1.5-4.6,2.5c-0.3,0.2-0.7,0.4-1.1,0.6c-1.2,0.6-2.5,1.3-3.3,2.3c0-0.1,0-0.1-0.1-0.2c-0.1-0.1-0.2-0.1-0.3-0.1
		c-0.1,0-0.2,0-0.3,0.1l-0.2,0.2C69,20.2,69,20.4,69,20.6l0,0.1c-1.8,1.2-3.7,2.4-5.6,3.4l-3.2,0c3.6-1.7,7.4-3.7,10.4-6.6
		c0.8-0.5,1.6-0.9,2.4-1.4c2-1.2,4.1-2.4,6.1-3.7l0.8-0.4c3.1-1.5,6.5-3.2,9-5.7C89,6.1,89.1,6,89,5.8c0-0.1-0.1-0.2-0.3-0.2
		c0,0,0,0-0.1,0c-3.1,1-6.3,3.3-8.9,5.2c-4.3,1.4-8.5,4.5-11.7,7.1C66,19,64,20.3,62,21.5c-1.4,0.9-2.8,1.8-4.2,2.6
		c-1,0-3.8,0-3.8,0l1.2-0.6c4.7-2.3,9.5-4.6,13.7-7.8c0.1-0.1,0.2-0.3,0.1-0.4c0-0.1-0.1-0.2-0.3-0.2c0,0,0,0-0.1,0
		c-4.7,1.6-9.4,4.5-13.9,7.3c-1,0.6-1.9,1.2-2.8,1.7c0,0-5.3,0-6.5,0c0.8-0.4,1.7-0.8,2.7-1.4c0.1-0.1,0.2-0.2,0.1-0.4
		c0-0.1-0.1-0.2-0.3-0.2c0,0,0,0,0,0c-1.6,0.5-3.4,1.2-5.1,2l-1.3,0c-0.4,0-0.8,0-1.3,0c2.9-1.6,6-3.3,8.7-5.3
		c0.1-0.1,0.1-0.2,0.1-0.4c0-0.1-0.1-0.2-0.3-0.2c0,0,0,0-0.1,0c-3.2,1.4-6.3,3.4-9.3,5.3l-0.8,0.5c0,0-1.9,0-2.5,0
		c3.6-1.9,8-4.4,11.7-7.5c0.1-0.1,0.1-0.3,0.1-0.4c0-0.1-0.1-0.2-0.3-0.2c0,0,0,0-0.1,0c-4.6,2-9.4,5.3-13,8c-1.8,0-3.4,0.1-4.8,0.2
		c2.4-1.3,4.7-2.8,7-4.2l1.9-1.2c0.9-0.6,1.8-1.1,2.8-1.7c2.6-1.5,5.2-3.1,7.6-5.1c0.1-0.1,0.1-0.3,0.1-0.4c0-0.1-0.1-0.2-0.3-0.2
		c0,0,0,0-0.1,0c-2.6,1.2-5.1,2.8-7.6,4.4c-0.8,0.5-1.7,1.1-2.5,1.6c-0.8,0.5-1.6,1-2.4,1.5c-2.8,1.7-5.7,3.5-8.4,5.4
		c-0.4,0-0.8,0.1-1.1,0.2c-0.1-1.7-0.1-3.5-0.2-5.1c1.8-1.1,3.7-2.3,5.5-3.4c1.4-0.9,2.7-1.7,4.1-2.6c1.2-0.7,2.4-1.4,3.6-2.1
		c2.4-1.4,4.9-2.8,7.2-4.5c0.1-0.1,0.2-0.3,0.1-0.4c0-0.1-0.1-0.2-0.3-0.2c0,0,0,0-0.1,0c-2.9,1.2-5.7,3-8.5,4.7
		c-0.7,0.4-1.3,0.8-2,1.3c-3.2,2-6.4,4-9.5,6.3l0-2.9l0.1,0.1h0.1l0.1,0c2.1-0.8,4.2-2,6.2-3.2c0.6-0.4,1.2-0.7,1.9-1.1
		c0.7-0.4,1.3-0.7,2-1.1c2.3-1.3,4.7-2.6,6.8-4.3C43.9,6,44,5.8,43.9,5.7c0-0.1-0.1-0.2-0.3-0.2c0,0,0,0-0.1,0
		c-2.2,0.9-4.4,2.2-6.4,3.4c-0.5,0.3-1.1,0.6-1.6,0.9c-0.7,0.4-1.4,0.8-2.2,1.2c-2.2,1.2-4.6,2.5-6.6,4.2c0,0,0,0,0,0.1l0-0.1
		c0-1.8,0-3.6-0.1-5.3c1.3-0.4,2.5-1,3.7-1.6c0.3-0.2,0.6-0.3,0.9-0.5c0.3-0.2,0.7-0.3,1-0.5c1.1-0.5,2.2-1,3.1-1.9
		c0.1-0.1,0.2-0.3,0.1-0.5c-0.1-0.1-0.2-0.2-0.4-0.2c0,0,0,0,0,0c-1.2,0.2-2.4,0.9-3.6,1.6c-0.4,0.2-0.8,0.5-1.2,0.7l-0.6,0.3
		c-1,0.5-2.1,1.1-3,1.8c0-1.5-0.1-3-0.1-4.6c0-0.3-0.2-0.4-0.4-0.4c-0.2,0-0.3,0.1-0.4,0.4c-0.1,3.6-0.2,7.3-0.2,10.9
		c0,1.4,0,2.8,0,4l-0.3,0.2c-0.1,0.1-0.2,0.2-0.1,0.4c0,0.1,0.2,0.2,0.3,0.2l0.1,0c0,1.5-0.1,3-0.1,4.5c0,0.1,0,0.1,0,0.2l-0.1,0
		c-0.1,0-0.2,0.2-0.2,0.3c0,0.2,0.1,0.3,0.2,0.3c3.2,0.7,6.5,0.8,9.3,0.8c1.1,0,2.1,0,3.2,0l0.9,0c-0.1,1.3-0.2,2.6-0.2,3.9l0,1
		c0,0.5,0.2,0.7,0.5,0.8c0.1,0.3,0.3,0.5,0.7,0.5c0,0,0,0,0,0c0.1,0,0.5-0.1,0.5-0.1c0.6,9.9,6.9,17.7,12.9,24.1
		c4.9,5.2,10.3,9.7,15.4,14.1c2.3,1.9,4.7,3.9,7,6c4,3.5,9.5,9.1,11,16.1c1.6,7.3-3.2,12.5-7.4,17c-0.4,0.4-0.8,0.9-1.2,1.3
		c-2.3,2.5-4.6,5-6.9,7.4c-5.3,5.6-10.8,11.4-15.6,17.8c-5.2,7-12,17.7-11.2,30.3c-0.2-0.1-0.6-0.1-1.3-0.1c-0.2,0-0.5,0-0.7,0
		c-0.8,0.3-1.5,1.2-1.8,2c-0.2,0.4-0.4,3.4,0,4.2c-1.1,0.1-2.3,0.2-3.6,0.3c-1.7,0.2-3.5,0.4-5.2,0.4c-1.5,0-2.8-0.1-3.9-0.5
		c-0.3-0.1-0.6-0.2-0.8-0.3c-0.3-0.1-0.5-0.3-0.8-0.3c-0.4,0-0.7,0.4-0.9,1.3c-0.2,0.8,0,1.8,0.1,2.7c0.1,0.4,0.2,0.9,0.2,1.3
		c0.1,1.7,0,3.5-0.1,5.2c-0.1,1.1-0.2,2.3-0.1,3.3c-0.1,0.1-0.1,0.2-0.1,0.3c0,0.1,0,0.2,0.1,0.2c0,0,0,0,0,0c0,3.2,0.1,6.2,0.3,9.2
		c0,0.5,0.4,0.8,0.8,0.8c0.3,0,0.5-0.2,0.6-0.4l1.2,0.1c-0.1,0.1-0.1,0.2,0,0.3c0,0.1,0.1,0.2,0.3,0.2l0.1,0l0.7-0.4
		c4,0.2,8.1,0.4,12.1,0.5l0.9,0c1,0,2.1,0.1,3.1,0.1c0,0.1,0.1,0.2,0.1,0.3c0.1,0.1,0.2,0.1,0.3,0.1c0.1,0,0.1,0,0.3-0.1l0.4-0.3
		c9.5,0.2,18.8,0.2,26.7,0.2c3.2,0,15.9,0,19.1,0c1.9,0,3.7,0,5.6,0c1.3,0,2.7,0,4,0c3.9,0,7.9,0,11.8,0.1c6.4,0,12.9,0.1,19.3,0.1
		c1.8,0,3.7,0,5.5,0c6.8,0,12.8-0.1,18.3-0.3c3.1-0.1,6.1-0.2,9.2-0.3l0.2,0c0.2,0,0.4,0,0.6,0c0.2,0,0.4,0,0.6,0
		c0.8,0,1.7-0.1,2.1-1.1c0-0.1,0.1-0.1,0.1-0.2c0.2-0.7,0.1-1.6-0.1-2.4c-0.1-0.4-0.1-0.7-0.1-1.1c-0.1-1.1-0.1-2.1-0.2-3.2
		c-0.1-1.2-0.2-2.5-0.2-3.7c0-1.1,0-2.4,0-3.7c0.1-2.7,0.1-5.4-0.5-7.6c0-0.3-0.1-0.6-0.5-0.7c-1.3-0.1-2.6-0.2-3.8-0.2
		c0-0.1-0.1-0.1-0.2-0.1c0,0,0,0,0,0l0,0.1l-0.2-0.1c-3.1-0.2-6.4-0.2-10.4-0.3c0-0.1,0-0.2,0-0.3c0-3.7-0.2-5.6-0.6-5.9
		c0,0-0.1-0.1-0.2-0.1c-0.2,0-0.7,0.1-1.2,0.2c-0.4,0.1-0.8,0.2-0.9,0.2c-0.4,0-0.9-0.1-1.3-0.2c-0.4-0.1-0.7-0.1-1.1-0.2
		c0.5-8.4-2.4-17.1-8.8-26.6c-5.3-7.9-11.8-14.7-18-21.3c-1.5-1.6-3-3.1-4.4-4.7c-0.7-0.8-1.5-1.5-2.2-2.3
		c-3.4-3.5-7.3-7.4-8.7-12.4c-1.7-5.8,0.9-12.4,7.7-19.6c3.8-4,8.1-7.5,12.2-10.9c3.5-2.9,7.1-5.9,10.5-9.2
		c7.3-7.1,15.1-15.7,15.8-27.2c0,0,0-0.1,0-0.1l0.2,0c1,0,1-0.1,1.2-1c0-0.2,0-0.4,0.1-0.6c0-0.2,0-1.4-0.1-2.9c0-0.4,0-0.9,0-0.9
		c3.5,0,6.6-0.1,9.5-0.3c0,0.1,0,0.1,0,0.2c0,0.1,0.2,0.2,0.3,0.2l0.1,0l0,0c0.1-0.1,0.3-0.2,0.4-0.3l0.1-0.1c0.5,0,1.5,0,2.6,0
		c1.4,0,2.8,0,3.4-0.1c0.2,0,0.2-0.1,0.2-0.2C169.9,25.9,169.8,25.7,169.3,25.4z M75.7,24.1c0.7-0.4,1.3-0.7,1.9-1.1
		c-0.3,0.3-0.6,0.7-0.9,1c0,0,0,0.1,0,0.1H75.7z M124.3,67c-4.4,3.6-9,7.3-13,11.7c-4.9,5.4-7.6,10.4-8,15.4
		c-0.6,6.1,2.7,10.8,5.3,13.8c3.6,4.3,7.5,8.3,11.3,12.2c3.8,3.9,7.7,8,11.3,12.3c7.9,9.3,15.8,20.7,15.1,33.9
		c-2.9-0.1-6.2-0.2-10.2-0.2c-2,0-4,0-6,0c-2,0-4,0-5.9,0l-10.3,0c-5.8,0-11.5,0-17.3,0l-41.8,0.1c-1.6,0-3.2,0.1-4.8,0.1
		c-1.5,0.1-3,0.1-4.4,0.1c-0.7-12.4,6.2-23,12.4-30.8c4.9-6.3,10.4-12,15.6-17.5c2.2-2.3,4.5-4.7,6.7-7l0.5-0.5
		c3.3-3.5,7-7.6,7.7-13.2c0.6-4.7-1.1-9.8-5.1-15.2c-4.2-5.8-9.8-10.3-15.1-14.5c-2.3-1.8-4.6-3.7-6.8-5.6l-0.8-0.7
		c-7.8-6.9-18.5-16.5-19.9-29c1.1-0.1,2.2-0.2,3.5-0.2c1.6,0,3.3,0.1,4.9,0.2c1.4,0.1,2.9,0.2,4.3,0.2c4.7,0,9.4,0.1,14.1,0.1
		l28.1,0c5.2,0,10.3,0.1,15.5,0.1c5.2,0.1,10.4,0.1,15.6,0.1c9.5,0,17.2-0.2,24.2-0.6c0,0,0,0,0,0.1c-1.2,11.7-10.7,20.6-17.7,27.1
		C130.4,62,127.3,64.5,124.3,67z M162.9,175c-1.2,0.8-2.5,1.7-3.7,2.4c-0.8,0.4-1.6,0.8-2.4,1.2c-1.1,0.5-2.2,1-3.2,1.6
		c-0.1,0-0.1,0.1-0.1,0.2l0.1,0.1l0.1,0c3.8-0.3,8.2-3.3,11-6.1l0.5,0c0.7,0,1.4-0.1,2-0.1c-0.4,2.3-0.1,5.2,0.2,7.7
		c0.1,1,0.2,2.1,0.3,3c0.1,1.1,0.1,2.3,0.1,3.6c0,2.2,0,4.5,0.4,6.6c-0.8,0-2.8-0.1-2.8-0.1c0.4-0.3,0.8-0.6,1.2-0.9
		c0.1-0.1,0.1-0.2,0.1-0.4c-0.1-0.1-0.2-0.2-0.3-0.2l-0.1,0c-1.7,0.7-3,1.2-4.5,1.4c-0.8,0-1.6-0.1-2.4-0.1c2.3-1,4.8-2.1,7.2-3.4
		c0.1-0.1,0.1-0.2,0.1-0.3c0-0.1-0.1-0.2-0.3-0.2c0,0,0,0,0,0c-3,1-5.9,2.4-9.1,3.9c-7.3-0.2-15.2-0.3-24.7-0.3
		c-6.5,0-12.9,0-19.4,0.1c-5.2,0-10.3,0.1-15.5,0.1l-7.1,0c1.8-0.6,3.6-1.4,5.4-2.3c0.1-0.1,0.2-0.2,0.2-0.4c0-0.1-0.1-0.2-0.3-0.2
		c0,0,0,0,0,0c-2.6,0.7-5.2,1.7-7.7,2.9l-4.4,0c4.4-1.3,8.4-3.3,11.8-6c0.1-0.1,0.1-0.2,0.1-0.3c0-0.1-0.1-0.1-0.2-0.1
		c0,0-0.1,0-0.1,0c-4.4,2.7-8.5,4.7-12.5,5.9c-0.2,0.1-0.3,0.2-0.2,0.4c0,0,0,0.1,0,0.1l-2.7,0c0.2-0.2,0.3-0.3,0.4-0.5
		c0.1-0.1,0.1-0.3,0-0.4c-0.1-0.1-0.2-0.2-0.3-0.2l-0.1,0l0,0c-0.8,0.5-1.5,0.8-2.1,1h-1.1c1.3-0.9,2.7-1.8,4-2.8
		c0.1-0.1,0.1-0.3,0.1-0.4c0-0.1-0.1-0.2-0.3-0.2c0,0-0.1,0-0.1,0c-2.2,1.1-4.1,2.2-5.9,3.4l-1.6,0c-2.3,0-4.6,0-6.9,0
		c2.3-0.8,4.3-2.2,5.9-4c0.1-0.1,0.1-0.3,0.1-0.4c-0.1-0.1-0.2-0.2-0.3-0.2l-0.1,0l0,0c-3.3,2.2-6.2,3.6-9.3,4.6l-1.1,0
		c2.8-1.9,6-4.2,8.8-6.9c0.1-0.1,0.1-0.2,0.1-0.4c0-0.1-0.1-0.2-0.2-0.2l-0.1,0l0,0c-3.5,2.1-6.8,4.7-9.9,7.3c0,0-0.1,0.1-0.1,0.1
		l-2.9,0c0.7-0.4,1.4-1,1.9-1.7c0,0,0,0,0,0c0,0,0.1,0.1,0.2,0.1c0,0,0.1,0,0.1,0c2.1-0.9,4-2.4,5.9-3.8l0.5-0.4
		c2-1.5,4.1-3.1,5.7-5.2c0.1-0.1,0.1-0.2,0-0.4c-0.1-0.1-0.1-0.2-0.3-0.2l-0.1,0l0,0c-1.4,0.9-2.7,2-4,3c-0.7,0.6-1.3,1.1-2,1.6
		c-0.8,0.6-1.5,1.1-2.3,1.7c-1.2,0.8-2.4,1.7-3.5,2.6c0,0,0,0,0,0c-0.1-0.1-0.1-0.1-0.2-0.1l-0.1,0l0,0c-1.5,1.3-2.9,2.2-4.3,2.6
		c-1.3,0-2.7,0-4,0.1l-0.7,0c3-1.9,5.4-3.6,7.7-5.6c0.1-0.1,0.1-0.3,0.1-0.5c0-0.1-0.1-0.2-0.3-0.2c0,0-0.1,0-0.1,0
		c-3.5,1.8-6.8,4.2-9.6,6.3l-1.4,0c3.4-1.7,6.5-3.8,9-6.3c0,0,0,0.1,0.1,0.1c0.1,0.1,0.2,0.1,0.2,0.1l0.2,0l1.6-1
		c2.9-1.9,6-3.9,8.7-6.1l0.2,0c0.7-0.3,1.4-0.7,2.2-1.1c-3.5,2.2-7.1,5.1-10.4,8.3c-0.1,0.1-0.2,0.3-0.1,0.5
		c0.1,0.2,0.2,0.3,0.4,0.3l0.2,0l0,0c3.7-2.4,7.5-5.5,10.6-8.7c0.1-0.1,0.1-0.2,0.1-0.4c-0.1-0.1-0.2-0.2-0.3-0.2
		c2.8-1.5,5.5-3.4,7.9-5.4l12.3,0c-2.4,1.2-4.7,3-6.9,4.7c0,0,0-0.1-0.1-0.1c0,0-0.1-0.1-0.2-0.1c0,0-0.1,0-0.1,0
		c-4,1.8-8,4.1-11.2,6.7c-0.2,0.2-0.2,0.5-0.2,0.7c0.1,0.2,0.2,0.3,0.4,0.3l0.1,0l0,0c3.3-1.5,6.8-3.7,10.3-6.4
		c0,0.1,0.1,0.1,0.2,0.1l0.1,0l0,0c3.2-1.8,6.2-3.6,8.7-5.9l0-0.1l14.5,0c9.1,0,18.3,0,27.4-0.1l2.3,0c2.2,0,4.4,0,6.6,0
		c2.2,0,4.4,0,6.6,0c4.6,0,8.2,0,11.5-0.1c-2.4,1.2-4.8,2.6-7.1,3.9c-0.1,0.1-0.2,0.2-0.1,0.3c0,0.1,0.1,0.2,0.3,0.2c0,0,0,0,0.1,0
		c3.1-1.3,6.3-2.8,9.3-4.5c0.7,0,1.4-0.1,2.1-0.1L162.9,175z M38.5,193.1c0.1-0.1,0.1-0.3,0.1-0.4c0-0.1-0.1-0.2-0.2-0.2l-0.1,0l0,0
		c-1.8,1.3-3.6,1.9-5.4,1.9l-0.3,0c-0.2,0-0.3,0.1-0.3,0.3c0,0.2,0.1,0.4,0.3,0.4c0.2,0,0.5,0,0.7,0c-0.8,0-1.6,0.1-2.5,0.1
		c2.2-1.3,4.5-2.8,6.8-4.4c0.1-0.1,0.1-0.2,0.1-0.3c0-0.1-0.1-0.1-0.2-0.1c0,0-0.1,0-0.1,0c-2.8,1.5-5.5,3.3-7.9,4.9
		c0,0-2,0.1-2.5,0.1l0-0.5c-0.1-0.8-0.1-1.5-0.2-2.2l0.8-0.5c3.1-2.1,6.2-4.2,9.1-6.6c0.1-0.1,0.1-0.2,0.1-0.3l-0.1-0.2h-0.1l-0.1,0
		c-3.2,1.9-6.3,4.2-9.3,6.4l-0.4,0.3c-0.1-0.9-0.1-1.9-0.2-2.7c0.7-0.5,1.4-0.9,2.1-1.4c2.7-1.7,5.5-3.5,8.1-5.6
		c0.1-0.1,0.1-0.2,0.1-0.3c0-0.1-0.1-0.1-0.2-0.1c0,0-0.1,0-0.1,0c-2.8,1.5-5.5,3.5-8.2,5.3c-0.6,0.4-1.1,0.8-1.7,1.2
		c0-0.7-0.1-1.3-0.1-2c3.1-1.9,6.1-4,8.7-6c0.1-0.1,0.1-0.2,0.1-0.3c0-0.1-0.1-0.2-0.2-0.2c0,0-0.1,0-0.1,0
		c-2.7,1.5-5.5,3.4-8.4,5.5c0-0.7,0-1.4-0.1-2.1c3.1-2,6.7-4.3,10-6.9c0.1-0.1,0.1-0.2,0.1-0.3c0-0.1-0.1-0.2-0.3-0.2
		c0,0-0.1,0-0.1,0c-3.3,1.9-6.6,4.3-9.7,6.5c0-0.7,0-1.5,0-2.2c2.3-0.7,4.4-2.1,6.1-4c0.1-0.1,0.1-0.2,0-0.3c0-0.1-0.1-0.2-0.2-0.2
		l-0.1,0l0,0c-1.9,1.6-3.8,2.7-5.8,3.6c0-0.6,0-1.2,0-1.7c0.8-0.4,1.5-0.9,2.3-1.3l0.9-0.5c0.7-0.4,1.4-0.9,2.1-1.6
		c1.9,0,3.8,0.1,5.7,0.2c1.4,0.1,2.7,0.1,4.1,0.1c-2.1,1.1-4.2,2.3-6.2,3.7c-0.1,0.1-0.2,0.3-0.1,0.4c0,0.1,0.1,0.2,0.3,0.2
		c0,0,0,0,0,0c3.2-1.1,6.4-2.7,9-4.3c0,0,4.7,0,5.9,0c-1.5,0.6-2.9,1.4-4.4,2.3c-0.5,0.3-1,0.6-1.5,0.9l-0.8,0.4
		c-2.3,1.3-4.6,2.6-6.9,4.1c-0.2,0.1-0.2,0.4-0.2,0.6c0.1,0.2,0.2,0.3,0.4,0.3l0.1,0l0,0c2.2-1,4.3-2.1,6.4-3.2l0.5-0.3
		c0.6-0.3,1.2-0.6,1.8-1c2-1,4.1-2.1,5.8-3.6c0.1-0.1,0.2-0.3,0.1-0.4c1.8,0,3.7,0,5.5,0c-1.7,1-3.2,2.1-4.4,3.2
		c-0.1,0.1-0.1,0.3-0.1,0.4c0,0.1,0.1,0.2,0.3,0.2c0,0,0,0,0.1,0c2-0.7,4.3-2.1,6.2-3.8l2.9,0c-3,1.9-5.9,4.3-9.1,6.9
		c0,0,0-0.1-0.1-0.1c0,0-0.1-0.1-0.2-0.1c0,0-0.1,0-0.1,0c-2.2,0.9-4.2,2.3-6.2,3.6c-0.6,0.4-1.2,0.8-1.8,1.2
		c-0.7,0.4-1.3,0.9-2,1.3c-2.3,1.4-4.6,2.9-6.7,4.7c-0.2,0.1-0.2,0.4-0.1,0.5c0.1,0.1,0.2,0.2,0.3,0.2l0.1,0l0,0
		c2.2-1,4.2-2.4,6.3-3.7c0.6-0.4,1.1-0.7,1.7-1.1c0.6-0.4,1.2-0.8,1.8-1.2c2-1.2,4-2.5,5.9-4.1c0,0,0,0.1,0.1,0.1
		c0.1,0.1,0.2,0.1,0.2,0.1l0.2,0l0,0c3.8-2.6,7.7-5.2,11-8.4h1.9c-0.5,0.5-0.9,1.3-1,2.1l0,0.1c-2.5,1.3-5.2,3.2-8.3,5.6
		c-0.2,0.1-0.2,0.4-0.2,0.6c0.1,0.2,0.2,0.3,0.4,0.3c0.1,0,0.1,0,0.2-0.1c3.4-2.1,6-3.9,8.3-5.8c0,0,0.1,0,0.1,0
		c0.2,0,0.4-0.1,0.4-0.4c0.2-1.1,1-2.1,1.9-2.4l5.9,0c-1.2,0.8-2.4,1.6-3.6,2.6c-4.5,2.4-8.8,6-13,9.4l-0.7,0.6c0,0,0,0,0,0
		c-0.1-0.1-0.2-0.2-0.3-0.2l-0.1,0l-0.7,0.5c-4,2.6-7.8,5.1-11.9,7.3c-3,0.1-6.1,0.2-9.4,0.3C35.4,195.2,37.1,194.5,38.5,193.1z
		 M28.9,175.1l-0.7,0.5c-0.7,0.4-1.4,0.8-2,1.3c0-0.8,0-1.6,0.1-2.4c1.2-0.1,2.4-0.1,3.8-0.1C29.7,174.6,29.3,174.8,28.9,175.1z
		 M41.1,171C41.1,170.9,41.1,170.9,41.1,171L41.1,171l0.2,0.1l0.1,0c1.2-0.5,2.2-1.2,3-2.2l0.1-0.1l0-0.1l-0.1-0.1h-0.1l-0.1,0l0,0
		c-0.9,1-1.8,1.6-2.8,2l-0.1,0.1c0-0.1,0-0.3,0-0.4c0-0.6,0-1.1,0.1-1.7l0-0.5c1-0.1,2-0.1,2.9-0.2l0,0.1c0.1,0.5,0.4,0.7,0.7,0.7
		c0.2,0,0.4-0.1,0.6-0.3c0.1-0.1,0.2-0.3,0.2-0.5c1.5,0,2.9,0.1,4.4,0.1c0.6,0,1.3,0.1,1.9,0.1c-0.8,0.3-1.5,0.8-2.2,1.3
		c-0.2,0.2-0.5,0.3-0.7,0.5l-0.3,0.2c0.1-0.1,0.3-0.3,0.4-0.4c0.1-0.1,0.1-0.2,0.1-0.3c0-0.1-0.1-0.2-0.3-0.2c0,0,0,0-0.1,0
		c-1.6,0.6-3.1,1.8-4.5,2.9l-0.5,0.4l-0.1,0.1c-0.9,0-1.9,0-2.8,0.1C41.1,172.1,41.1,171.5,41.1,171z M69,168.7
		c-0.3,0.2-0.6,0.5-0.8,0.7c-0.3,0.2-0.5,0.4-0.8,0.6c-0.6,0.5-1.2,0.9-1.7,1.5c-0.1,0.1-0.1,0.3-0.1,0.5c0.1,0.1,0.2,0.2,0.4,0.2
		c0,0,0,0,0.1,0c1.7-0.7,3.7-2.4,4.9-4.1l1.9,0c-0.5,0.3-0.9,0.7-1.4,1.1c-1.2,0.9-2.4,1.8-3.6,2.5c-0.2,0.1-0.2,0.3-0.2,0.5
		c0,0,0,0.1,0,0.1c-1.3,0-2.6,0-3.9,0c1.1-0.6,2.1-1.6,2.7-2.8c0.1-0.1,0.1-0.3,0-0.4c-0.1-0.1-0.2-0.2-0.3-0.2l-0.2,0l-0.2,0.2
		c-0.6,0.5-1.2,0.9-1.8,1.4c-0.3,0.2-0.7,0.4-1,0.6c-0.4,0.2-0.7,0.4-1.1,0.7c-0.2,0.1-0.2,0.3-0.2,0.5l-1.5,0
		c1.8-1.3,3.5-2.7,5-4.2l4.4,0C69.4,168.4,69.2,168.6,69,168.7z M77.2,168.3l2.1,0c-1,0.7-2,1.5-3,2.3c-0.8,0.6-1.6,1.3-2.4,1.9
		l-0.9,0c1.7-0.9,3.3-2.3,4.2-3.8C77.2,168.6,77.2,168.4,77.2,168.3z M74.8,169.4c-0.3,0.2-0.7,0.5-1,0.7c-0.4,0.3-0.8,0.5-1.2,0.8
		c-0.6,0.4-1.1,0.7-1.7,1.1c-0.1,0.1-0.2,0.2-0.2,0.4c-0.7,0-1.5,0-2.2,0c2-1,4.3-2.3,5.9-4.2l2.1,0C75.9,168.6,75.3,169,74.8,169.4
		z M48.8,171.6c-0.4,0.3-0.8,0.6-1.2,0.9l-0.1,0.1l-0.4,0C47.7,172.2,48.3,171.9,48.8,171.6z M52.8,168.8c0.1-0.1,0.2-0.2,0.3-0.3
		c0.1-0.1,0.1-0.2,0.1-0.3c0.2,0,0.4,0,0.6,0C53.4,168.4,53.1,168.6,52.8,168.8z M49.2,172.6c1-0.6,2-1.2,2.8-1.8
		c0.2-0.2,0.5-0.3,0.7-0.5c0.9-0.6,1.8-1.1,2.6-2.1l1.6,0c-1.9,1.2-3.9,2.7-5.7,4.3L49.2,172.6z M57.6,168.2l1.8,0
		c-0.6,0.4-1.2,0.9-1.8,1.4l-0.5,0.4c-1,0.8-2,1.6-2.8,2.5l-1.5,0c1.8-1.2,3.5-2.6,4.8-4.1L57.6,168.2L57.6,168.2z M60.6,170.6
		c1-0.7,2-1.4,2.8-2.4l0.6,0c-1.8,1.2-3.5,2.7-5.2,4.1l-0.1,0.1l-0.6,0c0.6-0.4,1.2-0.9,1.8-1.4C60.1,171,60.4,170.8,60.6,170.6z
		 M60,169.7l-0.6,0.5c-1,0.8-2.1,1.6-3,2.4l-0.5,0c0.5-0.4,1.1-0.9,1.6-1.3l0.8-0.7c0.8-0.7,1.7-1.4,2.5-2.3l1.3,0
		C61.3,168.6,60.7,169.2,60,169.7z M76.4,172.2c-0.1,0.1-0.1,0.2-0.1,0.3h-0.8c0.5-0.3,1.1-0.6,1.6-1
		C76.8,171.7,76.6,172,76.4,172.2z M148,170.6c-0.5,0.5-1.2,1.1-1.5,1.9l-1,0c0.5-0.3,0.9-0.6,1.4-1c0,0,1.1-0.9,1.4-1.1
		C148.2,170.4,148.1,170.5,148,170.6z M149.5,172.5c0.6-0.5,1.2-1.1,1.7-1.6c0.2-0.3,0.5-0.5,0.7-0.7c0.1-0.1,0.2-0.3,0.1-0.5
		c-0.1-0.2-0.2-0.3-0.4-0.3c-0.1,0-0.2,0-0.3,0.1c-0.2,0.2-0.5,0.5-0.7,0.7c-0.7,0.7-1.5,1.4-2.1,2.4h-0.8c0.3-0.3,0.5-0.6,0.8-0.9
		c0.1-0.2,0.3-0.3,0.4-0.5c0.7-0.8,1.4-1.6,2.1-2.6c0.1-0.1,0.1-0.2,0-0.4c0-0.1-0.1-0.2-0.2-0.2l-0.1,0c0,0-0.4,0.4-0.6,0.6
		c0,0,0,0,0,0c0-0.1-0.2-0.2-0.3-0.2l-0.1,0l0,0c-0.5,0.3-0.9,0.6-1.4,1c-0.4,0.3-0.9,0.6-1.3,0.9c-0.2,0.1-0.3,0.2-0.5,0.3
		c-0.7,0.4-1.3,0.9-1.8,1.6c0,0.1-0.1,0.2-0.1,0.2l-2.5,0c-2.3,0-4.7,0-7,0l-2.4,0c-9.5,0-19.1-0.1-28.6-0.1l-17.4,0
		c1-0.5,1.9-1,2.7-1.7c0.1-0.1,0.1-0.3,0.1-0.4c0-0.1-0.1-0.2-0.3-0.2c0,0,0,0-0.1,0c-1,0.4-2,0.9-3.1,1.6c-0.2,0.1-0.2,0.3-0.2,0.5
		c0,0.1,0.1,0.1,0.1,0.2l-3,0c0.5-0.3,1-0.6,1.3-1c0,0.1,0,0.1,0,0.2c0.1,0.2,0.2,0.3,0.3,0.3l0.2,0l0,0c0.8-0.5,1.6-1.1,2.5-1.9
		c0.1-0.1,0.1-0.2,0.1-0.3l-0.2-0.1h-0.1c-0.9,0.4-1.6,0.9-2.3,1.4c0.1-0.1,0.2-0.2,0.2-0.3c0.1-0.1,0.1-0.3,0-0.4
		c-0.1-0.1-0.1-0.2-0.2-0.2l-0.1,0l-0.4,0.3c-0.9,0.6-1.8,1.3-2.7,1.7c-0.1,0.1-0.2,0.2-0.3,0.4h-1.4c1.5-0.5,2.7-1.5,3.4-2.8
		c0.1-0.1,0.1-0.2,0-0.4c-0.1-0.1-0.2-0.2-0.3-0.2l-0.1,0l-0.5,0.4c-1.1,0.9-2.1,1.7-3.3,2.2c0,0-0.1,0.1-0.1,0.1c0,0-0.1,0-0.1,0
		c0,0,0,0-0.1,0c0.9-0.6,1.7-1.4,2.6-2.4c0.1-0.1,0.1-0.3,0.1-0.5c-0.1-0.1-0.1-0.2-0.3-0.2c0,0-0.1,0-0.1,0
		c-0.8,0.4-1.5,0.8-2.1,1.2c0.6-0.5,1.1-1.1,1.5-1.7l16,0.1c5.5,0,11.1,0,16.6,0l11.1,0c2,0,4,0,6,0c2,0,4,0,6,0
		c4,0,7.2-0.1,10.1-0.2c0.1,0.2,0.3,0.3,0.5,0.4c-1,0.5-2,1.1-2.8,1.9c-0.1,0.1-0.1,0.2,0,0.3c0,0.1,0.1,0.2,0.2,0.2l0.1,0
		c1.1-0.3,2.2-1.2,3.2-1.9l0.3-0.2c0.1-0.1,0.1-0.3,0.1-0.4c0-0.1-0.1-0.1-0.2-0.2c0,0,0.1-0.1,0.1-0.1c1.6-0.1,3.1-0.2,4.4-0.3
		c0.1,0.8,0.1,1.6,0.2,2.4l0,0.6c0,0.5,0.1,1.1,0.2,1.6C152.5,172.5,150.3,172.5,149.5,172.5z M152.2,31.1c0,0-0.1,0-0.1,0
		c-7.3-0.5-15.2-0.7-25-0.7c-5.2,0-10.6,0.1-15.7,0.1c-5.2,0.1-10.4,0.1-15.5,0.1l-28.1,0c-4.5,0-9,0-13.5,0.1
		c-1.5,0-3.1,0.1-4.6,0.2c-1.7,0.1-3.4,0.2-5.1,0.2c-1.7,0-3.2-0.1-4.6-0.3l0-0.7c0-1.3-0.1-2.6-0.2-3.8c0.5,0,1,0,1.5,0l0.8,0
		c5.9,0.1,11.8,0.1,17.7,0.1l10.6,0c0.1,0.1,0.2,0.2,0.3,0.2l0.1,0l0.2-0.1l0.2-0.1l11.6,0c0,0.1,0.1,0.2,0.1,0.3
		c0.1,0.1,0.1,0.1,0.2,0.1l0.1,0l0.5-0.2l0.3-0.2l18.8,0c0.1,0.1,0.1,0.2,0.3,0.2l0.1,0l0.3-0.2l27.7,0c3.6,0,7.3,0.1,10.9,0.2
		c3.4,0.1,6.8,0.2,10.2,0.2C152.2,28.1,152.2,29.6,152.2,31.1z M167.6,23l0.4-0.3l0,1.6c0,0.2,0,0.3,0.1,0.5c-0.3-0.1-0.7-0.3-1-0.3
		c-0.2,0-0.8-0.1-0.8-0.1C166.7,23.9,167.1,23.4,167.6,23z"/>
	<path class="st0" d="M61.1,56.2c-0.1,0-0.1,0.2,0,0.2C61.2,56.3,61.2,56.2,61.1,56.2z"/>
	<path class="st0" d="M131.3,56.2c-1.6-0.5-3.1-0.5-4.3-0.5c-0.7,0-1.4,0-2,0c-0.7,0-1.3,0-2,0l-10.6,0c-5.1,0-10.1,0-15.2,0l-4.7,0
		c-10,0-20.3,0-30.5,0.7c-0.1,0-0.2,0.1-0.2,0.3c0,0.1,0.1,0.3,0.2,0.3c1.5,0.1,2.9,0.2,4.4,0.2c-0.3,0.1-0.5,0.4-0.7,0.6
		c-0.1,0.2-0.3,0.3-0.4,0.4c-0.4,0.3-1,0.6-1.4,0.8c-1.1-0.9-1.9-1.7-2.7-2.4c0,0-0.1-0.1-0.1-0.1l-0.2,0.1l0,0.1c0,0.1,0,0.2,0,0.3
		c3.1,3.7,6.6,6.7,10.1,9.6c4,3.3,8.1,6.8,11.4,11.2c3.9,5.2,7,12.4,9.4,21.3c1,3.6,1.6,7.1,2,10.1c-0.1,0.2-0.1,0.5,0,0.5
		c0.2,1.4,0.3,2.8,0.3,4.1l-0.1,0.2c-0.1,0.1-0.1,0.1-0.2,0.2c-0.1,0.2-0.1,0.5,0,0.6c0.1,0.1,0.2,0.2,0.3,0.2c0,1,0,2-0.1,2.9
		c0,0-0.2,0.4-0.3,0.4c-0.1,0.1-0.1,0.3,0,0.4c0,0.1,0.1,0.2,0.2,0.2c-0.2,1.9-0.6,3.6-1,5.2c-2.4,7.7-8.6,10.5-14.6,13.3
		c-1.2,0.5-2.4,1.1-3.5,1.7c-0.1-0.1-0.1-0.1-0.2-0.1l-0.1,0l0,0c-1,0.5-2,1.2-3,2c-6.7,4.2-16.2,11.4-23,21.9
		c-0.2,0.3-0.2,0.7,0,0.9c0.1,0.2,0.3,0.3,0.5,0.3c0.1,0,0.3,0,0.4-0.2l0.1-0.2c0,0.1,0.1,0.1,0.1,0.1c0.1,0.1,0.2,0.1,0.3,0.1
		c5.4,0.2,11.4,0.3,18.7,0.3c4.1,0,8.1,0,12.2-0.1c4.1,0,8.1-0.1,12.2-0.1l3,0c14.2,0.1,28.6,0.3,42.5,0.5l3.5,0.1
		c0.2,0,0.4-0.1,0.5-0.2c0.1-0.1,0.2-0.3,0.2-0.6c0.1,0,0.2,0.1,0.2,0.1c0.2,0,0.4-0.1,0.5-0.3c0.1-0.2,0.1-0.5,0-0.7
		c-5.7-11.9-17.4-19.9-22.2-22.8c-0.7-0.4-1.4-0.8-2.1-1.2c0-0.1-0.1-0.2-0.1-0.3c-0.1-0.1-0.2-0.1-0.2-0.1c-0.1,0-0.1,0-0.2,0.1
		c-1.2-0.6-2.3-1.1-3.5-1.7c-0.6-0.3-1.2-0.6-1.8-0.8c0-0.1-0.2-0.2-0.3-0.2c0,0-0.1,0-0.1,0c-0.5-0.2-1-0.5-1.5-0.8
		c0.1-0.1,0.1-0.3,0-0.4c-0.1-0.1-0.2-0.2-0.3-0.2c-0.1,0-0.2,0-0.3,0.2l0,0c-0.3-0.2-0.6-0.4-1-0.6c0,0,0.1-0.1,0.1-0.1
		c0.1-0.1,0.1-0.3,0-0.5c-0.1-0.1-0.2-0.2-0.3-0.2l-0.1,0l0,0c-0.1,0.1-0.2,0.2-0.3,0.3l0,0c-0.7-0.4-1.3-0.8-1.9-1.2
		c-3.9-2.8-6.6-7.9-8.1-15.2c-2.4-11.6,0.8-26.4,7.7-36c5.5-7.7,12.4-13.8,19-19.6c1.8-1.5,3.5-3.1,5.2-4.6l0.2,0
		c0.1,0,0.2,0,0.3-0.1c0.2-0.1,0.4-0.3,0.4-0.6C131.7,56.5,131.5,56.3,131.3,56.2z M104.8,132.7L104.8,132.7c-0.6,0.6-1.2,1-1.7,1.5
		l-0.3,0.3c-0.6,0.5-1.2,1-1.6,1.8c0,0.1,0,0.2,0,0.3c0,0.1,0.1,0.1,0.2,0.1c0,0,0,0,0.1,0c0.7-0.3,1.2-0.9,1.8-1.4l0.3-0.3
		c0.6-0.6,1.2-1.2,1.7-1.8c0.2,0.2,0.5,0.4,0.7,0.6l-0.3,0.3c-0.4,0.4-0.8,0.8-1.2,1.2c-0.1,0.1-0.2,0.2-0.3,0.3
		c-0.5,0.4-1,0.9-1.1,1.5c0,0.1,0,0.2,0.1,0.3l0.2,0.1l0.1,0c0.5,0,1-0.5,1.3-0.9c0.1-0.1,0.2-0.2,0.3-0.3c0.5-0.5,0.9-1,1.4-1.5
		l0.4-0.4c0.4,0.3,0.7,0.5,1.1,0.7c-0.2,0.2-1,1-1,1c-0.6,0.6-1.2,1.2-1.5,2c0,0.1,0,0.3,0,0.4c0,0.1,0.1,0.1,0.2,0.1
		c0,0,0.1,0,0.1,0c0.7-0.3,1.2-0.9,1.7-1.5l0.2-0.3c0.4-0.4,0.7-0.8,1-1.2c0.3,0.2,0.5,0.3,0.8,0.5l-0.1,0.1
		c-0.2,0.2-0.4,0.3-0.5,0.5l-0.1,0.1c-0.5,0.5-1,1-1.3,1.8c0,0.1,0,0.2,0,0.3c0,0.1,0.1,0.1,0.2,0.1c0,0,0,0,0.1,0
		c0.6-0.3,1.1-0.8,1.6-1.4c0.2-0.2,0.4-0.5,0.6-0.7l0.2-0.3c0.5,0.3,1,0.5,1.4,0.8c-0.3,0.4-0.6,0.8-0.9,1.1
		c-0.1,0.2-0.3,0.3-0.4,0.5c-0.4,0.4-0.7,0.8-1,1.3c-0.1,0.1-0.1,0.2,0,0.3c0.1,0.1,0.1,0.1,0.3,0.1c0,0,0,0,0,0
		c1-0.3,1.9-1.3,2.8-3l0.9,0.4c-0.3,0.4-0.5,0.8-0.8,1.2l-0.2,0.4c-0.4,0.6-0.8,1.3-0.9,2.1c0,0.1,0,0.3,0.1,0.4
		c0.1,0.1,0.1,0.1,0.2,0.1l0.1,0l0,0c0.5-0.4,0.8-1,1.2-1.6l0.2-0.4c0.3-0.5,0.6-1.1,0.9-1.7l1.3,0.6l-0.3,0.3
		c-0.4,0.4-0.7,0.8-1.1,1.2l-0.2,0.2c-0.4,0.5-0.8,0.9-1,1.5c0,0.1,0,0.2,0,0.3c0.1,0.1,0.1,0.1,0.2,0.1l0.1,0l0,0
		c0.5-0.3,0.9-0.7,1.2-1.2l0.2-0.2c0.4-0.4,0.7-0.9,1-1.4l0.3-0.4c0,0,0.1-0.1,0.1-0.1c0.4,0.2,0.7,0.4,1.1,0.5l-0.2,0.2
		c-0.2,0.3-0.4,0.6-0.7,0.8l-0.3,0.3c-0.4,0.6-0.9,1.2-1.2,1.9c-0.1,0.1,0,0.3,0,0.4c0.1,0.1,0.1,0.1,0.2,0.1l0.1,0l0,0
		c0.6-0.4,1-1,1.5-1.7l0.2-0.3c0.3-0.4,0.6-0.8,0.9-1.3l0.1-0.1l0.4,0.2c0.6,0.3,1.2,0.7,1.8,1.1l0.2,0.1l-0.4,0.4
		c-0.5,0.5-1,1-1.4,1.5l-0.4,0.4c-0.6,0.6-1.2,1.3-1.6,2.1c-0.1,0.1-0.1,0.3,0,0.4c0.1,0.1,0.2,0.2,0.3,0.2l0.1,0l0,0
		c0.7-0.4,1.3-1.1,1.9-1.8l0.4-0.5c0.5-0.5,0.9-1.1,1.3-1.6l0.5-0.6c0.8,0.5,1.6,1,2.5,1.7l-0.1,0.1c-0.5,0.7-1,1.4-1.6,2
		c-0.2,0.3-0.5,0.6-0.8,0.9c-0.6,0.6-1.1,1.2-1.6,2c-0.1,0.1-0.1,0.3,0,0.4c0.1,0.1,0.1,0.2,0.3,0.2c0,0,0.1,0,0.1,0
		c0.9-0.4,1.7-1.4,2.4-2.2l0.3-0.3c0.5-0.7,1.1-1.4,1.7-2.4c0.4,0.3,0.7,0.6,1.1,0.8l-1.9,2.5c-0.4,0.6-0.9,1.2-1.1,1.9
		c0,0.1,0,0.3,0,0.4c0.1,0.1,0.1,0.1,0.2,0.1l0.1,0l0,0c0.5-0.4,1-1,1.4-1.6l1.1-1.6l0.8-1.2c0.4,0.3,0.7,0.6,1.1,0.8
		c-0.4,0.5-1.6,2.3-1.6,2.3c-0.5,0.7-1,1.3-1.3,2.1c0,0.1,0,0.3,0,0.4c0.1,0.1,0.1,0.1,0.2,0.1l0.1,0l0,0c0.6-0.5,1.1-1.2,1.5-1.9
		l1.6-2.4c0.3,0.2,0.5,0.5,0.8,0.7l0.2,0.2c-0.7,0.7-1.3,1.4-1.8,2.1c-0.6,0.8-1.3,1.8-1.6,2.9c0,0.1,0,0.2,0.1,0.3
		c0.1,0.1,0.1,0.1,0.2,0.1c0.1,0,0.2,0,0.2-0.1c0.4-0.5,0.8-1.1,1.1-1.6c0.2-0.4,0.4-0.7,0.7-1.1c0.5-0.7,1.1-1.4,1.7-2.1l0.4,0.3
		c0.3,0.3,0.7,0.6,1,0.9c0.4,0.4,0.8,0.8,1.2,1.2c0,0,0,0-0.1,0.1c-0.8,1.1-1.9,2.7-2,4.5c0,0.1,0,0.2,0.1,0.2l0.1,0.1h0.1
		c0.1,0,0.2-0.1,0.2-0.2c0.2-0.4,0.4-0.8,0.6-1.3c0.1-0.3,0.2-0.5,0.3-0.8c0.3-0.7,0.7-1.4,1.1-2c0,0,0-0.1,0.1-0.1
		c0.5,0.5,0.9,1,1.3,1.5c-0.1,0-0.2,0.1-0.3,0.2c-0.1,0.2-0.2,0.4-0.3,0.6c-0.4,0.7-0.8,1.3-1,2.1c0,0.1,0,0.3,0.1,0.4
		c0.1,0.1,0.2,0.1,0.2,0.1l0.1,0l0,0c0.5-0.5,0.9-1.2,1.3-1.9c0.1-0.2,0.2-0.4,0.3-0.6c0,0,0-0.1,0-0.1c1.5,1.8,3,3.7,4.4,5.6
		c0.9,1.1,1.7,2.3,2.6,3.4c-2.1-0.1-4.1-0.1-6.2-0.1c0.8-0.1,1.7-0.7,1.9-2.1c0-0.1,0-0.2-0.1-0.3c-0.1-0.1-0.2-0.1-0.3-0.1
		c-0.1,0-0.2,0-0.3,0.1c-0.6,0.7-1.2,1-1.7,1c-0.1,0-0.1,0-0.2,0c-0.3,0-0.5,0.2-0.5,0.5c0,0.3,0.1,0.7,0.4,0.8c0.1,0,0.2,0,0.4,0.1
		c-0.9,0-1.8,0-2.7-0.1c0.8-0.5,1.5-1.4,2.2-2.2c0.7-0.8,1.4-1.7,1.8-2.9c0-0.1,0-0.2,0-0.3c-0.1-0.1-0.1-0.1-0.2-0.1l-0.1,0l0,0
		c-0.5,0.5-1,1.1-1.4,1.6c-0.2,0.3-0.4,0.5-0.6,0.8c-0.4,0.4-0.8,0.8-1.1,1.2c-0.4,0.4-0.8,0.8-1.2,1.3c-0.1,0.1-0.1,0.3-0.1,0.4
		c0,0,0,0.1,0,0.1c-1.4,0-4.5-0.1-4.5-0.1c0.7-0.5,1.3-1.1,1.9-1.6l0.5-0.5c0.9-0.8,1.7-1.6,2.4-2.8c0.1-0.1,0.1-0.3,0-0.4
		c-0.1-0.1-0.1-0.2-0.3-0.2c0,0,0,0-0.1,0c-1.1,0.5-2,1.3-3,2.2c-0.2,0.2-0.4,0.3-0.6,0.5c-0.8,0.7-1.6,1.4-2.1,2.3
		c-0.1,0.1-0.1,0.2-0.1,0.3l-1.4,0c2.1-1.7,3.7-3.3,4.9-4.8c0.1-0.1,0.1-0.3,0-0.4c-0.1-0.1-0.2-0.2-0.3-0.2l-0.1,0l0,0
		c-1.7,1.1-3.6,2.8-5.7,5.3l-1.3,0c0.7-0.6,1.4-1.2,2.2-2l0.6-0.5c1-0.9,2-1.9,2.8-3.1c0.1-0.1,0.1-0.3,0-0.4
		c-0.1-0.1-0.2-0.2-0.3-0.2l-0.1,0l0,0c-1,0.7-2,1.6-2.9,2.5l-0.7,0.7c-1,1-2,1.9-2.8,3l-0.8,0c2.1-1.8,3.8-3.6,5.1-5.5
		c0.1-0.1,0.1-0.3,0-0.4c-0.1-0.1-0.1-0.2-0.3-0.2l-0.1,0l0,0c-2,1.3-4.1,3.3-6.3,5.8c0,0.1-0.1,0.1-0.1,0.2l-0.7,0
		c2.1-2,3.6-3.9,4.7-5.8c0.1-0.1,0.1-0.2,0-0.4c-0.1-0.1-0.2-0.2-0.3-0.2l-0.1,0l0,0c-1.8,1.3-3.7,3.4-5.8,6.3l-1.2,0
		c0.5-0.9,1.1-1.9,1.7-2.8c0.6-1,1.2-1.9,1.8-3c0.1-0.1,0.1-0.3,0-0.4c-0.1-0.1-0.2-0.2-0.3-0.2l-0.2,0l0,0
		c-2.3,1.6-3.7,4.6-4.3,6.3l-1.3,0l0.4-0.5c1.3-1.7,2.6-3.5,3.5-5.5c0-0.1,0-0.2,0-0.3c-0.1-0.1-0.1-0.1-0.2-0.1l-0.2,0.1l0,0
		c-1.4,1.5-2.5,3.5-3.6,5.4l-0.5,1l-2.4,0c1.8-2.1,3.9-4.5,5.2-7.2c0.1-0.1,0-0.3,0-0.4c-0.1-0.1-0.2-0.2-0.3-0.2l-0.1,0l0,0
		c-2.1,1.9-3.9,4.7-5.5,7.1l-0.3,0.5l-2.3,0c0.7-0.8,1.4-1.7,2.1-2.6l1-1.2c1-1.2,2-2.4,2.8-3.9c0.1-0.1,0.1-0.2,0-0.4
		c-0.1-0.1-0.2-0.2-0.3-0.2l-0.1,0l0,0c-1.1,0.9-2,2.1-2.9,3.2l-0.9,1.1c-1,1.2-2,2.5-2.8,3.8l-2.1,0c0.7-0.7,1.4-1.5,2.1-2.2
		l0.6-0.7c0.3-0.3,0.6-0.6,0.9-0.9c1.2-1.2,2.4-2.5,3.3-4c0.1-0.1,0.1-0.3,0-0.4c0-0.1-0.1-0.1-0.2-0.1l-0.1,0l0,0
		c-1.3,0.9-2.4,2.1-3.4,3.3l-0.7,0.7l-0.7,0.8c-1.1,1.1-2.1,2.3-3,3.5l-2.6,0c0.7-0.8,1.3-1.6,2-2.4l0.7-0.9l0.7-0.9
		c1-1.2,2-2.5,2.9-3.9c0.1-0.1,0.1-0.2,0-0.4c-0.1-0.1-0.2-0.2-0.3-0.2l-0.1,0l0,0c-1.1,1.1-2.1,2.3-3.1,3.6l-0.7,0.9l-0.7,0.8
		c-0.9,1.1-1.8,2.2-2.5,3.3l-2.9,0c0.5-0.5,0.9-1,1.4-1.5c2-2.2,4.2-4.4,5.9-7c0.1-0.1,0.1-0.3,0-0.4c-0.1-0.1-0.1-0.2-0.2-0.2
		l-0.1,0l0,0c-2.2,2-4.2,4.4-6.1,6.8c-0.6,0.7-1.1,1.4-1.7,2.1c0,0-0.1,0.1-0.1,0.1l-2.4,0c0.8-0.9,1.7-1.9,2.5-2.8
		c0.4-0.4,0.7-0.9,1.1-1.3c0.3-0.4,0.7-0.7,1-1.1c1.4-1.6,2.9-3.2,4.1-5.1c0.1-0.1,0.1-0.2,0-0.3c-0.1-0.1-0.2-0.2-0.3-0.2l-0.1,0
		l0,0c-1.5,1.2-2.9,2.9-4.2,4.4l-0.9,1c-0.4,0.5-0.8,0.9-1.2,1.3c-1.1,1.3-2.3,2.6-3.2,3.9l-4.8,0c1.5-1.5,3-3.1,4.4-4.8l0.6-0.7
		c0.5-0.6,1-1.1,1.5-1.7c1.6-1.8,3.2-3.6,4.5-5.7c0.1-0.1,0.1-0.4,0-0.5c-0.1-0.1-0.2-0.2-0.3-0.2l-0.2,0.1l0,0
		c-1.6,1.4-3.1,3.1-4.5,4.8c-0.4,0.5-0.8,1-1.2,1.4l-1.1,1.3c-1.6,1.9-3.3,3.8-4.6,5.9l-3,0c0.8-0.9,1.6-1.8,2.4-2.7
		c1-1.2,2-2.3,3.1-3.5c0.7-0.8,1.5-1.6,2.3-2.4c1.7-1.7,3.4-3.5,4.8-5.6c0.1-0.1,0.1-0.3,0-0.5c-0.1-0.1-0.2-0.2-0.3-0.2l-0.1,0l0,0
		c-2.1,1.4-4,3.6-5.7,5.7c-0.4,0.5-0.8,1-1.3,1.5c-2.5,2.9-4.4,5.3-6,7.5l-3.5,0c1.8-1.8,3.5-3.7,5.2-5.6c0.7-0.8,1.4-1.5,2.1-2.3
		c0.9-1,1.8-1.9,2.7-2.8c2-2.1,4.1-4.2,5.8-6.6c0.1-0.1,0.1-0.3,0-0.4c-0.1-0.1-0.2-0.2-0.3-0.2l-0.1,0l0,0
		c-2.4,1.7-4.6,4.1-6.6,6.5c-0.5,0.6-1,1.1-1.4,1.6c-2.8,3.1-5.6,6.2-7.9,9.8c-1.4,0-2.8,0-4.2,0c3.3-2.8,6.4-6,9.4-9.1
		c0.5-0.6,1.1-1.1,1.6-1.7c3-3.2,6.2-6.4,8.5-10.2c0.1-0.2,0.1-0.4,0-0.5c-0.1-0.1-0.2-0.2-0.3-0.2c-0.1,0-0.1,0-0.2,0.1
		c-2.3,2-4.4,4.5-6.4,6.9c-1.1,1.2-2.1,2.5-3.2,3.7c-1.4,1.6-2.9,3.1-4.3,4.6c-2,2.1-4.1,4.3-6,6.5c-1.5,0-3,0.1-4.6,0.1
		c4.4-3.5,8.5-7.7,12.1-11.3c0.9-0.9,1.7-1.8,2.7-2.7c3.3-3.2,6.7-6.6,9-10.6c0.1-0.1,0.1-0.3,0-0.4c-0.1-0.1-0.2-0.2-0.3-0.2
		l-0.1,0l0,0c-2.7,2.1-5.1,5-7.5,7.8c-1.3,1.6-2.7,3.2-4.1,4.6c-2,2.1-4.1,4.2-6.2,6.2c-2.1,2.1-4.3,4.2-6.5,6.5l0,0.1
		c-1.4,0-2.8,0.1-4.2,0.1c3.7-1.9,7.4-5.4,10.6-8.6c0.7-0.7,1.4-1.4,2.1-2l1.7-1.6c3.8-3.6,7.8-7.3,10.8-11.7c0.1-0.2,0.1-0.5,0-0.6
		c-0.1-0.1-0.2-0.2-0.3-0.2c-0.1,0-0.2,0-0.2,0.1c-2.4,2.2-4.7,4.7-7,7.1c-1.9,2.1-3.9,4.3-6,6.2c-2.3,2.1-4.6,4.2-6.8,6.1
		c-0.6,0.5-1.2,1-1.8,1.5c-1.4,1.1-2.9,2.3-4.1,3.8c-1.3,0-2.7,0.1-4,0.2c4-2.9,8.2-6.4,13.2-10.8c0.6-0.6,1.3-1.1,1.9-1.7
		c3.9-3.4,7.9-7,11.2-11.2c0.1-0.1,0.1-0.4,0-0.5c-0.1-0.1-0.2-0.2-0.3-0.2c-0.1,0-0.2,0-0.2,0.1c-2.8,2.3-5.6,5-8.2,7.7
		c-1.8,1.8-3.6,3.6-5.4,5.3c-3.1,2.9-6.4,5.6-9.5,8.3c-1.2,1.1-2.5,2.1-3.7,3.2c-1.3,0.1-2.7,0.1-4,0.2c3.1-2.4,6.1-5,9-7.6
		c1.1-1,2.3-2,3.4-3c1.1-1,2.3-1.9,3.5-2.9c2.8-2.3,5.7-4.7,8.3-7.4c0.1-0.1,0.2-0.3,0.1-0.5c-0.1-0.2-0.2-0.3-0.4-0.3
		c-0.1,0-0.1,0-0.2,0.1c-3.1,2.2-6.1,5-9.1,7.7c-1.2,1.1-2.4,2.2-3.6,3.3c-1.1,0.9-2.2,1.9-3.2,2.8c-2.5,2.1-5,4.4-7.4,6.7
		c1.7-2,3.4-3.9,5-5.6c0.9-0.9,1.9-1.8,2.8-2.7c1.8-1.7,3.7-3.5,5.6-5.2c1.4-1.2,2.8-2.3,4.1-3.3c1.9-1.3,3.4-2.4,5-3.3
		c1.8-1,3.6-1.9,5.6-2.8c5.8-2.6,11.8-5.4,14.5-12.6c0.1-0.2,0.1-0.3,0.2-0.5l0-0.1c0.6-0.6,1.2-1.2,1.8-1.9l0.6-0.6
		c0.6-0.6,1.2-1.3,1.6-2.1c0.1-0.1,0.1-0.2,0-0.3c-0.1-0.1-0.2-0.1-0.3-0.1l-0.1,0l0,0c-0.6,0.4-1.2,1-1.8,1.6c0,0-0.9,1-1,1.1
		c0.2-0.8,0.3-1.5,0.4-2.3c0.4-0.4,0.8-0.8,1.2-1.2l0.2-0.2c0.4-0.4,0.8-0.8,1.2-1.3c0.5,2.6,1.3,5.1,2.2,7.4
		C101.1,128.4,102.7,130.8,104.8,132.7z M97,110.6c-0.4,0.3-0.8,0.8-1.2,1.2c0,0-0.3,0.4-0.4,0.5c0-0.5-0.1-0.9-0.1-1.4
		c0.6-0.4,1.2-1.1,1.6-1.8C96.9,109.6,96.9,110.1,97,110.6z M96.9,108.1L96.9,108.1c-0.6,0.2-1.3,0.8-1.8,1.4l-0.1-0.4
		c0.6-0.7,1.4-1.5,2-2.5C97,107,97,107.5,96.9,108.1z M97,114.2L97,114.2c-0.6,0.4-1.1,1-1.5,1.7c0-0.7,0-1.3,0-1.9l1-1.2
		c0.2-0.2,0.3-0.4,0.5-0.6C97,112.8,97,113.5,97,114.2L97,114.2z M96,118.5c0,0-0.5,0.5-0.7,0.7c0.1-0.5,0.1-1.1,0.1-1.6
		c0.2-0.3,0.4-0.5,0.6-0.8l0.2-0.3c0.3-0.4,0.7-0.9,1-1.4c0.1,0.7,0.2,1.4,0.3,2.1C97,117.5,96.5,118,96,118.5z M97.1,105.4
		L97.1,105.4c-0.8,0.6-1.5,1.5-2.1,2.2c-0.1-0.4-0.1-0.7-0.2-1.1l0,0c1-0.8,1.9-2,2.4-3.2c0-0.1,0-0.2,0-0.3
		c-0.1-0.1-0.1-0.1-0.2-0.1l-0.1,0l0,0c-0.8,0.5-1.6,1.3-2.3,2.3c-0.1-0.5-0.2-1-0.3-1.5l0,0c0.9-0.7,1.7-1.4,2.4-2.2l0.3-0.3
		c0.3-0.3,0.5-0.5,0.8-0.8C97.5,102,97.3,103.7,97.1,105.4L97.1,105.4z M96.4,99.9l-0.3,0.3c-0.6,0.6-1.4,1.4-2.1,2.3l0-0.2
		c-0.1-0.4-0.2-0.9-0.3-1.3c0.1,0,0.1,0.1,0.2,0.1c0.1,0,0.2,0,0.2-0.1c0.6-0.5,1.2-1.1,1.8-1.7l0.4-0.5c0.6-0.6,1.2-1.3,1.7-2.1
		c0.1-0.1,0.1-0.2,0-0.3c-0.1-0.1-0.2-0.2-0.3-0.2l-0.1,0l0,0c-0.7,0.4-1.3,1-1.9,1.6l-0.4,0.4c-0.6,0.6-1.2,1.2-1.8,2
		c0,0,0,0.1,0,0.1c-0.1-0.4-0.2-0.7-0.3-1.1c0.1,0,0.1,0,0.2-0.1c1.4-1.2,3.1-2.8,4.2-4.7c0.1-0.1,0.1-0.2,0-0.3
		c-0.1-0.1-0.2-0.2-0.3-0.2l-0.1,0l0,0c-1.6,1-3.1,2.8-4.2,4.3c-0.9-3.2-1.9-6.3-3-9.2l0.1,0l0,0c1.4-0.8,2.6-2,3.8-3.2l0.6-0.6
		c1.2-1.2,2.5-2.5,3.5-4.1c0.1-0.1,0.1-0.2,0-0.4c-0.1-0.1-0.2-0.2-0.3-0.2l-0.1,0l0,0c-1,0.7-1.9,1.7-2.7,2.6
		c-0.4,0.4-0.7,0.7-1.1,1.1c-0.5,0.5-0.9,0.9-1.4,1.3c-0.9,0.9-1.9,1.8-2.7,2.8c-0.2-0.6-0.5-1.1-0.7-1.7c0,0,0,0,0.1,0
		c0.1,0,0.1,0,0.2-0.1c1.3-0.9,2.6-2.1,3.7-3.4c0.3-0.3,0.5-0.6,0.8-0.9l0.7-0.7c1.2-1.2,2.5-2.5,3.4-4c0.1-0.1,0.1-0.3,0-0.4
		c-0.1-0.1-0.2-0.2-0.3-0.2l-0.1,0l0,0c-1.4,0.8-2.5,2.1-3.7,3.3l-0.6,0.6c-0.3,0.3-0.6,0.6-0.9,0.9c-1.2,1.2-2.5,2.5-3.4,4
		c0,0,0,0.1,0,0.1c-0.2-0.5-0.4-1-0.7-1.4c1.3-0.4,2.4-1.7,3.4-2.8c0.3-0.4,0.6-0.7,0.9-1c0.3-0.3,0.7-0.7,1-1
		c1.2-1.2,2.5-2.4,3.3-4c0.1-0.1,0-0.3,0-0.4c-0.1-0.1-0.1-0.1-0.3-0.1c0,0-0.1,0-0.1,0c-1.4,0.7-2.5,2-3.7,3.3
		c-0.3,0.3-0.6,0.7-0.9,1c-0.3,0.3-0.7,0.7-1,1c-1.1,1.1-2.3,2.2-2.9,3.7c-0.4-0.9-0.9-1.7-1.3-2.6c0,0,0.1,0,0.1,0l0.1,0l0,0
		c1.7-1,3.2-2.5,4.6-3.9c0.4-0.4,0.9-0.9,1.3-1.3c0.4-0.4,0.8-0.7,1.2-1.1c1.4-1.2,2.8-2.5,3.8-4.1c0.1-0.1,0.1-0.4,0-0.5
		c-0.1-0.1-0.1-0.2-0.3-0.2l-0.1,0l0,0c-1.6,0.8-3,2.3-4.4,3.7c-0.4,0.4-0.9,0.9-1.3,1.3c-0.4,0.4-0.9,0.8-1.3,1.2
		c-1.4,1.3-2.9,2.7-4.1,4.3c-0.1,0.1-0.1,0.2-0.1,0.3c-0.2-0.4-0.5-0.8-0.7-1.2c0.9-0.6,1.7-1.4,2.4-2.2c0.4-0.4,0.9-0.8,1.3-1.2
		c0.3-0.3,0.7-0.6,1.1-0.9c0.9-0.7,1.8-1.5,2.5-2.5c0.1-0.1,0.1-0.3,0-0.5c-0.1-0.1-0.1-0.2-0.3-0.2c0,0,0,0-0.1,0
		c-1.2,0.4-2.3,1.5-3.3,2.4c-0.2,0.2-0.8,0.8-0.8,0.8c-1.1,1.1-2.3,2.2-3.2,3.6l-0.1-0.1c-0.3-0.5-0.7-1.1-1-1.6
		c2.1-1.8,4.1-3.8,6.1-5.7c1.6-1.6,3.2-3.2,4.9-4.7c1.3-1.2,2.8-2.4,4.1-3.5c2.2-1.8,4.5-3.7,6.6-5.9c0.1-0.1,0.1-0.1,0.1-0.2l4.8,0
		c0,0,0,0,0,0c-3.2,3-6,5.9-8.4,8.6c-0.1,0.1-0.1,0.2,0,0.3c0,0.1,0.1,0.2,0.2,0.2l0.1,0l0,0c2.7-2.4,5.6-5.2,8.6-8.4
		c0.1-0.1,0.1-0.3,0.1-0.5c0-0.1-0.1-0.1-0.2-0.2l7.4,0c-1.2,1-2.2,2.3-3.3,3.5c-0.7,0.8-1.4,1.6-2.1,2.3c-0.9,1-1.9,1.9-2.9,2.8
		c-1.2,1.2-2.5,2.4-3.7,3.7c-0.1,0.1-0.1,0.3-0.1,0.4c0.1,0.1,0.2,0.2,0.3,0.2l0.1,0l0,0c2.5-1.7,4.8-4,6.6-5.8l0.8-0.8
		c1.8-1.8,3.7-3.7,5.1-6c0.1-0.1,0.1-0.2,0.1-0.3h2.6c-4.5,4.2-8.9,9-13.1,13.6l-0.8,0.9c-0.1,0.1-0.1,0.3,0,0.4
		c0.1,0.1,0.2,0.2,0.3,0.2l0.1,0l0,0c6.2-5.1,11.3-10.1,14.9-15c0,0,0-0.1,0.1-0.1c0.4,0,0.8,0,1.1,0c0.7,0,1.3,0,2,0
		c0.9,0,1.7,0,2.4-0.1c-6.4,4.6-12.9,10.5-19.3,17.6c-6,6.8-9.9,14.4-11.7,23.1C97.6,98.7,97,99.3,96.4,99.9z M66.7,57.5
		c0-0.1,0-0.2-0.1-0.2l-0.1,0c0.6,0,1.2,0,1.8,0.1c-0.3,0.1-0.6,0.3-0.8,0.5c-0.1,0.1-0.3,0.2-0.4,0.3l-0.4,0.2
		c-0.6,0.4-1.3,0.8-1.8,1.3c0,0-0.1,0.1-0.1,0.1c-0.2-0.1-0.3-0.3-0.5-0.4c0.4-0.1,0.8-0.2,1.2-0.5C65.8,58.7,66.6,58.2,66.7,57.5z
		 M97.2,57.8l3.4,0c-2.5,1.9-4.8,4.1-7.1,6.3c-0.9,0.8-1.7,1.6-2.6,2.4c-0.7,0.7-1.5,1.3-2.2,2c-2.3,2-4.6,4.1-6.7,6.4
		c-0.5-0.7-1.1-1.3-1.7-2l0,0c2.4-1.5,4.7-3.6,6.9-5.5c0.7-0.6,1.4-1.2,2.1-1.9c0.7-0.6,1.5-1.2,2.2-1.9c1.9-1.6,4-3.3,5.7-5.2
		c0.1-0.1,0.2-0.3,0.1-0.4C97.2,57.9,97.2,57.8,97.2,57.8z M67.1,59.4l0.4-0.2c0.1-0.1,0.3-0.2,0.5-0.2c0.6-0.3,1.2-0.6,1.5-1.2
		c0.1-0.1,0.1-0.2,0-0.3c0,0,0,0,0,0c0,0,1.5,0.1,1.9,0.1c-0.1,0.1-0.2,0.1-0.3,0.2c-0.3,0.2-0.6,0.5-1,0.6
		c-0.4,0.3-0.9,0.5-1.3,0.7c-0.8,0.4-1.7,0.8-2.4,1.4c-0.1,0.1-0.2,0.3-0.1,0.5c0,0.1,0.1,0.2,0.3,0.2c0,0,0,0,0,0
		c1.2-0.1,2.3-0.7,3.4-1.3l0.8-0.4c0.9-0.5,2-1,2.6-1.9l1.6,0c-0.7,0.4-1.4,0.9-2.1,1.4c-0.4,0.3-0.7,0.5-1.1,0.7
		c-0.3,0.2-0.6,0.3-0.9,0.5c-0.8,0.4-1.8,0.9-2.2,1.9c0,0.1,0,0.2,0,0.3l0.1,0.1l0.1,0c0.2,0,0.3,0.1,0.5,0.1c0.8,0,1.7-0.6,2.5-1.1
		c0.2-0.1,0.3-0.2,0.5-0.3c1.2-0.8,2.6-1.7,3.6-3.1c0.1-0.1,0.1-0.3,0.1-0.4c0,0,0,0,0,0c1,0,2.1,0,3.1,0.1
		c-1.5,0.6-2.9,1.6-4.2,2.6l-1.3,1c-1.2,0.8-2.4,1.7-3.5,2.8l-0.3-0.3c-1.5-1.1-2.9-2.3-4.3-3.4C66,60.1,66.6,59.8,67.1,59.4z
		 M74.2,62.4l1.3-0.9c1.4-0.9,2.8-1.9,4-3.2c0.1-0.1,0.1-0.3,0.1-0.4c0-0.1-0.1-0.2-0.2-0.2c0.7,0,1.5,0,2.2,0c-1.4,0.9-2.7,2-4,3
		l-1.8,1.4c-1.3,1-2.6,2.1-3.8,3.4c0,0-0.8-0.7-1.2-1C72,64,73.1,63.2,74.2,62.4z M77.1,62.8l1.7-1.4c1.4-1.2,2.9-2.4,4.1-3.8
		c0.8,0,1.6,0,2.5,0c-1.6,0.8-3.1,2.1-4.6,3.3c-0.4,0.4-0.9,0.7-1.3,1c-0.4,0.3-0.8,0.6-1.2,1c-1.6,1.2-3.2,2.4-4.5,3.9l-0.9-0.7
		C74.2,65.2,75.7,64,77.1,62.8z M81.1,65.2c0.6-0.5,1.2-0.9,1.8-1.3c0.6-0.4,1.1-0.8,1.7-1.2c1.7-1.2,3.4-2.4,4.9-3.9
		c0.1-0.1,0.1-0.3,0.1-0.4c-0.1-0.1-0.2-0.2-0.3-0.2l-0.1,0c-1.8,0.9-3.5,2.2-5.1,3.5c-0.6,0.4-1.1,0.9-1.7,1.3
		c-0.6,0.5-1.2,0.9-1.8,1.3c-1.8,1.3-3.6,2.6-5.2,4.1c-0.4-0.3-0.8-0.7-1.2-1c1.6-0.9,3.1-2.1,4.6-3.2c0.4-0.3,0.8-0.6,1.2-0.9
		c0.4-0.3,0.9-0.7,1.3-1c1.6-1.2,3.2-2.4,4.6-3.9c0.1-0.1,0.1-0.3,0-0.5c0,0,0,0,0,0c2.1,0,4.3,0,6.4,0c-0.7,0.5-1.3,1.1-2,1.6
		C86.2,62.6,81.9,66,78.2,70c-0.1,0.1-0.1,0.3-0.1,0.4c0.1,0.1,0.2,0.2,0.3,0.2l0.1,0l0,0c4.3-2.7,8.5-6.4,12.5-9.9
		c0.9-0.8,1.8-1.6,2.8-2.4c0.1-0.1,0.2-0.3,0.2-0.5l2,0c-2.1,1.5-4.1,3.3-6,5.1c-0.8,0.8-1.6,1.5-2.5,2.2c-0.6,0.5-1.2,1-1.8,1.5
		c-2.1,1.8-4.2,3.6-6,5.7c0,0-0.1,0.1-0.1,0.1c-1.1-1.2-2.4-2.4-3.8-3.6C77.7,67.8,79.5,66.5,81.1,65.2z M89.8,69
		c0.8-0.8,1.7-1.5,2.5-2.3c0.8-0.7,1.5-1.3,2.3-2c2.3-2,4.7-4.1,6.9-6.4c0.2-0.2,0.2-0.4,0.1-0.6h2.1c-3.1,2.1-6,4.9-8.8,7.6
		c-0.5,0.5-1,1-1.6,1.5c-3.5,3.3-6.8,6.6-9.8,10.4c-0.4-0.6-0.9-1.2-1.4-1.9C84.9,73.5,87.4,71.2,89.8,69z"/>
	<path class="st0" d="M27.1,7.6l0.1,0l0,0c0.7-0.4,1.4-0.9,2.2-1.4L29.9,6c0.6-0.3,1.1-0.7,1.6-1.2c0.1-0.1,0.1-0.2,0-0.3
		c0-0.1-0.1-0.2-0.3-0.2c0,0,0,0,0,0c-0.6,0.1-1.2,0.5-1.7,0.8l-0.4,0.2c-0.7,0.5-1.5,0.9-2.2,1.4c-0.2,0.1-0.2,0.3-0.2,0.5
		C26.8,7.5,27,7.6,27.1,7.6z"/>
	<path class="st0" d="M26.8,13.2c0.1,0.2,0.2,0.2,0.3,0.2l0.1,0l0,0c2.2-1.4,4.5-2.6,6.7-3.8c1.9-1,3.8-2.1,5.7-3.2
		c0.1-0.1,0.2-0.2,0.1-0.3c0-0.1-0.1-0.2-0.3-0.2c0,0,0,0,0,0C34.8,7,30,10.2,26.9,12.8C26.8,12.9,26.7,13.1,26.8,13.2z"/>
	<path class="st0" d="M68.8,7.4l-0.1,0l0,0c-2.5,1-5,2.6-7.4,4c-0.8,0.5-1.6,1-2.5,1.5l-1.7,1c-3,1.7-6,3.5-8.8,5.6
		c-0.1,0.1-0.2,0.3-0.1,0.5c0,0.1,0.2,0.2,0.3,0.2l0.1,0c2.9-1.3,5.7-2.9,8.4-4.4l1.5-0.9c0.9-0.5,1.8-1,2.7-1.5
		c2.7-1.5,5.4-3,7.9-4.9c0.2-0.2,0.3-0.5,0.2-0.8C69.1,7.6,69,7.4,68.8,7.4z"/>
	<path class="st0" d="M67.8,12.1C67.8,12.1,67.8,12.1,67.8,12.1c-2.4,0.5-4.8,1.9-7,3.2c-0.7,0.4-1.4,0.8-2.1,1.2l-1.5,0.8
		c-2.8,1.5-5.6,3-8.3,4.9c-0.2,0.1-0.2,0.4-0.2,0.5c0.1,0.2,0.2,0.3,0.3,0.3l0.1,0c2.9-1.2,5.8-2.7,8.5-4.2l1.5-0.8
		c0.7-0.4,1.5-0.7,2.2-1.1c2.3-1.1,4.7-2.3,6.7-4.1c0.1-0.1,0.2-0.3,0.1-0.5C68.1,12.2,68,12.1,67.8,12.1z"/>
	<path class="st0" d="M39,14.3c-1,0.6-2,1.2-3,1.9c-2.8,1.8-5.7,3.6-8.4,5.8c-0.1,0.1-0.1,0.2-0.1,0.3l0.1,0.2h0.1l0.1,0
		c2.8-1.3,5.4-3,8-4.7c0.9-0.6,1.7-1.1,2.6-1.7c1-0.6,2-1.2,3-1.8c2.5-1.5,5-3,7.3-4.9c2-0.9,4.4-2,6.4-3.6c0.1-0.1,0.2-0.3,0.1-0.5
		C55.1,5.1,55,5,54.8,5c0,0,0,0,0,0c-2.9,0.7-5.7,2.3-8.4,3.9c-1,0.6-2.1,1.2-3.1,1.8C43,10.7,43,11,43,11.2c0,0.1,0.1,0.2,0.2,0.2
		c-0.6,0.4-1.2,0.8-1.7,1.2C40.6,13.2,39.8,13.8,39,14.3z"/>
	<path class="st0" d="M75.5,6c0-0.1-0.1-0.2-0.3-0.2c0,0,0,0-0.1,0c-3,1.1-6.2,2.9-8.8,5.1c-0.1,0.1-0.2,0.2-0.1,0.4
		c0,0.1,0.1,0.2,0.3,0.2l0.1,0c3-1.1,6.3-2.9,8.9-5C75.5,6.3,75.5,6.1,75.5,6z"/>
	<path class="st0" d="M167,4.6C166.9,4.6,166.9,4.6,167,4.6l-1.3,0.6c-2.5,1.2-5.3,2.6-7.4,4.5c-0.1,0.1-0.1,0.3-0.1,0.4
		c0,0.1,0.1,0.2,0.3,0.2l0.1,0c2.5-0.9,5.2-2.8,7.5-4.4l1.1-0.8c0.1-0.1,0.1-0.2,0.1-0.3C167.2,4.7,167.1,4.6,167,4.6z"/>
	<path class="st0" d="M168.2,6.1c0-0.1-0.1-0.1-0.2-0.1c0,0-0.1,0-0.1,0c-0.8,0.5-1.6,1-2.4,1.6c-2.4,1.6-5,3.2-6.9,5.4
		c-0.1,0.1-0.1,0.3,0,0.4c0.1,0.1,0.1,0.2,0.3,0.2l0.1,0c2.5-1.1,4.8-3.2,7-5.2c0.7-0.7,1.5-1.3,2.2-1.9
		C168.2,6.4,168.2,6.2,168.2,6.1z"/>
	<path class="st0" d="M167.6,9.3c-0.1,0-0.1,0.1,0,0.1C167.7,9.5,167.7,9.3,167.6,9.3z"/>
	<path class="st0" d="M163.1,13.7c0.9-0.7,1.9-1.5,2.8-2.3l1.2-1c0.1-0.1,0.2-0.3,0.1-0.5c-0.1-0.2-0.2-0.3-0.3-0.3l-0.2,0l-1.3,1
		c-1,0.7-1.9,1.4-2.9,2.2c-0.3,0.2-0.5,0.4-0.8,0.6c-1,0.7-2,1.4-2.8,2.4c-0.1,0.1-0.1,0.2,0,0.4c0,0.1,0.1,0.2,0.2,0.2l0.1,0
		c1.1-0.5,2-1.3,3-2C162.6,14.1,162.9,13.9,163.1,13.7z"/>
	<path class="st0" d="M159.6,19.3l0.1,0c1.9-1.1,3.7-2.7,5.4-4.2c0.7-0.6,1.3-1.2,2-1.7c0.1-0.1,0.2-0.3,0.1-0.4
		c0-0.1-0.2-0.2-0.3-0.2l-0.1,0l0,0c-0.7,0.5-1.4,1.1-2.1,1.6c-1.8,1.4-3.7,2.8-5.3,4.5c-0.1,0.1-0.1,0.2,0,0.3
		C159.4,19.2,159.5,19.3,159.6,19.3z"/>
	<path class="st0" d="M167,15.1l-0.1,0l0,0c-0.6,0.5-1.3,0.9-2,1.4c-1.7,1.2-3.5,2.5-4.9,4.2c-0.1,0.1-0.1,0.2,0,0.3l0.1,0.1h0.1
		l0.1,0c1.8-0.8,3.5-2.4,5.1-3.8c0.6-0.6,1.2-1.1,1.8-1.6c0.1-0.1,0.2-0.3,0.1-0.4C167.3,15.2,167.2,15.1,167,15.1z"/>
	<path class="st0" d="M159.9,23.4l0.1,0c2.1-1,4-2.8,5.9-4.5c0.6-0.6,1.3-1.2,1.9-1.7c0.2-0.2,0.2-0.4,0.1-0.6
		c-0.1-0.2-0.2-0.3-0.4-0.3c-0.1,0-0.2,0-0.2,0.1c-0.7,0.5-1.3,1-2,1.5c-2,1.5-4.1,3-5.6,5c-0.1,0.1-0.1,0.3,0,0.4
		C159.7,23.4,159.8,23.4,159.9,23.4z"/>
	<path class="st0" d="M76.4,18.5c0.1,0.2,0.2,0.3,0.3,0.3l0.1,0l0,0c5.5-2.7,11.3-5.8,16-9.8c0.1,0,0.1-0.1,0.1-0.2
		c2.3-0.7,4.3-1.8,6-3.2C99,5.4,99,5.3,99,5.2c0-0.1-0.1-0.1-0.2-0.1c0,0-0.1,0-0.1,0c-3.4,2.1-6.1,3.2-8.8,3.8
		c-0.1,0-0.2,0.2-0.2,0.3c0,0.1,0,0.2,0.1,0.2c-4.6,2.2-9.1,5.5-13.3,8.6C76.3,18.1,76.3,18.3,76.4,18.5z"/>
	<path class="st0" d="M101.7,6.4C101.7,6.4,101.6,6.4,101.7,6.4c-3.2,1.4-6.3,3.3-9.3,5.1c-0.8,0.5-1.7,1-2.5,1.5
		c-0.1,0.1-0.2,0.2-0.1,0.3c0,0.1,0.1,0.2,0.3,0.2l0.1,0c0.8-0.4,1.7-0.9,2.5-1.3c3.1-1.6,6.2-3.3,9.2-5.2c0.1-0.1,0.1-0.2,0.1-0.3
		C101.9,6.5,101.8,6.4,101.7,6.4z"/>
	<path class="st0" d="M102,9.5C102,9.5,102,9.6,102,9.5c-3.3,1.3-6.6,3-9.8,4.9c-0.1,0.1-0.2,0.2-0.1,0.4c0,0.2,0.2,0.3,0.3,0.3
		l0.1,0c3.4-1.5,6.7-3.2,9.7-5c0.1-0.1,0.1-0.2,0.1-0.3C102.3,9.6,102.2,9.5,102,9.5z"/>
	<path class="st0" d="M92.2,18.4c-0.1,0.1-0.2,0.2-0.1,0.4c0,0.1,0.1,0.2,0.3,0.2l0.1,0l1.8-1c4.1-2.5,8.4-5,12.4-7.9
		c0.1-0.1,0.1-0.2,0.1-0.3c0-0.1-0.1-0.1-0.2-0.1c0,0-0.1,0-0.1,0c-4.3,2.3-8.6,5.1-12.7,7.8L92.2,18.4z"/>
	<path class="st0" d="M106.2,16.1C106.1,16.1,106.1,16.1,106.2,16.1c-4.3,2-8.4,4.4-12.4,7c-0.1,0.1-0.1,0.2-0.1,0.3
		c0,0.1,0.1,0.2,0.2,0.2l0.1,0c4.2-2,8.4-4.4,12.3-7c0.1-0.1,0.1-0.2,0.1-0.3C106.4,16.2,106.3,16.1,106.2,16.1z"/>
	<path class="st0" d="M37.7,186.8c0-0.1-0.1-0.2-0.2-0.2l-0.1,0l0,0c-1.7,1.4-3.3,2.5-4.7,3.4c-0.7,0.5-1.5,0.8-2.3,1.2
		c-0.9,0.4-1.9,0.9-2.7,1.5l-0.1,0.1l0,0.1l0.1,0.1h0.1h0c3.6-0.4,7.4-3.5,9.9-6.1C37.7,187.1,37.8,186.9,37.7,186.8z"/>
	<path class="st0" d="M37.5,186.5l0.1,0l0.2-0.1c4.4-2.2,9.8-4.8,13.6-8.4c0.1-0.1,0.2-0.3,0.1-0.5c0-0.1-0.1-0.2-0.3-0.2
		c0,0,0,0-0.1,0c-1.8,0.6-3.6,1.7-5.3,2.8c-0.4,0.3-0.9,0.6-1.3,0.8l-1.2,0.7c-2,1.2-4.1,2.5-6.1,4c-0.2,0.1-0.2,0.4-0.1,0.6
		C37.2,186.3,37.4,186.5,37.5,186.5z"/>
	<path class="st0" d="M37.9,189.4c0.1,0.2,0.2,0.3,0.3,0.3l0.2,0l0,0c3.7-2.2,9.2-5.7,13.8-9.9c0.1-0.1,0.1-0.2,0.1-0.4
		c0-0.1-0.1-0.1-0.2-0.1c0,0-0.1,0-0.1,0c-5.3,2.7-10.5,6.8-13.9,9.6C37.9,189.1,37.8,189.3,37.9,189.4z"/>
	<path class="st0" d="M54.2,184.1c0-0.1-0.1-0.2-0.3-0.2c0,0-0.1,0-0.1,0c-5.1,2.3-10.5,5.7-15.3,9.6c-0.2,0.1-0.2,0.4-0.1,0.6
		c0.1,0.2,0.2,0.3,0.3,0.3l0.1,0l0,0c5.4-2.6,10.8-6.1,15.3-9.9C54.3,184.5,54.3,184.3,54.2,184.1z"/>
	<path class="st0" d="M75.9,180c1.9-1.2,3.8-2.4,5.5-4c0.1-0.1,0.2-0.4,0.1-0.5c0-0.1-0.1-0.2-0.3-0.2c0,0-0.1,0-0.1,0
		c-2,0.9-3.9,2.1-5.5,3.2c-0.4,0.3-0.8,0.5-1.2,0.8c-1.4,0.9-2.9,1.8-4.1,3.1c-0.1,0.1-0.1,0.3-0.1,0.5c0.1,0.2,0.2,0.3,0.3,0.3
		l0.1,0c1.4-0.5,2.8-1.4,4.1-2.2C75.1,180.5,75.5,180.2,75.9,180z"/>
	<path class="st0" d="M82.1,184.2c4.4-2.7,8.9-5.5,13.1-8.7c0.1-0.1,0.1-0.2,0.1-0.3c0-0.1-0.1-0.2-0.3-0.2c0,0-0.1,0-0.1,0
		c-4.3,2.4-8.5,5.3-12.6,8.1c0-0.1,0-0.2,0-0.3c-0.1-0.1-0.2-0.2-0.3-0.2l-0.1,0l0,0c-2.4,1.7-4.9,3.3-7.3,4.7
		c-0.9,0.5-1.7,1-2.6,1.6c-0.2,0.1-0.3,0.4-0.2,0.7c0.1,0.3,0.3,0.5,0.5,0.5l0.1,0c2.8-0.7,5.7-2.5,8.2-5L82.1,184.2z"/>
	<path class="st0" d="M95.3,178.3C95.3,178.3,95.3,178.3,95.3,178.3c-5.6,2.5-11.1,6.1-16.2,9.6c-0.1,0-0.1,0.1-0.1,0.2
		c-1.5,1-2.8,1.9-3.9,2.9c-0.2,0.2-0.2,0.4-0.2,0.6c0.1,0.2,0.2,0.3,0.4,0.3c0.1,0,0.1,0,0.2-0.1c2.2-1.2,4.5-2.8,7.3-5.2
		c3.7-2,8.4-4.6,12.7-7.9c0.1-0.1,0.1-0.2,0.1-0.3C95.6,178.3,95.5,178.3,95.3,178.3z"/>
	<path class="st0" d="M90.8,184.7c0.1-0.1,0.1-0.2,0.1-0.3c0-0.1-0.1-0.2-0.2-0.2c0,0,0,0-0.1,0c-2.8,1.5-5.5,3.1-8.2,4.6l-2.1,1.2
		c-0.1,0.1-0.2,0.2-0.2,0.4c0,0.2,0.2,0.3,0.3,0.3l0.1,0l2.1-1.2C85.3,188,88.1,186.4,90.8,184.7z"/>
	<path class="st0" d="M93.8,186.3C93.8,186.3,93.8,186.3,93.8,186.3c-3.9,1.8-8,3.9-12.7,6.5c-0.1,0.1-0.2,0.3-0.2,0.5
		c0,0.2,0.2,0.3,0.3,0.3l0.1,0c4.7-2.3,8.8-4.5,12.5-6.7c0.1-0.1,0.1-0.2,0.1-0.3C94.1,186.4,94,186.3,93.8,186.3z"/>
	<path class="st0" d="M153.4,183.8c0.1,0.2,0.2,0.3,0.3,0.3l0.1,0l1.9-1.2c3.1-2,6.2-4,9.1-6.4c0.1-0.1,0.1-0.2,0.1-0.3
		c0-0.1-0.1-0.2-0.3-0.2c0,0-0.1,0-0.1,0c-3.2,1.8-6.3,4-9.3,6.2l-1.7,1.2C153.4,183.5,153.3,183.6,153.4,183.8z"/>
	<path class="st0" d="M154,185l0.1,0l0,0c3.1-1.6,6.1-3.5,8.7-5.1c0.1-0.1,0.1-0.2,0.1-0.3l-0.2-0.1h-0.1c-2.7,1.4-5.8,3-8.7,4.8
		c-0.2,0.1-0.2,0.3-0.1,0.5C153.8,184.9,153.9,185,154,185z"/>
	<path class="st0" d="M151.2,188.3c-0.2,0.1-0.2,0.2-0.2,0.4c0,0.2,0.2,0.3,0.3,0.3l0.1,0c5.5-2,9.9-4.4,13.7-7.4
		c0.1-0.1,0.1-0.2,0.1-0.3c0-0.1-0.1-0.2-0.2-0.2c0,0-0.1,0-0.1,0C160.6,183.8,156.1,186.4,151.2,188.3z"/>
	<path class="st0" d="M154.2,190.8c2.2-0.6,4.7-1.5,7.4-2.9c0.1-0.1,0.2-0.2,0.1-0.3c0-0.1-0.1-0.2-0.3-0.2c0,0,0,0,0,0
		c-2.8,0.8-5.3,1.9-7.4,3l-0.1,0.1l0,0.1l0.1,0.2L154.2,190.8L154.2,190.8z"/>
	<path class="st0" d="M163.4,188.2C163.4,188.2,163.4,188.2,163.4,188.2c-2.6,1.3-5,2.8-7.4,4.2l-1.8,1.1c-0.1,0.1-0.2,0.3-0.2,0.4
		c0.1,0.2,0.2,0.3,0.3,0.3l0.1,0l1.8-1.1c2.4-1.4,4.9-2.8,7.2-4.5c0.1-0.1,0.1-0.2,0.1-0.3C163.7,188.3,163.6,188.2,163.4,188.2z"/>
	<path class="st0" d="M164.7,182.9C164.6,182.9,164.6,182.9,164.7,182.9c-1.6,0.8-3,1.6-4.1,2.3c-0.2,0.1-0.2,0.3-0.2,0.5
		c0.1,0.2,0.2,0.3,0.4,0.3l0.1,0l0,0c1.2-0.7,2.5-1.6,3.9-2.6c0.1-0.1,0.1-0.2,0.1-0.3C164.9,183,164.8,182.9,164.7,182.9z"/>
	<path class="st0" d="M93.9,88.8c0.2-0.2,0.5-0.5,0.7-0.7l0.4-0.4c1-1,2.1-2.1,3-3.3c0.1-0.1,0.1-0.3,0-0.4
		c-0.1-0.1-0.1-0.2-0.3-0.2l-0.1,0l0,0c-1.1,0.7-2.1,1.7-3,2.6l-0.3,0.3c-0.2,0.2-0.5,0.5-0.8,0.7c-0.8,0.8-1.7,1.6-2.3,2.6
		c-0.1,0.1-0.1,0.3,0,0.4c0.1,0.1,0.2,0.2,0.3,0.2l0.1,0C92.4,90.3,93.2,89.5,93.9,88.8z"/>
	<path class="st0" d="M98.3,86.5l-0.1,0l0,0c-0.8,0.5-1.6,1.3-2.3,2c-0.2,0.2-0.4,0.4-0.6,0.6c-1.2,1.2-2.2,2.2-3.1,3.1
		c-0.1,0.1-0.1,0.3-0.1,0.4c0.1,0.1,0.2,0.2,0.3,0.2l0.1,0l0,0c1-0.9,2.1-1.8,3.2-2.9l0.6-0.5c0.8-0.7,1.5-1.4,2.2-2.3
		c0.1-0.1,0.1-0.3,0-0.4C98.5,86.6,98.4,86.5,98.3,86.5z"/>
	<path class="st0" d="M97.9,89.2C97.9,89.2,97.8,89.2,97.9,89.2c-1,0.4-1.8,1.2-2.5,1.9l-0.5,0.5L94.4,92c-0.8,0.7-1.6,1.5-2.3,2.4
		c-0.1,0.1-0.1,0.3,0,0.5c0.1,0.1,0.2,0.2,0.3,0.2l0.1,0l0,0c1-0.7,1.9-1.5,2.8-2.3l0.4-0.4l0.5-0.4c0.7-0.6,1.4-1.3,1.9-2.2
		c0.1-0.1,0.1-0.2,0-0.4C98.1,89.2,98,89.2,97.9,89.2z"/>
	<path class="st0" d="M97.5,91.7l-0.1,0l0,0c-0.8,0.5-1.5,1.2-2.1,1.8l-0.5,0.5c-0.7,0.7-1.5,1.4-2,2.3c-0.1,0.2-0.1,0.4,0,0.6
		c0.1,0.1,0.2,0.2,0.3,0.2c0.1,0,0.1,0,0.2-0.1c0.8-0.5,1.5-1.3,2.2-2l0.5-0.5c0.7-0.7,1.4-1.5,1.9-2.4c0.1-0.1,0.1-0.2,0-0.3
		C97.8,91.8,97.6,91.7,97.5,91.7z"/>
	<path class="st0" d="M97.2,125.4c-0.1-0.1-0.2-0.2-0.3-0.2l-0.1,0l0,0c-0.5,0.4-0.9,0.9-1.4,1.4c-0.3,0.3-0.5,0.6-0.8,0.8
		c-0.4,0.4-0.8,0.7-1.2,1.1c-0.4,0.4-0.9,0.7-1.3,1.2c-0.1,0.1-0.2,0.4-0.1,0.6c0.1,0.2,0.2,0.3,0.4,0.3l0.1,0l0,0
		c1.7-0.8,3.6-2.7,4.6-4.8C97.3,125.6,97.3,125.5,97.2,125.4z"/>
	<path class="st0" d="M110.3,64c0.5-0.4,0.9-0.8,1.4-1.2c1.4-1.2,2.8-2.4,3.9-4c0.1-0.1,0.1-0.4,0-0.5c-0.1-0.1-0.2-0.2-0.3-0.2
		l-0.1,0l0,0c-1.4,0.7-2.7,2.1-4,3.4c-0.4,0.4-0.8,0.8-1.2,1.2l-1.5,1.5c-1.5,1.5-3.1,3-4.6,4.6c-0.1,0.1-0.1,0.3-0.1,0.4
		c0.1,0.1,0.2,0.2,0.3,0.2l0.1,0l0,0c1.6-1.3,3.1-2.7,4.6-4.1L110.3,64z"/>
	<path class="st0" d="M114.9,68.9L114.9,68.9l0.2,0l0,0c0.5-0.5,1-0.9,1.6-1.4c2.9-2.6,6-5.3,8.2-8.7c0.1-0.1,0.1-0.3,0-0.4
		c-0.1-0.1-0.1-0.2-0.2-0.2l-0.1,0l0,0c-1.9,1.6-3.6,3.6-5.3,5.5c-1.4,1.6-2.8,3.2-4.3,4.6c-0.1,0.1-0.1,0.2-0.1,0.3L114.9,68.9z"/>
	<path class="st0" d="M97.8,149.4l-0.1,0l0,0c-1.6,1.1-3,2.7-4.3,4.3l-0.8,0.9c-0.4,0.4-0.8,0.9-1.1,1.3c-1.4,1.6-2.9,3.2-4,5.1
		c-0.1,0.2-0.1,0.4,0,0.6c0.1,0.1,0.2,0.2,0.3,0.2c0.1,0,0.2,0,0.2-0.1c1.5-1.3,2.9-2.9,4.3-4.4c0.3-0.4,0.7-0.8,1-1.2
		c0.3-0.3,0.6-0.7,0.9-1c1.4-1.6,2.9-3.2,4-5.2c0.1-0.1,0.1-0.3,0-0.4C98,149.5,97.9,149.4,97.8,149.4z"/>
	<path class="st0" d="M129.8,160.8c-0.2,0.1-0.4,0.3-0.6,0.4c-0.2,0.2-0.3,0.5-0.2,0.7c0.1,0.2,0.2,0.3,0.4,0.3l0.1,0
		c1.4-0.2,3.5-1.6,3.8-3.6c0-0.1,0-0.3-0.1-0.4c-0.1-0.1-0.2-0.1-0.3-0.1l-0.1,0l0,0c-0.4,0.2-0.7,0.6-1.1,1
		c-0.2,0.2-0.4,0.5-0.6,0.7C130.7,160.2,130.2,160.5,129.8,160.8z"/>
	<path class="st0" d="M98,130.5c-0.6,0.5-1.1,1.1-1.5,1.8c-0.1,0.1-0.1,0.3,0,0.4c0.1,0.1,0.2,0.2,0.3,0.2l0.1,0
		c0.7-0.3,1.2-0.9,1.8-1.5l0.6-0.6c0.6-0.6,1.2-1.2,1.7-2c0.1-0.1,0.1-0.2,0-0.3c-0.1-0.1-0.2-0.2-0.3-0.2l-0.1,0l0,0
		c-0.7,0.4-1.3,1-1.9,1.6L98,130.5z"/>
	<path class="st0" d="M102.9,130.9c-0.1,0-0.1,0.1,0,0.1C102.9,131.1,102.9,130.9,102.9,130.9z"/>
	<path class="st0" d="M99.3,134.7c-0.1,0.1-0.1,0.3,0,0.4c0,0.1,0.1,0.2,0.2,0.2l0,0c1.5-0.2,2.9-2,3.7-3.7c0-0.1,0-0.2,0-0.3
		c0-0.1-0.1-0.1-0.2-0.1l-0.1,0l0,0c-0.7,0.8-1.3,1.5-1.8,2c-0.2,0.2-0.4,0.4-0.7,0.5C100,134,99.6,134.3,99.3,134.7z"/>
	<path class="st0" d="M119.5,147.6L119.5,147.6l0.2,0l0,0c0.5-0.3,0.9-0.9,1.3-1.4l0.3-0.3l1.5-2c0.1-0.1,0.1-0.2,0-0.3
		c0-0.1-0.1-0.2-0.2-0.2l-0.2,0.1c0,0-1.1,1.3-1.6,1.9l-0.2,0.3c-0.4,0.5-0.9,1-1.1,1.6c0,0.1,0,0.2,0,0.3L119.5,147.6z"/>
	<path class="st0" d="M127.1,156.4l0.1,0.1h0.1c0.1,0,0.2-0.1,0.2-0.1c0.3-0.5,0.5-1,0.7-1.5c0.2-0.4,0.3-0.8,0.5-1.1
		c0.5-1,1-1.9,1.6-2.6c0.1-0.1,0.1-0.3,0-0.5c-0.1-0.1-0.2-0.2-0.3-0.2c-0.1,0-0.2,0-0.2,0.1c-1.7,2.1-2.6,4-2.7,5.7L127.1,156.4
		L127.1,156.4z"/>
	<path class="st0" d="M48.6,153.9L48.6,153.9l0.2,0l0-0.1c5.4-9.3,10.9-18.3,17.9-25.6c1.9-2,4.1-4,6.3-5.9c4.6-4.1,9.4-8.3,12.5-14
		c0.1-0.1,0.1-0.2,0-0.3c-0.1-0.1-0.2-0.2-0.3-0.2l-0.2,0l-1.7,2c-2.9,3.4-5.7,6.6-8.8,9.6c-0.7,0.7-1.4,1.3-2.2,2
		c-2.5,2.3-5.1,4.7-7.4,7.3c-6.1,6.6-11.8,15.2-16.5,24.9l0,0.2l0,0.1L48.6,153.9z"/>
	<path class="st0" d="M59.3,58.2C56,55,52.8,52,50.1,47.8c-2.8-4.4-4.5-9-6.4-14.7L43.6,33h-0.1c-0.1,0-0.1,0-0.2,0.1l-0.1,0.2
		l0,0.1c1.9,10.5,9,21.8,16.6,26.3l0.1,0h0c0.1,0,0.2-0.1,0.3-0.2c0.1-0.2,0-0.3-0.1-0.4L59.3,58.2z"/>
	<path class="st0" d="M149.4,35.3c0-0.1,0-0.2,0-0.3l-0.1-0.1h-0.1c-0.1,0-0.2,0.1-0.2,0.1c-0.7,1.3-1.4,2.7-2.1,4
		c-1.4,2.8-2.8,5.5-4.6,8c-2.4,3.4-5.4,6.4-8.9,9.4c-0.1,0.1-0.1,0.2-0.1,0.3l0.1,0.2h0.1l0.1,0l0,0
		C139.6,52.6,146.9,44.7,149.4,35.3z"/>
	<path class="st0" d="M120,124.5c1.7,1.9,3.3,3.7,5,5.6c1,1.1,2.1,2.3,3.1,3.4c4.6,5,9.4,10.1,11.8,17.1l0.1,0.2h0.1
		c0.1,0,0.1,0,0.2-0.1l0.1-0.2l0-0.1c-1-6.9-6-12-10.4-16.6c-1-1.1-2-2.1-2.9-3.1c-1.7-1.9-3.4-3.8-5.1-5.7
		c-4.9-5.5-10-11.3-15.2-16.6l-0.1-0.1h-0.1l-0.1,0l0,0.1l0,0.2l0.1,0.1C110.7,114.1,115.5,119.4,120,124.5z"/>
	<path class="st0" d="M42.6,172.1L42.6,172.1c1.2-0.1,2.6-0.7,3.4-1.9c0.1-0.1,0.1-0.2,0-0.3c0-0.1-0.1-0.1-0.2-0.1c0,0,0,0-0.1,0
		c-0.3,0.1-0.6,0.3-0.9,0.5c-0.2,0.1-0.4,0.2-0.6,0.4c-0.5,0.3-1,0.5-1.5,0.7l-0.2,0.1c-0.2,0.1-0.2,0.3-0.2,0.5
		C42.4,172,42.5,172.1,42.6,172.1z"/>
</g>
</svg>
