<?xml version="1.0" encoding="utf-8"?>
<!-- Generator: Adobe Illustrator 25.0.1, SVG Export Plug-In . SVG Version: 6.00 Build 0)  -->
<svg version="1.1" id="Layer_1" xmlns="http://www.w3.org/2000/svg" xmlns:xlink="http://www.w3.org/1999/xlink" x="0px" y="0px"
	 viewBox="0 0 200 200" style="enable-background:new 0 0 200 200;" xml:space="preserve">
<style type="text/css">
	.st0{fill:#5ABE26;}
</style>
<g>
	<path class="st0" d="M75.8,11.9L75.8,11.9l0.1,0c3.7-2.3,7.6-4.6,12.2-6.1C90.1,5,92,4.5,94,4.1c0.8-0.2,1.6-0.2,2.4-0.3
		c1.4-0.1,2.8-0.3,4.1-0.8c0.2-0.1,0.3-0.3,0.3-0.5c0-0.2-0.1-0.4-0.3-0.4c-0.7-0.2-1.5-0.2-2.3-0.2c-3.5,0-7.5,1.4-11,2.8
		c-4.7,1.8-8.6,4.1-11.6,6.8c-0.1,0.1-0.1,0.2-0.1,0.3C75.6,11.8,75.7,11.9,75.8,11.9z"/>
	<path class="st0" d="M107.5,5.7c1.4,0.4,2.8,0.7,4.1,1.2c2,0.7,3.8,1.6,5.6,2.6c1.4,0.7,2.8,1.4,4.2,2c0.1,0,0.1,0,0.2,0
		c0.2,0,0.5-0.2,0.6-0.4c0.1-0.2,0-0.5-0.2-0.6c-2.6-2-5.9-3.3-9.1-4.5c-3.2-1.2-6.5-2.3-9.7-2.3c-0.3,0-0.7,0-1,0l-0.1,0l0,0.1
		l0,0.1l0.1,0C103.9,4.7,105.7,5.2,107.5,5.7z"/>
	<path class="st0" d="M177.5,195.2c0-2.2-0.3-4.5-0.6-6.7c-0.1-1-0.3-1.9-0.4-2.8c-0.4-3.9-0.8-7.3-1.3-10.4
		c-0.9-6.9-2.1-14.4-3.9-21.6c-2.5-10-7.2-19.3-11.8-28.3c-1.7-3.3-3.4-6.7-5-10.1c0.3-0.2,0.5-0.6,0.4-1c-0.1-0.5-0.5-0.9-1-0.9
		c-6.2-0.5-11.8-1.5-17.3-3.1c-3.3-1-6.5-2.4-9.6-3.7c-1.9-0.8-3.9-1.7-6-2.5c-0.1,0-0.2,0.1-0.2,0.2l0,0.2l0.1,0.1
		c0.9,0.7,1.9,1.4,3,2.2c-0.6,0.3-1.1,0.7-1.6,1.1c0-0.8,0-1.6-0.2-2.4c-0.4-0.2-0.7-0.4-1.1-0.7c-0.1,0-0.1-0.1-0.2-0.2l-0.3-0.3
		c0.1,0,0.1-0.1,0.1-0.2c0.1-0.1,0-0.3-0.1-0.4c-1.4-1.3-2.4-2.8-3-4.5c0-0.1,0-0.3-0.2-0.3c0-2.4,0.1-4.8,0.1-7.1
		c0.1-0.1,0.1-0.3,0.2-0.4l0-0.1l0-0.1l-0.1-0.1l-0.1,0c0-1.3,0-2.7,0.1-4c0.1-0.3,0.1-0.6,0.2-0.9c0.2-0.9,0.5-1.9,0.5-2.8
		c1.4-2.5,2.6-5.3,3.8-8.5c0.5-1.4,1-3,1.5-4.7c3.4-0.3,6.9-3.5,8.5-6.6c2.1-3.9,2-8.6-0.1-12.8c-0.1-0.2-0.3-0.3-0.5-0.3l-0.2,0
		c-2.2,0-3.9,0.5-5.4,1.7l0-0.1c4.7-6.4,5.1-14.9,5-19.5c-0.2-7.7-2.7-14.7-7.1-20.3c0,0-0.1-0.1-0.1-0.1l-0.1,0l0,0.1l0,0.1l0,0.1
		c3.8,6.4,5.8,13.5,5.8,20.6c0,6.4-2,11.9-4.3,17.5l-0.2,0.2c-0.1,0.2-0.3,0.2-0.4,0.2l-0.1,0c0,0,0,0.3,0,0.4
		c-1.1-7.9-10-13.3-15.3-15.2c-1.5-0.6-3.2-1.1-5.2-1.6l0,0c0.9-0.7,1.9-1.4,2.6-2.3c0.1-0.1,0.1-0.2,0-0.3
		c-0.1-0.1-0.2-0.2-0.3-0.2l-0.1,0l0,0c-1.1,0.5-2,1.3-2.9,2l-0.6,0.5c0,0,0,0-0.1,0.1c-1.3-0.3-2.6-0.6-4.3-0.9l0.4-0.3
		c0.8-0.6,1.5-1.2,2.1-2.1c0.1-0.1,0.1-0.2,0-0.4c-0.1-0.1-0.2-0.2-0.4-0.2l-0.1,0l0,0c-0.9,0.4-1.6,1.1-2.3,1.7l-0.5,0.4
		c-0.2,0.1-0.2,0.3-0.2,0.5c0,0,0,0.1,0,0.1L95,32.7c1-0.7,2-1.4,2.9-2.2c0.1-0.1,0.1-0.2,0.1-0.3c-0.1-0.1-0.2-0.2-0.3-0.2l-0.1,0
		l0,0c-1.4,0.7-2.7,1.5-3.8,2.4c0,0-0.1,0.1-0.1,0.1L92,32.1c1.7-0.8,3.6-1.8,5.1-3c0.1-0.1,0.1-0.2,0.1-0.3c0-0.1-0.2-0.2-0.4-0.2
		c0,0,0,0,0,0c-2.1,0.7-4.2,2-6.1,3.3l-0.3-0.1c0.6-0.3,1.3-0.7,1.8-1.2c0.1-0.1,0.2-0.3,0.1-0.4c-0.1-0.2-0.2-0.3-0.5-0.3
		c0,0,0,0,0,0c-1,0.2-1.9,0.7-2.7,1.1l-0.3,0.1c-0.1,0-0.1,0.1-0.2,0.2c-0.3-0.1-0.6-0.1-0.8-0.2c1-0.4,1.9-1,2.8-1.8
		c0.1-0.1,0.1-0.2,0.1-0.4c-0.1-0.1-0.2-0.2-0.4-0.2c0,0,0,0,0,0c-1.2,0.3-2.4,0.8-3.2,1.5c-0.1,0.1-0.2,0.3-0.2,0.5
		c0,0.1,0,0.1,0,0.2c-0.4-0.1-0.7-0.2-1.1-0.4c1-0.6,1.9-1.4,2.7-2.2c0.1-0.1,0.1-0.2,0.1-0.4c-0.1-0.1-0.2-0.2-0.3-0.2l-0.1,0l0,0
		c-1.2,0.5-2.4,1.3-3.5,2.2c-0.3-0.1-0.6-0.3-0.9-0.4c1-0.7,2-1.4,2.8-2.2c0.1-0.1,0.1-0.2,0.1-0.3c-0.1-0.1-0.2-0.2-0.3-0.2l-0.1,0
		l0,0c-1.1,0.6-2.2,1.3-3.2,2.1L82.5,29c-0.3-0.2-0.6-0.4-0.9-0.6c1-0.7,2-1.5,2.9-2.5c0.1-0.1,0.1-0.2,0.1-0.4
		c-0.1-0.1-0.2-0.2-0.3-0.2l-0.1,0l0,0c-1.2,0.6-2.3,1.4-3.3,2.3c-0.5-0.4-0.9-1-1.3-1.5l0,0c1.5-0.4,2.7-1.3,3.2-2.4
		c0.1-0.1,0.1-0.3,0-0.4c-0.1-0.1-0.2-0.2-0.3-0.2c-0.1,0-0.2,0-0.3,0.1l-0.2,0.2c-0.8,0.7-1.6,1.3-2.6,1.7c-0.1,0-0.2,0.1-0.2,0.2
		c-0.2-0.5-0.4-1-0.6-1.5c0.2-0.2,0.8-0.8,0.8-0.8c0.7-0.6,1.4-1.4,2-2.2c0.1-0.1,0.1-0.2,0-0.3c-0.1-0.1-0.2-0.2-0.3-0.2l-0.1,0
		l0,0c-0.9,0.5-1.6,1.2-2.2,1.8l-0.4,0.3c-0.6,0.5-1.2,1.1-1.6,1.8c-0.1,0.1,0,0.3,0,0.4c0.1,0.1,0.2,0.2,0.3,0.2l0.1,0l0,0
		c0.3-0.1,0.6-0.3,0.9-0.6c0.4,2.3,1.6,4.2,3.7,5.8c-1.5,2-2.8,4.3-4.1,6.6c-0.6,1-1.1,2-1.7,3c-0.5,0.9-1.1,1.8-1.7,2.7
		c-1.3,2-2.6,4-3.6,6.1c-0.1-0.1-0.2-0.1-0.2-0.1c-0.1,0-0.1,0-0.2,0c-0.6,0.3-1.1,0.6-1.6,1l-0.3,0.2c-0.1,0-0.1,0.1-0.2,0.1
		c-0.3-0.1-0.7-0.1-1-0.1c-0.1,0-0.1,0-0.2,0l-0.5-2.2c0,0,0,0,0,0c0.1,0,0.3,0,0.4-0.1c1.5-1.2,3-2.7,4.2-4.5
		c0.1-0.1,0.1-0.2,0-0.3c-0.1-0.1-0.2-0.2-0.3-0.2l-0.2,0l0,0c-1.6,1.1-3.1,2.5-4.2,3.8c0,0-0.1,0-0.1,0.1c-0.5-2.4-1-4.8-1.4-7.1
		c0.1,0,0.1,0.1,0.2,0.1c0.1,0,0.2,0,0.3-0.1c1.6-1,3-2.4,4.3-3.7c0.1-0.1,0.1-0.2,0.1-0.3c0-0.1-0.2-0.2-0.3-0.2l-0.1,0l0,0
		c-1.5,1-3.2,2-4.5,3.3c-0.3-2.6-0.5-5.2-0.3-7.8c0-0.4,0.1-0.8,0.1-1.3l0.1,0c1.2-0.6,2.5-1.2,3.6-2.2c0.1-0.1,0.1-0.2,0.1-0.3
		c0-0.1-0.2-0.2-0.4-0.2c0,0,0,0,0,0c-1.1,0.4-2.2,1-3.2,1.6c0.1-0.5,0.1-1,0.2-1.4c0.6-0.3,1.2-0.8,1.8-1.2l0.4-0.3
		c0.6-0.5,1.2-1,1.7-1.6c0.1-0.1,0.1-0.2,0-0.3c-0.1-0.1-0.2-0.2-0.3-0.2l-0.1,0l0,0c-0.8,0.3-1.5,0.9-2.1,1.4l-0.2,0.2
		c-0.3,0.2-0.6,0.4-0.8,0.7c0.3-1,0.6-2,0.9-2.9c0.1-0.1,0.3-0.2,0.4-0.4c0.2-0.2,0.4-0.4,0.6-0.5c0.3-0.2,0.6-0.4,0.8-0.6
		c0.3-0.2,0.5-0.4,0.8-0.6c0.1-0.1,0.1-0.2,0.1-0.3c0-0.1-0.1-0.2-0.3-0.2c0,0,0,0,0,0c-0.5,0.2-1,0.4-1.5,0.7c0,0,0-0.1,0.1-0.1
		c1.5-2.9,3.7-5.2,6-7.5l0.6-0.6c0.1-0.1,0.2-0.3,0.1-0.5c-0.1-0.2-0.2-0.3-0.4-0.3c-0.1,0-0.2,0-0.2,0.1
		c-12.3,8.1-11.3,25.4-6.7,37.9c-0.2,0-0.4,0-0.6,0.1c-0.3,0-0.5,0.2-0.5,0.4c-0.3,1.4-0.5,2.7-0.4,4c-0.1,0.1-0.2,0.2-0.2,0.3
		c0,0.1,0,0.2,0.1,0.2c0.1,5.7,2.9,11.2,7.4,14.5c0.1,0.1,0.2,0.1,0.4,0.1c0.3,0,0.5-0.2,0.6-0.5c0.1-0.2,0.1-0.6-0.2-0.8
		c-0.3-0.2-0.5-0.4-0.7-0.6c0.1,0,0.1,0,0.2,0c0.4,0,0.7-0.1,1-0.3c0.1-0.1,0.2-0.2,0.1-0.3c0-0.1-0.1-0.2-0.3-0.2
		c-0.3,0-0.5,0-0.7,0c-0.3,0-0.6,0-0.9-0.1c0,0,0-0.1,0-0.1c0-0.1-0.1-0.2-0.2-0.2c0,0,0,0,0,0c-0.1,0-0.3,0-0.4,0.1
		c-1.1-1.1-2-2.3-2.8-3.6c0.1,0,0.1,0.1,0.2,0.1h0.1c1.1,0,2.3-1,2.7-1.9c0-0.1,0-0.2,0-0.3c-0.1-0.1-0.2-0.2-0.3-0.2l-0.1,0l0,0
		c-0.2,0.1-0.3,0.3-0.5,0.4c-0.2,0.2-0.4,0.3-0.6,0.5c-0.2,0.1-0.4,0.2-0.6,0.3c-0.2,0.1-0.5,0.2-0.7,0.4c-0.1,0.1-0.1,0.2-0.2,0.3
		c-0.6-1.1-1.1-2.2-1.4-3.4c0-0.1-0.1-0.4-0.1-0.4c0,0,0,0,0.1,0c0.8-0.2,1.5-0.6,2.2-1.1l0.5-0.3c0.7-0.4,1.4-0.8,2-1.5
		c0.1-0.1,0.1-0.2,0.1-0.4c-0.1-0.1-0.2-0.2-0.3-0.2c0,0,0,0,0,0c-0.8,0.2-1.5,0.6-2.2,1l-0.6,0.3c-0.6,0.4-1.3,0.7-1.8,1.3
		c-0.1-0.4-0.2-0.7-0.2-1.1c0.7-0.4,1.4-0.8,2-1.3l0.3-0.2c0.5-0.3,1-0.7,1.3-1.2c0.1-0.1,0.1-0.2,0-0.3c-0.1-0.1-0.2-0.2-0.3-0.2
		c0,0,0,0,0,0c-0.6,0.2-1.1,0.6-1.6,0.9l-0.3,0.3c-0.5,0.4-1,0.7-1.4,1.1c-0.1-0.6-0.1-1.1-0.1-1.7c0.7-0.4,1.2-0.8,1.5-1.4l0-0.2
		l0-0.1c0-0.1-0.1-0.1-0.2-0.1l-0.1,0l0,0c-0.4,0.3-0.7,0.7-1.2,0.9c0-0.7,0-1.9,0.2-2.2l1.7-0.4l0.3-0.1c1,0.3,1.9,0.7,2.6,1.5
		c0.1,0.1,0.2,0.1,0.3,0.1c0.1,0,0.3-0.1,0.3-0.2c0.1-0.1,0-0.3-0.1-0.4c-0.5-0.6-1.1-1.1-1.8-1.4c0.2-0.2,0.4-0.4,0.7-0.6
		c0,0.1,0,0.1-0.1,0.2l0.1,0.1h0.1c0.3-0.4,0.7-0.8,1-1.2c0,4.3,0.4,8.7,1.3,13.2c-0.1-0.1-0.1-0.1-0.3-0.1c0,0,0,0,0,0
		c-0.9,0.2-2,0.7-2.6,1.4c-0.1,0.1-0.1,0.3-0.1,0.4c0.1,0.1,0.2,0.2,0.3,0.2l0.1,0c0.9-0.2,2-0.8,2.6-1.5c0,0,0-0.1,0-0.1
		c0.6,2.9,1.4,5.8,2.4,8.7c2.2,6.3,4.5,11.3,7.3,15.2c-0.2,1.1-0.1,2.2,0,3.3c0.1,0.5,0.1,1,0.1,1.4c0,0.7,0,1.5,0,2.3
		c0,0.6-0.1,1.1-0.1,1.7l-0.1,1.2c-0.2,1.6-0.5,3.4-1.2,5c-0.5,0.9-1.1,1.5-1.8,2.2c-0.4,0.4-0.9,0.8-1.2,1.2
		c-0.1,0.1-0.1,0.3-0.1,0.4c0.1,0.1,0.2,0.2,0.4,0.2c-0.4,0.2-0.7,0.4-1.1,0.6c0-0.6,0.1-1.1,0.2-1.7l0-0.1l0,0c0,0-0.1-0.1-0.2-0.1
		l-0.2,0.1l0,0.1c-0.2,0.8-0.4,1.6-0.5,2.5c-0.2,0.3-0.4,0.6-0.5,0.9c0,0.1,0,0.2,0,0.2c0.1,0.1,0.1,0.1,0.2,0.1l0,0
		c-0.1,0.7-0.1,1.4-0.1,2.2l-0.2,0.2c-0.1,0.1-0.1,0.2-0.1,0.4c0,0,0,0,0,0c-0.2,0.1-0.3,0.1-0.5,0.2c-0.1,0-0.1,0.1-0.3,0.1
		c-0.2,0.1-0.6,0.4-0.9,0.4l-0.1-0.9c0.7-0.2,1.4-0.5,1.8-1c0.1-0.1,0.1-0.2,0.1-0.3c0-0.1-0.1-0.2-0.3-0.2c-0.6,0-1.1,0.3-1.6,0.5
		l0-0.6c0.8-0.5,1.4-1,1.7-1.5c0.1-0.1,0.1-0.2,0-0.3c0-0.1-0.1-0.1-0.3-0.1c0,0,0,0-0.1,0c-0.5,0.2-0.9,0.5-1.5,1l-0.2-2.1
		c0-0.1-0.1-0.2-0.2-0.2l0,0c-0.1-0.1-0.3-0.2-0.5-0.2c-0.1,0-0.1,0-0.2,0c-1.6,0.4-3.2,1.4-4.6,2.4c-0.8,0.5-1.6,1.1-2.5,1.5
		c-2.9,1.6-6.1,2.8-9.4,3.9c-3,0.9-6.1,1.5-9.5,1.9c-1,0.1-2.1,0.2-3.1,0.2c-1.8,0.1-3.7,0.2-5.4,0.6l-0.1,0.1l0,0.1l0,0.2l0.1,0
		c1.8,0.7,3.9,1,6.3,1c4.6,0,9.5-1.3,12.8-2.2c1.6-0.5,3.3-1.1,5-1.8c-0.2,0.3-0.4,0.6-0.6,0.8l-0.5,0.2c-1.1,0.5-2.2,1.1-3.2,1.9
		c-0.1,0.1-0.1,0.2-0.1,0.3c0,0.1,0.1,0.2,0.3,0.2c0,0,0,0,0.1,0c1-0.4,1.9-1,2.7-1.6c-0.4,0.6-0.8,1.2-1.2,1.8l0,0h-0.1
		c-1.9,0.9-3.5,1.9-4.7,3c-0.1,0.1-0.1,0.2-0.1,0.3c0,0.1,0.1,0.2,0.3,0.2c0,0,0.1,0,0.1,0c1.3-0.6,2.6-1.4,4-2.5c0,0,0,0,0,0
		c-0.4,0.6-0.8,1.4-1.3,2.3c0,0-0.1,0-0.1,0c-2.3,0.9-4.7,2.3-6.7,3.8c-0.1,0.1-0.1,0.2-0.1,0.3c0,0.1,0.1,0.2,0.3,0.2
		c0,0,0,0,0.1,0c2.1-0.9,4.3-2.1,6.2-3.5c-0.2,0.4-0.9,1.8-0.9,1.8c-2.6,1-4.5,2-5.9,3.2c-0.1,0.1-0.1,0.2-0.1,0.3
		c0,0.1,0.1,0.2,0.3,0.2c0,0,0,0,0,0c1.6-0.5,3.3-1.4,5.3-2.8c-0.3,0.6-0.7,1.3-1.1,1.9l-0.8,0.4c-1.6,0.9-3.3,1.8-4.7,3.1
		c-0.1,0.1-0.1,0.2-0.1,0.3c0,0.1,0.1,0.2,0.3,0.2c0,0,0.1,0,0.1,0c1.6-0.7,3-1.8,4.5-2.8c0,0.1-0.1,0.1-0.1,0.2
		c-0.4,0.5-0.1,1.2,0.4,1.6l0.5,0.4c-1.7,0.7-3.4,1.5-4.8,2.6c-0.1,0.1-0.1,0.2-0.1,0.3c0,0.1,0.1,0.2,0.3,0.2c0,0,0,0,0,0
		c1.8-0.5,3.4-1.6,4.9-2.6l0.1-0.1l1.4,1c-0.6,0.3-1.2,0.6-1.8,1l-1,0.6c-0.9,0.5-1.8,1-2.6,1.7c-0.1,0.1-0.1,0.2-0.1,0.3
		c0,0.1,0.1,0.2,0.3,0.2c0,0,0,0,0.1,0c1-0.4,1.9-0.9,2.8-1.5l0.9-0.5c0.7-0.4,1.4-0.8,2-1.3c0.5,0.4,1,0.7,1.5,1.1
		c-2.3,1.3-4.2,2.5-5.8,3.9l-0.1,0.2l0,0.1l0.1,0.2h0.1l0.1,0c1.9-1,3.7-2.4,5.8-4.1l0,0c0.4,0.3,0.9,0.6,1.3,1
		c-2.5,1.3-5.4,2.8-7.7,4.7c-0.1,0.1-0.1,0.2-0.1,0.3c0,0.1,0.1,0.2,0.3,0.2c0,0,0.1,0,0.1,0c2.7-1.2,5.4-3.1,7.8-4.9l0.3,0.2
		c0.7,0.5,1.5,1,2.2,1.6c-0.6,0.7-1.1,1.4-1.6,2c-3.2,1.8-6,3.8-8.4,5.9c-0.1,0.1-0.1,0.1-0.1,0.2l0.2,0.1h0.1
		c2.7-2.1,5-3.7,7.3-5.2c-0.8,1.1-1.7,2.4-2.7,3.7c-0.4,0.3-0.8,0.6-1.2,0.9c-1.4,1-2.8,2-3.9,3.3c-0.1,0.1-0.1,0.2,0,0.3
		c0,0.1,0.1,0.2,0.2,0.2l0.1,0l0,0c1.2-0.7,2.4-1.7,3.4-2.6c-0.5,0.7-0.6,0.9-0.5,1.9c0,0.1,0,0.2,0,0.3c-1.5,1.2-3.1,2.6-4.4,4.2
		c-0.1,0.1-0.1,0.2,0,0.3c0,0.1,0.1,0.1,0.2,0.1l0.1,0l0,0c1.6-1.1,3.1-2.5,4.3-3.8c0.2,0.7,0.6,1.4,0.9,2.1
		c-0.3,0.2-0.6,0.4-0.9,0.7c-1.2,0.9-2.5,1.7-3.4,2.9c-0.1,0.1-0.1,0.2,0,0.3c0,0.1,0.1,0.2,0.2,0.2l0.1,0l0,0
		c1.3-0.7,2.4-1.7,3.5-2.8c0.3-0.2,0.5-0.5,0.8-0.7l0.1,0.1c0.2,0.4,0.4,0.7,0.5,1.1c0.1,0.2,0.4,0.8,0.4,0.8
		c-0.3,0.2-0.6,0.4-0.9,0.6c-1.6,1.1-3.2,2.1-4.4,3.6c-0.1,0.1-0.1,0.2,0,0.3c0.1,0.1,0.2,0.2,0.3,0.2l0.1,0l0,0
		c1.7-0.8,3.1-2.2,4.5-3.4l0.7-0.6c0.2,0.4,0.7,1.5,0.7,1.5c-0.7,0.5-1.5,1.2-2.2,1.8l-0.4,0.4c-0.6,0.5-1.3,1.1-1.7,1.8
		c-0.1,0.1-0.1,0.2,0,0.3c0.1,0.1,0.2,0.2,0.3,0.2l0.1,0l0,0c0.7-0.4,1.3-1,1.9-1.5l0.4-0.4c0.6-0.6,1.2-1.3,1.8-1.9
		c0.4,0.8,0.8,1.6,1.1,2.4c-1.9,1.2-3.8,2.4-5.4,4c-0.1,0.1-0.1,0.2-0.1,0.3c0,0.1,0.1,0.2,0.3,0.2l0.1,0l0,0c2-1,3.7-2.4,5.4-3.8
		l1.1,2.1l-0.3,0.2c-1.6,1.2-3.3,2.4-4.5,3.9c-0.1,0.1-0.1,0.2,0,0.3c0,0.1,0.1,0.1,0.2,0.1l0.1,0l0,0c1.7-0.9,3.2-2.3,4.6-3.7
		l0.2-0.2c0.3,0.6,0.6,1.2,0.9,1.8c0,0,0,0,0,0l-0.2,0l-0.4,0.4c-1.2,1-2.5,2.1-3.6,3.3c-0.1,0.1-0.1,0.2,0,0.3
		c0,0.1,0.1,0.2,0.2,0.2l0.1,0l0,0c1.4-1,2.6-2.1,3.7-3.3l0.3-0.3c0,0,0,0,0,0c0.2,0.3,0.3,0.7,0.5,1c-0.6,0.3-1.1,0.8-1.6,1.3
		l-0.4,0.4l-0.5,0.4c-0.6,0.5-1.1,1-1.6,1.6c-0.1,0.1-0.1,0.3,0,0.4c0.1,0.1,0.2,0.2,0.3,0.2c0.1,0,0.1,0,0.2-0.1
		c0.6-0.4,1.2-0.9,1.7-1.4l0.4-0.4l0.4-0.4c0.5-0.4,1-0.9,1.4-1.4c0,0,0.7,1.3,0.9,1.6c-1.1,0.5-2.2,1.3-3.2,2
		c-0.3,0.2-0.6,0.5-1,0.7c-0.1,0.1-0.2,0.3-0.2,0.4c0.1,0.2,0.2,0.3,0.4,0.3c0.1,0,0.1,0,0.2-0.1c0.3-0.2,0.6-0.4,1-0.5
		c1.1-0.6,2.3-1.2,3.2-2c0.1,0.3,0.6,1,0.6,1c-0.5,0.3-0.9,0.6-1.3,0.9l-0.4,0.3c-0.7,0.5-1.5,1.1-2.1,1.7c-0.1,0.1-0.2,0.3-0.1,0.5
		c0.1,0.2,0.3,0.3,0.4,0.3c0.1,0,0.2,0,0.2-0.1c0.8-0.5,1.6-1.1,2.4-1.6l0.3-0.2c0.4-0.3,0.8-0.6,1.1-0.9l0.4,0.7
		c0.3,0.6,0.6,1.1,0.9,1.7l0.8,1.3c-0.6,0.3-1.1,0.7-1.7,1.2c-0.2,0.1-0.3,0.3-0.5,0.4l-0.4,0.3c-0.9,0.7-1.8,1.4-2.6,2.2
		c-0.1,0.1-0.2,0.3-0.1,0.5c0.1,0.2,0.2,0.3,0.4,0.3c0.1,0,0.2,0,0.2-0.1c0.9-0.6,1.7-1.2,2.5-1.8l0.4-0.3c0.2-0.1,0.3-0.3,0.5-0.4
		c0.6-0.4,1.2-0.9,1.6-1.4c0.8,1.4,1.6,2.8,2.4,4.1c-0.1,0-0.1,0-0.2,0c0,0,0,0,0,0c-0.7,0.2-1.3,0.6-1.8,1.1l-0.3,0.3l-0.3,0.2
		c-0.6,0.4-1.2,0.9-1.7,1.4c-0.1,0.1-0.2,0.3-0.1,0.4c0.1,0.2,0.2,0.3,0.4,0.3c0.1,0,0.1,0,0.2,0c0.7-0.3,1.3-0.8,2-1.3l0.7-0.5
		c0.5-0.4,1.1-0.7,1.4-1.3c0,0,0.1-0.1,0.1-0.2c0.4,0.7,0.8,1.3,1.2,2c-0.7,0.2-1.3,0.5-1.9,0.9l-0.6,0.4c-0.9,0.5-1.7,1-2.5,1.7
		c-0.1,0.1-0.2,0.3-0.1,0.5c0.1,0.2,0.2,0.3,0.4,0.3l0.1,0l0,0c1-0.4,1.9-0.9,2.7-1.4l0.6-0.3c0.6-0.3,1.3-0.7,1.7-1.2
		c0.2,0.3,0.6,1,0.6,1c-0.3,0.2-0.6,0.3-0.9,0.5l-0.5,0.3c-1.2,0.6-2.3,1.3-3.5,1.9c-0.2,0.1-0.3,0.3-0.2,0.5
		c0.1,0.2,0.2,0.3,0.4,0.3c0.1,0,0.1,0,0.2,0c1.2-0.6,2.4-1.1,3.6-1.7c0.2-0.1,0.4-0.2,0.6-0.3c0.3-0.1,0.6-0.3,0.9-0.5l0.5,0.8
		l-0.2,0.1c-0.3,0.2-0.6,0.4-0.9,0.6c-0.7,0.4-1.4,0.8-2.1,1.2c-0.4,0.2-0.9,0.4-1.3,0.7c-0.2,0.1-0.3,0.3-0.2,0.6
		c0.1,0.2,0.3,0.4,0.5,0.4l0.1,0c1.1-0.3,2.3-0.8,3.7-1.6l0.1-0.1c0.3-0.2,0.7-0.4,1.1-0.6c0,0,0.8,1.2,1,1.6
		c-0.3,0.2-0.6,0.3-0.9,0.5c-0.3,0.2-0.7,0.4-1,0.6c-1,0.5-2,0.8-3.1,1.1l-0.5,0.2c-0.3,0.1-0.4,0.4-0.4,0.6c0,0.2,0.2,0.4,0.5,0.4
		c0,0,0,0,0,0c1.9,0,4.6-0.8,6-2.2l0.6,0.9c-0.5,0.2-1,0.5-1.4,0.7c-0.2,0.1-0.4,0.2-0.5,0.3l-0.5,0.3c-1.1,0.6-2.2,1.2-3.3,1.9
		c-0.2,0.2-0.3,0.5-0.2,0.7c0.1,0.2,0.3,0.4,0.5,0.4c0.1,0,0.1,0,0.2,0c1.2-0.4,2.3-1,3.4-1.6l0.4-0.2c0.2-0.1,0.4-0.2,0.6-0.3
		c0.6-0.3,1.1-0.6,1.6-0.9l0.6,0.9c-0.5,0.3-0.9,0.5-1.3,0.8c-1.2,0.8-2.4,1.5-3.8,2c-0.3,0.1-0.4,0.4-0.4,0.6
		c0,0.2,0.2,0.5,0.7,0.5c0,0,0,0,0,0c2.4-0.4,4.3-1.6,5.2-3.3c1.6,2.4,3.3,4.8,5,7.1l-2.7,0c-0.1-0.1-0.2-0.1-0.3-0.1c0,0,0,0,0,0
		c-0.2,0-0.3,0.1-0.5,0.1l-0.9,0c0.6-0.5,1.1-1,1.3-1.7c0-0.1,0-0.2,0-0.3c-0.1-0.1-0.2-0.2-0.3-0.2l-0.1,0l0,0
		c-0.3,0.2-0.6,0.4-0.9,0.6c-0.3,0.2-0.6,0.4-0.9,0.6c-0.7,0.4-1.4,0.7-1.9,0.9c-3.4,0-6.9,0-10.3,0c-2,0-4,0-6,0
		c-2.1,0-4.2,0-6.2-0.1c1.4-0.5,2.5-1.1,3.4-1.9c0.1-0.1,0.1-0.2,0.1-0.4c-0.1-0.1-0.2-0.2-0.4-0.2c0,0,0,0-0.1,0
		c-0.9,0.3-1.9,0.7-2.8,1.1c-1.1,0.4-2.2,0.9-3.3,1.2c-0.1,0-0.2,0.1-0.2,0.1l-4.7-0.1c0.1-1.4,0.2-2.8,0.4-4.1l0.1,0
		c2.4-0.7,5.7-2,8.1-4.2c0.1-0.1,0.1-0.2,0.1-0.4c-0.1-0.1-0.2-0.2-0.3-0.2l-0.1,0l0,0c-1.1,0.5-2.3,1.1-3.4,1.7
		c-1.4,0.7-2.8,1.4-4.2,2l0.2-2.3l0.4-0.2c2.3-0.9,5-2,6.8-3.6c0.1-0.1,0.1-0.2,0.1-0.4c-0.1-0.1-0.2-0.2-0.4-0.2c0,0,0,0,0,0
		c-2.3,0.4-4.7,1.7-6.8,2.9c0.1-1.2,0.2-2.3,0.2-3.4c1.5-0.8,3.2-1.9,5-3.4c0.1-0.1,0.1-0.2,0.1-0.3c0-0.1-0.1-0.2-0.3-0.2
		c0,0-0.1,0-0.1,0c-1.8,0.8-3.3,1.7-4.5,2.5c0-0.5,0.1-1.1,0.1-1.6l0-0.4l0.2-0.1c0.8-0.4,1.6-0.8,2.3-1.3c0.1-0.1,0.1-0.2,0.1-0.3
		c0-0.1-0.1-0.2-0.3-0.2c0,0,0,0-0.1,0c-0.7,0.3-1.4,0.6-2.1,1c0,0,0.1-0.9,0.1-1.2l0-0.2l0,0c-0.1-0.1-0.2-0.1-0.2-0.1
		c-0.1,0-0.3,0.1-0.3,0.2c-0.1,0.4-0.1,0.7-0.2,1.1l-0.1,0.6l-0.2,0.1c-0.1,0.1-0.2,0.2-0.2,0.4c0,0.1,0.1,0.2,0.3,0.2
		c-0.1,0.9-0.3,1.8-0.3,2.6l-0.2,0.1c-0.1,0.1-0.2,0.1-0.2,0.2c-0.1,0.1-0.2,0.3-0.1,0.4c0.1,0.1,0.2,0.3,0.4,0.3
		c-0.2,1.2-0.3,2.5-0.4,3.6l-0.4,0.2c-0.2,0.1-0.3,0.4-0.2,0.6c0.1,0.2,0.2,0.4,0.5,0.4c-0.3,2.3-0.6,4.7-1,7
		c-2.6,0-5.3-0.1-7.9-0.1c0.4-0.2,0.7-0.5,1.1-0.8c0.1-0.1,0.2-0.3,0.1-0.4c0-0.1-0.2-0.2-0.3-0.2l-0.1,0c-1.1,0.4-2.2,0.9-3,1.4
		c-1.1,0-2.2,0-3.4,0c1.5-0.6,3.1-1.4,4.3-2.7c0.1-0.1,0.1-0.2,0.1-0.4c-0.1-0.1-0.2-0.2-0.4-0.2l-0.1,0l0,0c-0.5,0.2-1,0.5-1.4,0.7
		c-1.3,0.7-2.7,1.4-4.1,1.9c-0.2,0.1-0.3,0.2-0.4,0.3c-0.1,0.1-0.1,0.2-0.1,0.4c-1.1,0-2.2,0.1-3.4,0.1c3.9-1.7,7.1-3.7,9.5-5.9
		c0.1-0.1,0.1-0.2,0.1-0.3c-0.1-0.1-0.2-0.2-0.3-0.2l-0.1,0l0,0c-2.3,1.2-4.7,2.5-6.9,3.8c-1.3,0.7-2.6,1.5-3.9,2.2
		c-0.2,0.1-0.3,0.4-0.2,0.6l-0.5,0c-0.4,0-0.7,0-1.1,0.1c0,0-0.1,0-0.1,0c0.1-2.4,0.2-4.9,0.1-7c4.2-2,7.6-4.1,10.2-6.3
		c0.1-0.1,0.1-0.2,0.1-0.3c0-0.1-0.2-0.2-0.3-0.2l-0.1,0l0,0c-3.3,1.6-6.6,3.6-9.8,5.7l0-1.1c0-1.1,0-2.3,0-3.4
		c0.1,0.2,0.2,0.4,0.4,0.4c0.1,0,0.1,0,0.2,0c2.7-1.1,6.5-3,9.3-5.8c0.1-0.1,0.1-0.2,0.1-0.4c-0.1-0.1-0.2-0.2-0.3-0.2l-0.1,0l0,0
		c-2.1,1-4.1,2.3-6.1,3.5c-1.1,0.6-2.1,1.3-3.2,1.9c-0.1,0.1-0.2,0.2-0.2,0.3c0-1.3,0-2.6,0.1-3.9c0.1,0.2,0.2,0.3,0.4,0.3
		c0.1,0,0.1,0,0.2,0c3.9-1.3,7-3,9.2-5.1c0.1-0.1,0.1-0.2,0.1-0.3c-0.1-0.1-0.2-0.2-0.3-0.2l-0.1,0l0,0c-0.9,0.5-1.7,0.9-2.6,1.4
		c-2.1,1.2-4.3,2.3-6.6,3.3c-0.1,0.1-0.2,0.2-0.3,0.3c0-0.6,0.1-1.3,0.1-1.9c0-0.3,0.1-0.6,0.1-1c0.1,0.1,0.2,0.2,0.4,0.2
		c0,0,0,0,0,0c0.1,0,0.2,0,0.3-0.1c3-1.4,6.2-2.8,8.9-4.7c0.1-0.1,0.2-0.2,0.1-0.4c0-0.1-0.1-0.2-0.3-0.2c0,0,0,0-0.1,0
		c-3.2,1-6.4,2.8-9.2,4.3c0,0,0,0,0,0c0.1-0.8,0.1-1.7,0.2-2.5c0,0,0.1,0,0.1,0c0.1,0,0.1,0,0.2,0c2.7-1.2,6.4-3.1,9.4-5.5
		c0.1-0.1,0.1-0.2,0.1-0.3c0-0.1-0.1-0.2-0.3-0.2c0,0,0,0-0.1,0c-3.4,1.2-6.9,3.4-9.3,5c0-0.4,0.1-0.8,0.2-1.3l0-0.7
		c2.7-1.4,6.2-3.2,9.5-5.4c0.1-0.1,0.1-0.2,0.1-0.3c0-0.1-0.1-0.2-0.3-0.2c0,0-0.1,0-0.1,0c-2.7,1.2-5.6,2.7-9,4.8
		c0.1-1,0.3-1.9,0.4-2.8c0.1,0,0.1,0.1,0.2,0.1l0.1,0l0,0c3.1-1.4,5.7-3.1,7.8-4.9c0.1-0.1,0.1-0.2,0.1-0.3c0-0.1-0.1-0.2-0.3-0.2
		l-0.1,0l0,0c-1,0.6-2,1.2-3,1.8c-1.5,0.9-3.1,1.9-4.7,2.8c0.2-1,0.3-2,0.5-2.9c0.1,0,0.1,0,0.2,0c0.1,0,0.1,0,0.2-0.1
		c2.7-1.4,6.3-3.2,9.2-5.6c0.1-0.1,0.1-0.2,0.1-0.3c0-0.1-0.1-0.2-0.3-0.2c0,0,0,0-0.1,0c-3.4,1.4-6.6,3.4-9.2,5.2
		c0.1-0.8,0.3-1.6,0.5-2.4l0.1-0.6c3.2-1.5,6.3-3.2,8.9-5.1c0.1-0.1,0.1-0.2,0.1-0.3c0-0.1-0.1-0.2-0.3-0.2c0,0,0,0-0.1,0
		c-2.8,1.2-5.7,2.7-8.4,4.5l0-0.2c0.1-0.4,0.2-0.8,0.2-1.2l0.1-0.5l0-0.4c3.4-1.5,6.7-3.5,9.4-5.7c0.1-0.1,0.1-0.2,0.1-0.3
		c0-0.1-0.1-0.2-0.3-0.2l-0.1,0l0,0c-3.5,2.1-6.2,3.7-8.8,5.2c0.2-0.8,0.4-1.7,0.5-2.4c3.1-1.5,6-3.1,8.5-4.9
		c0.1-0.1,0.2-0.2,0.1-0.4c0-0.1-0.1-0.2-0.3-0.2c0,0-0.1,0-0.1,0c-2.5,1.1-5.2,2.5-7.9,4.1l0.3-1.1l0-0.3c1.9-0.8,5.4-2.5,7.5-4.9
		c0.1-0.1,0.1-0.2,0.1-0.3c-0.1-0.1-0.2-0.2-0.3-0.2l-0.1,0l0,0c-1.1,0.5-2.1,1.1-3,1.8c-0.5,0.3-0.9,0.6-1.4,0.9
		c-0.7,0.4-1.4,0.8-2,1.2l-0.3,0.2c0.2-0.9,0.4-1.7,0.6-2.5c2-1,4.9-2.7,7.2-4.8c0.1-0.1,0.1-0.2,0.1-0.3c0-0.1-0.1-0.2-0.3-0.2
		c0,0,0,0-0.1,0c-2,0.8-4.1,2.1-6.4,3.7l0.1-0.4c0.2-0.6,0.3-1.2,0.4-1.8c1.2-0.6,2.3-1.4,3.4-2l1.2-0.7c1.3-0.8,2.6-1.6,3.6-2.6
		c0.1-0.1,0.1-0.3,0.1-0.4c-0.1-0.1-0.2-0.2-0.4-0.2c0,0,0,0-0.1,0c-1.5,0.5-2.8,1.4-4.1,2.3l-0.8,0.6c-0.8,0.5-1.7,1.1-2.5,1.7
		c0.2-0.8,0.4-1.6,0.6-2.4c1-0.5,2-1.1,2.9-1.7l0.7-0.4l0.7-0.4c1.2-0.8,2.5-1.5,3.5-2.5c0.1-0.1,0.1-0.2,0.1-0.4
		c0-0.1-0.1-0.2-0.3-0.2c0,0,0,0-0.1,0c-1.3,0.5-2.6,1.3-3.8,2.1l-0.6,0.4l-0.7,0.5c-0.6,0.4-1.2,0.8-1.8,1.2l0.3-1l0.2-0.9
		c3.2-1.6,5.5-3.1,7.2-4.6c0.1-0.1,0.1-0.2,0.1-0.3c0-0.1-0.1-0.2-0.3-0.2c0,0,0,0-0.1,0c-1.9,0.7-4,2-6.5,3.8l0.8-3
		c0.5-0.2,1.1-0.5,1.6-0.8l0.4-0.2c1-0.5,2.1-1.1,2.9-1.8c0.1-0.1,0.1-0.2,0.1-0.3c0-0.1-0.2-0.2-0.4-0.2c0,0,0,0,0,0
		c-1.1,0.3-2.2,0.9-3.3,1.5c0,0-0.7,0.4-0.9,0.5l0.6-2.1c0.8-0.2,1.6-0.6,2.4-0.9l0.2-0.1c1.1-0.6,2.2-1.2,3.1-2.1
		c0.1-0.1,0.1-0.2,0.1-0.3c0-0.1-0.1-0.2-0.3-0.2c0,0,0,0-0.1,0c-0.7,0.3-1.4,0.7-2,1.1c-0.3,0.2-0.7,0.4-1,0.6
		c-0.3,0.2-0.7,0.3-1.1,0.5c-0.3,0.1-0.6,0.3-0.9,0.4l0.6-2c1.6-0.6,2.9-1.4,3.9-2.3l0.1-0.2l0-0.1c0-0.1-0.1-0.1-0.3-0.1
		c0,0-0.1,0-0.1,0l-0.8,0.5c-0.8,0.4-1.6,0.9-2.5,1.3l0.3-1.1l0.1-0.4c1.4-0.6,3-1.4,4.6-2.5c0.1-0.1,0.1-0.2,0.1-0.3
		c0-0.1-0.1-0.2-0.3-0.2c0,0,0,0-0.1,0c-1.5,0.6-2.8,1.3-4,2l0.9-3l0-0.1l0,0l-0.1-0.1h-0.1l-0.1,0l0,0.1c-0.4,1.2-0.8,2.3-1.4,3.6
		c-0.1,0-0.1,0.1-0.1,0.2c0,0.1,0,0.1,0,0.2l-0.2,0.5l-0.5,1.4l-0.2,0.1c-0.2,0.1-0.4,0.2-0.7,0.3c-0.1,0.1-0.2,0.2-0.2,0.4
		c0,0.1,0.1,0.2,0.3,0.2c0,0,0,0,0.1,0l0.3-0.1l-0.1,0.2c-0.3,0.8-0.5,1.5-0.8,2.2c-0.1,0.1-0.1,0.2-0.1,0.2
		c-0.3,0.9-0.6,1.7-0.9,2.6l-0.2,0.6c-0.3,0.2-0.5,0.4-0.8,0.6l-0.1,0.2l0,0.1c0,0.1,0.1,0.2,0.3,0.2c0,0,0,0,0,0
		c0.1,0,0.1,0,0.2-0.1c-0.4,1.3-0.8,2.6-1.2,3.8l-0.1,0.1c-0.1,0.1-0.1,0.2-0.1,0.2c0,0.1,0,0.1,0.1,0.2c-0.8,2.4-1.4,4.6-2,6.7
		l-0.2,0.1c-0.1,0.1-0.1,0.1-0.2,0.2c-0.1,0.1-0.2,0.2-0.1,0.4c0,0.1,0.1,0.2,0.2,0.2c-0.2,0.7-0.4,1.4-0.6,2.1L29,145l-0.5,0.4
		c-0.1,0.1-0.2,0.2-0.1,0.4c0,0.1,0.2,0.2,0.3,0.3c-0.3,1-0.5,1.9-0.7,2.8c-0.1,0-0.3,0.2-0.4,0.2c-0.2,0.1-0.2,0.3-0.2,0.5
		c0,0.1,0.1,0.2,0.3,0.3l-0.2,0.6c-0.1,0.5-0.2,1-0.4,1.5l0.1,0l-0.3,0c-0.1,0.1-0.2,0.2-0.2,0.3c0,0.1,0.1,0.2,0.1,0.2
		c-0.4,1.7-0.8,3.3-1.1,5c-1.4,7-2.4,13.4-2.9,19.7L23,178c-0.5,6.1-1,12.9,0.3,19l0,0.1h1.2l0-0.1c0,0,0.1,0.1,0.1,0.1
		c10.1,1.1,20.5,1.1,30.5,1.2c2.6,0,5.2,0,7.7,0c5.8,0.1,11.6,0.1,17.5,0.1c0,0.1,0,0.2,0.1,0.3c0.1,0.2,0.3,0.2,0.4,0.2
		c0.1,0,0.2,0,0.2-0.1c0.2-0.1,0.3-0.2,0.5-0.3l0.2-0.2c1.2,0,2.5,0,3.7,0l2.5,0c0.1,0.1,0.3,0.2,0.4,0.2c0.2,0,0.3-0.1,0.3-0.1
		l1.9,0c3,0,6.1,0,9.1-0.1c1.4,0,2.8,0,4.2-0.1l2.3,0c0,0,0,0,0.1,0c0,0,0.1,0,0.1,0c14.9-0.2,30-0.6,44.8-1.1
		c0.1,0.1,0.3,0.1,0.4,0.1c0.2,0,0.3,0,0.4-0.1c8.8-0.3,16.1-0.6,22.9-0.9c0.5,0,0.7-0.3,0.8-0.5c0.6-0.1,1.1-0.2,1.6-0.3
		L177.5,195.2L177.5,195.2z M120.4,104.3c0,0.6,0.1,1.1,0.2,1.7c0.1,0.8,0.2,1.6,0.2,2.4c0,2-0.3,4-0.9,6c-1,3.4-2.8,5.9-4.7,8.6
		l-0.9,1.2c-0.1,0.1-0.1,0.2,0,0.3c0,0.1,0.1,0.2,0.2,0.2l0.1,0l0,0c0.3-0.2,0.7-0.5,0.9-0.7c2.3-0.6,4.5-2.1,5.6-3.8
		c0.1-0.1,0.1-0.2,0-0.3c-0.1-0.1-0.2-0.2-0.3-0.2l-0.1,0l0,0c-0.4,0.3-0.8,0.6-1.2,0.9c-0.4,0.4-0.9,0.7-1.4,1.1
		c-0.3,0.2-0.6,0.4-0.9,0.6c0.7-0.8,1.3-1.8,1.9-2.8c0.4-0.3,0.9-0.6,1.3-0.9l0.5-0.4c0.9-0.7,1.7-1.3,2.4-2.1
		c0.1-0.1,0.1-0.2,0.1-0.3c0-0.1-0.1-0.2-0.3-0.2c0,0-0.1,0-0.1,0c-1,0.4-1.9,1-2.8,1.7l-0.1,0c0.1-0.3,0.3-0.6,0.4-0.9
		c0.1,0.1,0.2,0.1,0.3,0.1c0.1,0,0.2,0,0.2-0.1c0.7-0.4,1.5-1,2.1-1.5l0.1-0.1c0.5-0.4,0.9-0.7,1.3-1.2l0,0.1c0,0.8-0.1,1.7-0.1,2.4
		c-0.1,0.1-0.1,0.2,0,0.2l-0.1,2l0,0.5c-1.6,0.9-3.2,1.8-4.5,3.1c-0.1,0.1-0.1,0.2-0.1,0.3c0,0.1,0.1,0.2,0.3,0.2c0,0,0.1,0,0.1,0
		c1.6-0.7,2.9-1.8,4.1-2.8c0,1.2-0.1,2.6-0.1,3.9c0,0-0.1,0-0.1,0l-0.1,0l0,0c-0.3,0.2-0.6,0.5-1,0.7c-1.3,0.9-2.6,1.9-3.5,3.1
		c-0.1,0.1-0.1,0.2,0,0.3c0,0.1,0.1,0.2,0.2,0.2l0.1,0l0,0c1.4-0.8,2.5-1.9,3.7-3c0.2-0.2,0.5-0.5,0.7-0.7c0,1-0.1,2-0.1,3
		c-2,1.5-3.9,3-5.6,4.7c-0.1,0.1-0.1,0.2-0.1,0.3c0,0.1,0.1,0.2,0.3,0.2c0,0,0.1,0,0.1,0c1.9-0.8,3.7-2.3,5.2-4.1
		c-0.1,0.8-0.1,1.7-0.2,2.5l-0.1,0l-0.7,0.4c-1.7,1-3.6,2.1-4.7,3.6c-0.1,0.1-0.1,0.3,0,0.4c0.1,0.1,0.2,0.2,0.4,0.2c0,0,0,0,0.1,0
		c1.8-0.7,3.4-2.2,4.8-3.6l0.3-0.3l-0.2,2.3l-0.1,0l0,0c-0.4,0.2-0.8,0.4-1.2,0.7c-1.4,0.8-2.9,1.6-3.9,2.8c-0.1,0.1-0.1,0.2,0,0.3
		c0,0.1,0.1,0.1,0.3,0.1c0,0,0,0,0.1,0c1.5-0.5,2.8-1.5,4.1-2.5c0.3-0.2,0.5-0.4,0.8-0.6c-0.1,0.6-0.1,1.1-0.1,1.6
		c-0.9,0.7-1.8,1.3-2.7,1.8c-1,0.6-2,1.2-2.9,1.9c-0.1,0.1-0.1,0.2-0.1,0.3c0,0.1,0.2,0.2,0.3,0.2c0,0,0,0,0,0c2-0.6,3.7-2,5.2-3.4
		c-0.1,0.6-0.1,1.1-0.2,1.7l0,0l-0.5,0.4c-0.8,0.6-1.6,1.1-2.4,1.7l-0.5,0.4c-0.8,0.6-1.6,1.2-2.2,2.1c-0.1,0.1-0.1,0.2,0,0.3
		c0.1,0.1,0.2,0.2,0.3,0.2l0.1,0l0,0c0.9-0.4,1.6-1,2.3-1.6l0.4-0.4c0.7-0.6,1.5-1.3,2.2-2c-0.2,1.5-0.4,3-0.5,4.5l-0.9,0.7
		c-1.5,1.1-3,2.3-4.3,3.7c-0.1,0.1-0.1,0.2,0,0.3c0,0.1,0.2,0.2,0.3,0.2l0.1,0l0,0c1.7-0.9,3.1-2.3,4.5-3.5l0.1-0.1
		c-0.1,0.6-0.2,1.1-0.3,1.7c-0.1,0-0.2,0-0.2,0.1l-2.1,1.8c-0.5,0.5-1.1,0.9-1.5,1.6c-0.1,0.1-0.1,0.2,0,0.3
		c0.1,0.1,0.2,0.2,0.3,0.2l0.1,0l0,0c0.6-0.3,1.2-0.8,1.7-1.3l1.5-1.4c-0.1,0.6-0.2,1.2-0.3,1.7c-0.3,0.3-0.7,0.5-1,0.8
		c-1.5,1.1-3.1,2.3-4.3,3.8c-0.1,0.1-0.1,0.2,0,0.4c0.1,0.1,0.2,0.2,0.3,0.2l0.1,0l0,0c1.7-0.9,3.2-2.2,4.6-3.5
		c-0.1,0.5-0.2,1-0.3,1.5c0,0-0.1,0-0.1,0c-0.1,0-0.2,0-0.3,0.1c-0.8,0.9-1.8,1.8-2.7,2.6c-1.1,1-2.2,2.1-3.2,3.2
		c-0.1,0.1-0.1,0.2,0,0.3c0,0.1,0.1,0.2,0.2,0.2l0.1,0l0,0c2.2-1.3,3.9-3.2,5.6-5.2c-0.1,0.5-0.3,1.6-0.3,1.6c0,0-0.1,0-0.1,0
		c-0.1,0-0.2,0-0.3,0.1c-0.4,0.4-0.9,0.9-1.4,1.3c-1.3,1.2-2.7,2.5-3.7,4c-0.1,0.1-0.1,0.2,0,0.3c0.1,0.1,0.2,0.2,0.3,0.2l0.1,0l0,0
		c1.5-1,2.8-2.4,4-3.7c0.2-0.3,0.5-0.5,0.7-0.8l-0.1,0.3c-0.2,1-0.5,2-0.7,3c-0.1-0.1-0.3-0.3-0.4-0.3c-0.1,0-0.2,0-0.3,0.1
		c-0.4,0.4-0.8,0.7-1.2,1.1c-1.2,1-2.4,2.1-3.3,3.3c-0.1,0.1-0.1,0.2,0,0.3c0.1,0.1,0.2,0.2,0.3,0.2l0.1,0l0,0
		c1.3-0.7,2.5-1.9,3.6-3c0.4-0.4,0.7-0.7,1.1-1c-0.2,0.7-0.3,1.3-0.5,2c-0.1,0-0.1,0-0.2,0c-0.1,0-0.3,0.1-0.4,0.2l-2.5,2.7
		l-0.4,0.4c-0.6,0.7-1.3,1.4-1.8,2.2c-0.1,0.1-0.1,0.2,0,0.3c0.1,0.1,0.2,0.2,0.3,0.2l0.1,0l0,0c0.8-0.5,1.4-1.2,2.1-1.9l2.3-2.4
		c-0.2,0.6-0.3,1.1-0.4,1.6c-0.1,0-0.1,0.1-0.2,0.1c-0.4,0.4-0.7,0.8-1.1,1.2c-1.2,1.2-2.4,2.5-3.1,4c-0.1,0.1,0,0.2,0,0.4
		c0.1,0.1,0.2,0.2,0.3,0.2l0.2,0l0,0c1.2-0.8,2.2-2,3.1-3c-0.2,0.5-0.3,1-0.5,1.6c-0.1,0-0.1,0-0.2,0c-0.1,0-0.3,0.1-0.4,0.2
		l-2.2,2.6L113,174c-0.6,0.6-1.1,1.3-1.5,2c-0.1,0.1-0.1,0.3,0,0.4c0.1,0.1,0.2,0.2,0.3,0.2c0.1,0,0.1,0,0.2-0.1
		c0.7-0.5,1.3-1.1,1.8-1.8l0.4-0.4c0.4-0.5,0.9-1,1.3-1.5c-0.4,1.2-0.9,2.5-1.3,3.7c-1.2,1.2-2.9,2.9-3.5,5c0,0.1,0,0.2,0.1,0.3
		c0.1,0.1,0.2,0.2,0.3,0.2c0.1,0,0.2,0,0.3-0.1c0.4-0.4,0.8-0.9,1.2-1.4c-0.2,0.5-0.4,0.9-0.6,1.4c-0.5,1.1-1,2.2-1.5,3.3
		c0.2-2.5,0.1-5,0-7.5c0-0.9,0-1.7,0-2.5c-0.1-5-0.4-9.9-0.9-14.6c-1-9.1-2.7-19.6-6.9-28.3c0,0,0,0,0,0l0.3,0
		c0.3,0,0.5-0.1,0.7-0.3c0.1-0.2,0.2-0.4,0.2-0.7c0-0.5-0.3-1-1-1l-1.3,0c-1.3,0-2.6,0-3.9,0.1l-0.1,0c0.5-0.4,0.9-0.7,1.3-1.1
		c0.1-0.1,0.1-0.2,0.1-0.3c0-0.1-0.1-0.2-0.3-0.2l-0.1,0l0,0c-0.4,0.2-0.7,0.5-1.1,0.7c-0.5,0.3-1,0.7-1.5,1c-0.3,0-0.6,0.1-0.9,0.1
		l-0.2-0.3c1.7-1.1,3.1-2.2,4.4-3.4c0.1-0.1,0.1-0.2,0.1-0.3c0-0.1-0.1-0.2-0.2-0.2l-0.1,0l0,0c-1.5,0.8-2.9,1.9-4.4,3.2l-0.1-0.3
		c0.8-0.5,1.6-1.1,2.3-1.6c0.2-0.2,0.4-0.3,0.7-0.5c0.8-0.6,1.6-1.2,2.3-1.9c0.1-0.1,0.1-0.2,0-0.3c0-0.1-0.1-0.1-0.3-0.1
		c0,0-0.1,0-0.1,0c-1,0.5-1.9,1.2-2.8,1.9l-0.7,0.5c-0.6,0.5-1.2,0.9-1.8,1.4c-0.1-0.1-0.3-0.7-0.3-0.7c0.8-0.5,1.5-1,2.2-1.6
		l1.3-0.9c1-0.7,2-1.4,2.8-2.3c0.1-0.1,0.1-0.2,0.1-0.3c0-0.1-0.1-0.2-0.3-0.2l-0.1,0l0,0c-1.2,0.6-2.3,1.4-3.3,2.2
		c-0.3,0.2-0.6,0.4-0.9,0.7c-0.7,0.5-1.4,1-2.1,1.6c0,0-0.3-0.6-0.3-0.7c0.7-0.4,1.3-0.8,1.9-1.3l0.4-0.3c1-0.7,2.1-1.5,3.1-2.4
		c0.1-0.1,0.1-0.2,0.1-0.3c0-0.1-0.1-0.2-0.3-0.2l-0.1,0l0,0c-1.2,0.7-2.4,1.5-3.4,2.2l-0.4,0.3c-0.5,0.4-1,0.7-1.5,1.1
		c-0.1-0.2-0.3-0.7-0.3-0.7c0.6-0.4,1.1-0.9,1.6-1.3l1.1-0.9c0.9-0.8,1.8-1.6,2.6-2.5c0.1-0.1,0.1-0.2,0-0.3c0-0.1-0.1-0.2-0.2-0.2
		l-0.1,0l0,0c-1,0.6-1.9,1.4-2.7,2.2l-0.5,0.5l-0.5,0.4c-0.5,0.4-1,0.9-1.5,1.3l-0.2-0.5c0.8-0.6,1.6-1.2,2.4-1.9l1.2-1
		c1.1-0.9,2.1-1.7,3-2.8c0.1-0.1,0.1-0.2,0-0.3c0-0.1-0.1-0.2-0.2-0.2l-0.1,0l0,0c-1.1,0.7-2.1,1.5-3.1,2.4l-1.2,1
		c-0.7,0.6-1.5,1.3-2.2,1.9c-0.1-0.2-0.1-0.4-0.2-0.5c2-1.5,4-3.5,5.6-5.3l0.1-0.2l0-0.1c0-0.1-0.1-0.1-0.2-0.1l-0.1,0l0,0
		c-1.8,1.4-3.9,3.1-5.5,5c0,0,0-0.1-0.1-0.1c2-2.9,4.4-5.5,6.8-8.1c0.1-0.1,0.1-0.1,0-0.2l-0.2-0.1h-0.1c-4,2.5-7.5,6.6-10.7,12.6
		c0,0.1,0,0.1,0,0.1c0,0,0,0,0,0l-0.7,0.4c-0.4,0.2-0.7,0.4-1.1,0.7c-0.2,0.1-0.3,0.4-0.2,0.6c0.1,0.2,0.2,0.3,0.5,0.3h0
		c0.7,0,1.5-0.4,2.1-1c0.1,0,0.1,0,0.2,0c0.3,0,0.5-0.1,0.6-0.4c0.6-1.2,1.3-2.5,2.1-3.8c0.2,0.9,0.4,1.8,0.7,2.8l-0.1,0l0,0
		c-1.7,0.9-3.4,2-5,3.2c-0.9,0.6-1.9,1.3-2.8,1.9c-0.7,0.4-1.4,0.9-2.2,1.3c-1.5,0.8-3.1,1.7-4.3,2.8c0,0-0.2-1.5-0.3-1.9
		c2.5-1,4.9-2.4,6.7-3.8c0.1-0.1,0.2-0.2,0.1-0.4c0-0.1-0.1-0.2-0.3-0.2c0,0-0.1,0-0.1,0c-2.1,0.8-4.4,2.1-6.6,3.5
		c-0.1-0.6-0.1-1.2-0.2-1.8l-0.1-0.5c1.7-0.5,4.1-1.4,5.9-2.7c0.1-0.1,0.2-0.3,0.1-0.4c0-0.1-0.2-0.2-0.4-0.2c0,0,0,0,0,0
		c-2.1,0.5-4.2,1.6-5.7,2.5c0,0-0.1-1.2-0.2-1.8c0.1,0.1,0.2,0.1,0.3,0.1c0,0,0,0,0,0c0.8-0.2,1.5-0.6,2.2-1l0.4-0.2
		c0.7-0.4,1.3-0.7,1.9-1.2c1.1,1.5,2.3,2.5,3.5,3.1c0.1,0,0.1,0,0.2,0c0.2,0,0.3-0.1,0.4-0.2c0.1-0.2,0.1-0.4,0.1-0.6
		c-0.3-0.6-0.7-1.2-1-1.7c0.2-0.3,0.5-0.7,0.8-1c0.3-0.3,0.5-0.6,0.8-0.8c0.2-0.2,0.4-0.4,0.6-0.6c0.1-0.1,0.1-0.2,0.1-0.3
		c0-0.1-0.2-0.2-0.3-0.2l-0.1,0l0,0c-0.9,0.4-1.8,1.2-2.5,2.1l-0.3-0.3c-0.5-0.6-1-1.2-1.4-1.8l-0.1-0.1c1.1-0.8,1.9-1.6,2.4-2.4
		c0.1-0.1,0.1-0.2,0-0.3c-0.1-0.1-0.2-0.2-0.3-0.2l-0.1,0l0,0c-0.8,0.5-1.6,1.2-2.5,2.1c-0.1-0.2-0.3-0.5-0.4-0.7c0,0,0.1,0,0.1-0.1
		c0.8-0.7,1.5-1.5,2.2-2.6c0.1-0.1,0.1-0.2,0-0.3c0-0.1-0.2-0.1-0.3-0.1l-0.2,0l0,0c-0.9,0.7-1.6,1.4-2.2,2.3
		c-0.2-0.3-0.4-0.7-0.5-1.1c0.9-0.8,1.7-1.5,2.2-2.2c0.1-0.1,0.1-0.2,0-0.3c-0.1-0.1-0.2-0.2-0.3-0.2l-0.1,0l0,0
		c-0.7,0.4-1.5,1-2.2,1.8c-0.1-0.2-0.2-0.5-0.3-0.7c0.5-0.4,1-1,1.3-1.6c0.1-0.1,0.1-0.2,0-0.3c-0.1-0.1-0.2-0.2-0.3-0.2l-0.1,0l0,0
		c-0.5,0.3-0.9,0.7-1.3,1c-0.1-0.4-0.2-0.8-0.4-1.2c0.5-0.3,1-0.7,1.4-1.2c0.1-0.1,0.1-0.2,0-0.4c0-0.1-0.1-0.2-0.3-0.2
		c0,0,0,0-0.1,0c-0.4,0.2-0.9,0.4-1.4,0.8c-0.1-0.4-0.2-0.7-0.3-1c0.5-0.6,1.1-1.1,1.7-1.6c0.1-0.1,0.1-0.2,0.1-0.3
		c0-0.1-0.1-0.2-0.3-0.2c0,0,0,0,0,0c-0.6,0.2-1.1,0.6-1.6,1l0,0c0-0.3-0.1-0.5-0.1-0.7c0.9-0.6,1.7-1.4,2.4-2.4
		c0.1-0.1,0.1-0.2,0-0.3c0-0.1-0.2-0.2-0.3-0.2l-0.1,0l0,0c-0.8,0.5-1.6,1.1-2.2,1.8c0-0.4-0.1-0.7-0.1-1c0.8-0.6,1.5-1.3,2.1-2
		c0.1-0.1,0.1-0.2,0-0.3c0-0.1-0.2-0.2-0.3-0.2l-0.1,0l0,0c-0.6,0.3-1.1,0.7-1.7,1.2c0-0.6,0-1.3,0-1.9c0.2-0.2,0.5-0.4,0.7-0.7
		c0.4-0.4,0.8-0.7,1.2-1.1c0.1-0.1,0.1-0.2,0.1-0.3c0,0,0,0-0.1-0.1c1-0.2,1.9-1,2.6-2.3c3.4,6.1,10.9,10,16.8,11.1
		c0.1,0,0.1,0,0.2,0c0.1,0,0.3,0,0.3-0.1c3.8,2.2,6.7,4.3,9.2,6.6c-0.6,2.4-1.2,4.2-2,5.9c-0.2,0.5-0.5,1-0.8,1.5
		c-0.6,1-1.2,2.1-1.4,3.2v0.1l0,0l0.1,0.1h0.1l0.1,0c1.6-0.9,2.5-2.8,3.3-4.4l0-0.1c0,0,0.1,0,0.1,0c0,0,0,0,0.1,0
		c0.5-0.1,1-0.4,1.5-0.7l0.3-0.2c0.6-0.4,1.1-0.8,1.6-1.3c0.1-0.1,0.1-0.2,0.1-0.3c0-0.1-0.1-0.2-0.3-0.2c0,0,0,0-0.1,0
		c-0.6,0.2-1.2,0.5-1.9,0.9l-0.3,0.2c-0.2,0.1-0.5,0.3-0.7,0.4c0.5-1.3,1-2.6,1.3-3.9c1.4,1.5,2.5,2.9,3.5,4.5
		c0.2,0.3,0.5,0.5,0.8,0.5c0.4,0,0.8-0.2,0.9-0.5c0.2-0.3,0.1-0.6-0.1-0.9c-3.8-6-9.1-10.2-14.9-12.1c0.1,0,0.2,0,0.3,0
		c4.3,0,8.7-3,10.9-4.7c3.4-2.7,5.5-5.2,6.3-7.7c0.6,1.5,1.6,2.7,2.8,3.7c0.1,0.1,0.2,0.1,0.3,0.1c0.1,0,0.1,0,0.2-0.1L120.4,104.3z
		 M175.1,194C175.1,194,175.1,194,175.1,194c-6.6,0.3-13.8,0.6-22.7,0.9c-0.1-1-0.2-1.9-0.3-2.9c-0.3-4.1-0.7-8.2-1.9-11.9
		c0-0.1-0.1-0.2-0.2-0.2c-0.1,0-0.2,0.1-0.2,0.2c-0.1,1-0.2,2.1-0.1,3.3l-0.8,0.5c-1.6,1-3.2,2-4.4,3.3c-0.1,0.1-0.1,0.2,0,0.3
		c0,0.1,0.1,0.1,0.3,0.1c0,0,0,0,0.1,0c1.7-0.7,3.2-1.9,4.6-3l0.3-0.2c0,0.5,0.1,1.1,0.1,1.5l-1,0.7c-0.6,0.4-1.2,0.8-1.8,1.2
		l-0.5,0.3c-0.8,0.6-1.6,1.2-2.2,2c-0.1,0.1-0.1,0.2,0,0.3c0.1,0.1,0.2,0.2,0.3,0.2c0,0,0,0,0.1,0c0.9-0.3,1.7-0.9,2.5-1.6l0.5-0.4
		c0.6-0.5,1.1-0.9,1.7-1.4l0.5-0.4c0.1,0.7,0.1,1.3,0.2,2c-0.4,0.3-0.8,0.5-1.2,0.8c-1.4,0.9-2.9,1.8-3.8,3.1
		c-0.1,0.1-0.1,0.2,0,0.3c0.1,0.1,0.2,0.2,0.4,0.2c0,0,0,0,0.1,0c1.5-0.5,2.8-1.6,4-2.7c0.3-0.2,0.5-0.4,0.7-0.6l0.2,1.1l-0.5,0.4
		c-0.7,0.5-1.4,1.1-2.1,1.6l-0.3,0.3c-0.7,0.6-1.5,1.1-1.9,1.8c-9.5,0.3-17.9,0.6-25.8,0.7l1.5-3c2.8-5.6,5.4-11.3,7.9-17
		c2.5-5.7,4.6-10.9,6.6-15.9l1-2.6c1.9-4.8,3.8-9.8,5-14.8c0.4-0.1,0.7-0.4,0.8-0.8c0.1-0.3,0-0.7-0.3-0.9l-0.1-0.1
		c-2.4-2.1-5-4.2-7.6-6c0.9-0.6,1.6-1.6,2.4-2.5c0.3-0.4,0.6-0.8,0.9-1.2c0.2-0.2,0.4-0.4,0.6-0.6c0.8-0.9,1.7-1.8,2.2-2.9
		c0.1,0,0.2,0,0.3,0c0.4,0,0.7-0.2,0.9-0.5c0.2-0.2,0.2-0.5,0.1-0.9c-0.4-1.1-0.8-2.2-1.2-3.3c-1.3-3.6-2.7-7.4-4.4-10.9l0.1,0
		c5.7,1.9,11.6,3,17.9,3.4c0.1,0,0.2,0,0.2,0c1.7,4.4,3.7,8.7,5.6,13c3.7,8.3,7.6,16.8,9.8,25.7c1.7,6.8,2.7,13.7,3.8,22
		c0.4,3.5,0.9,7,1.3,10.8c0.1,1,0.2,1.9,0.3,2.9c0.1,1.4,0.2,2.8,0.4,4.2C175.3,194,175.2,194,175.1,194z M89,194.2
		c0.1-0.1,0.1-0.2,0-0.3c-0.1-0.1-0.2-0.2-0.3-0.2l-0.2,0c-0.8-0.1-1.3-0.2-1.4-0.8c0-0.1,0-0.2,0-0.3c0-0.1-0.1-0.1-0.2-0.2
		c0,0-0.1,0-0.1,0c0,0-0.1,0-0.1,0l-0.4-0.5c0.2-0.3,0.5-0.7,0.5-1.2c0-0.1,0-0.2-0.1-0.3c-0.1-0.1-0.2-0.1-0.3-0.1c0,0,0,0-0.1,0
		c-0.3,0.1-0.5,0.3-0.8,0.5c-0.5-0.7-0.9-1.4-1.4-2c0,0,0.1,0,0.1,0c0.2,0,0.5-0.1,0.6-0.4c0.2-0.4,0.4-0.8,0.4-1.2
		c0-0.1,0-0.2-0.1-0.3c-0.1-0.1-0.2-0.1-0.3-0.1c0,0-0.1,0-0.1,0c-0.4,0.1-0.7,0.4-1,0.7c-0.1,0.1-0.2,0.2-0.2,0.3
		c0-0.1-0.1-0.1-0.1-0.2l-0.3-0.5c0.5-0.7,1-1.5,1.2-2.3c0-0.1,0-0.2,0-0.3c-0.1-0.1-0.2-0.1-0.3-0.1c-0.1,0-0.2,0-0.2,0.1
		c-0.5,0.4-1,0.9-1.4,1.5l-0.6-0.9c0.3-0.4,0.6-0.9,0.7-1.5c0-0.1,0-0.3-0.1-0.4c-0.1-0.1-0.2-0.2-0.3-0.2c-0.1,0-0.1,0-0.2,0.1
		c-0.3,0.2-0.6,0.4-0.9,0.7c-0.2-0.3-0.4-0.6-0.6-0.9c0.7-0.3,1.3-0.9,1.1-1.7c0-0.2-0.2-0.3-0.3-0.3c-0.1,0-0.2,0-0.2,0.1
		c-0.1,0.1-0.2,0.2-0.2,0.3c-0.2,0.3-0.4,0.6-0.7,0.7c0,0,0,0,0,0l-0.3-0.4c0.3-0.5,0.7-1,0.9-1.5c0-0.1,0-0.2-0.1-0.3
		c-0.1-0.1-0.2-0.2-0.3-0.2l-0.2,0l0,0c-0.4,0.3-0.7,0.6-1,0.9l-0.4-0.6c0.1,0,0.2-0.1,0.3-0.2l0.1-0.1c0.3-0.4,0.6-0.9,0.7-1.5
		c0-0.1,0-0.3-0.1-0.4c-0.1-0.1-0.2-0.1-0.3-0.1c-0.1,0-0.1,0-0.2,0.1c-0.5,0.3-0.9,0.8-1.2,1.2l0,0l-0.4-0.6l-0.2-0.3
		c0.7-0.7,1.3-1.6,1.7-2.5c0-0.1,0-0.2,0-0.3c-0.1-0.1-0.2-0.2-0.3-0.2l-0.1,0l0,0c-0.7,0.4-1.4,1.1-1.9,1.8l-0.2-0.4
		c0.1-0.1,0.1-0.1,0.1-0.2c0.2-0.9,0.7-1.7,1.4-2.5c0.1-0.1,0.1-0.2,0.1-0.3c0-0.1-0.1-0.2-0.3-0.2c0,0,0,0-0.1,0
		c-0.9,0.3-1.6,1.1-2,2l-0.3-0.5c0.1,0,0.2-0.1,0.2-0.2c0.7-0.9,1.1-1.7,1.1-2.4c0-0.1,0-0.2-0.1-0.3c-0.1-0.1-0.2-0.1-0.3-0.1
		c-0.1,0-0.1,0-0.2,0.1c-0.7,0.5-1.2,1.3-1.5,1.8c-0.1-0.2-0.5-0.9-0.5-0.9c0.7-0.6,1.4-1.3,1.9-2.2c0.1-0.1,0.1-0.2,0-0.3
		c-0.1-0.1-0.2-0.2-0.3-0.2l-0.1,0l0,0c-0.8,0.4-1.5,1.1-2,1.7c0,0-0.8-1.3-1-1.6l-0.2-0.3c0.2,0,0.3-0.2,0.4-0.3
		c0.1-0.5,0.5-1,0.9-1.6c0.1-0.1,0.1-0.2,0-0.3c0-0.1-0.1-0.2-0.3-0.2c0,0,0,0-0.1,0c-0.7,0.2-1.2,0.7-1.5,1.5l-0.4-0.8
		c0.5-0.6,0.9-1.2,1.1-1.8c0-0.1,0-0.2,0-0.3c-0.1-0.1-0.2-0.1-0.3-0.1l-0.1,0l0,0c-0.4,0.2-0.8,0.6-1.2,1.1l-0.5-0.9
		c0.2-0.1,0.3-0.3,0.4-0.4l0.2-0.1c0.4-0.4,0.9-0.9,1.2-1.4c0-0.1,0-0.2,0-0.3c0-0.1-0.1-0.1-0.3-0.1c0,0-0.1,0-0.1,0
		c-0.6,0.2-1,0.6-1.5,1l-0.5,0.4c-0.2-0.3-0.3-0.6-0.5-1c0.1,0,0.1,0.1,0.2,0.1c0.2,0,0.3-0.1,0.4-0.2c0.2-0.3,0.5-0.7,0.7-1.1
		c0-0.1,0-0.2,0-0.3c-0.1-0.1-0.1-0.1-0.2-0.1l-0.1,0l0,0c-0.4,0.3-0.7,0.6-1,0.9c-0.1,0.1-0.1,0.1-0.1,0.2
		c-0.1-0.2-0.3-0.5-0.4-0.7l-0.1-0.3c0.1,0,0.2-0.1,0.3-0.1l0.3-0.3c0.5-0.5,1.1-1,1.5-1.7c0.1-0.1,0.1-0.2,0-0.3
		c-0.1-0.1-0.2-0.2-0.3-0.2l-0.1,0l0,0c-0.7,0.4-1.2,0.9-1.7,1.5c0,0-0.3,0.3-0.3,0.4c-0.2-0.3-0.4-0.7-0.6-1
		c0.9-0.9,1.6-1.7,2.2-2.7c0.1-0.1,0.1-0.2,0-0.3c-0.1-0.1-0.2-0.2-0.3-0.2l-0.1,0l0,0c-0.9,0.6-1.6,1.4-2.3,2.1l-0.6-1.1l0,0
		c1-0.8,2.1-1.8,2.9-2.8c0.1-0.1,0.1-0.2,0-0.3c-0.1-0.1-0.2-0.2-0.3-0.2l-0.1,0l0,0c-1.1,0.6-2.1,1.5-3,2.4
		c-0.1-0.3-0.3-0.6-0.4-0.8c0.1,0,0.2,0,0.3-0.1l0.1-0.1c0.3-0.4,0.6-0.8,0.9-1.2c0-0.1,0-0.2,0-0.3c-0.1-0.1-0.1-0.1-0.2-0.1
		l-0.1,0l0,0c-0.4,0.3-0.8,0.7-1.1,1.2c0,0,0,0,0,0c-0.2-0.5-0.5-0.9-0.7-1.4c0.9-0.8,1.8-1.5,2.6-2.4c0.1-0.1,0.1-0.2,0-0.3
		c0-0.1-0.1-0.2-0.2-0.2l-0.1,0l0,0c-0.9,0.6-1.8,1.3-2.6,2l-0.5-1.1c1.3-0.8,2.3-1.7,3.1-2.5c0.1-0.1,0.1-0.2,0.1-0.3
		c0-0.1-0.2-0.2-0.3-0.2l-0.1,0l0,0c-1,0.5-2.1,1.2-3.2,2.1l-0.4-0.9c0.8-0.7,1.6-1.4,2.4-2.3c0.1-0.1,0.1-0.2,0-0.3
		c0-0.1-0.1-0.2-0.2-0.2l-0.1,0l0,0c-0.9,0.6-1.7,1.3-2.4,1.9l-0.6-1.3l0,0c1.1-0.7,2-1.5,2.8-2.4c0.1-0.1,0.1-0.2,0-0.3
		c0-0.1-0.1-0.2-0.3-0.2l-0.1,0l0,0c-1,0.5-2,1.2-2.8,2l-0.1-0.3c-0.1-0.2-0.2-0.3-0.3-0.5c0.6-0.5,1.2-1,1.6-1.6
		c0.1-0.1,0.1-0.2,0-0.3c0-0.1-0.1-0.2-0.3-0.2l-0.1,0l0,0c-0.6,0.3-1.1,0.7-1.7,1.1c-0.2-0.5-0.5-0.9-0.6-1.3
		c0.1-0.1,0.2-0.2,0.4-0.3c0.4-0.3,0.9-0.5,1.3-0.8l0.3-0.2c0.1-0.1,0.2-0.2,0.1-0.4c0-0.1-0.1-0.2-0.3-0.2c0,0,0,0,0,0
		c-0.7,0.1-1.5,0.4-2.1,0.8c0-0.2,0-0.4,0-0.6c0.2-1,1.1-2.3,2-3.4c0.4-0.5,0.8-1.1,1-1.5c0.8-1.3,1.6-2.7,2.3-4.2
		c0.1,0,0.1,0,0.2,0c0.5,0,0.9-0.4,1.1-0.9c0.1-0.4,0.1-1-0.5-1.4c-2.1-1.5-4.3-3-6.4-4.4l-2.3-1.6c0.6-2.4,1.9-5,3.1-7.2l0.6-1.2
		c1.1-2.1,2.3-4.2,3.3-5.8c0.7-0.3,1.5-0.7,2.2-1l0.8-0.4c2.3-1.1,5-2.5,6.5-4.5c0,0.4,0,0.7,0,1.1l0,0.5l0,0.1l0,1.2l-0.1,0
		c-0.2,0.1-0.2,0.3-0.2,0.4c0,0.1,0.1,0.2,0.3,0.3c0,1.3,0,2.6,0,3.9c0,0.1-0.1,0.2,0,0.3c0.4,16.5,2.1,31.2,5.4,44.9
		c2.1,9,5,17.4,8.5,25.1c1.1,2.3,2,4.3,2.9,6.1c0,0.1,0.1,0.2,0.1,0.3c0,0.1,0.1,0.2,0.2,0.2c0.9,1.8,1.9,3.6,2.9,5.2l-3,0
		c0-0.1,0.1-0.1,0.1-0.2c0-0.1,0-0.2,0-0.3c-0.1-0.1-0.2-0.2-0.4-0.2c-0.1,0-0.1,0-0.2,0c-0.2,0.1-0.4,0.2-0.6,0.4l-0.9-1.2
		C88.6,194.7,88.8,194.5,89,194.2z M75.1,118.5c0.7-0.2,1.5-0.3,2.2-0.8l0.1,0.3c0,0.1,0,0.2,0.1,0.4l0,0.1
		c-0.2,0.1-0.7,0.3-0.7,0.3c-0.5,0.3-1,0.5-1.5,0.8l-0.2,0.1c0,0-0.1-1-0.1-1.2L75.1,118.5z M75.6,120.4c0.5-0.2,1-0.3,1.5-0.5
		l0.2-0.1c0.2-0.1,0.4-0.2,0.6-0.3c0.1,0.2,0.1,0.4,0.2,0.5c-0.5,0.2-1.1,0.5-1.7,0.9l-0.3,0.2c-0.3,0.2-0.6,0.4-0.9,0.6
		c0-0.4-0.1-0.8-0.1-1.2L75.6,120.4z M76.6,122.2l0.3-0.2c0.6-0.4,1-0.7,1.5-1.1c0.2,0.6,0.5,1.1,0.8,1.6c-0.8,0.3-1.5,0.7-2.2,1.2
		l-0.8,0.5c-0.2,0.2-0.5,0.3-0.7,0.5c-0.1-0.6-0.1-1.1-0.2-1.7C75.8,122.7,76.2,122.4,76.6,122.2z M76.9,125.1l0.6-0.4
		c0.7-0.4,1.4-0.9,2-1.4c0.2,0.4,0.5,0.8,0.7,1.1c-0.7,0.2-1.4,0.6-2,0.9l-0.4,0.2c-0.7,0.4-1.5,0.8-2.1,1.4c0,0,0,0,0,0
		c0-0.3-0.1-0.6-0.1-1C76.1,125.6,76.5,125.4,76.9,125.1z M75.6,116.3c0,0,0.7-0.3,0.8-0.3c0,0,0,0.1,0,0.1c0.1,0.1,0.2,0.2,0.3,0.2
		h0c0.1,0.3,0.1,0.5,0.2,0.8c-0.8,0.1-1.5,0.4-2.2,0.8l0,0l-0.1-1.3C75.1,116.5,75.4,116.4,75.6,116.3z M75.2,114.4l0.4-0.1
		c0.3-0.1,0.6-0.2,0.8-0.4c0,0.3,0.1,0.6,0.2,0.9c-0.3,0.1-0.6,0.2-1,0.4c-0.1,0.1-0.2,0.1-0.4,0.1c-0.2,0.1-0.3,0.1-0.5,0.2
		l-0.1-0.9C74.8,114.5,75,114.5,75.2,114.4z M76.1,112.9c-0.4,0-0.7,0.2-1.1,0.3l-0.5,0.2l-0.1-1.5c0,0,0.1,0,0.1,0
		c0.7-0.2,1.2-0.4,1.6-0.6c0,0.5,0.1,1,0.1,1.6C76.2,112.9,76.1,112.9,76.1,112.9z M124.7,107c0.1,0,0.3,0.2,0.3,0.2
		c-0.1,0.8-0.1,1.6-0.2,2.4c-0.9,0.4-1.8,0.9-2.8,1.8c0.2-0.9,0.3-1.7,0.3-2.4l0.5-0.3C123.4,108.2,124.1,107.7,124.7,107z
		 M121.7,112.8L121.7,112.8c1.3-0.6,2.3-1.3,3-1.9c0,0.7-0.1,1.5-0.1,2.2c0,0-0.1,0-0.1,0c0,0,0,0-0.1,0c-0.7,0.3-1.4,0.7-2,1.2
		l-0.1,0.1c-0.5,0.3-1,0.7-1.4,1.1c0.1-0.2,0.2-0.4,0.2-0.6C121.4,114.1,121.6,113.4,121.7,112.8z M82.9,132.4
		c0.5-0.3,0.9-0.6,1.4-0.9l1-0.6c2.1-1.3,4.3-2.7,6.1-4.5c0.2,0.7,0.5,1.5,0.7,2.2l-0.1,0.1l0,0.1c0,0.1,0.1,0.1,0.2,0.1h0
		c0.4,1.1,0.9,2.2,1.4,3.4c-0.1,0.1-0.2,0.2-0.3,0.3c-0.4,1.7-0.8,3.4-1.2,5.1c-0.9,0.2-1.8,0.7-2.6,1.1l-0.3,0.2
		c-0.2,0.1-0.4,0.2-0.6,0.3c-0.7,0.4-1.5,0.8-2.1,1.4c-0.1,0.1-0.1,0.2-0.1,0.4c0.1,0.1,0.2,0.2,0.4,0.2c0,0,0,0,0,0
		c0.8-0.2,1.5-0.6,2.2-1c0.2-0.1,0.4-0.2,0.6-0.4l0.3-0.1c0.7-0.4,1.3-0.7,1.9-1.2c-0.4,2.1-0.8,4-1.2,5.9c-0.1,0-0.1-0.1-0.2-0.1
		c0,0,0,0-0.1,0c-1.2,0.4-2.3,1.1-3.4,1.9l-0.4,0.2c-0.2,0.1-0.3,0.3-0.2,0.5c0.1,0.2,0.2,0.3,0.4,0.3c0.1,0,0.2,0,0.2-0.1l0.4-0.2
		c1.1-0.6,2.2-1.2,3.1-2.1c-0.1,0.8-0.3,1.6-0.4,2.4c-0.6,0.2-1.1,0.5-1.6,0.7l-0.4,0.2c-0.7,0.4-1.3,0.7-2,1.2
		c-0.2,0.1-0.2,0.4-0.2,0.6c0.1,0.2,0.2,0.3,0.4,0.3c0.1,0,0.1,0,0.2,0c0.7-0.3,1.4-0.7,2.1-1.1l0.3-0.2c0.3-0.2,0.6-0.3,0.9-0.5
		c0,0-0.2,1.2-0.3,1.7c-1.1,0.3-2.1,1-2.8,1.5c-0.2,0.1-0.3,0.3-0.2,0.5c0.1,0.2,0.2,0.3,0.4,0.3c0.1,0,0.1,0,0.2,0
		c0.6-0.3,1.5-0.7,2.2-1.3c-0.1,0.9-0.3,1.9-0.4,2.8c0,0,0,0,0,0c0-0.1-0.1-0.2-0.3-0.2c0,0,0,0-0.1,0c-0.9,0.3-1.7,0.8-2.4,1.3
		c-0.2,0.1-0.2,0.3-0.2,0.5c0.1,0.2,0.2,0.3,0.4,0.3c0.1,0,0.1,0,0.2-0.1c0.8-0.4,1.6-0.9,2.2-1.6c0,0,0,0,0-0.1
		c-0.1,0.9-0.2,1.8-0.3,2.7c-0.9,0.3-1.8,0.7-2.6,1.1l-0.4,0.2c-0.2,0.1-0.3,0.3-0.3,0.5c0.1,0.3,0.3,0.4,0.5,0.4
		c0.1,0,0.2,0,0.2-0.1l0.4-0.2c0.7-0.3,1.4-0.7,2-1.1c0,0.6-0.1,1.2-0.1,1.8c-0.1,0-0.1-0.1-0.3-0.1c0,0,0,0,0,0
		c-0.7,0.2-1.5,0.6-2.4,1.1c-0.2,0.1-0.3,0.3-0.2,0.5c0.1,0.2,0.2,0.3,0.5,0.3c0.1,0,0.1,0,0.2,0c0.9-0.4,1.6-0.8,2.2-1.3
		c0,0.4-0.1,0.8-0.1,1.2c0,0.5,0,1,0,1.5l0,0.4c-0.7,0.1-1.3,0.4-2.1,0.8c-0.2,0.1-0.3,0.3-0.2,0.6c0.1,0.2,0.2,0.4,0.5,0.4l0.2,0
		c0.7-0.2,1.2-0.5,1.7-0.8c-0.1,3.9-0.1,7.8,0.1,11.6c0.1,2.1,0.2,4.4,0.4,6.7c-3.3-7.3-6-15.3-8.2-24.4c-1.7-6.8-3-14.2-4.2-22.6
		C79,135,81,133.7,82.9,132.4z M99.5,196c0.1-0.1,0.1-0.3,0.1-0.4c-0.1-0.1-0.2-0.2-0.3-0.2c0,0,0,0,0,0c-0.3,0-0.6,0.1-0.9,0.3
		l-0.1,0.1c-0.1,0-0.2,0.1-0.2,0.2c0,0.1,0,0.1,0,0.2l-1.4,0c1.1-0.3,2.5-1,3-2.1c0-0.1,0-0.2,0-0.3c-0.1-0.1-0.2-0.1-0.3-0.1
		l-0.1,0l0,0c-0.3,0.1-0.6,0.3-0.9,0.5c-0.2,0.1-0.4,0.2-0.5,0.3c-0.5,0.3-1,0.5-1.6,0.7c-0.1,0-0.1,0.1-0.2,0.1l-0.1-0.1
		c-0.1-0.1-0.2-0.3-0.3-0.4l-0.2-0.3c1.5-0.7,2.6-1.6,3.1-2.6c0.1-0.1,0.1-0.2,0-0.3c-0.1-0.1-0.2-0.2-0.3-0.2l-0.1,0l0,0
		c-0.5,0.2-1,0.6-1.4,0.9c-0.2,0.2-0.5,0.3-0.7,0.5c-0.4,0.2-0.8,0.5-1.2,0.7l-0.1-0.2c-0.2-0.3-0.4-0.7-0.6-1
		c0.5-0.4,1-0.7,1.6-1.2c0.6-0.5,1.3-1,1.8-1.6c0.1-0.1,0.1-0.2,0-0.3c0-0.1-0.1-0.2-0.3-0.2c0,0,0,0-0.1,0
		c-0.8,0.3-1.4,0.8-2.1,1.3l-0.3,0.2c0,0-0.9,0.7-1.2,0.9c-0.2-0.4-0.5-0.9-0.7-1.4c1.6-0.7,3.2-1.8,4-3c0.1-0.1,0.1-0.2,0-0.3
		c0-0.1-0.1-0.1-0.3-0.1c0,0-0.1,0-0.1,0c-0.7,0.3-1.3,0.7-1.9,1.1l-0.6,0.4c-0.3,0.2-0.7,0.4-1,0.6c-0.2,0.1-0.5,0.3-0.7,0.4
		c-0.2-0.4-0.4-0.8-0.6-1.2l-0.1-0.3l0-0.3c0.6-0.3,1.3-0.7,1.9-1l0.7-0.4c0.9-0.5,1.8-1.1,2.5-1.9c0.1-0.1,0.1-0.2,0.1-0.3
		c0-0.1-0.1-0.2-0.3-0.2c0,0,0,0,0,0c-1,0.3-2,0.8-2.9,1.3l-0.7,0.4c-0.4,0.3-0.9,0.5-1.3,0.8c-0.1-0.4-0.1-0.8-0.2-1.3
		c0,0,0.1,0,0.1-0.1c1.8-1.1,4-2.7,5.4-4.5c0.1-0.1,0.1-0.2,0-0.3c-0.1-0.1-0.2-0.2-0.3-0.2l-0.1,0l0,0c-1,0.4-1.8,1.1-2.6,1.7
		l-0.3,0.2c-0.8,0.6-1.6,1.3-2.4,1.9c-0.1-0.4-0.1-0.8-0.1-1.2c0-0.2,0-0.3,0-0.5l0-0.2c0,0,0.1,0,0.1,0c0.1,0,0.2,0,0.4-0.2
		c1.6-1.2,3.2-2.5,4.4-4.1c0.1-0.1,0.1-0.2,0-0.3c0-0.1-0.1-0.2-0.2-0.2l-0.1,0l0,0c-1.7,1-3.2,2.4-4.6,3.7c0-0.5-0.1-2.1-0.1-2.1
		l0.1,0l0,0c1.9-1,3.9-2.1,5.2-3.6c0.1-0.1,0.1-0.2,0.1-0.4c0-0.1-0.1-0.2-0.3-0.2c0,0,0,0-0.1,0c-1.8,0.7-3.5,2-5.1,3.2l0-0.5
		c0-0.4-0.1-0.8-0.1-1.2c0.8-0.4,1.6-0.9,2.3-1.4l0.4-0.3l0.4-0.2c0.7-0.5,1.5-1,2-1.6c0.1-0.1,0.1-0.2,0-0.3c0-0.1-0.1-0.1-0.3-0.1
		c0,0,0,0,0,0c-0.8,0.2-1.6,0.7-2.3,1.2l-0.7,0.5c-0.6,0.4-1.3,0.8-1.8,1.3c0-0.7-0.1-1.3-0.1-1.9c0.4-0.3,0.8-0.6,1.2-0.9
		c0.5-0.4,1.1-0.8,1.7-1.2c0.3-0.2,0.6-0.4,0.9-0.6c0.7-0.4,1.4-0.8,1.9-1.4c0.1-0.1,0.1-0.2,0.1-0.4c-0.1-0.1-0.2-0.2-0.3-0.2
		c0,0,0,0,0,0c-1.1,0.1-2.2,0.8-3,1.4l-0.2,0.1c-0.6,0.4-1.5,1-2.3,1.8l0-0.8l0.1,0c1-0.5,2-1.2,3-1.8L94,169
		c0.8-0.5,1.7-1.1,2.4-1.8c0.1-0.1,0.1-0.2,0-0.3c0-0.1-0.1-0.2-0.3-0.2c0,0,0,0,0,0c-1,0.3-1.9,0.9-2.8,1.5l-0.4,0.3
		c-0.9,0.6-1.8,1.1-2.6,1.8l0-1c0.1,0,0.1,0,0.2,0c2.4-1,4.5-2.5,5.8-3.6c0.1-0.1,0.1-0.2,0.1-0.3c0-0.1-0.1-0.2-0.3-0.2
		c0,0,0,0-0.1,0c-2.1,0.9-4.1,1.9-5.7,3.1c0-0.3,0-1.5,0-1.5c2.3-1.1,4.3-2.6,5.7-4c0.1-0.1,0.1-0.2,0.1-0.3c0-0.1-0.1-0.2-0.3-0.2
		c0,0,0,0-0.1,0c-2.1,0.8-4.1,2.2-5.4,3.3l0-0.9c1.2-0.6,2.2-1.4,3.3-2.1l0.6-0.4c0.9-0.6,1.8-1.2,2.5-1.9c0.1-0.1,0.1-0.2,0-0.3
		c0-0.1-0.1-0.1-0.3-0.1c0,0,0,0-0.1,0c-1,0.4-2,1-2.9,1.6l-0.6,0.4c-0.8,0.5-1.7,1.1-2.5,1.8c0,0,0-1,0-1.4c1-0.5,1.9-1.2,2.8-1.8
		l0.8-0.6c0.9-0.6,1.8-1.3,2.5-2.1c0.1-0.1,0.1-0.2,0-0.4c0-0.1-0.1-0.1-0.3-0.1c0,0,0,0-0.1,0c-1.1,0.4-2.1,1.1-3,1.7l-0.6,0.4
		c-0.7,0.5-1.5,1.1-2.2,1.6c0-0.7,0.1-1.4,0.1-2.1c0,0,0.1,0,0.1,0c1.1-0.4,2.1-1.1,3.1-1.8l0.6-0.4l0.6-0.4c1-0.6,2-1.3,2.7-2.2
		c0.1-0.1,0.1-0.3,0.1-0.4c0-0.1-0.1-0.2-0.3-0.2c0,0,0,0-0.1,0c-1.1,0.4-2.1,1.1-3,1.7l-0.6,0.4l-0.6,0.4c-0.9,0.6-1.7,1.1-2.5,1.9
		c0-0.3,0.1-0.7,0.1-1c0.1,0.1,0.2,0.2,0.3,0.2l0.1,0l0,0c0.8-0.5,1.6-1.1,2.3-1.6l0.7-0.5c0.9-0.7,1.9-1.5,2.7-2.4
		c0.1-0.1,0.1-0.2,0-0.3c0-0.1-0.1-0.2-0.2-0.2l-0.1,0l0,0c-1,0.5-1.9,1.2-2.8,2l-0.6,0.5c-0.8,0.6-1.6,1.3-2.3,2c0,0,0,0,0,0
		c0.1-0.7,0.1-1.4,0.2-2.1c0,0,0.1,0,0.1,0c0,0,0,0,0.1,0c0.9-0.4,1.7-0.9,2.4-1.5l1.1-0.7c0.7-0.5,1.5-1,2.1-1.7
		c0.1-0.1,0.1-0.2,0-0.3c0-0.1-0.1-0.2-0.3-0.2c0,0,0,0-0.1,0c-0.9,0.4-1.7,0.9-2.5,1.5l-0.5,0.3l-0.6,0.4c-0.7,0.5-1.4,0.9-2,1.5
		c0.1-0.5,0.1-1,0.2-1.5l0-0.6c2-1.1,4-2.4,5.7-3.8l0.1-0.2l0-0.1c0-0.1-0.1-0.1-0.3-0.1c0,0-0.1,0-0.1,0c-1.8,0.9-3.5,2-5.2,3.2
		c0.1-0.5,0.2-1,0.2-1.5c2-1.1,3.8-2.1,5.5-3.3l0.1-0.2l0-0.1c0-0.1-0.1-0.2-0.3-0.2c0,0,0,0-0.1,0c-1.8,0.8-3.4,1.8-5,2.8l0.1-0.7
		l0-0.6c0.8-0.4,1.7-0.9,2.5-1.4l1-0.6c0.9-0.5,1.8-1.1,2.5-1.8c0.1-0.1,0.1-0.2,0.1-0.3c0-0.1-0.1-0.2-0.3-0.2c0,0,0,0-0.1,0
		c-1,0.4-2,1-2.9,1.5l-0.5,0.3c-0.7,0.4-1.4,0.9-2.1,1.3l0.4-2.1c0.9,0,1.7-0.5,2.5-1l0.4-0.2c1-0.6,2.2-1.3,3.1-2.2
		c0.1-0.1,0.1-0.3,0-0.4c0-0.1-0.1-0.2-0.3-0.2c0,0-0.1,0-0.1,0c-0.8,0.3-1.6,0.8-2.3,1.3c-0.3,0.2-0.6,0.4-0.9,0.6
		c-0.2,0.1-0.5,0.3-0.7,0.4c-0.5,0.3-1.1,0.6-1.5,1l0.2-1.1l0.1-0.8c0.5-0.3,1.1-0.6,1.6-1c0.2-0.1,0.4-0.3,0.6-0.4l0.6-0.4
		c0.9-0.5,1.8-1.1,2.4-1.9c0.1-0.1,0.1-0.2,0-0.4c0-0.1-0.1-0.2-0.3-0.2c0,0,0,0-0.1,0c-1,0.3-1.9,0.9-2.8,1.5
		c-0.2,0.2-0.4,0.3-0.7,0.5c-0.2,0.1-0.9,0.6-1.1,0.7c0.1-0.5,0.1-0.9,0.2-1.3c0.7-0.3,1.4-0.8,2-1.2l0.4-0.3
		c0.2-0.1,0.4-0.2,0.6-0.4c0.7-0.5,1.5-0.9,2-1.6c0.1-0.1,0.1-0.2,0-0.3c-0.1-0.1-0.2-0.2-0.3-0.2c0,0,0,0,0,0
		c-0.9,0.2-1.7,0.8-2.4,1.3c-0.2,0.1-0.4,0.3-0.6,0.4l-0.4,0.3c-0.4,0.2-0.7,0.5-1.1,0.7l0.1-0.4c0.1-0.4,0.1-0.8,0.1-1.1
		c1.3-0.7,2.6-1.6,4-2.7l0.1-0.2l0-0.1c0-0.1-0.1-0.2-0.3-0.2c0,0-0.1,0-0.1,0c-1.3,0.6-2.5,1.3-3.5,2c0.1-0.5,0.1-1,0.2-1.5
		c0.4,0,0.9-0.3,1.1-0.8c0.5,0.1,1.1,0.1,1.6,0.1l0.6,0c1.3,0.1,2.7,0.1,4,0.1l0.3,0c-0.1,0.1-0.1,0.2-0.1,0.3
		c0.5,2.8,1.2,5.5,1.9,8.2c0.6,2.2,1.2,4.5,1.6,6.7c1,5,1.7,9.6,2.2,14.1c0.4,4.3,0.7,8.9,0.7,13.5c0,1.9-0.1,3.9-0.2,5.8
		c-0.2,3-0.4,6,0,8.9c-0.6,1-1.2,2.1-1.8,3.1c-0.7,1.1-1.4,2.2-1.9,3.1l-5.1,0.1C99.4,196.1,99.5,196.1,99.5,196z M107.7,195.2
		c0.2-0.3,0.4-0.6,0.5-0.8c2.1-0.9,3.6-1.8,4.9-3c0.1-0.1,0.1-0.2,0.1-0.3c0-0.1-0.2-0.2-0.3-0.2l-0.1,0l0,0
		c-0.9,0.4-1.8,0.9-2.6,1.3l-1,0.5c0.2-0.4,0.5-0.9,0.7-1.3c0,0,0,0,0,0.1c0.1,0.2,0.3,0.3,0.5,0.3c0.1,0,0.2,0,0.3-0.1l0.5-0.4
		c1.2-0.9,2.4-1.8,3.4-2.9c0.1-0.1,0.1-0.2,0.1-0.4c-0.1-0.1-0.2-0.2-0.3-0.2l-0.1,0l0,0c-1.3,0.8-2.5,1.7-3.6,2.7l-0.5,0.4
		c0.1-0.2,0.2-0.4,0.3-0.7l0.8-0.6c1.3-0.9,2.6-1.9,3.8-3.1c0.1-0.1,0.1-0.2,0.1-0.4c-0.1-0.1-0.2-0.2-0.3-0.2l-0.1,0l0,0
		c-1.1,0.6-2.1,1.3-3.1,2l0,0c0.1-0.3,0.3-0.6,0.4-0.8l0.1-0.1c1.3-0.9,2.6-1.9,3.7-3c0.1-0.1,0.1-0.2,0.1-0.3
		c0-0.1-0.2-0.2-0.3-0.2l-0.1,0l0,0c-0.9,0.5-1.7,1-2.6,1.7c0.1-0.2,0.2-0.3,0.2-0.5l0.2-0.5c1.6-1,3-2.1,4.2-3.2
		c0.1-0.1,0.1-0.2,0.1-0.3c0-0.1-0.2-0.2-0.3-0.2l-0.1,0l0,0c-0.9,0.4-1.9,1-2.9,1.7c0.4-1,0.8-1.9,1.2-2.8c1.1-0.7,2.2-1.4,3.1-2.2
		c0.1-0.1,0.1-0.2,0.1-0.3c0-0.1-0.1-0.2-0.3-0.2c0,0,0,0-0.1,0c-0.8,0.3-1.5,0.7-2.1,1.2c0.9-2.4,1.8-4.7,2.4-6.9l0.1-0.1
		c1.5-1.3,3-2.9,4.3-4.6c0.1-0.1,0.1-0.2,0-0.3c-0.1-0.1-0.2-0.2-0.3-0.2l-0.1,0l0,0c-1.2,0.9-2.3,1.9-3.3,2.9l0.1-0.4
		c0.1,0,0.1-0.1,0.2-0.1c0.8-1,1.4-1.8,1.9-2.6c0.1-0.1,0.1-0.2,0-0.3c-0.1-0.1-0.2-0.1-0.3-0.1l-0.2,0l0,0c-0.3,0.3-0.7,0.6-1,1
		l0.2-0.6c0.8-0.7,1.6-1.5,2.3-2.3c0.1-0.1,0.1-0.2,0-0.4c-0.1-0.1-0.2-0.2-0.3-0.2l-0.1,0l0,0c-0.4,0.3-0.9,0.6-1.3,1
		c0.2-0.6,0.3-1.1,0.4-1.7c0.9-0.6,1.7-1.2,2.4-1.9c0.1-0.1,0.1-0.2,0.1-0.4c0-0.1-0.1-0.2-0.3-0.2c0,0-0.1,0-0.1,0
		c-0.5,0.2-1.1,0.5-1.6,0.8l0-0.1c0.2-0.6,0.3-1.3,0.4-1.8c0.7-0.4,1.5-0.9,2.2-1.5c0.1-0.1,0.1-0.2,0.1-0.4
		c-0.1-0.1-0.2-0.2-0.4-0.2c0,0,0,0-0.1,0c-0.5,0.2-1,0.4-1.5,0.7c0.2-1,0.4-2.1,0.6-3l0.1-0.1c1.6-1,3-2,4.2-3
		c0.1-0.1,0.1-0.2,0.1-0.3c-0.1-0.1-0.2-0.2-0.3-0.2l-0.1,0l0,0c-1.1,0.6-2.3,1.3-3.5,2.1c0.1-0.6,0.2-1.2,0.3-1.8
		c0.1,0,0.1,0,0.2,0c0.1,0,0.2,0,0.3-0.1c1.3-0.9,2.6-1.8,3.7-3c0.1-0.1,0.1-0.2,0.1-0.3c-0.1-0.1-0.2-0.2-0.3-0.2l-0.1,0l0,0
		c-1.3,0.7-2.5,1.6-3.7,2.4c0.1-0.4,0.1-0.8,0.2-1.2l0-0.3c1.1-0.8,2.3-1.8,3.3-2.9c0.1-0.1,0.1-0.2,0.1-0.3c0-0.1-0.1-0.2-0.3-0.2
		l-0.1,0l0,0c-0.9,0.6-1.9,1.2-2.7,1.9c0.1-0.5,0.2-1,0.2-1.5c1-0.8,2.2-1.7,3.3-2.7c0.1-0.1,0.1-0.2,0.1-0.3c0-0.1-0.2-0.2-0.3-0.2
		l-0.1,0l0,0c-0.9,0.5-1.8,1.1-2.7,1.9c0.1-0.5,0.1-1,0.2-1.4c0,0,0,0,0.1,0c1.3-0.8,2.7-2,4.2-3.6c0.1-0.1,0.1-0.2,0.1-0.3
		c0-0.1-0.2-0.2-0.3-0.2l-0.1,0l0,0c-1.5,0.9-2.7,1.7-3.8,2.6c0,0,0.1-0.9,0.2-1.2c0.1,0.1,0.2,0.1,0.4,0.1c0.1,0,0.3,0,0.4-0.1
		c0.2-0.2,0.5-0.4,0.7-0.6c0.9-0.7,1.9-1.5,2.6-2.4c0.1-0.1,0.1-0.2,0-0.3c-0.1-0.1-0.2-0.2-0.4-0.2l-0.1,0l0,0
		c-1,0.5-2,1.3-2.9,2.1c-0.2,0.2-0.4,0.3-0.6,0.5c0-0.3,0.1-0.6,0.1-0.9l0-0.7l0.3-0.2c1.3-0.8,2.6-1.6,3.7-2.6
		c0.1-0.1,0.1-0.2,0.1-0.3c-0.1-0.1-0.2-0.2-0.3-0.2l-0.1,0l0,0c-1.2,0.5-2.3,1.2-3.4,2l0.2-1.7c0,0,0,0,0,0c0.1,0,0.1,0,0.2-0.1
		c1.3-0.8,2.5-1.8,3.4-2.8c0.1-0.1,0.1-0.2,0.1-0.3c-0.1-0.1-0.2-0.2-0.3-0.2l-0.1,0l0,0c-1.3,0.7-2.4,1.5-3.2,2.2
		c0-0.6,0.1-1.1,0.1-1.7l0-0.4c1.7-0.9,2.9-1.7,3.9-2.5c0.1-0.1,0.1-0.2,0.1-0.4c0-0.1-0.2-0.2-0.4-0.2c0,0,0,0-0.1,0
		c-1,0.4-2.1,1-3.4,1.8c0-0.5,0.1-1.8,0.1-1.8c0.1,0,0.1,0.1,0.2,0.1c0.1,0,0.1,0,0.2-0.1c0.8-0.4,2.4-1.4,3.4-2.6
		c0.1-0.1,0.1-0.3,0.1-0.4c-0.1-0.1-0.2-0.2-0.3-0.2l-0.1,0c-1.3,0.5-2.6,1.5-3.5,2.3c0-0.5,0.1-1.1,0.1-1.6l0-0.6
		c1.5-0.8,2.7-1.7,3.7-2.6c0.1-0.1,0.1-0.2,0.1-0.3c0-0.1-0.2-0.2-0.3-0.2l-0.1,0l0,0c-1,0.4-2.1,1.1-3.3,1.9c0-0.9,0.1-1.7,0.1-2.6
		c0,0,0.1,0,0.1,0l0.1,0c1.4-0.5,2.6-1.1,3.6-1.8c0.1-0.1,0.2-0.2,0.1-0.3c0-0.1-0.1-0.2-0.3-0.2c0,0,0,0,0,0
		c-1.1,0.3-2.3,0.7-3.6,1.4c0-0.4,0-0.8,0-1.3c1-0.4,2.1-1,3.4-1.8c0.1-0.1,0.2-0.2,0.1-0.3c0-0.1-0.1-0.2-0.3-0.2c0,0,0,0,0,0
		c-1.3,0.4-2.3,0.7-3.2,1.1c0-0.6,0-1.3,0-1.9c1.1-0.4,2.1-0.9,3-1.5c0.1-0.1,0.2-0.2,0.1-0.3c0-0.1-0.1-0.2-0.3-0.2c0,0,0,0,0,0
		c-0.9,0.2-1.8,0.6-2.8,1c0-0.9,0-1.8-0.1-2.6c0.6-0.3,1.2-0.5,1.8-0.9c0.1-0.1,0.1-0.2,0.1-0.3c0-0.1-0.1-0.2-0.2-0.2c0,0,0,0,0,0
		c-0.6,0.2-1.1,0.4-1.6,0.7c-0.1-1.5-0.2-3-0.3-4.5c2.5,1.4,5.5,2.7,9.1,3.9c0.9,4,2.3,8,3.6,11.8c0.4,1.2,0.8,2.3,1.2,3.5
		c0,0.1,0.1,0.1,0.1,0.2c-1.1,0.6-1.9,1.5-2.8,2.4c-0.2,0.3-0.5,0.5-0.7,0.7c-0.3,0.3-0.7,0.6-1,1c-0.9,0.9-1.9,1.7-2.4,2.8
		c-0.1,0.3-0.1,0.6,0.1,0.8c-0.1,0.2,0,0.4,0.1,0.6c2.2,2.4,4.8,4.6,7.3,6.7l0.3,0.2c0.1,0.1,0.1,0.1,0.2,0.1
		c-1.5,3.2-2.8,6.6-4,9.9c-0.7,1.9-1.4,3.7-2.1,5.6c-2.7,6.7-5.2,12.7-7.7,18.1c-2.5,5.5-5.1,11-7.8,16.4c-0.6,1.2-1.2,2.3-1.8,3.5
		c-2.6,0.1-5.2,0.1-7.8,0.1l-0.8,0c1-0.3,1.7-0.8,2.2-1.5c0.1-0.1,0.1-0.2,0-0.3c-0.1-0.1-0.2-0.2-0.3-0.2l-0.1,0l-0.6,0.3
		C109.3,194.7,108.5,195.1,107.7,195.2L107.7,195.2z M150.1,195c0.1,0,0.1-0.1,0.2-0.1c0.1-0.1,0.2-0.2,0.2-0.4
		c0-0.2-0.2-0.3-0.3-0.3c-0.1,0-0.1,0-0.2,0c-0.5,0-1.1,0.1-1.5,0.3c-0.2,0.1-0.3,0.3-0.3,0.6c-0.3,0-0.7,0-1,0
		c0.4-0.3,0.7-0.6,1.1-0.9l0.2-0.2c0.7-0.6,1.4-1.1,2-1.7l0.1-0.1l0,0.3c0.1,0.8,0.2,1.6,0.3,2.4L150.1,195z M79,55.4
		c0.1-0.1,0.1-0.2,0.1-0.3c0-0.1-0.1-0.2-0.3-0.2c0,0,0,0,0,0c-1.7,0.6-3.6,1.6-5.5,2.9c-0.1-0.7-0.2-1.3-0.3-2
		c2.2-1,4.2-2.2,5.7-3.4c0.1-0.1,0.1-0.2,0.1-0.3c0-0.1-0.1-0.2-0.3-0.2c0,0,0,0-0.1,0c-1.7,0.6-3.6,1.6-5.5,2.9
		c-0.1-0.6-0.1-1.2-0.2-1.8l0-0.2c1.2-0.7,2.4-1.4,3.4-2.2c0.1-0.1,0.1-0.2,0.1-0.3c0-0.1-0.1-0.2-0.3-0.2c0,0-0.1,0-0.1,0
		c-1.1,0.5-2.2,1.2-3.2,1.9c-0.1-0.6-0.1-1.1-0.1-1.7l0.5-0.3c1.3-0.8,2.7-1.6,3.9-2.6l0.1-0.2l0-0.1c0-0.1-0.1-0.2-0.3-0.2
		c0,0-0.1,0-0.1,0c-1.4,0.7-2.7,1.5-4,2.4l-0.2,0.1l0-0.2c0-0.6-0.1-1.2-0.1-1.7l0,0l0.1,0c0.6-0.3,1.2-0.7,1.8-1.1l0.4-0.3
		c0.6-0.5,1.3-1,2-1.6c0.1-0.1,0.1-0.2,0.1-0.3c0-0.1-0.1-0.2-0.3-0.2l-0.1,0l0,0c-0.8,0.5-1.6,1-2.2,1.4c0,0-0.5,0.4-0.6,0.4
		c0.5-0.8,1-1.7,1.5-2.5c1.1-0.5,2.1-1.2,2.8-1.9c0.1-0.1,0.1-0.2,0.1-0.3c0-0.1-0.1-0.2-0.3-0.2c0,0,0,0-0.1,0
		c-0.5,0.2-1.1,0.5-1.7,0.9c0.3-0.4,0.5-0.8,0.8-1.3c0.1,0.1,0.1,0.1,0.2,0.1c0.1,0,0.1,0,0.2-0.1c2.3-1.3,3.9-2.4,5.4-3.6
		c0.1-0.1,0.1-0.2,0.1-0.3c0-0.1-0.1-0.2-0.3-0.2c0,0-0.1,0-0.1,0c-1.8,0.9-3.5,2-4.9,2.9c0.5-0.7,0.9-1.4,1.4-2.1c0,0,0,0,0,0
		c0.1,0.2,0.2,0.3,0.4,0.3c0.1,0,0.2,0,0.2-0.1l0.1-0.1c1.8-1.1,3.6-2.2,5.1-3.6c0.1-0.1,0.1-0.2,0.1-0.4c-0.1-0.1-0.2-0.2-0.4-0.2
		l-0.1,0l0,0c-1.7,0.9-3.4,2.1-4.9,3.3c1.3-2,2.6-4,3.6-6.1c3.6,2.2,8.8,3.1,13,3.8c1.3,0.2,2.4,0.4,3.5,0.6
		c5.2,1.1,10.6,2.6,15.2,5.7c4.3,3,6.7,6.6,8.4,12.6c0.1,0.4,0.4,0.6,0.8,0.6c0.3,0,0.7-0.2,0.8-0.5c0,2.5,0,4.6-0.3,6.6
		c-0.6,5-1.8,10-3.5,14.8c-3.3,8.7-7.5,15-12.3,18.2c0,0,0,0,0,0c0.1-0.1,0.1-0.2,0-0.3c-0.1-0.1-0.2-0.2-0.3-0.2
		c-0.1,0-0.1,0-0.2,0.1c-0.6,0.5-1.1,1-1.5,1.6c-0.2,0.1-0.5,0.2-0.7,0.3c0.2-0.2,0.4-0.5,0.5-0.7c0-0.1,0-0.2,0-0.3
		c-0.1-0.1-0.1-0.1-0.2-0.1l-0.1,0l0,0c-0.5,0.4-0.9,0.8-1.3,1.3l-0.2,0.4c-0.2,0.1-0.4,0.1-0.6,0.2c0.5-0.5,1-1.1,1.3-1.6
		c0-0.1,0-0.2,0-0.3c0-0.1-0.1-0.1-0.2-0.1l-0.1,0l0,0c-1,0.7-1.7,1.6-2.1,2.2c-0.4,0.1-0.7,0.1-1.1,0.1c0.6-0.5,1.2-1.1,1.6-1.8
		c0-0.1,0-0.2,0-0.3c-0.1-0.1-0.1-0.1-0.2-0.1l-0.1,0l0,0c-0.4,0.2-0.8,0.6-1.2,1c-0.1,0-0.1-0.1-0.2-0.1c0,0,0,0,0,0
		c-0.5,0-0.9,0.2-1.4,0.5c0.4-0.3,0.8-0.7,1.1-1.2c0.1-0.1,0.1-0.2,0-0.3c-0.1-0.1-0.1-0.2-0.3-0.2c0,0-0.1,0-0.1,0
		c-0.6,0.2-1,0.6-1.5,1c-0.2,0.1-0.2,0.3-0.1,0.5c0.1,0.2,0.3,0.4,0.5,0.4c0.1,0,0.2,0,0.3-0.1c-0.2,0.1-0.3,0.3-0.2,0.5
		c0,0.1,0.1,0.2,0.2,0.3c-1.1,0-2.2-0.2-3.3-0.5c1-0.7,2-1.5,2.7-2.5c0.1-0.1,0.1-0.2,0-0.3c-0.1-0.1-0.2-0.2-0.4-0.2l-0.1,0l0,0
		c-1.3,0.6-2.5,1.7-3.4,2.6c0,0-0.1,0.1-0.1,0.1c-0.4-0.1-0.7-0.3-1.1-0.4l0.3-0.3c1-0.9,2-1.8,2.8-2.9c0.1-0.1,0.1-0.2,0-0.3
		c-0.1-0.1-0.2-0.2-0.3-0.2l-0.1,0l0,0c-1.1,0.7-2.1,1.7-3,2.6L92.8,94c-2.7-1.4-5.3-3.7-7.8-6.7l0.9-0.7c1.7-1.2,3.4-2.5,4.9-4
		c0.1-0.1,0.1-0.2,0.1-0.3c0-0.1-0.2-0.2-0.3-0.2l-0.1,0l0,0c-1.8,1.1-3.4,2.4-5,3.7l-0.9,0.7c-0.8-1.1-1.6-2.2-2.3-3.5
		c2.5-1.7,4.5-3.3,6-4.9c0.1-0.1,0.1-0.2,0.1-0.3c-0.1-0.1-0.2-0.2-0.3-0.2l-0.1,0l0,0c-1.8,1.1-3.8,2.6-6.1,4.6
		c-0.6-1.1-1.3-2.3-1.9-3.5c2-1.3,4.1-2.7,6-4.4c0.1-0.1,0.1-0.2,0.1-0.3c0-0.1-0.2-0.2-0.3-0.2l-0.1,0l0,0
		c-2.2,1.1-4.2,2.5-6.1,3.9c-0.3-0.7-0.6-1.3-0.9-1.9c0,0,0,0,0,0c0.1,0,0.2,0,0.3-0.1c2-1.2,4.1-2.5,5.8-4.2
		c0.1-0.1,0.1-0.2,0.1-0.3c-0.1-0.1-0.2-0.2-0.3-0.2l-0.1,0l0,0c-2.2,1-4.3,2.4-6,3.8c-0.1,0-0.1,0.1-0.2,0.2
		c-2.2-5.1-3.8-10.4-4.8-16.4C75,58,77.2,56.9,79,55.4z M123.9,68.5c0.1-0.3,0.1-0.6,0.2-0.8c0.1,0.2,0.3,0.3,0.5,0.3
		c0.1,0,0.3-0.1,0.4-0.2c0.6-0.6,1.1-1.1,1.5-1.8c0.1-0.1,0.1-0.3,0-0.4c-0.1-0.1-0.2-0.2-0.3-0.2c-0.1,0-0.1,0-0.2,0.1
		c-0.7,0.4-1.2,0.9-1.7,1.4c0.1-0.6,0.3-1.2,0.4-1.9c0.1,0.1,0.2,0.1,0.3,0.1c0.1,0,0.3-0.1,0.4-0.2l0.2-0.2
		c0.8-0.8,1.6-1.5,2.1-2.5c0.1-0.1,0.1-0.2,0-0.3c-0.1-0.1-0.2-0.2-0.3-0.2l-0.1,0l0,0c-0.5,0.3-0.9,0.7-1.4,1.1
		c0.3-0.7,0.8-1.1,1.4-1.5c0.1-0.1,0.1-0.2,0.1-0.3c0-0.1-0.2-0.2-0.4-0.2c0,0,0,0,0,0c-0.7,0.1-1.3,0.6-1.7,1.3
		c0.1-0.4,0.1-0.7,0.2-1.1c0,0,0,0,0.1,0c0.1,0,0.2,0,0.3-0.1l0.4-0.3c0.5-0.4,1-0.9,1.4-1.4c0.1-0.1,0.1-0.2,0-0.3
		c-0.1-0.1-0.2-0.2-0.3-0.2l-0.1,0l0,0c-0.6,0.3-1.1,0.7-1.5,1.1c0-0.3,0.1-1.1,0.1-1.1c0.1,0,0.2,0.1,0.3,0.1c0,0,0,0,0,0
		c0.5-0.1,1-0.4,1.3-0.8c0.1-0.1,0.1-0.3,0.1-0.4c-0.1-0.1-0.2-0.2-0.3-0.2c0,0,0,0,0,0c-0.5,0-0.9,0.2-1.4,0.5l0-0.1
		c0.4-0.4,0.8-0.9,1.2-1.4l0-0.2l0-0.1c0-0.1-0.1-0.1-0.2-0.1l-0.1,0l0,0c-0.2,0.2-0.5,0.3-0.7,0.5c0-0.2,0-0.3,0-0.5l-0.1-0.3
		c0.4-0.2,0.7-0.6,1.1-1.1c0.1-0.1,0.1-0.2,0-0.3c0-0.1-0.1-0.2-0.3-0.2c0,0,0,0-0.1,0c-0.2,0.1-0.4,0.2-0.7,0.3c0-0.6,0-1.3,0-1.9
		c1.1-0.7,2.2-1,3.1-1c1.3,0,2.3,0.8,2.8,2.2c0.8,2.3,0.3,5.4-0.4,7.3c-1.4,3.7-3.9,5.2-6.9,6.9L123.9,68.5z M125,63.1
		c0.1,0.1,0.2,0.2,0.4,0.2c0,0,0.1,0,0.1,0c-0.2,0.2-0.5,0.4-0.7,0.6C124.9,63.6,124.9,63.3,125,63.1z M116.3,87.4
		c-0.1,2-0.2,4.2,0,6.3c0,0.1,0.1,0.2,0.1,0.2c-0.2,0.9-0.2,1.9-0.2,2.9l0,0.3c0,0.7-0.1,1.4-0.1,2c-1.1,1.1-2,2.3-2.9,3.4
		c-1.2,1.5-2.4,3.1-3.9,4.3c-2,1.6-4.1,2.6-6.3,3.6c-1.1,0.5-2.2,1-3.4,1.7c-0.1-0.3-0.3-0.5-0.7-0.6c-3.9-0.8-7.2-2.2-10.2-4.2
		c-1-0.7-2-1.5-3.1-2.6c2.8-1.9,5.5-4.3,8-6.5c0.7-0.6,1.3-1.2,2-1.8c0.3,0.1,0.6,0.2,0.9,0.2c-2.5,1.8-4.2,3.6-5.3,5.3
		c-0.1,0.1-0.1,0.2,0,0.3c0.1,0.1,0.1,0.1,0.2,0.1l0.1,0l0,0c0.7-0.5,1.4-1.2,2-1.8c0.4-0.3,0.7-0.7,1.1-1c0.7-0.7,1.5-1.3,2.3-1.9
		l0.8-0.7c0.5,0.1,1,0.1,1.5,0.1c-0.3,0.3-0.6,0.6-0.8,0.9c-0.2,0.2-0.4,0.4-0.5,0.6c-0.2,0.2-0.4,0.4-0.6,0.5
		c-0.7,0.6-1.3,1.3-1.8,2c-0.1,0.1-0.1,0.2,0,0.3c0.1,0.1,0.2,0.2,0.3,0.2l0.1,0l0,0c0.8-0.5,1.4-1.2,2.1-1.8
		c0.2-0.2,0.4-0.4,0.5-0.5c0.2-0.2,0.4-0.3,0.6-0.5c0.5-0.5,1.1-1,1.4-1.6c3.1-0.1,5.9-1.1,8.4-2.9c2.7-1.9,5.2-4.5,7.3-7.8
		C116.4,86.5,116.3,87.4,116.3,87.4z M87.2,100.4c0.5-0.4,0.9-0.7,1.4-1.1l0.9-0.6c1.3-1,2.7-1.9,3.9-3c0.3,0.1,0.7,0.3,1,0.4
		c-0.5,0.4-1.1,0.8-1.6,1.3c-2.7,2.1-5.5,4.3-7.8,6.8c-0.4-0.4-0.9-0.9-1.3-1.3C84.9,102.2,86.1,101.3,87.2,100.4z M87.8,92.3
		c0.2,0.2,0.5,0.4,0.7,0.6c0,0,0.1,0.1,0.1,0.1c-0.8,0.3-1.5,0.8-2.2,1.3L86,94.6c-0.9,0.6-1.8,1.2-2.7,1.9c0-0.2,0-0.4,0-0.5
		c0.1-0.3,0.2-0.7,0.2-0.9c0.2-0.2,0.5-0.3,0.7-0.5c0.3-0.2,0.6-0.5,0.9-0.6c0.8-0.5,1.7-1,2.5-1.3C87.8,92.6,87.9,92.5,87.8,92.3
		C87.9,92.3,87.9,92.3,87.8,92.3z M87.6,92.1L87.6,92.1c-1.2,0.2-2.8,0.5-3.9,1.4c0-0.3,0-0.5,0-0.7c0.3-0.2,0.6-0.3,0.9-0.5
		c0.3-0.1,0.6-0.3,0.9-0.4c0.3-0.1,0.6-0.2,0.8-0.4l0.1-0.2l0-0.1c0-0.1-0.1-0.2-0.3-0.2c-0.8,0-1.6,0.3-2.3,0.7c0-0.2,0-0.5,0-0.7
		c0-0.4,0.1-0.8,0.1-1.2l0.6-0.2c0.2-0.1,0.4-0.1,0.5-0.2C85.9,90.5,86.8,91.4,87.6,92.1C87.7,92.1,87.6,92.1,87.6,92.1z M84.1,89.1
		c0-0.2,0-0.4,0-0.7c0.1,0.2,0.3,0.3,0.4,0.5C84.4,88.9,84.1,89.1,84.1,89.1z M83,98.8c0.1-0.5,0.2-0.9,0.2-1.3
		c0.6-0.4,1.2-0.7,1.8-1.1c0.5-0.3,1-0.6,1.5-0.9c0.3-0.2,0.6-0.3,1-0.5c0.7-0.4,1.5-0.8,2.1-1.3c0.3,0.2,0.7,0.5,1,0.7
		c-3,1.6-5.7,3.5-7.8,5.5C82.8,99.4,82.9,99.1,83,98.8z M92.2,95.2c-1.3,0.9-2.5,1.8-3.7,2.7l-1.2,0.9c-0.4,0.3-0.8,0.6-1.2,0.9
		c-1.1,0.8-2.1,1.5-3.1,2.4c-0.3-0.3-0.6-0.7-0.8-1c1.4-0.9,2.8-1.8,4.1-2.8c1.7-1.2,3.5-2.4,5.3-3.5C91.8,95,92,95.1,92.2,95.2z"/>
	<path class="st0" d="M84.5,134.1l0.1,0l0,0c1.1-0.5,2.1-1.2,3-1.9l0.7-0.5c0.2-0.1,0.4-0.3,0.6-0.4c0.8-0.5,1.7-1.1,2.2-1.9
		c0.1-0.1,0.1-0.2,0-0.3c-0.1-0.1-0.2-0.2-0.4-0.2c0,0,0,0,0,0c-1,0.3-1.9,0.9-2.7,1.6c-0.2,0.2-0.4,0.3-0.7,0.5l-0.6,0.4
		c-0.9,0.6-1.8,1.2-2.5,2c-0.1,0.1-0.1,0.3-0.1,0.4C84.2,134,84.3,134.1,84.5,134.1z"/>
	<path class="st0" d="M91,131.9l-0.1,0l0,0c-1.9,0.9-3.6,2-5.2,3.2c-0.1,0.1-0.2,0.3-0.1,0.4c0.1,0.2,0.2,0.3,0.4,0.3
		c0.1,0,0.1,0,0.2,0c1.7-0.9,3.3-2,5-3.3c0.1-0.1,0.1-0.2,0.1-0.3C91.3,132,91.2,131.9,91,131.9z"/>
	<path class="st0" d="M112.2,125.9c-0.1-0.1-0.2-0.2-0.3-0.2l-0.1,0l0,0c-0.8,0.3-1.4,0.8-2.1,1.3l-0.6,0.4
		c-0.6,0.4-1.1,0.8-1.5,1.3c-0.1,0.1-0.1,0.2,0,0.4c0.1,0.1,0.2,0.2,0.3,0.2l0.1,0c0.6-0.2,1.2-0.6,1.8-1l0.7-0.5
		c0.6-0.4,1.2-0.9,1.7-1.4C112.2,126.3,112.3,126.1,112.2,125.9z"/>
	<path class="st0" d="M112.2,128.6c0.1,0.2,0.2,0.3,0.4,0.3c0.1,0,0.1,0,0.2,0c2.1-1.1,4.4-2.7,6.2-4.4c0.1-0.1,0.1-0.2,0.1-0.3
		c-0.1-0.1-0.2-0.2-0.3-0.2l-0.1,0l0,0c-2.2,1.1-4.5,2.7-6.3,4.3C112.2,128.3,112.1,128.4,112.2,128.6z"/>
	<path class="st0" d="M54.3,140.4L54.3,140.4c1.5-0.6,2.9-1.5,4.2-2.3l0.9-0.6c1.2-0.8,2.5-1.7,3.5-2.8c0-0.1,0.1-0.1,0-0.2
		l-0.2-0.1h-0.1c-1.1,0.5-2.1,1.2-3.1,1.9c-0.5,0.3-0.9,0.7-1.4,1c-0.4,0.3-0.9,0.6-1.3,0.8c-0.9,0.5-1.8,1.1-2.7,1.8
		c-0.1,0.1-0.1,0.2-0.1,0.3C54,140.3,54.2,140.4,54.3,140.4z"/>
	<path class="st0" d="M64.8,172.8c0.1,0,0.2,0,0.2-0.1c0.7-0.4,1.3-0.9,1.9-1.3l0.2-0.2c0.5-0.4,1.1-0.8,1.5-1.4
		c0.1-0.1,0.1-0.2,0-0.3c-0.1-0.1-0.2-0.2-0.3-0.2c0,0,0,0-0.1,0c-0.7,0.2-1.3,0.7-2,1.2l-0.3,0.2c-0.5,0.4-1.1,0.8-1.6,1.2
		c-0.1,0.1-0.2,0.3-0.1,0.5C64.4,172.7,64.6,172.8,64.8,172.8z"/>
	<path class="st0" d="M67.6,177.4c0.1,0,0.2,0,0.2-0.1c1.6-0.9,2.8-1.8,3.6-2.8c0.1-0.1,0.1-0.3,0-0.4c-0.1-0.1-0.2-0.2-0.3-0.2
		l-0.1,0l0,0c-1.2,0.5-2.5,1.4-3.8,2.6c-0.1,0.1-0.2,0.3-0.1,0.5C67.2,177.2,67.4,177.4,67.6,177.4z"/>
	<path class="st0" d="M78,194.9c0.1,0,0.2,0,0.3-0.1l0.7-0.5c1.2-0.9,2.7-1.8,3.5-3.1c0.1-0.1,0.1-0.2,0-0.3c0-0.1-0.1-0.2-0.3-0.2
		c0,0,0,0-0.1,0c-1.4,0.5-2.7,1.6-3.9,2.6l-0.6,0.5c-0.2,0.1-0.2,0.3-0.1,0.5C77.6,194.7,77.8,194.9,78,194.9z"/>
	<path class="st0" d="M86.5,137.4c-0.1,0.1-0.2,0.2-0.1,0.3c0,0.1,0.1,0.2,0.3,0.2l0.1,0c0.5-0.2,0.9-0.4,1.4-0.6
		c1.3-0.6,2.6-1.1,3.8-1.8c0.1-0.1,0.1-0.2,0.1-0.3c0-0.1-0.1-0.2-0.3-0.2c0,0,0,0,0,0c-1.3,0.5-2.6,1.1-3.9,1.7
		C87.4,136.9,87,137.1,86.5,137.4z"/>
	<path class="st0" d="M85.8,144.6c0.1,0.2,0.2,0.3,0.4,0.3c0.1,0,0.1,0,0.2,0c1.5-0.6,3-1.3,4.1-2.4c0.1-0.1,0.1-0.2,0.1-0.3
		c0-0.1-0.2-0.2-0.3-0.2c0,0,0,0,0,0c-1.5,0.3-3,1.2-4.2,2.1C85.8,144.2,85.7,144.4,85.8,144.6z"/>
	<path class="st0" d="M116.3,145.8c-0.1,0.1-0.1,0.3,0,0.4c0.1,0.1,0.2,0.2,0.3,0.2l0.1,0l0,0c1.7-0.7,3.1-2,4.5-3.2
		c0.4-0.4,0.8-0.7,1.2-1.1c0.1-0.1,0.1-0.2,0.1-0.4c-0.1-0.2-0.2-0.3-0.4-0.3l-0.2,0l0,0c-0.4,0.3-0.9,0.6-1.4,0.9
		C119,143.4,117.4,144.4,116.3,145.8z"/>
	<path class="st0" d="M36.3,186.4l-0.1,0l0,0c-1.7,0.9-3.4,1.9-5,2.9c-1.6,1-3.2,1.9-4.9,2.8c-0.2,0.1-0.3,0.3-0.3,0.6
		c0.1,0.3,0.3,0.5,0.6,0.5c0.1,0,0.2,0,0.2-0.1c4.1-1.8,7.4-3.9,9.8-6.2c0.1-0.1,0.1-0.2,0.1-0.4C36.5,186.5,36.4,186.4,36.3,186.4z
		"/>
	<path class="st0" d="M57.8,189.4c0-0.1-0.1-0.2-0.3-0.2c0,0,0,0-0.1,0c-2.1,0.8-4.2,1.9-6.1,3l-1.2,0.7c-0.2,0.1-0.3,0.3-0.2,0.5
		c0.1,0.2,0.2,0.4,0.5,0.4c0.1,0,0.1,0,0.2-0.1l1.3-0.6c2-1,4.1-2,5.9-3.3C57.8,189.7,57.8,189.6,57.8,189.4z"/>
	<path class="st0" d="M57.3,192.3c-1.5,0.4-3,1.1-4.4,1.8c-0.7,0.3-1.3,0.6-2,0.9c-0.2,0.1-0.3,0.3-0.3,0.6c0.1,0.2,0.3,0.5,0.6,0.5
		c0.1,0,0.2,0,0.3-0.1c0.6-0.3,1.3-0.6,2-0.9c1.4-0.6,2.9-1.3,4.2-2.2c0.1-0.1,0.2-0.3,0.1-0.4C57.6,192.4,57.5,192.3,57.3,192.3
		C57.3,192.3,57.3,192.3,57.3,192.3z"/>
	<path class="st0" d="M149.2,180.9C149.2,180.9,149.2,180.9,149.2,180.9c-1.4,0.2-3.1,0.9-3.8,2.4c0,0.1,0,0.2,0,0.3
		c0,0.1,0.1,0.1,0.2,0.1l0.1,0l0,0c0.2-0.2,0.4-0.3,0.5-0.5c0.3-0.3,0.7-0.6,1.1-0.9c0.6-0.4,1.2-0.6,1.9-0.8c0.1,0,0.2-0.1,0.2-0.3
		C149.5,181,149.4,180.9,149.2,180.9z"/>
	<path class="st0" d="M118.8,173.4c0.2-0.3,0.5-0.5,0.7-0.8c0.9-0.9,1.7-1.9,2.4-2.9c0.1-0.1,0.1-0.2,0-0.3
		c-0.1-0.1-0.2-0.2-0.3-0.2c-0.1,0-0.2,0-0.2,0.1c-0.9,0.8-1.8,1.8-2.6,2.7c-0.2,0.3-0.5,0.6-0.7,0.8c-0.1,0.1-0.1,0.3-0.1,0.5
		c0.1,0.2,0.2,0.3,0.4,0.3C118.6,173.6,118.7,173.5,118.8,173.4z"/>
	<path class="st0" d="M103.3,96.8C103.2,96.8,103.2,96.8,103.3,96.8c-0.7,0.2-1.1,0.7-1.6,1.1c-0.1,0.1-0.3,0.2-0.4,0.4l-0.5,0.4
		c-0.6,0.5-1.1,1-1.6,1.6c-0.1,0.1-0.1,0.3,0,0.4c0.1,0.1,0.2,0.2,0.3,0.2l0.2,0l0,0c0.6-0.4,1.2-0.9,1.7-1.4l0.3-0.3
		c0.2-0.1,0.3-0.3,0.5-0.4c0.5-0.4,1.1-0.9,1.4-1.5c0.1-0.1,0-0.2,0-0.3C103.5,96.8,103.4,96.8,103.3,96.8z"/>
	<path class="st0" d="M71,57.2l-0.1,0l0,0c-0.8,0.4-1.6,0.9-2.3,1.5c-0.4,0.3-0.8,0.6-1.2,0.8c-0.1,0.1-0.2,0.2-0.1,0.3
		c0,0.1,0.2,0.2,0.3,0.2l0.1,0c1.3-0.2,3-1,3.8-2.5c0-0.1,0-0.2,0-0.3C71.2,57.3,71.1,57.2,71,57.2z"/>
	<path class="st0" d="M74.5,60.2L74.5,60.2c1.9-0.8,3.4-1.5,4.7-2.4c0.1-0.1,0.2-0.2,0.1-0.4c0-0.1-0.1-0.2-0.3-0.2c0,0,0,0-0.1,0
		c-1.5,0.5-3.1,1.2-4.8,2.1c-0.2,0.1-0.3,0.3-0.2,0.5c0.1,0.2,0.2,0.4,0.4,0.4L74.5,60.2z"/>
	<path class="st0" d="M79.6,59.7c0-0.1-0.1-0.2-0.3-0.2c0,0-0.1,0-0.1,0c-1.8,0.8-3.5,1.7-4.9,2.8c-0.1,0.1-0.2,0.3-0.1,0.4
		c0,0.1,0.2,0.2,0.3,0.2l0.1,0l0,0c1.6-0.7,3.2-1.7,4.8-2.9C79.6,59.9,79.7,59.8,79.6,59.7z"/>
	<path class="st0" d="M80.3,61.6c0-0.1-0.1-0.2-0.3-0.2c0,0,0,0-0.1,0c-1.6,0.6-3.2,1.5-4.9,2.5c-0.2,0.1-0.3,0.3-0.2,0.5
		c0.1,0.2,0.2,0.3,0.4,0.3c0.1,0,0.1,0,0.2-0.1c1.8-0.9,3.4-1.8,4.7-2.8C80.3,61.9,80.3,61.8,80.3,61.6z"/>
	<path class="st0" d="M80,64.3c0-0.1-0.1-0.2-0.3-0.2l-0.1,0l0,0c-1.3,0.8-2.6,1.8-3.9,2.7c-0.1,0.1-0.2,0.3-0.1,0.5
		c0.1,0.2,0.2,0.3,0.4,0.3c0.1,0,0.2,0,0.2-0.1c1.2-0.9,2.6-1.8,3.8-3C80.1,64.5,80.1,64.4,80,64.3z"/>
	<path class="st0" d="M81.6,65.6c0-0.1-0.2-0.2-0.3-0.2l-0.1,0l0,0c-1.5,0.8-2.9,1.7-4.5,2.9c-0.2,0.1-0.2,0.3-0.2,0.5
		c0.1,0.2,0.2,0.3,0.4,0.3c0.1,0,0.2,0,0.2-0.1c1.5-0.9,3-2,4.4-3.2C81.7,65.8,81.7,65.7,81.6,65.6z"/>
	<path class="st0" d="M83.2,66.7c0.1-0.1,0.1-0.2,0.1-0.3c0-0.1-0.1-0.2-0.2-0.2l-0.1,0l0,0c-1.5,1.1-3,2.3-4.3,3.5
		c-0.4,0.3-0.8,0.7-1.2,1c-0.1,0.1-0.2,0.2-0.1,0.4c0.1,0.1,0.2,0.3,0.4,0.3c0.1,0,0.2,0,0.2-0.1c0.4-0.3,0.8-0.7,1.2-1
		C80.5,69.3,81.9,68.1,83.2,66.7z"/>
	<path class="st0" d="M78.2,73.4c0.1,0.2,0.3,0.3,0.5,0.3c0.1,0,0.2,0,0.2-0.1c2-1.3,3.7-2.5,5.1-4.1c0.1-0.1,0.1-0.2,0.1-0.3
		c0-0.1-0.2-0.2-0.3-0.2l-0.1,0l0,0c-1.9,0.9-3.5,2.3-5.4,3.8C78.2,73,78.1,73.2,78.2,73.4z"/>
	<path class="st0" d="M85.9,76.4c-0.8,0.4-1.6,0.9-2.4,1.6l-0.3,0.2c-0.6,0.4-1.3,0.9-1.8,1.4c-0.1,0.1-0.2,0.3-0.1,0.5
		c0.1,0.2,0.2,0.3,0.4,0.3c0.1,0,0.1,0,0.2-0.1c0.7-0.3,1.3-0.8,1.8-1.3l0.3-0.3c0.7-0.6,1.5-1.2,2.2-1.9c0.1-0.1,0.1-0.2,0.1-0.3
		c0-0.1-0.2-0.2-0.3-0.2L85.9,76.4L85.9,76.4z"/>
	<path class="st0" d="M83.9,84.1c0.1,0.2,0.3,0.4,0.5,0.4c0.1,0,0.2,0,0.3-0.1c1.9-1.4,3.3-2.6,4.6-3.8c0.1-0.1,0.1-0.2,0.1-0.3
		c0-0.1-0.1-0.2-0.3-0.2l-0.1,0l0,0c-1.5,0.9-2.9,2-4.8,3.5C83.9,83.7,83.8,83.9,83.9,84.1z"/>
	<path class="st0" d="M86.9,87.6c0.1,0.2,0.3,0.4,0.5,0.4c0.1,0,0.2,0,0.3-0.1c1.6-1.1,3.2-2.4,4.5-3.9c0.1-0.1,0.1-0.2,0.1-0.3
		c-0.1-0.1-0.2-0.2-0.3-0.2l-0.1,0l0,0c-1.7,1-3.4,2.2-4.8,3.5C86.9,87.2,86.9,87.4,86.9,87.6z"/>
	<path class="st0" d="M88.6,88.8c0.1,0.2,0.2,0.3,0.4,0.3c0.1,0,0.2,0,0.2-0.1c1.6-1.1,3.2-2.3,4.6-3.8c0.1-0.1,0.1-0.2,0.1-0.3
		c0-0.1-0.2-0.2-0.3-0.2l-0.1,0l0,0c-1.8,1-3.4,2.3-4.8,3.5C88.6,88.4,88.5,88.6,88.6,88.8z"/>
	<path class="st0" d="M89.8,90.4c0.1,0.2,0.3,0.3,0.4,0.3c0.1,0,0.2,0,0.3-0.1c1.4-1,2.9-2,4-3.3c0.1-0.1,0.1-0.2,0.1-0.4
		c-0.1-0.1-0.2-0.2-0.3-0.2l-0.1,0l0,0c-1.5,0.8-2.9,2-4.2,3.2C89.8,90,89.7,90.2,89.8,90.4z"/>
	<path class="st0" d="M91.2,92.2c0.1,0.2,0.3,0.3,0.4,0.3c0.1,0,0.2,0,0.2-0.1c1.2-0.8,2.9-2.1,4.2-3.6c0.1-0.1,0.1-0.3,0.1-0.4
		c-0.1-0.1-0.2-0.2-0.3-0.2l-0.1,0l0,0c-1.8,1-3.4,2.4-4.4,3.4C91.2,91.9,91.1,92.1,91.2,92.2z"/>
	<path class="st0" d="M68.5,29.4c-0.1-0.1-0.2-0.2-0.3-0.2l-0.1,0l0,0c-1.1,0.5-2.2,1.2-3.2,1.8l-0.1,0.1c-0.2,0.1-0.2,0.3-0.2,0.5
		c0.1,0.2,0.2,0.3,0.4,0.3c0.1,0,0.2,0,0.2-0.1l0.1-0.1c1.1-0.6,2.1-1.3,3.1-2.1C68.5,29.6,68.5,29.5,68.5,29.4z"/>
	<path class="st0" d="M65.2,34.4c0.1,0,0.2,0,0.2-0.1l0.6-0.4c0.7-0.4,1.4-0.8,2-1.4c0.1-0.1,0.1-0.2,0.1-0.3c0-0.1-0.1-0.2-0.3-0.2
		c0,0,0,0-0.1,0c-0.8,0.3-1.5,0.7-2.2,1.1l-0.6,0.3c-0.2,0.1-0.3,0.3-0.2,0.5C64.8,34.2,65,34.4,65.2,34.4z"/>
	<path class="st0" d="M64.7,36.6c0.1,0.2,0.3,0.3,0.5,0.3c0.1,0,0.2,0,0.3-0.1l0.4-0.3c0.8-0.7,1.6-1.4,2.3-2.2
		c0.1-0.1,0.1-0.3,0-0.4c-0.1-0.1-0.2-0.2-0.3-0.2l-0.1,0l0,0c-0.9,0.5-1.7,1.3-2.5,2l-0.4,0.4C64.7,36.2,64.6,36.4,64.7,36.6z"/>
	<path class="st0" d="M69.9,37.7c0.1-0.1,0.1-0.2,0-0.3c-0.1-0.1-0.2-0.2-0.3-0.2l-0.1,0l0,0c-1.2,0.8-2.3,1.8-3.4,2.7l-0.6,0.6
		c-0.2,0.2-0.2,0.4-0.1,0.6c0.1,0.2,0.3,0.4,0.5,0.4c0.1,0,0.3,0,0.4-0.1l0.6-0.5C67.8,39.8,69,38.8,69.9,37.7z"/>
	<path class="st0" d="M66.6,43.9c0.1,0,0.2,0,0.3-0.1c1.2-0.9,2.7-2.1,3.9-3.5c0.1-0.1,0.1-0.2,0.1-0.4c-0.1-0.1-0.2-0.2-0.3-0.2
		l-0.1,0l0,0c-1.6,0.9-3,2.1-4.2,3.1c-0.2,0.1-0.2,0.3-0.1,0.6C66.2,43.7,66.4,43.9,66.6,43.9z"/>
	<path class="st0" d="M70.9,45.8C70.9,45.8,70.9,45.8,70.9,45.8c-0.9,0.2-1.8,0.7-2.7,1.3c-0.2,0.1-0.2,0.3-0.1,0.5
		c0.1,0.2,0.3,0.4,0.5,0.4l0.1,0c1-0.3,1.9-0.9,2.5-1.5c0.1-0.1,0.1-0.3,0.1-0.4C71.3,45.9,71.2,45.8,70.9,45.8z"/>
	<path class="st0" d="M79.3,18.7L79.3,18.7c-0.3,0.2-0.6,0.5-0.9,0.7c-0.2,0.2-0.3,0.3-0.5,0.5c-0.5,0.4-1,0.8-1.7,1.2
		c-0.1,0.1-0.2,0.2-0.1,0.4c0,0.1,0.2,0.2,0.3,0.2l0.1,0c1.2-0.4,2.7-1.4,3.2-2.6c0-0.1,0-0.2,0-0.3c-0.1-0.1-0.2-0.2-0.3-0.2
		L79.3,18.7z"/>
	<path class="st0" d="M102.7,31.1l-0.1,0c-0.8,0.3-1.5,0.7-2,1.1c-0.2,0.2-0.3,0.4-0.3,0.7c0.1,0.3,0.3,0.5,0.6,0.5
		c0.1,0,0.2,0,0.3-0.1c0.7-0.5,1.3-0.9,1.8-1.5c0.1-0.1,0.1-0.3,0.1-0.5C103,31.2,102.9,31.1,102.7,31.1z"/>
	<path class="st0" d="M107.5,32.1l-0.1,0l0,0c-0.9,0.5-1.7,1-2.3,1.7c-0.2,0.2-0.2,0.4-0.1,0.7c0.1,0.2,0.3,0.4,0.5,0.4
		c0.1,0,0.2,0,0.3-0.1c0.8-0.6,1.4-1.3,2-2.2c0.1-0.1,0.1-0.2,0-0.3C107.7,32.2,107.6,32.1,107.5,32.1z"/>
	<path class="st0" d="M110.2,33.1C110.2,33.1,110.2,33.1,110.2,33.1c-0.7,0.1-1.3,0.3-2,0.6c-0.3,0.1-0.4,0.3-0.3,0.6
		c0.1,0.3,0.3,0.5,0.6,0.5c0.1,0,0.2,0,0.3-0.1c0.6-0.3,1.2-0.6,1.7-1.1c0.1-0.1,0.1-0.2,0.1-0.3C110.6,33.2,110.4,33.1,110.2,33.1z
		"/>
	<path class="st0" d="M73.6,170l-0.1,0l0,0c-0.2,0.2-0.4,0.3-0.5,0.6c-0.1,0.1-0.1,0.3,0,0.4c0.1,0.2,0.3,0.3,0.5,0.3
		c0.2,0,0.3-0.1,0.4-0.3c0.1-0.3,0.2-0.5,0.2-0.8c0-0.1,0-0.2-0.1-0.2C73.8,170,73.7,170,73.6,170z"/>
	<path class="st0" d="M84.8,121.5C84.8,121.5,84.8,121.5,84.8,121.5c-1.1,0.4-1.8,1.1-2.2,2.1c0,0.1,0,0.3,0,0.4
		c0.1,0.1,0.2,0.2,0.4,0.2c0.2,0,0.3-0.1,0.4-0.2c0.4-0.8,1-1.5,1.6-2c0.1-0.1,0.1-0.2,0.1-0.3C85,121.5,85,121.5,84.8,121.5z"/>
	<path class="st0" d="M86.6,123.8l-0.2,0l0,0c-0.8,0.6-1.4,1.4-1.8,2.2c-0.1,0.2-0.1,0.3,0,0.5c0.1,0.2,0.3,0.3,0.4,0.3
		c0.1,0,0.2-0.1,0.3-0.2c0.6-0.7,1.1-1.5,1.5-2.4c0-0.1,0-0.2,0-0.3C86.8,123.9,86.7,123.8,86.6,123.8z"/>
</g>
</svg>
